<svg width="500" height="200" viewBox="0 0 500 200" fill="none" xmlns="http://www.w3.org/2000/svg">
    <rect width="500" height="200" fill="#FFF4E8"/>
    <g clip-path="url(#clip0_209_132)">
        <path
            d="M298.924 115.123C299.595 114.471 300.206 113.761 300.75 113.001C308.176 102.977 311.909 90.6954 311.318 78.2351C311.145 74.8002 310.581 71.2371 308.581 68.443C307.325 66.6808 305.127 65.2325 303.083 65.9245C302.16 66.2385 301.417 66.9371 300.75 67.6483C297.684 70.9346 295.449 74.9075 294.233 79.2347C294.15 79.5359 294.009 79.8308 293.906 80.1254"
            fill="#FFE69F"/>
        <path
            d="M298.925 115.617C299.049 115.618 299.169 115.57 299.258 115.482C299.95 114.812 300.581 114.081 301.142 113.297C308.55 103.37 312.434 90.5793 311.806 78.2111C311.652 75.1543 311.19 71.2515 308.979 68.1563C307.621 66.253 305.218 64.683 302.917 65.4583C301.891 65.8044 301.091 66.5541 300.386 67.3167C297.268 70.6605 294.994 74.7011 293.753 79.1018C293.708 79.2555 293.644 79.4157 293.58 79.5823C293.529 79.7105 293.477 79.8387 293.433 79.9669C293.411 80.0285 293.401 80.0939 293.405 80.1592C293.409 80.2245 293.425 80.2884 293.454 80.3473C293.482 80.4062 293.522 80.4589 293.571 80.5022C293.62 80.5456 293.677 80.5789 293.739 80.6001C293.8 80.6213 293.866 80.63 293.931 80.6257C293.996 80.6214 294.06 80.6042 294.119 80.5751C294.177 80.546 294.23 80.5056 294.272 80.4562C294.315 80.4068 294.348 80.3493 294.368 80.2872C294.407 80.1719 294.452 80.0629 294.497 79.9476C294.576 79.7596 294.645 79.567 294.702 79.3708C295.901 75.1224 298.096 71.2209 301.104 67.9895C301.725 67.323 302.411 66.6694 303.231 66.3939C305.051 65.7787 307.025 67.1244 308.172 68.7329C310.236 71.6166 310.665 75.3399 310.819 78.2622C311.434 90.4062 307.621 102.96 300.348 112.707C299.822 113.441 299.232 114.127 298.586 114.758C298.49 114.847 298.434 114.971 298.429 115.102C298.424 115.233 298.472 115.36 298.561 115.457C298.606 115.506 298.662 115.546 298.724 115.573C298.785 115.601 298.852 115.615 298.919 115.617L298.925 115.617Z"
            fill="black"/>
        <path
            d="M296.539 82.2339L287.414 79.8633L225.201 85.8487L215.351 89.3794L208.052 99.8318L198.074 133.617L198.857 135.905H220.504L301.16 100.722L296.539 82.2339Z"
            fill="#FFE69F"/>
        <path
            d="M234.679 156.612C234.519 158.015 233.923 160.406 233.308 161.675C233.013 162.29 232.654 162.892 232.116 163.296C231.199 163.994 229.962 163.994 228.822 163.969C228.271 163.956 227.7 163.937 227.187 163.719C226.501 163.418 226.014 162.79 225.572 162.174C224.015 160.015 222.619 157.745 221.394 155.382C221.329 155.241 221.256 155.104 221.176 154.971C220.796 154.309 220.523 153.591 220.369 152.844"
            fill="#FF6B00"/>
        <path
            d="M280.058 153.682C279.429 155.322 278.904 156.706 278.276 158.347C277.847 159.475 276.808 161.891 276.065 162.839C274.937 164.281 274.61 163.941 272.784 163.929C272.419 163.929 271.149 163.832 270.823 163.685C270.047 163.333 269.669 162.468 269.394 161.66C268.785 159.865 268.375 158.008 268.17 156.124"
            fill="#FF6B00"/>
        <path
            d="M220.209 89.381C221.362 79.621 221.401 78.9225 224.137 69.4836C226.874 60.0447 231.276 50.9057 238.152 43.8814C240.806 41.1707 242.805 39.9595 244.683 39.1393C248.631 37.409 252.334 37.4666 255.468 37.5179C256.628 37.5372 260.127 37.6461 263.735 38.5625C274.353 41.273 281.217 49.8282 282.466 51.4304C287.016 57.2813 288.811 63.5231 292.406 76.0002C293.252 78.9416 293.867 81.4093 294.271 83.1199"
            fill="#FFE69F"/>
        <path
            d="M220.209 89.8742C220.33 89.8739 220.446 89.8293 220.536 89.749C220.626 89.6687 220.683 89.5582 220.696 89.4385L220.786 88.6558C221.843 79.6968 221.953 78.7612 224.606 69.6229C227.662 59.0683 232.341 50.5256 238.499 44.2329C241.287 41.3876 243.286 40.2917 244.875 39.5996C248.727 37.9143 252.296 37.9718 255.456 38.0169C257.09 38.0425 260.326 38.2091 263.607 39.0486C273.553 41.5864 280.256 49.4046 282.07 51.7372C286.562 57.5175 288.356 63.7401 291.926 76.1403C292.599 78.4793 293.227 80.8698 293.784 83.2345C293.816 83.3611 293.896 83.4702 294.007 83.5379C294.119 83.6057 294.252 83.6266 294.379 83.5962C294.506 83.5658 294.616 83.4864 294.684 83.3755C294.753 83.2645 294.775 83.131 294.746 83.0039C294.182 80.62 293.554 78.2169 292.874 75.8586C289.273 63.3358 287.465 57.05 282.851 51.1222C280.987 48.7258 274.104 40.6961 263.857 38.0814C260.473 37.2163 257.154 37.0432 255.475 37.0177C252.379 36.9664 248.528 36.9088 244.484 38.6839C242.805 39.4207 240.704 40.5686 237.8 43.5351C231.527 49.9433 226.765 58.6268 223.663 69.3417C220.991 78.5633 220.882 79.5053 219.812 88.5348L219.722 89.3175C219.707 89.4474 219.743 89.5782 219.824 89.6814C219.904 89.7846 220.022 89.8519 220.152 89.8686H220.209V89.8742Z"
            fill="black"/>
        <path
            d="M257.756 73.4098C257.43 74.0378 257.34 74.8388 257.718 75.4348C257.862 75.6614 258.064 75.8459 258.303 75.9696C258.541 76.0934 258.808 76.152 259.077 76.1397C259.345 76.1273 259.605 76.0444 259.832 75.8993C260.058 75.7542 260.242 75.552 260.365 75.3131C260.672 74.7108 260.55 73.9801 260.32 73.3458C259.653 71.5065 258.577 71.8326 257.756 73.4035V73.4098Z"
            fill="black"/>
        <path
            d="M257.557 75.5379C257.102 74.8137 257.275 73.923 257.583 73.3207C258.076 72.3722 258.659 71.8659 259.223 71.9044C259.582 71.9299 260.095 72.1863 260.493 73.2822C260.801 74.1345 260.813 74.8459 260.531 75.4042C260.391 75.6715 260.184 75.8978 259.93 76.0607C259.676 76.2237 259.384 76.3177 259.083 76.3335H259.006C258.716 76.3309 258.432 76.2564 258.178 76.1165C257.924 75.9767 257.709 75.776 257.551 75.5323L257.557 75.5379ZM257.922 73.5C257.66 74.0063 257.506 74.7497 257.878 75.3393C258.003 75.5384 258.179 75.7008 258.387 75.81C258.595 75.9191 258.829 75.9712 259.064 75.9607C259.299 75.9503 259.527 75.8778 259.725 75.7506C259.923 75.6234 260.084 75.4461 260.191 75.2367C260.428 74.7817 260.409 74.1665 260.133 73.4231C259.877 72.7182 259.543 72.3209 259.197 72.2952H259.165C258.774 72.2952 258.326 72.7311 257.922 73.5064L257.922 73.5Z"
            fill="black"/>
        <path
            d="M270.868 73.4117C270.541 74.0398 270.451 74.8407 270.829 75.4368C270.974 75.6634 271.175 75.8478 271.414 75.9716C271.653 76.0953 271.919 76.154 272.188 76.1416C272.456 76.1293 272.717 76.0464 272.943 75.9012C273.169 75.7561 273.353 75.5539 273.476 75.315C273.784 74.7127 273.662 73.9821 273.431 73.3477C272.765 71.5084 271.688 71.8346 270.868 73.4055V73.4117Z"
            fill="black"/>
        <path
            d="M270.669 75.5386C270.214 74.8145 270.387 73.9236 270.694 73.3213C271.188 72.3729 271.771 71.8603 272.335 71.905C272.693 71.9306 273.206 72.187 273.604 73.2829C273.912 74.1351 273.925 74.8465 273.643 75.4048C273.503 75.6721 273.296 75.8984 273.042 76.0614C272.788 76.2243 272.496 76.3183 272.194 76.3341H272.117C271.828 76.3316 271.543 76.257 271.289 76.1172C271.035 75.9774 270.82 75.7766 270.663 75.533L270.669 75.5386ZM271.034 73.5007C270.771 74.007 270.617 74.7503 270.989 75.3399C271.114 75.5391 271.29 75.7015 271.498 75.8106C271.707 75.9198 271.94 75.9718 272.175 75.9614C272.41 75.951 272.638 75.8785 272.836 75.7513C273.034 75.6241 273.195 75.4468 273.302 75.2373C273.539 74.7823 273.52 74.1671 273.244 73.4238C272.988 72.7188 272.655 72.3216 272.309 72.2959H272.277C271.886 72.2959 271.437 72.7315 271.027 73.5071L271.034 73.5007Z"
            fill="black"/>
        <path
            d="M260.692 81.794C262.108 81.4736 263.575 81.4094 265.036 81.3583C270.701 81.1597 276.379 81.2045 282.038 81.4865C285.261 81.6467 288.549 81.8966 291.516 83.0374C294.483 84.1782 297.116 86.357 297.822 89.1574C298.065 90.1251 298.059 91.176 297.591 92.0733C296.893 93.4125 295.31 94.1952 293.765 94.7264C288.939 96.3926 283.64 96.4831 278.468 96.5526C273.277 96.6231 268.035 96.6872 262.954 95.7259C259.545 95.0788 253.521 93.1692 252.727 89.5675C251.958 86.0686 257.495 82.5182 260.686 81.8006L260.692 81.794Z"
            fill="#FF6B00"/>
        <path
            d="M249.4 51.1988C246.644 51.0449 244.017 49.9175 242.197 48.1099C242.106 48.0168 242.056 47.8918 242.057 47.762C242.058 47.6321 242.109 47.5079 242.201 47.416C242.293 47.3242 242.417 47.2723 242.547 47.2714C242.677 47.2705 242.802 47.3208 242.895 47.4114C244.548 49.0518 246.939 50.0773 249.457 50.2182C251.796 50.3464 254.251 49.7568 256.539 48.5071C258.038 47.6933 259.07 46.7504 259.621 45.7069C258.994 45.3992 258.399 45.03 257.846 44.6047C257.339 44.2137 256.628 43.6049 256.263 42.7398C256.047 42.2888 256.017 41.7709 256.18 41.298C256.526 40.4264 257.602 40.15 258.435 40.3431C258.866 40.4493 259.27 40.6444 259.621 40.9158C259.972 41.1873 260.263 41.5291 260.474 41.9194C261.033 42.9109 261.182 44.0812 260.891 45.1813C262.956 45.9918 265.229 46.1132 267.369 45.5274C269.106 45.0404 270.458 44.1046 271.176 42.8998C271.996 41.5284 271.881 39.7469 270.907 38.7604C270.816 38.6673 270.766 38.5423 270.767 38.4125C270.768 38.2826 270.82 38.1584 270.912 38.0666C271.003 37.9747 271.128 37.9228 271.258 37.9219C271.387 37.921 271.512 37.9713 271.605 38.0619C272.881 39.3628 273.06 41.657 272.022 43.4001C271.176 44.8228 269.619 45.9121 267.632 46.4697C265.284 47.1103 262.791 46.9755 260.525 46.0852C259.884 47.3284 258.712 48.4306 257.007 49.3534C254.893 50.5379 252.516 51.1725 250.092 51.199C249.862 51.199 249.631 51.199 249.4 51.1797L249.4 51.1988ZM257.103 41.6559C257.042 41.8876 257.067 42.1332 257.173 42.348C257.378 42.8414 257.782 43.3028 258.448 43.809C258.928 44.1725 259.438 44.4941 259.973 44.7703C260.148 43.9652 260.023 43.1242 259.621 42.4048C259.478 42.1321 259.279 41.8924 259.037 41.7015C258.795 41.5105 258.516 41.3724 258.218 41.2962C258.115 41.2726 258.009 41.2618 257.904 41.2642C257.551 41.2642 257.205 41.3924 257.103 41.6552V41.6559Z"
            fill="#FF8800"/>
        <path
            d="M296.392 95.7969C297.636 102.032 298.365 108.36 298.57 114.715C298.82 122.424 298.263 130.287 295.514 137.491C292.765 144.694 287.593 151.217 280.537 154.332C276.186 156.254 271.373 156.805 266.631 157.222C254.526 158.299 242.196 158.651 230.34 155.966C218.485 153.287 207.039 147.302 199.695 137.619C199.019 136.697 198.523 135.655 198.234 134.549"
            fill="#FFE69F"/>
        <path
            d="M250.713 158.521C256.294 158.521 261.69 158.156 266.682 157.714C271.572 157.278 276.327 156.727 280.742 154.785C287.394 151.85 292.944 145.615 295.982 137.668C298.391 131.356 299.372 124.063 299.07 114.701C298.864 108.32 298.131 101.967 296.879 95.7062C296.866 95.6425 296.841 95.5821 296.804 95.5282C296.768 95.4744 296.721 95.4282 296.667 95.3924C296.613 95.3566 296.552 95.3318 296.489 95.3195C296.425 95.3072 296.359 95.3076 296.296 95.3206C296.232 95.3337 296.172 95.3592 296.118 95.3956C296.064 95.4321 296.018 95.4787 295.982 95.533C295.947 95.5873 295.922 95.648 295.91 95.7118C295.898 95.7756 295.898 95.8412 295.911 95.9048C297.15 102.113 297.877 108.412 298.084 114.739C298.378 123.967 297.417 131.138 295.059 137.322C292.117 145.019 286.754 151.055 280.345 153.888C276.07 155.772 271.405 156.31 266.598 156.74C255.717 157.708 242.913 158.311 230.461 155.497C217.555 152.575 206.77 146.128 200.099 137.329C199.457 136.459 198.989 135.474 198.721 134.426C198.686 134.3 198.602 134.192 198.488 134.127C198.374 134.062 198.238 134.046 198.112 134.08C197.985 134.115 197.878 134.199 197.813 134.313C197.748 134.427 197.731 134.563 197.766 134.689C198.072 135.856 198.596 136.954 199.31 137.925C206.124 146.903 217.107 153.485 230.238 156.458C237.088 158.009 244.035 158.535 250.706 158.535L250.713 158.521Z"
            fill="black"/>
        <path
            d="M192.128 113.809C190.733 107.586 191.534 101.072 194.396 95.3725C195.158 93.8012 196.139 92.3465 197.312 91.0526C200.01 88.1625 203.939 86.4771 207.956 86.0028C211.968 85.5285 216.063 86.195 219.882 87.4575"
            fill="#FFE69F"/>
        <path
            d="M192.128 114.303C192.165 114.305 192.202 114.3 192.237 114.29C192.364 114.26 192.474 114.181 192.543 114.071C192.613 113.961 192.636 113.828 192.609 113.7C191.23 107.59 192.019 101.19 194.84 95.5965C195.58 94.0667 196.534 92.6492 197.671 91.3861C200.158 88.7201 203.83 86.9834 208.008 86.49C211.603 86.067 215.544 86.5478 219.723 87.919C219.847 87.9598 219.982 87.9496 220.098 87.8908C220.215 87.8319 220.303 87.7291 220.344 87.6051C220.385 87.481 220.375 87.3458 220.316 87.2292C220.257 87.1127 220.154 87.0242 220.03 86.9834C215.717 85.5671 211.629 85.0673 207.893 85.5096C203.477 86.0286 199.594 87.875 196.947 90.7132C195.839 91.8986 194.864 93.3469 193.954 95.1483C191.027 100.947 190.209 107.583 191.641 113.918C191.665 114.027 191.726 114.125 191.814 114.195C191.901 114.265 192.01 114.303 192.122 114.303H192.128Z"
            fill="black"/>
        <path
            d="M219.613 91.5332C213.012 94.8977 205.271 99.0375 199.741 104.171C194.204 109.304 189.878 118.058 189.519 125.87C189.469 126.978 189.5 128.119 189.84 129.163C190.501 131.188 192.268 132.63 194.191 133.22C196.114 133.816 198.177 133.668 200.151 133.29C208.386 131.72 218.62 123.883 222.824 116.097"
            fill="#FFE69F"/>
        <path
            d="M197.018 134.111C198.101 134.098 199.18 133.984 200.242 133.771C208.598 132.182 218.922 124.351 223.254 116.327C223.316 116.213 223.33 116.078 223.293 115.953C223.256 115.828 223.17 115.723 223.056 115.661C222.941 115.599 222.806 115.585 222.681 115.622C222.556 115.659 222.451 115.745 222.389 115.86C218.25 123.524 208.021 131.285 200.056 132.803C197.717 133.252 195.897 133.233 194.334 132.746C192.405 132.15 190.86 130.714 190.303 129.003C189.955 127.953 189.962 126.786 190 125.883C190.34 118.488 194.48 109.702 200.068 104.524C205.573 99.4234 213.154 95.3668 219.831 91.9641C219.89 91.9351 219.943 91.8947 219.986 91.8453C220.029 91.7959 220.062 91.7384 220.083 91.6761C220.103 91.6139 220.112 91.5482 220.107 91.4828C220.102 91.4173 220.084 91.3535 220.054 91.295C220.025 91.2365 219.984 91.1845 219.934 91.1419C219.884 91.0994 219.826 91.0671 219.764 91.0471C219.701 91.0271 219.635 91.0197 219.57 91.0252C219.505 91.0308 219.441 91.0493 219.383 91.0797C212.648 94.5082 204.99 98.6031 199.395 103.794C193.551 109.234 189.379 118.091 189.02 125.845C188.975 126.826 188.975 128.107 189.366 129.312C190.032 131.356 191.782 132.99 194.045 133.689C195.009 133.98 196.012 134.123 197.019 134.112L197.018 134.111Z"
            fill="black"/>
    </g>
    <defs>
        <clipPath id="clip0_209_132">
            <rect width="122.871" height="126.976" fill="white" transform="translate(189 37)"/>
        </clipPath>
    </defs>
</svg>
