<!--
  - Designed and developed by Duckie Team 2023.
  -
  - Licensed under the MIT.
  - Please see full license: https://github.com/duckie-team/quack-quack-android/blob/main/LICENSE
  -->

<svg fill="none" height="24" viewBox="0 0 24 24" width="24" xmlns="http://www.w3.org/2000/svg">
  <path
    d="M19.9801 8.10799L13.8761 3.13499C13.3413 2.74404 12.696 2.53333 12.0336 2.53333C11.3711 2.53333 10.7259 2.74404 10.1911 3.13499L4.01109 8.20099C3.62634 8.48341 3.31332 8.85225 3.09724 9.27781C2.88117 9.70336 2.76808 10.1737 2.76709 10.651V18.375C2.76958 18.7785 2.85154 19.1776 3.00828 19.5494C3.16503 19.9212 3.3935 20.2585 3.68063 20.542C3.96776 20.8255 4.30794 21.0497 4.68172 21.2017C5.05551 21.3537 5.45558 21.4306 5.85909 21.428H7.51009C7.71315 21.4281 7.91425 21.3882 8.10187 21.3106C8.2895 21.2329 8.45998 21.1191 8.60357 20.9755C8.74716 20.8319 8.86103 20.6614 8.93868 20.4738C9.01632 20.2861 9.05622 20.0851 9.05609 19.882V16.271C9.05609 15.774 9.25353 15.2973 9.60497 14.9459C9.95642 14.5944 10.4331 14.397 10.9301 14.397H13.0671C13.3131 14.3971 13.5566 14.4457 13.7838 14.5399C14.011 14.6342 14.2174 14.7723 14.3912 14.9463C14.565 15.1203 14.7029 15.3269 14.7969 15.5541C14.8909 15.7814 14.9392 16.025 14.9391 16.271V19.882C14.9391 20.292 15.102 20.6852 15.3919 20.9752C15.6818 21.2651 16.0751 21.428 16.4851 21.428H18.1381C18.9529 21.433 19.7364 21.1143 20.3163 20.5417C20.8961 19.9692 21.2248 19.1898 21.2301 18.375V10.563C21.2295 10.0843 21.116 9.61251 20.8988 9.18594C20.6816 8.75936 20.3669 8.39004 19.9801 8.10799Z"
    fill="#222222" stroke="#222222" stroke-linecap="round" stroke-linejoin="round" />
</svg>
