<svg xmlns="http://www.w3.org/2000/svg" width="24" height="24" fill="none" viewBox="0 0 24 24"><g clip-path="url(#clip0_11_871)"><path fill="#222" d="M24 12C24 5.37258 18.6274 0 12 0C5.37258 0 0 5.37258 0 12C0 18.6274 5.37258 24 12 24C18.6274 24 24 18.6274 24 12Z" opacity=".5"/><path stroke="#fff" stroke-linecap="round" stroke-linejoin="round" d="M16.6881 8.868H14.4351V8.71C14.4351 8.39739 14.3111 8.09755 14.0902 7.87632C13.8693 7.65508 13.5697 7.53053 13.2571 7.53H10.7421C10.4292 7.53 10.129 7.65432 9.90772 7.87561C9.68643 8.09691 9.56211 8.39704 9.56211 8.71V8.868H7.31111C7.09204 8.868 6.88194 8.95502 6.72704 9.10993C6.57213 9.26483 6.48511 9.47493 6.48511 9.694V15.644C6.48511 15.7525 6.50647 15.8599 6.54798 15.9601C6.58949 16.0603 6.65034 16.1514 6.72704 16.2281C6.80374 16.3048 6.8948 16.3656 6.99501 16.4071C7.09523 16.4486 7.20264 16.47 7.31111 16.47H16.6881C16.7966 16.47 16.904 16.4486 17.0042 16.4071C17.1044 16.3656 17.1955 16.3048 17.2722 16.2281C17.3489 16.1514 17.4097 16.0603 17.4512 15.9601C17.4927 15.8599 17.5141 15.7525 17.5141 15.644V9.694C17.5141 9.58553 17.4927 9.47812 17.4512 9.3779C17.4097 9.27769 17.3489 9.18663 17.2722 9.10993C17.1955 9.03323 17.1044 8.97238 17.0042 8.93087C16.904 8.88936 16.7966 8.868 16.6881 8.868Z"/><path stroke="#fff" stroke-linecap="round" stroke-linejoin="round" d="M12.0001 14.189C12.992 14.189 13.7961 13.3849 13.7961 12.393C13.7961 11.4011 12.992 10.597 12.0001 10.597C11.0082 10.597 10.2041 11.4011 10.2041 12.393C10.2041 13.3849 11.0082 14.189 12.0001 14.189Z"/></g><defs><clipPath id="clip0_11_871"><rect width="24" height="24" fill="#fff"/></clipPath></defs></svg>