<svg xmlns="http://www.w3.org/2000/svg" width="24" height="24" fill="none" viewBox="0 0 24 24"><path fill="#222" fill-rule="evenodd" d="M18.8426 2.32358C19.2381 2.16856 19.6702 2.13216 20.0861 2.21881C20.5022 2.30551 20.884 2.5116 21.1847 2.81187C21.4855 3.11214 21.6922 3.49358 21.7796 3.9095C21.8669 4.32542 21.8311 4.75778 21.6766 5.15368L21.6764 5.15419L15.6966 20.4418L15.6964 20.4422C15.5425 20.8363 15.2775 21.1772 14.9336 21.4236C14.5895 21.6701 14.1813 21.8115 13.7585 21.8305C13.3357 21.8495 12.9165 21.7454 12.5517 21.5308C12.187 21.3161 11.8923 21.0002 11.7036 20.6214L9.28518 15.7754L14.5303 10.5303C14.8232 10.2374 14.8232 9.76256 14.5303 9.46967C14.2374 9.17678 13.7625 9.17678 13.4696 9.46967L8.22507 14.7142L3.38031 12.2982C3.00153 12.1093 2.68572 11.8146 2.47122 11.4497C2.25671 11.0849 2.15274 10.6656 2.17192 10.2428C2.19111 9.81997 2.33262 9.41182 2.57928 9.06788C2.82583 8.7241 3.16683 8.45924 3.56093 8.30544L3.56146 8.30524L18.8421 2.32376L18.8426 2.32358Z" clip-rule="evenodd"/></svg>