<!--
  - Designed and developed by Duckie Team 2023.
  -
  - Licensed under the MIT.
  - Please see full license: https://github.com/duckie-team/quack-quack-android/blob/main/LICENSE
  -->

<svg fill="none" height="24" viewBox="0 0 24 24" width="24" xmlns="http://www.w3.org/2000/svg">
  <path
    d="M12.0003 21C12.8395 20.9993 13.6463 20.6898 14.2545 20.1354C14.8627 19.5809 15.2259 18.8238 15.269 18.0201H8.72852C8.77221 18.8241 9.13592 19.5814 9.74466 20.1358C10.3534 20.6903 11.1608 20.9996 12.0003 21V21Z"
    fill="#FF8300" stroke="#FF8300" stroke-linecap="round" stroke-linejoin="round" stroke-width="1.5" />
  <path
    d="M12 2C10.9491 2.00218 10.0591 2.20314 9.08927 2.59138C8.11942 2.97962 7.23896 3.5475 6.4983 4.26252C5.75764 4.97754 5.17132 5.82564 4.77293 6.75827C4.37454 7.69089 4.17189 8.68972 4.17659 9.69756V16.6712C4.17741 17.0279 4.32574 17.3698 4.58905 17.6217C4.85237 17.8737 5.20915 18.0152 5.58112 18.0152H18.419C18.6035 18.0153 18.7862 17.9806 18.9567 17.9129C19.1272 17.8453 19.282 17.7461 19.4125 17.621C19.5429 17.4959 19.6464 17.3473 19.7169 17.1839C19.7875 17.0204 19.8237 16.8452 19.8236 16.6683V9.50066C19.8232 7.53596 19.0192 5.64978 17.5845 4.24731C16.1497 2.84484 14.2353 2 12 2Z"
    fill="#222222" stroke="#222222" stroke-linecap="round" stroke-linejoin="round" stroke-width="1.5" />
</svg>
