<svg xmlns="http://www.w3.org/2000/svg" width="24" height="24" fill="none" viewBox="0 0 24 24"><path fill="#FF8300" stroke="#FF8300" stroke-linecap="round" stroke-linejoin="round" stroke-width=".5" d="M15.818 7.30699C15.8178 8.06026 15.5942 8.79655 15.1756 9.42278C14.757 10.049 14.1621 10.5371 13.4661 10.8252C12.7702 11.1134 12.0044 11.1888 11.2656 11.0418C10.5268 10.8948 9.84822 10.532 9.31558 9.99936C8.78295 9.46673 8.42019 8.78812 8.27319 8.04934C8.12619 7.31056 8.20153 6.54478 8.4897 5.84881C8.77787 5.15285 9.26593 4.55796 9.89216 4.13934C10.5184 3.72073 11.2547 3.49719 12.008 3.49699C13.0184 3.49699 13.9875 3.8984 14.702 4.61292C15.4165 5.32743 15.818 6.29652 15.818 7.30699V7.30699Z"/><path fill="#222" stroke="#222" stroke-linecap="round" stroke-linejoin="round" stroke-width="1.5" d="M19.1589 18.344C19.1589 15.529 19.0009 13.702 17.8589 12.6C17.5165 12.2933 17.0745 12.1211 16.6148 12.1154C16.1551 12.1097 15.7089 12.2708 15.3589 12.569C14.3845 13.2764 13.2131 13.6611 12.0089 13.669C10.8076 13.6607 9.63917 13.276 8.66794 12.569C8.3151 12.2704 7.86601 12.1097 7.40381 12.1167C6.94161 12.1236 6.49759 12.2978 6.15394 12.607C4.88294 13.819 4.76194 15.913 4.87194 19.232C4.88399 19.5702 5.02573 19.8907 5.26777 20.1272C5.50982 20.3636 5.83359 20.4979 6.17194 20.502H17.8579C18.2027 20.502 18.5334 20.365 18.7772 20.1212C19.021 19.8774 19.1579 19.5468 19.1579 19.202L19.1589 18.344Z"/></svg>