<svg xmlns="http://www.w3.org/2000/svg" width="24" height="24" fill="none" viewBox="0 0 24 24"><path fill="#222" stroke="#222" stroke-linejoin="round" stroke-width="1.5" d="M3 15C3 14.4477 3.44772 14 4 14H6C6.55228 14 7 14.4477 7 15V21H3V15Z"/><path fill="#222" stroke="#222" stroke-linejoin="round" stroke-width="1.5" d="M17 15C17 14.4477 17.4477 14 18 14H20C20.5523 14 21 14.4477 21 15V21H17V15Z"/><path fill="#222" stroke="#222" stroke-linejoin="round" stroke-width="1.5" d="M9 11.5C9 10.6716 9.67157 10 10.5 10H13.5C14.3284 10 15 10.6716 15 11.5V21H9V11.5Z"/><path fill="#FF8300" stroke="#FF8300" stroke-linejoin="round" stroke-width="1.4" d="M12 2L13.058 3.54377L14.8532 4.07295L13.7119 5.55623L13.7634 7.42705L12 6.8L10.2366 7.42705L10.2881 5.55623L9.14683 4.07295L10.942 3.54377L12 2Z"/></svg>