<svg xmlns="http://www.w3.org/2000/svg" width="24" height="24" fill="none" viewBox="0 0 24 24"><path stroke="#222" stroke-linecap="round" stroke-linejoin="round" stroke-width="1.5" d="M9.61997 4.82H5.71997C5.16769 4.82 4.71997 5.26771 4.71997 5.82V9.72C4.71997 10.2723 5.16769 10.72 5.71997 10.72H9.61997C10.1723 10.72 10.62 10.2723 10.62 9.72V5.82C10.62 5.26771 10.1723 4.82 9.61997 4.82Z"/><path stroke="#222" stroke-linecap="round" stroke-linejoin="round" stroke-width="1.5" d="M18.2721 4.82H14.3721C13.8198 4.82 13.3721 5.26771 13.3721 5.82V9.72C13.3721 10.2723 13.8198 10.72 14.3721 10.72H18.2721C18.8244 10.72 19.2721 10.2723 19.2721 9.72V5.82C19.2721 5.26771 18.8244 4.82 18.2721 4.82Z"/><path stroke="#222" stroke-linecap="round" stroke-linejoin="round" stroke-width="1.5" d="M9.61997 13.279H5.71997C5.16769 13.279 4.71997 13.7267 4.71997 14.279V18.179C4.71997 18.7313 5.16769 19.179 5.71997 19.179H9.61997C10.1723 19.179 10.62 18.7313 10.62 18.179V14.279C10.62 13.7267 10.1723 13.279 9.61997 13.279Z"/><path stroke="#222" stroke-linecap="round" stroke-linejoin="round" stroke-width="1.5" d="M16.3221 19.179C15.7386 19.179 15.1683 19.006 14.6831 18.6818C14.198 18.3577 13.8199 17.897 13.5966 17.3579C13.3733 16.8189 13.3149 16.2257 13.4288 15.6535C13.5426 15.0812 13.8235 14.5556 14.2361 14.143C14.6487 13.7305 15.1743 13.4495 15.7466 13.3357C16.3188 13.2219 16.9119 13.2803 17.451 13.5036C17.99 13.7268 18.4508 14.1049 18.7749 14.5901C19.0991 15.0752 19.2721 15.6455 19.2721 16.229C19.2721 16.6164 19.1958 17 19.0475 17.3579C18.8993 17.7158 18.682 18.041 18.408 18.315C18.1341 18.5889 17.8089 18.8062 17.451 18.9544C17.0931 19.1027 16.7095 19.179 16.3221 19.179V19.179Z"/></svg>