<!--
  - Designed and developed by Duckie Team 2023.
  -
  - Licensed under the MIT.
  - Please see full license: https://github.com/duckie-team/quack-quack-android/blob/main/LICENSE
  -->

<svg fill="none" height="24" viewBox="0 0 24 24" width="24" xmlns="http://www.w3.org/2000/svg">
  <path
    d="M7.51506 4.945C7.14853 4.945 6.79702 5.0906 6.53784 5.34978C6.27867 5.60895 6.13306 5.96047 6.13306 6.327V17.673C6.13231 17.9158 6.19559 18.1546 6.31653 18.3651C6.43748 18.5757 6.61181 18.7507 6.82194 18.8724C7.03208 18.9941 7.27059 19.0582 7.51342 19.0583C7.75625 19.0584 7.99482 18.9945 8.20506 18.873L9.06606 18.373L12.0001 16.679L14.9331 18.372L15.7941 18.872C16.0043 18.9935 16.2429 19.0574 16.4857 19.0573C16.7285 19.0572 16.967 18.9931 17.1772 18.8714C17.3873 18.7497 17.5616 18.5747 17.6826 18.3641C17.8035 18.1536 17.8668 17.9148 17.8661 17.672V6.327C17.8662 6.14539 17.8305 5.96554 17.761 5.79775C17.6916 5.62995 17.5897 5.4775 17.4612 5.34913C17.3328 5.22076 17.1802 5.11899 17.0124 5.04964C16.8445 4.9803 16.6647 4.94474 16.4831 4.945H7.51506Z"
    stroke="#222222" stroke-linecap="round" stroke-linejoin="round" stroke-width="1.5" />
</svg>
