<!--
  - Designed and developed by Duckie Team 2023.
  -
  - Licensed under the MIT.
  - Please see full license: https://github.com/duckie-team/quack-quack-android/blob/main/LICENSE
  -->

<svg fill="none" height="24" viewBox="0 0 24 24" width="24" xmlns="http://www.w3.org/2000/svg">
  <path
    d="M17.0399 19.325H6.96091C6.79595 19.3244 6.63289 19.2898 6.48191 19.2233C6.33092 19.1568 6.19527 19.06 6.08341 18.9387C5.97155 18.8175 5.88589 18.6745 5.83178 18.5186C5.77766 18.3628 5.75627 18.1975 5.76891 18.033L6.51491 8.693C6.53994 8.39376 6.67624 8.11477 6.89693 7.91112C7.11761 7.70747 7.40663 7.59396 7.70691 7.593H16.2939C16.5942 7.59396 16.8832 7.70747 17.1039 7.91112C17.3246 8.11477 17.4609 8.39376 17.4859 8.693L18.2319 18.033C18.2446 18.1975 18.2232 18.3628 18.1691 18.5186C18.1149 18.6745 18.0293 18.8175 17.9174 18.9387C17.8056 19.06 17.6699 19.1568 17.5189 19.2233C17.3679 19.2898 17.2049 19.3244 17.0399 19.325V19.325Z"
    stroke="#222222" stroke-linecap="round" stroke-linejoin="round" stroke-width="1.5" />
  <path
    d="M10.1289 9.828V5.764C10.1232 5.51512 10.1672 5.2676 10.2585 5.03599C10.3497 4.80437 10.4864 4.59333 10.6604 4.41528C10.8343 4.23722 11.0422 4.09574 11.2716 3.99914C11.501 3.90254 11.7475 3.85278 11.9964 3.85278C12.2454 3.85278 12.4918 3.90254 12.7212 3.99914C12.9507 4.09574 13.1585 4.23722 13.3325 4.41528C13.5065 4.59333 13.6431 4.80437 13.7344 5.03599C13.8256 5.2676 13.8697 5.51512 13.8639 5.764V9.828"
    stroke="#222222" stroke-linecap="round" stroke-linejoin="round" stroke-width="1.5" />
</svg>
