<svg xmlns="http://www.w3.org/2000/svg" width="24" height="24" fill="none" viewBox="0 0 24 24"><path stroke="#222" stroke-linecap="round" stroke-linejoin="round" stroke-width="1.5" d="M19.8231 6.774H16.0671V6.511C16.0671 6.25243 16.0161 5.99639 15.9172 5.7575C15.8182 5.51861 15.6732 5.30155 15.4904 5.11871C15.3075 4.93587 15.0905 4.79083 14.8516 4.69188C14.6127 4.59293 14.3566 4.542 14.0981 4.542H9.89807C9.37655 4.54306 8.87676 4.75097 8.50836 5.12012C8.13997 5.48926 7.93307 5.98948 7.93307 6.511V6.774H4.17707C3.99611 6.774 3.81692 6.80964 3.64973 6.87889C3.48255 6.94814 3.33064 7.04965 3.20268 7.17761C3.07472 7.30557 2.97322 7.45748 2.90397 7.62466C2.83472 7.79185 2.79907 7.97104 2.79907 8.152V18.079C2.79894 18.26 2.83449 18.4392 2.9037 18.6065C2.9729 18.7737 3.0744 18.9257 3.20239 19.0537C3.33037 19.1817 3.48233 19.2832 3.64958 19.3524C3.81683 19.4216 3.99607 19.4571 4.17707 19.457H19.8231C20.0041 19.4571 20.1833 19.4216 20.3506 19.3524C20.5178 19.2832 20.6698 19.1817 20.7978 19.0537C20.9257 18.9257 21.0272 18.7737 21.0964 18.6065C21.1657 18.4392 21.2012 18.26 21.2011 18.079V8.152C21.2011 7.97104 21.1654 7.79185 21.0962 7.62466C21.0269 7.45748 20.9254 7.30557 20.7975 7.17761C20.6695 7.04965 20.5176 6.94814 20.3504 6.87889C20.1832 6.80964 20.004 6.774 19.8231 6.774V6.774Z"/><path stroke="#222" stroke-linecap="round" stroke-linejoin="round" stroke-width="1.5" d="M12.0009 15.653C13.6561 15.653 14.9979 14.3112 14.9979 12.656C14.9979 11.0008 13.6561 9.659 12.0009 9.659C10.3457 9.659 9.00391 11.0008 9.00391 12.656C9.00391 14.3112 10.3457 15.653 12.0009 15.653Z"/></svg>