<!--
  - Designed and developed by Duckie Team 2023.
  -
  - Licensed under the MIT.
  - Please see full license: https://github.com/duckie-team/quack-quack-android/blob/main/LICENSE
  -->

<svg fill="none" height="24" viewBox="0 0 24 24" width="24" xmlns="http://www.w3.org/2000/svg">
  <path
    d="M8.88009 8.549C9.909 8.549 10.7431 7.7149 10.7431 6.686C10.7431 5.65709 9.909 4.823 8.88009 4.823C7.85118 4.823 7.01709 5.65709 7.01709 6.686C7.01709 7.7149 7.85118 8.549 8.88009 8.549Z"
    stroke="#222222" stroke-linecap="round" stroke-linejoin="round" stroke-width="1.5" />
  <path
    d="M15.0949 19.143C16.1238 19.143 16.9579 18.3089 16.9579 17.28C16.9579 16.2511 16.1238 15.417 15.0949 15.417C14.066 15.417 13.2319 16.2511 13.2319 17.28C13.2319 18.3089 14.066 19.143 15.0949 19.143Z"
    stroke="#222222" stroke-linecap="round" stroke-linejoin="round" stroke-width="1.5" />
  <path d="M10.7419 6.685H18.7979" stroke="#222222" stroke-linecap="round" stroke-linejoin="round" stroke-width="1.5" />
  <path d="M5.20288 6.685H7.01788" stroke="#222222" stroke-linecap="round" stroke-linejoin="round" stroke-width="1.5" />
  <path d="M5.20288 11.982H18.7979" stroke="#222222" stroke-linecap="round" stroke-linejoin="round"
    stroke-width="1.5" />
  <path d="M16.957 17.28H18.798" stroke="#222222" stroke-linecap="round" stroke-linejoin="round" stroke-width="1.5" />
  <path d="M5.20288 17.28H13.2319" stroke="#222222" stroke-linecap="round" stroke-linejoin="round" stroke-width="1.5" />
</svg>
