<svg xmlns="http://www.w3.org/2000/svg" width="24" height="24" fill="none" viewBox="0 0 24 24"><path fill="#222" d="M10.83 11.372H6.83702C6.7723 11.372 6.71023 11.3977 6.66447 11.4435C6.61871 11.4892 6.593 11.5513 6.593 11.616V12.797C6.593 12.8617 6.61871 12.9238 6.66447 12.9695C6.71023 13.0153 6.7723 13.041 6.83702 13.041H9.20903L9.13902 13.213C9.04207 13.4537 8.90702 13.6772 8.73903 13.875C8.46961 14.2016 8.13296 14.4663 7.75203 14.651C7.39897 14.8287 7.01276 14.9309 6.61802 14.951C6.10938 14.955 5.60932 14.8198 5.17201 14.56C4.73811 14.303 4.37944 13.9364 4.132 13.497C3.88132 13.0388 3.74995 12.5248 3.74995 12.0025C3.74995 11.4802 3.88132 10.9662 4.132 10.508C4.31355 10.179 4.559 9.88952 4.85392 9.65663C5.14885 9.42373 5.48734 9.25208 5.8495 9.15176C6.21166 9.05144 6.59021 9.02446 6.96293 9.07241C7.33566 9.12037 7.69503 9.24229 8.02 9.43101C8.41562 9.66982 8.75285 9.99406 9.007 10.38C9.04068 10.4312 9.09242 10.4679 9.1519 10.4827C9.21137 10.4975 9.27424 10.4894 9.32801 10.46L10.41 9.87101C10.4397 9.85594 10.466 9.83496 10.4873 9.80935C10.5085 9.78375 10.5243 9.75404 10.5337 9.7221C10.543 9.69016 10.5458 9.65664 10.5417 9.62361C10.5376 9.59057 10.5269 9.55872 10.51 9.53001C10.1245 8.89592 9.59609 8.36069 8.96702 7.96701C8.26628 7.52811 7.45269 7.30324 6.62602 7.32C5.81615 7.31155 5.01908 7.52236 4.31929 7.9301C3.61949 8.33783 3.04303 8.92729 2.65101 9.63601C2.24977 10.3566 2.04298 11.1692 2.05101 11.994C2.04588 12.82 2.25245 13.6335 2.65101 14.357C3.03523 15.0654 3.60534 15.6555 4.3 16.064C5.00677 16.4762 5.81184 16.6898 6.63002 16.682C7.35462 16.675 8.06643 16.4902 8.70301 16.144C9.34318 15.8028 9.89194 15.3127 10.303 14.715C10.7117 14.1222 10.9713 13.4395 11.06 12.725L11.066 12.67C11.1083 12.3047 11.1114 11.9359 11.075 11.57C11.0638 11.5136 11.0331 11.4628 10.9884 11.4266C10.9436 11.3905 10.8875 11.3711 10.83 11.372Z"/><path fill="#222" d="M13.619 7.402H12.39C12.2552 7.402 12.146 7.51124 12.146 7.646V16.341C12.146 16.4758 12.2552 16.585 12.39 16.585H13.619C13.7538 16.585 13.863 16.4758 13.863 16.341V7.646C13.863 7.51124 13.7538 7.402 13.619 7.402Z"/><path fill="#222" d="M21.711 7.402H15.391C15.326 7.402 15.2637 7.42782 15.2178 7.47376C15.1718 7.51971 15.146 7.58202 15.146 7.647V16.341C15.1463 16.4058 15.1722 16.4679 15.2181 16.5136C15.264 16.5593 15.3262 16.585 15.391 16.585H16.62C16.6847 16.585 16.7468 16.5593 16.7925 16.5135C16.8383 16.4678 16.864 16.4057 16.864 16.341V12.841H21.1C21.132 12.841 21.1638 12.8347 21.1934 12.8224C21.223 12.8102 21.2499 12.7922 21.2725 12.7695C21.2952 12.7469 21.3132 12.72 21.3254 12.6904C21.3377 12.6608 21.344 12.6291 21.344 12.597V11.364C21.344 11.332 21.3377 11.3002 21.3254 11.2706C21.3132 11.241 21.2952 11.2141 21.2725 11.1915C21.2499 11.1688 21.223 11.1508 21.1934 11.1386C21.1638 11.1263 21.132 11.12 21.1 11.12H16.867V9.08001H21.714C21.7788 9.07975 21.8409 9.05382 21.8866 9.0079C21.9323 8.96198 21.958 8.89981 21.958 8.835V7.643C21.957 7.57837 21.9304 7.51678 21.8841 7.47163C21.8379 7.42649 21.7756 7.40146 21.711 7.402Z"/></svg>