<svg xmlns="http://www.w3.org/2000/svg" width="24" height="24" fill="none" viewBox="0 0 24 24"><path stroke="#222" stroke-linecap="round" stroke-linejoin="round" stroke-width="1.5" d="M19.9996 9.34358V9.30529C20.0012 8.73288 19.8944 8.165 19.6843 7.6295C19.4219 6.88201 18.9285 6.22956 18.2701 5.75959C17.6117 5.28962 16.8198 5.02458 16.0005 5C14.9935 5.04676 14.0381 5.44289 13.311 6.11515C12.5839 6.78741 12.1342 7.69035 12.0451 8.65702C12.0435 8.66744 12.0381 8.67697 12.0298 8.68386C12.0215 8.69074 12.0109 8.69453 12 8.69453C11.9891 8.69453 11.9785 8.69074 11.9702 8.68386C11.9619 8.67697 11.9565 8.66744 11.9549 8.65702C11.8658 7.6905 11.4163 6.78769 10.6893 6.11544C9.96243 5.4432 9.00727 5.04698 8.00042 5C7.18051 5.02396 6.38782 5.2887 5.72869 5.75871C5.06956 6.22871 4.57552 6.8815 4.31282 7.6295C4.10435 8.16534 3.99848 8.73311 4.00035 9.30529V9.34358C3.99676 9.57156 4.02086 9.79916 4.07216 10.0217C4.34 11.6611 5.53555 14.9482 11.0155 18.6445L11.0262 18.651C11.1534 18.7714 11.3056 18.8644 11.4729 18.924C11.6402 18.9836 11.8187 19.0083 11.9966 18.9966C12.1762 19.0095 12.3566 18.9853 12.5257 18.9255C12.6947 18.8658 12.8485 18.7718 12.9767 18.6501L12.9874 18.6435C18.4664 14.9491 19.6658 11.6611 19.9278 10.0255C19.9792 9.80163 20.0033 9.5728 19.9996 9.34358Z"/></svg>