<svg xmlns="http://www.w3.org/2000/svg" width="24" height="24" fill="none" viewBox="0 0 24 24"><path stroke="#222" stroke-linecap="round" stroke-linejoin="round" stroke-width="1.5" d="M19.9791 8.108L13.8791 3.133C13.3437 2.74292 12.6981 2.53326 12.0356 2.53434C11.3732 2.53542 10.7282 2.74718 10.1941 3.139L4.01109 8.201C3.62634 8.48342 3.31332 8.85226 3.09724 9.27782C2.88117 9.70337 2.76808 10.1737 2.76709 10.651V18.375C2.76958 18.7785 2.85154 19.1776 3.00828 19.5494C3.16503 19.9212 3.3935 20.2585 3.68063 20.542C3.96776 20.8256 4.30794 21.0497 4.68172 21.2017C5.05551 21.3538 5.45558 21.4306 5.85909 21.428H7.51009C7.91968 21.4283 8.31261 21.2659 8.60251 20.9765C8.89241 20.6872 9.05556 20.2946 9.05609 19.885V16.271C9.05609 15.774 9.25353 15.2973 9.60497 14.9459C9.95642 14.5944 10.4331 14.397 10.9301 14.397H13.0711C13.3171 14.3971 13.5606 14.4457 13.7878 14.54C14.015 14.6342 14.2214 14.7723 14.3952 14.9463C14.569 15.1203 14.7069 15.3269 14.8009 15.5542C14.8949 15.7815 14.9432 16.025 14.9431 16.271V19.885C14.943 20.0881 14.9829 20.2892 15.0605 20.4768C15.1382 20.6644 15.252 20.8349 15.3956 20.9785C15.5392 21.1221 15.7097 21.2359 15.8973 21.3136C16.0849 21.3912 16.286 21.4311 16.4891 21.431H18.1421C18.9569 21.4361 19.7404 21.1173 20.3203 20.5447C20.9001 19.9722 21.2288 19.1928 21.2341 18.378V10.563C21.2329 10.0839 21.1187 9.61182 20.9006 9.18521C20.6825 8.7586 20.3668 8.38952 19.9791 8.108Z"/></svg>