<!--
  - Designed and developed by Duckie Team 2023.
  -
  - Licensed under the MIT.
  - Please see full license: https://github.com/duckie-team/quack-quack-android/blob/main/LICENSE
  -->

<svg fill="none" height="24" viewBox="0 0 24 24" width="24" xmlns="http://www.w3.org/2000/svg">
  <path
    d="M13.8304 2.60502L19.7813 7.60573C20.1584 7.88935 20.4653 8.26072 20.677 8.68967C20.8888 9.11862 20.9994 9.59305 21 10.0744V17.9299C20.9948 18.7493 20.6744 19.533 20.1091 20.1087C19.5438 20.6845 18.7799 21.005 17.9855 20.9999H16.374H7.62406H6.01446C5.62107 21.0026 5.23103 20.9253 4.86662 20.7724C4.50221 20.6195 4.17056 20.3941 3.89063 20.109C3.6107 19.8239 3.38796 19.4848 3.23514 19.1109C3.08233 18.737 3.00242 18.3357 3 17.9299V10.1629C3.00096 9.68297 3.11122 9.20998 3.32187 8.78206C3.53253 8.35413 3.83771 7.98323 4.2128 7.69924L10.2378 2.60502C10.7592 2.21189 11.3883 2 12.0341 2C12.68 2 13.309 2.21189 13.8304 2.60502Z"
    stroke="#222222" stroke-linecap="round" stroke-linejoin="round" stroke-width="1.5" />
  <rect fill="#222222" height="2" rx="1" width="8" x="8" y="17" />
</svg>
