<!--
  - Designed and developed by Duckie Team 2023.
  -
  - Licensed under the MIT.
  - Please see full license: https://github.com/duckie-team/quack-quack-android/blob/main/LICENSE
  -->

<svg fill="none" height="24" viewBox="0 0 24 24" width="24" xmlns="http://www.w3.org/2000/svg">
  <path clip-rule="evenodd"
    d="M3.86206 4.611C3.86206 4.19679 4.19785 3.861 4.61206 3.861H19.3881C19.8023 3.861 20.1381 4.19679 20.1381 4.611V19.387C20.1381 19.8012 19.8023 20.137 19.3881 20.137H4.61206C4.19785 20.137 3.86206 19.8012 3.86206 19.387V16.5871C3.86206 16.587 3.86206 16.587 3.86206 16.5869V4.611ZM5.36206 16.8978V18.637H18.6381V16.8301L16.8519 14.2307L14.5964 15.9478C14.2787 16.1896 13.8274 16.1402 13.5695 15.8355L10.2959 11.9665L5.36206 16.8978ZM18.6381 14.1815V5.361H5.36206V14.777L9.81187 10.3295C9.96019 10.1813 10.1638 10.1019 10.3733 10.1107C10.5829 10.1194 10.7791 10.2155 10.9146 10.3755L14.2545 14.3228L16.5698 12.5602C16.7331 12.4359 16.9402 12.384 17.1428 12.4165C17.3455 12.449 17.526 12.5631 17.6422 12.7322L18.6381 14.1815Z"
    fill="#222222" fill-rule="evenodd" />
  <path
    d="M16.3349 8.506C16.3351 8.77689 16.2549 9.04175 16.1046 9.26706C15.9542 9.49236 15.7403 9.66799 15.49 9.7717C15.2398 9.87541 14.9644 9.90254 14.6987 9.84967C14.433 9.7968 14.189 9.66629 13.9975 9.47468C13.8061 9.28306 13.6757 9.03894 13.6231 8.77322C13.5704 8.5075 13.5977 8.23213 13.7016 7.98195C13.8055 7.73178 13.9813 7.51805 14.2067 7.36782C14.4321 7.21759 14.697 7.13761 14.9679 7.138C15.3307 7.138 15.6787 7.28213 15.9352 7.53868C16.1918 7.79523 16.3359 8.14319 16.3359 8.506"
    fill="#222222" />
</svg>
