<svg xmlns="http://www.w3.org/2000/svg" width="24" height="24" fill="none" viewBox="0 0 24 24"><path stroke="#222" stroke-linecap="round" stroke-linejoin="round" stroke-width="1.5" d="M19.1159 3.022L3.83395 9.004C3.57492 9.10501 3.35078 9.27905 3.18875 9.50499C3.02671 9.73092 2.93375 9.99904 2.92115 10.2768C2.90855 10.5545 2.97685 10.83 3.11776 11.0696C3.25867 11.3093 3.46613 11.5029 3.71495 11.627L9.06095 14.293C9.33955 14.4325 9.56549 14.6584 9.70495 14.937L12.3749 20.287C12.4989 20.5359 12.6925 20.7434 12.9321 20.8844C13.1717 21.0254 13.4471 21.0938 13.7248 21.0813C14.0026 21.0688 14.2707 20.9759 14.4967 20.814C14.7227 20.652 14.8968 20.428 14.9979 20.169L20.9779 4.881C21.0795 4.62092 21.103 4.3369 21.0456 4.06368C20.9882 3.79046 20.8524 3.5399 20.6548 3.34264C20.4573 3.14539 20.2065 3.01001 19.9332 2.95306C19.6598 2.89611 19.3759 2.92007 19.1159 3.022V3.022Z"/><path stroke="#222" stroke-linecap="round" stroke-linejoin="round" stroke-width="1.5" d="M9.49194 14.507L13.6729 10.326"/></svg>