<svg xmlns="http://www.w3.org/2000/svg" width="24" height="24" fill="none" viewBox="0 0 24 24"><path fill="#222" d="M13.221 6.01504C13.221 6.25629 13.1495 6.49213 13.0155 6.69274C12.8815 6.89334 12.691 7.04971 12.4681 7.14208C12.2452 7.23445 12 7.25867 11.7634 7.21167C11.5267 7.16468 11.3093 7.04859 11.1387 6.87807C10.968 6.70755 10.8518 6.49026 10.8046 6.25367C10.7574 6.01708 10.7814 5.77181 10.8736 5.54886C10.9658 5.32592 11.122 5.13531 11.3225 5.00114C11.523 4.86696 11.7588 4.79524 12 4.79504C12.3235 4.79531 12.6336 4.92393 12.8624 5.15267C13.0911 5.3814 13.2197 5.69156 13.22 6.01504"/><path fill="#222" d="M13.221 12C13.221 12.2413 13.1495 12.4772 13.0154 12.6778C12.8813 12.8785 12.6908 13.0348 12.4679 13.1272C12.245 13.2195 11.9997 13.2437 11.763 13.1966C11.5263 13.1495 11.309 13.0333 11.1383 12.8627C10.9677 12.6921 10.8515 12.4747 10.8044 12.2381C10.7574 12.0014 10.7815 11.7561 10.8739 11.5332C10.9662 11.3102 11.1226 11.1197 11.3232 10.9857C11.5238 10.8516 11.7597 10.78 12.001 10.78C12.3245 10.7803 12.6346 10.9089 12.8634 11.1377C13.0921 11.3664 13.2207 11.6766 13.221 12Z"/><path fill="#222" d="M13.221 17.985C13.221 18.2263 13.1495 18.4622 13.0154 18.6628C12.8813 18.8635 12.6908 19.0198 12.4679 19.1122C12.245 19.2045 11.9997 19.2287 11.763 19.1816C11.5263 19.1345 11.309 19.0183 11.1383 18.8477C10.9677 18.6771 10.8515 18.4597 10.8044 18.2231C10.7574 17.9864 10.7815 17.7411 10.8739 17.5182C10.9662 17.2952 11.1226 17.1047 11.3232 16.9707C11.5238 16.8366 11.7597 16.765 12.001 16.765C12.3245 16.7653 12.6346 16.8939 12.8634 17.1227C13.0921 17.3514 13.2207 17.6616 13.221 17.985Z"/></svg>