<svg xmlns="http://www.w3.org/2000/svg" width="24" height="24" fill="none" viewBox="0 0 24 24"><path stroke="#222" stroke-linecap="round" stroke-linejoin="round" stroke-width="1.5" d="M12.0005 21C12.7955 20.9993 13.5599 20.7061 14.1361 20.1809C14.7122 19.6556 15.0563 18.9383 15.0972 18.1769H8.90088C8.94227 18.9386 9.28684 19.6561 9.86354 20.1813C10.4402 20.7066 11.2051 20.9996 12.0005 21V21Z"/><path stroke="#222" stroke-linecap="round" stroke-linejoin="round" stroke-width="1.5" d="M12.0001 3C11.0045 3.00207 10.1614 3.19245 9.24257 3.56025C8.32377 3.92806 7.48965 4.46606 6.78797 5.14344C6.08629 5.82083 5.53083 6.62429 5.1534 7.50783C4.77598 8.39137 4.584 9.33763 4.58845 10.2924V16.899C4.58922 17.237 4.72975 17.5608 4.97921 17.7995C5.22866 18.0382 5.56667 18.1723 5.91906 18.1723H18.0813C18.2561 18.1724 18.4292 18.1395 18.5907 18.0754C18.7521 18.0113 18.8989 17.9173 19.0225 17.7988C19.146 17.6803 19.2441 17.5396 19.3109 17.3847C19.3777 17.2298 19.412 17.0639 19.4119 16.8963V10.1059C19.4115 8.24459 18.6499 6.45769 17.2906 5.12903C15.9314 3.80038 14.1178 3 12.0001 3Z"/></svg>