<!--
  - Designed and developed by Duckie Team 2023.
  -
  - Licensed under the MIT.
  - Please see full license: https://github.com/duckie-team/quack-quack-android/blob/main/LICENSE
  -->

<svg fill="none" height="24" viewBox="0 0 24 24" width="24" xmlns="http://www.w3.org/2000/svg">
  <path
    d="M11.489 4.858C15.941 4.419 18.918 9.426 16.732 13.329L12.22 19.102C12.2082 19.123 12.1909 19.1405 12.1701 19.1527C12.1493 19.1649 12.1256 19.1713 12.1015 19.1713C12.0774 19.1713 12.0537 19.1649 12.0329 19.1527C12.012 19.1405 11.9948 19.123 11.983 19.102L7.30399 13.202C6.55389 11.9432 6.32811 10.4401 6.67523 9.01643C7.02236 7.59275 7.91464 6.36231 9.15999 5.59C9.68459 5.28818 10.2546 5.07339 10.848 4.954C11.0599 4.91131 11.2738 4.87927 11.489 4.858V4.858Z"
    stroke="#222222" stroke-linecap="round" stroke-linejoin="round" stroke-width="1.5" />
  <path
    d="M13.7831 10.352C13.7833 10.7049 13.6788 11.0499 13.4829 11.3434C13.287 11.6369 13.0085 11.8657 12.6825 12.0009C12.3565 12.1361 11.9978 12.1716 11.6517 12.1028C11.3055 12.0341 10.9876 11.8643 10.738 11.6148C10.4884 11.3654 10.3184 11.0475 10.2494 10.7014C10.1805 10.3553 10.2158 9.99657 10.3508 9.67052C10.4858 9.34448 10.7144 9.0658 11.0078 8.86973C11.3012 8.67366 11.6462 8.569 11.9991 8.569C12.4721 8.569 12.9257 8.75682 13.2602 9.09117C13.5947 9.42552 13.7828 9.87903 13.7831 10.352V10.352Z"
    stroke="#222222" stroke-linecap="round" stroke-linejoin="round" stroke-width="1.5" />
</svg>
