<!--
  - Designed and developed by Duckie Team 2023.
  -
  - Licensed under the MIT.
  - Please see full license: https://github.com/duckie-team/quack-quack-android/blob/main/LICENSE
  -->

<svg fill="none" height="24" viewBox="0 0 24 24" width="24" xmlns="http://www.w3.org/2000/svg">
  <path d="M3 15.5C3 14.6716 3.67157 14 4.5 14H7.5C8.32843 14 9 14.6716 9 15.5V21H3V15.5Z" stroke="#222222"
    stroke-linejoin="round" stroke-width="1.5" />
  <path d="M15 15.5C15 14.6716 15.6716 14 16.5 14H19.5C20.3284 14 21 14.6716 21 15.5V21H15V15.5Z" stroke="#222222"
    stroke-linejoin="round" stroke-width="1.5" />
  <path d="M9 11.5C9 10.6716 9.67157 10 10.5 10H13.5C14.3284 10 15 10.6716 15 11.5V21H9V11.5Z" stroke="#222222"
    stroke-linejoin="round" stroke-width="1.5" />
  <path
    d="M12 2L13.058 3.54377L14.8532 4.07295L13.7119 5.55623L13.7634 7.42705L12 6.8L10.2366 7.42705L10.2881 5.55623L9.14683 4.07295L10.942 3.54377L12 2Z"
    stroke="#222222" stroke-linejoin="round" stroke-width="1.4" />
</svg>
