<!--
  - Designed and developed by Duckie Team 2023.
  -
  - Licensed under the MIT.
  - Please see full license: https://github.com/duckie-team/quack-quack-android/blob/main/LICENSE
  -->

<svg fill="none" height="24" viewBox="0 0 24 24" width="24" xmlns="http://www.w3.org/2000/svg">
  <path
    d="M19.1025 16.4428L18.4288 15.5019C18.3373 15.3741 18.2798 15.2251 18.2617 15.0689C18.2437 14.9127 18.2657 14.7545 18.3256 14.6092C18.3856 14.4639 18.4816 14.3362 18.6045 14.2382C18.7275 14.1402 18.8733 14.0751 19.0284 14.0491L20.1691 13.8548C20.3659 13.8219 20.5468 13.7265 20.6851 13.5828C20.8235 13.439 20.9118 13.2545 20.9371 13.0566C20.9788 12.7059 20.9998 12.3532 20.9999 12.0001C20.9993 11.6383 20.9772 11.2769 20.9337 10.9177C20.9087 10.7194 20.8201 10.5344 20.6813 10.3906C20.5425 10.2467 20.3608 10.1516 20.1635 10.1195L19.0216 9.92971C18.8666 9.90411 18.7206 9.83947 18.5974 9.74189C18.4742 9.6443 18.3779 9.51697 18.3175 9.37189C18.257 9.2268 18.2345 9.06873 18.2521 8.91255C18.2696 8.75637 18.3265 8.60721 18.4176 8.47912L19.0913 7.53602C19.2088 7.37097 19.2694 7.17213 19.264 6.96957C19.2585 6.76701 19.1872 6.57174 19.0609 6.41327C18.6206 5.85962 18.1168 5.35957 17.5598 4.92338C17.4009 4.79776 17.2053 4.72729 17.0028 4.72263C16.8002 4.71797 16.6017 4.77937 16.4371 4.89756L15.4962 5.57121C15.3684 5.66276 15.2194 5.72027 15.0632 5.73832C14.907 5.75638 14.7488 5.73438 14.6035 5.67441C14.4582 5.61443 14.3305 5.51846 14.2325 5.39551C14.1345 5.27257 14.0694 5.12671 14.0434 4.97166L13.8536 3.82983C13.8211 3.6329 13.7258 3.45176 13.582 3.31337C13.4381 3.17499 13.2534 3.08678 13.0554 3.06187C12.7051 3.02015 12.3527 2.99915 12 2.999C11.6367 2.9987 11.2737 3.02082 10.9132 3.06524C10.7147 3.09009 10.5297 3.17858 10.3858 3.31743C10.2419 3.45628 10.1468 3.63803 10.1149 3.83544L9.92852 4.97728C9.90292 5.13234 9.83828 5.27834 9.7407 5.40153C9.64311 5.52472 9.51578 5.62106 9.3707 5.68147C9.22561 5.74189 9.06754 5.76439 8.91136 5.74687C8.75518 5.72935 8.60602 5.67238 8.47793 5.58131L7.5337 4.90767C7.36865 4.79011 7.16982 4.72949 6.96726 4.73496C6.76469 4.74042 6.56942 4.81169 6.41095 4.93798C5.85796 5.37912 5.35833 5.88327 4.92219 6.44022C4.79708 6.59941 4.72694 6.79487 4.72228 6.99729C4.71763 7.19971 4.77871 7.39819 4.89637 7.56296L5.57002 8.50382C5.66155 8.63156 5.71909 8.78049 5.7372 8.93659C5.75532 9.09269 5.73342 9.25084 5.67357 9.39614C5.61372 9.54145 5.51788 9.66914 5.39508 9.76719C5.27227 9.86525 5.12654 9.93045 4.97159 9.95666L3.82864 10.1464C3.63177 10.1788 3.45068 10.2741 3.31246 10.418C3.17423 10.5619 3.0863 10.7467 3.0618 10.9447C3.01902 11.2948 2.99765 11.6473 2.9978 12.0001C2.99837 12.3618 3.02049 12.7232 3.06405 13.0824C3.08908 13.2807 3.17762 13.4657 3.31644 13.6096C3.45526 13.7534 3.63691 13.8485 3.83425 13.8807L4.97721 14.0704C5.13156 14.0966 5.27678 14.1614 5.39933 14.2588C5.52187 14.3562 5.61777 14.4831 5.67807 14.6275C5.73837 14.772 5.76111 14.9294 5.74418 15.085C5.72725 15.2407 5.6712 15.3895 5.58124 15.5176L4.9076 16.4619C4.7902 16.627 4.72977 16.8259 4.73544 17.0285C4.74111 17.2311 4.81258 17.4263 4.93903 17.5846C5.3785 18.1386 5.88116 18.6393 6.43678 19.0767C6.59597 19.2018 6.79143 19.272 6.99385 19.2766C7.19627 19.2813 7.39475 19.2202 7.55952 19.1026L8.50039 18.4289C8.62812 18.3374 8.77705 18.2798 8.93315 18.2617C9.08925 18.2436 9.2474 18.2655 9.3927 18.3254C9.53801 18.3852 9.6657 18.481 9.76375 18.6038C9.86181 18.7266 9.92701 18.8724 9.95322 19.0273L10.1475 20.1692C10.1801 20.366 10.2754 20.547 10.4193 20.6851C10.5631 20.8233 10.7478 20.9113 10.9457 20.936C11.2963 20.9788 11.6491 21.0001 12.0022 21C12.364 20.9993 12.7254 20.9772 13.0846 20.9338C13.2827 20.9082 13.4674 20.8195 13.6112 20.6808C13.7549 20.542 13.8502 20.3607 13.8828 20.1636L14.0726 19.0206C14.0985 18.8657 14.1633 18.7199 14.2609 18.5969C14.3585 18.4739 14.4858 18.3777 14.6308 18.3173C14.7758 18.2569 14.9337 18.2344 15.0898 18.2517C15.2459 18.2691 15.395 18.3258 15.5232 18.4166L16.4663 19.0902C16.6313 19.2078 16.8302 19.2684 17.0327 19.2629C17.2353 19.2574 17.4306 19.1862 17.589 19.0599C18.1436 18.6211 18.6445 18.1184 19.0812 17.5621C19.2053 17.403 19.2745 17.2078 19.2784 17.006C19.2822 16.8042 19.2205 16.6065 19.1025 16.4428V16.4428Z"
    stroke="#222222" stroke-linecap="round" stroke-linejoin="round" stroke-width="1.5" />
  <path
    d="M16.0892 12.0001C16.089 12.8085 15.849 13.5987 15.3998 14.2708C14.9505 14.9429 14.312 15.4666 13.5651 15.7759C12.8182 16.0852 11.9963 16.166 11.2035 16.0083C10.4106 15.8505 9.68229 15.4612 9.11066 14.8895C8.53902 14.3179 8.1497 13.5896 7.99194 12.7967C7.83417 12.0039 7.91503 11.182 8.22429 10.4351C8.53356 9.68815 9.05734 9.0497 9.72943 8.60043C10.4015 8.15115 11.1917 7.91124 12.0001 7.91102C13.0846 7.91102 14.1247 8.34183 14.8915 9.10867C15.6584 9.87552 16.0892 10.9156 16.0892 12.0001Z"
    stroke="#222222" stroke-linecap="round" stroke-linejoin="round" stroke-width="1.5" />
</svg>
