<!--
  - Designed and developed by Duckie Team 2023.
  -
  - Licensed under the MIT.
  - Please see full license: https://github.com/duckie-team/quack-quack-android/blob/main/LICENSE
  -->

<svg fill="none" height="24" viewBox="0 0 24 24" width="24" xmlns="http://www.w3.org/2000/svg">
  <path
    d="M15.2961 8.123C16.256 8.123 17.0341 7.34487 17.0341 6.385C17.0341 5.42513 16.256 4.647 15.2961 4.647C14.3362 4.647 13.5581 5.42513 13.5581 6.385C13.5581 7.34487 14.3362 8.123 15.2961 8.123Z"
    stroke="#222222" stroke-linecap="round" stroke-linejoin="round" stroke-width="1.5" />
  <path
    d="M15.2961 19.352C16.256 19.352 17.0341 18.5739 17.0341 17.614C17.0341 16.6541 16.256 15.876 15.2961 15.876C14.3362 15.876 13.5581 16.6541 13.5581 17.614C13.5581 18.5739 14.3362 19.352 15.2961 19.352Z"
    stroke="#222222" stroke-linecap="round" stroke-linejoin="round" stroke-width="1.5" />
  <path
    d="M7.61495 13.758C8.57482 13.758 9.35295 12.9799 9.35295 12.02C9.35295 11.0601 8.57482 10.282 7.61495 10.282C6.65508 10.282 5.87695 11.0601 5.87695 12.02C5.87695 12.9799 6.65508 13.758 7.61495 13.758Z"
    stroke="#222222" stroke-linecap="round" stroke-linejoin="round" stroke-width="1.5" />
  <path d="M9.01001 10.985L13.856 7.36" stroke="#222222" stroke-linecap="round" stroke-linejoin="round"
    stroke-width="1.5" />
  <path d="M13.852 16.647L9.01001 13.061" stroke="#222222" stroke-linecap="round" stroke-linejoin="round"
    stroke-width="1.5" />
</svg>
