<!--
  - Designed and developed by Duckie Team 2023.
  -
  - Licensed under the MIT.
  - Please see full license: https://github.com/duckie-team/quack-quack-android/blob/main/LICENSE
  -->

<svg fill="none" height="24" viewBox="0 0 24 24" width="24" xmlns="http://www.w3.org/2000/svg">
  <path
    d="M12.339 4.374L4.39901 12.315C4.27407 12.4397 4.17495 12.5877 4.10732 12.7507C4.03969 12.9138 4.00488 13.0885 4.00488 13.265C4.00488 13.4415 4.03969 13.6162 4.10732 13.7793C4.17495 13.9423 4.27407 14.0903 4.39901 14.215L9.82701 19.643C9.95153 19.7682 10.0996 19.8675 10.2626 19.9353C10.4256 20.0031 10.6004 20.038 10.777 20.038C10.9536 20.038 11.1284 20.0031 11.2914 19.9353C11.4545 19.8675 11.6025 19.7682 11.727 19.643L19.67 11.695C19.8019 11.5594 19.9052 11.3987 19.9739 11.2225C20.0426 11.0463 20.0753 10.8581 20.07 10.669L20.045 7.654L20.025 5.341C20.0183 4.99107 19.8762 4.65736 19.6285 4.41006C19.3809 4.16276 19.047 4.02115 18.697 4.015L16.385 3.991L13.375 3.965C13.1837 3.96029 12.9935 3.99407 12.8155 4.06433C12.6375 4.13459 12.4755 4.2399 12.339 4.374V4.374Z"
    stroke="#222222" stroke-linecap="round" stroke-linejoin="round" stroke-width="1.5" />
  <path
    d="M15.473 10.052C16.2932 10.052 16.958 9.38714 16.958 8.567C16.958 7.74686 16.2932 7.082 15.473 7.082C14.6529 7.082 13.988 7.74686 13.988 8.567C13.988 9.38714 14.6529 10.052 15.473 10.052Z"
    stroke="#222222" stroke-miterlimit="10" stroke-width="1.5" />
</svg>
