<svg xmlns="http://www.w3.org/2000/svg" width="16" height="16" fill="none" viewBox="0 0 16 16"><path fill="#222" d="M14.5521 7.313H12.8221L14.0221 2.946H13.0001L11.8361 7.313H9.71109L8.52008 2.959H7.50009L6.30008 7.313H4.18008L3.01608 2.946H1.98007L3.18008 7.313H1.44409V8.322H3.4581L4.75809 13.054H5.69608L6.98108 8.322H9.00909L10.3021 13.054H11.2401L12.5401 8.322H14.5461L14.5521 7.313ZM5.22809 11.247L4.44809 8.322H6.02908L5.22809 11.247ZM7.26309 7.313L8.00009 4.597L8.7421 7.313H7.26309ZM10.7861 11.247L9.98608 8.322H11.5661L10.7861 11.247Z"/></svg>