<!--
  - Designed and developed by Duckie Team 2023.
  -
  - Licensed under the MIT.
  - Please see full license: https://github.com/duckie-team/quack-quack-android/blob/main/LICENSE
  -->

<svg fill="none" height="24" viewBox="0 0 24 24" width="24" xmlns="http://www.w3.org/2000/svg">
  <path d="M9.58203 7.595H17.829" stroke="#222222" stroke-linecap="round" stroke-linejoin="round" stroke-width="1.7" />
  <path d="M9.58203 12H17.829" stroke="#222222" stroke-linecap="round" stroke-linejoin="round" stroke-width="1.7" />
  <path d="M9.58203 16.405H17.829" stroke="#222222" stroke-linecap="round" stroke-linejoin="round" stroke-width="1.7" />
  <path
    d="M7.14699 7.595C7.1464 7.77521 7.09243 7.9512 6.99191 8.10076C6.89138 8.25032 6.7488 8.36674 6.58216 8.43534C6.41552 8.50394 6.23229 8.52163 6.05561 8.48618C5.87892 8.45074 5.7167 8.36374 5.58941 8.23618C5.46213 8.10861 5.37549 7.9462 5.34043 7.76943C5.30537 7.59267 5.32346 7.40948 5.39242 7.243C5.46138 7.07651 5.57812 6.93418 5.7279 6.83398C5.87768 6.73378 6.05379 6.6802 6.23399 6.68C6.47579 6.68026 6.70761 6.77644 6.87858 6.94741C7.04956 7.11839 7.14573 7.3502 7.14599 7.592"
    fill="#222222" />
  <path
    d="M7.147 12C7.1472 12.1804 7.0939 12.3568 6.99385 12.5069C6.89381 12.6569 6.7515 12.774 6.58493 12.8432C6.41836 12.9124 6.23501 12.9307 6.05806 12.8957C5.88111 12.8607 5.71851 12.774 5.59082 12.6466C5.46314 12.5192 5.3761 12.3568 5.34072 12.1799C5.30533 12.003 5.32319 11.8196 5.39204 11.6529C5.46088 11.4862 5.57762 11.3436 5.72749 11.2433C5.87735 11.1429 6.05362 11.0892 6.234 11.089C6.47579 11.0893 6.70761 11.1854 6.87859 11.3564C7.04956 11.5274 7.14573 11.7592 7.146 12.001"
    fill="#222222" />
  <path
    d="M7.14699 16.405C7.14778 16.5855 7.09499 16.7622 6.99531 16.9127C6.89562 17.0631 6.75352 17.1807 6.58701 17.2503C6.42049 17.32 6.23705 17.3387 6.0599 17.304C5.88275 17.2694 5.71988 17.1829 5.59189 17.0557C5.4639 16.9284 5.37657 16.766 5.34094 16.589C5.30531 16.4121 5.323 16.2285 5.39175 16.0616C5.4605 15.8947 5.57724 15.752 5.72717 15.6515C5.8771 15.551 6.05349 15.4972 6.23399 15.497C6.47579 15.4973 6.7076 15.5934 6.87858 15.7644C7.04955 15.9354 7.14573 16.1672 7.14599 16.409"
    fill="#222222" />
</svg>
