<!--
  - Designed and developed by Duckie Team, 2022~2023
  -
  - Licensed under the MIT.
  - Please see full license: https://github.com/duckie-team/duckie-quack-quack/blob/main/LICENSE
  -->

<svg width="280" height="44" viewBox="0 0 280 44" fill="none" xmlns="http://www.w3.org/2000/svg">
    <rect x="0.5" y="0.5" width="279" height="43" rx="7.5" fill="white"/>
    <path d="M109.489 14.858C113.941 14.419 116.918 19.426 114.732 23.329L110.22 29.102C110.208 29.1231 110.191 29.1405 110.17 29.1527C110.149 29.1649 110.126 29.1713 110.101 29.1713C110.077 29.1713 110.054 29.1649 110.033 29.1527C110.012 29.1405 109.995 29.1231 109.983 29.102L105.304 23.202C104.554 21.9432 104.328 20.4401 104.675 19.0165C105.022 17.5928 105.915 16.3624 107.16 15.59C107.685 15.2882 108.255 15.0734 108.848 14.954C109.06 14.9113 109.274 14.8793 109.489 14.858V14.858Z" stroke="#222222" stroke-width="1.5" stroke-linecap="round" stroke-linejoin="round"/>
    <path d="M111.783 20.3521C111.783 20.705 111.679 21.05 111.483 21.3435C111.287 21.637 111.008 21.8658 110.682 22.001C110.356 22.1362 109.998 22.1717 109.652 22.1029C109.305 22.0342 108.987 21.8644 108.738 21.6149C108.488 21.3655 108.318 21.0476 108.249 20.7015C108.18 20.3554 108.216 19.9967 108.351 19.6706C108.486 19.3446 108.714 19.0659 109.008 18.8698C109.301 18.6737 109.646 18.5691 109.999 18.5691C110.472 18.5691 110.926 18.7569 111.26 19.0913C111.595 19.4256 111.783 19.8791 111.783 20.3521V20.3521Z" stroke="#222222" stroke-width="1.5" stroke-linecap="round" stroke-linejoin="round"/>
    <path d="M127.96 24.648C128.389 25.18 128.833 25.5533 129.29 25.768C129.747 25.9733 130.186 26.076 130.606 26.076C131.343 26.076 131.927 25.908 132.356 25.572C132.785 25.2267 133 24.7693 133 24.2C133 23.8827 132.897 23.612 132.692 23.388C132.487 23.164 132.225 22.9867 131.908 22.856C131.6 22.7253 131.18 22.5713 130.648 22.394C129.967 22.1793 129.411 21.974 128.982 21.778C128.553 21.582 128.184 21.2973 127.876 20.924C127.577 20.5413 127.428 20.0513 127.428 19.454C127.428 18.9127 127.587 18.432 127.904 18.012C128.231 17.592 128.651 17.27 129.164 17.046C129.677 16.822 130.205 16.71 130.746 16.71C131.978 16.71 133.014 17.228 133.854 18.264L132.944 18.978C132.627 18.5767 132.295 18.278 131.95 18.082C131.605 17.886 131.203 17.788 130.746 17.788C130.363 17.788 130.013 17.858 129.696 17.998C129.379 18.138 129.127 18.3387 128.94 18.6C128.753 18.852 128.66 19.1367 128.66 19.454C128.66 19.7993 128.767 20.0887 128.982 20.322C129.197 20.5553 129.463 20.742 129.78 20.882C130.097 21.022 130.536 21.1807 131.096 21.358C131.768 21.5913 132.309 21.806 132.72 22.002C133.14 22.1887 133.495 22.464 133.784 22.828C134.083 23.1827 134.232 23.64 134.232 24.2C134.232 24.7693 134.073 25.278 133.756 25.726C133.439 26.174 133.005 26.524 132.454 26.776C131.903 27.028 131.287 27.154 130.606 27.154C130.046 27.154 129.449 27.0327 128.814 26.79C128.189 26.538 127.596 26.062 127.036 25.362L127.96 24.648ZM137.345 23.962C137.345 24.5407 137.504 25.026 137.821 25.418C138.139 25.8007 138.587 25.992 139.165 25.992C139.567 25.992 139.917 25.8847 140.215 25.67C140.523 25.4553 140.757 25.1847 140.915 24.858C141.083 24.522 141.167 24.1907 141.167 23.864V19.79H142.399V27.042H141.167V25.894C140.971 26.1647 140.775 26.384 140.579 26.552C140.383 26.7107 140.159 26.832 139.907 26.916C139.665 27 139.38 27.042 139.053 27.042C138.484 27.0513 137.98 26.93 137.541 26.678C137.103 26.426 136.753 26.0713 136.491 25.614C136.239 25.1567 136.113 24.6387 136.113 24.06V19.832H137.345V23.962ZM147.735 26.062C148.435 26.062 148.986 25.8193 149.387 25.334C149.789 24.8393 149.989 24.2233 149.989 23.486C149.989 23.01 149.896 22.5807 149.709 22.198C149.532 21.806 149.275 21.498 148.939 21.274C148.603 21.0407 148.202 20.924 147.735 20.924C147.334 20.924 146.961 21.0407 146.615 21.274C146.27 21.5073 145.995 21.82 145.789 22.212C145.584 22.604 145.481 23.0287 145.481 23.486C145.481 23.9433 145.584 24.3727 145.789 24.774C145.995 25.166 146.27 25.4787 146.615 25.712C146.961 25.9453 147.334 26.062 147.735 26.062ZM147.805 19.874C148.515 19.874 149.126 20.0373 149.639 20.364C150.153 20.6907 150.545 21.1293 150.815 21.68C151.086 22.2213 151.221 22.8233 151.221 23.486C151.221 24.1487 151.086 24.7553 150.815 25.306C150.545 25.8567 150.148 26.2953 149.625 26.622C149.112 26.9487 148.501 27.112 147.791 27.112C147.521 27.112 147.25 27.07 146.979 26.986C146.709 26.902 146.443 26.7573 146.181 26.552C145.92 26.3467 145.687 26.0713 145.481 25.726V27H144.249V16.808H145.481V21.246C145.78 20.77 146.135 20.4247 146.545 20.21C146.956 19.986 147.376 19.874 147.805 19.874ZM156.01 26.874C155.852 26.93 155.716 26.9673 155.604 26.986C155.492 27.0047 155.338 27.014 155.142 27.014C154.778 27.014 154.438 26.9253 154.12 26.748C153.812 26.5613 153.57 26.314 153.392 26.006C153.215 25.6887 153.126 25.3387 153.126 24.956V18.194H154.358V24.956C154.358 25.2267 154.433 25.4553 154.582 25.642C154.741 25.8287 154.946 25.9267 155.198 25.936C155.226 25.936 155.245 25.936 155.254 25.936C155.264 25.936 155.278 25.9313 155.296 25.922C155.371 25.922 155.441 25.9173 155.506 25.908C155.572 25.8893 155.651 25.866 155.744 25.838L156.066 26.86L156.01 26.874ZM151.922 19.972H155.912V21.022H151.922V19.972ZM158.924 19.818V27.056H157.692V19.818H158.924ZM158.308 16.626C158.532 16.626 158.709 16.696 158.84 16.836C158.97 16.9667 159.036 17.1393 159.036 17.354C159.036 17.5593 158.97 17.732 158.84 17.872C158.709 18.012 158.532 18.082 158.308 18.082C158.074 18.082 157.892 18.012 157.762 17.872C157.631 17.732 157.566 17.5547 157.566 17.34C157.566 17.1347 157.631 16.9667 157.762 16.836C157.892 16.696 158.074 16.626 158.308 16.626ZM164.516 26.874C164.357 26.93 164.222 26.9673 164.11 26.986C163.998 27.0047 163.844 27.014 163.648 27.014C163.284 27.014 162.943 26.9253 162.626 26.748C162.318 26.5613 162.075 26.314 161.898 26.006C161.72 25.6887 161.632 25.3387 161.632 24.956V18.194H162.864V24.956C162.864 25.2267 162.938 25.4553 163.088 25.642C163.246 25.8287 163.452 25.9267 163.704 25.936C163.732 25.936 163.75 25.936 163.76 25.936C163.769 25.936 163.783 25.9313 163.802 25.922C163.876 25.922 163.946 25.9173 164.012 25.908C164.077 25.8893 164.156 25.866 164.25 25.838L164.572 26.86L164.516 26.874ZM160.428 19.972H164.418V21.022H160.428V19.972ZM167.233 16.808V27.056H166.001V16.808H167.233ZM174.07 23.01C174.033 22.6087 173.94 22.2493 173.79 21.932C173.641 21.6147 173.422 21.358 173.132 21.162C172.843 20.9567 172.474 20.854 172.026 20.854C171.606 20.854 171.238 20.938 170.92 21.106C170.612 21.274 170.36 21.5213 170.164 21.848C169.968 22.1653 169.842 22.5573 169.786 23.024L174.07 23.01ZM174.966 21.764C175.144 22.2213 175.242 22.6413 175.26 23.024C175.279 23.4067 175.279 23.7287 175.26 23.99V24.018H169.786C169.861 24.4193 169.992 24.774 170.178 25.082C170.374 25.3807 170.626 25.614 170.934 25.782C171.252 25.95 171.611 26.034 172.012 26.034C172.61 26.034 173.058 25.9267 173.356 25.712C173.664 25.4973 173.888 25.2733 174.028 25.04L174.056 24.998L175.036 25.502C174.831 25.9407 174.472 26.314 173.958 26.622C173.445 26.93 172.792 27.084 171.998 27.084C171.289 27.084 170.673 26.9253 170.15 26.608C169.628 26.2813 169.231 25.8427 168.96 25.292C168.699 24.732 168.568 24.116 168.568 23.444C168.568 22.7813 168.699 22.1747 168.96 21.624C169.231 21.064 169.628 20.6207 170.15 20.294C170.673 19.9673 171.289 19.804 171.998 19.804C172.67 19.804 173.221 19.9393 173.65 20.21C174.08 20.4713 174.388 20.7467 174.574 21.036C174.77 21.316 174.901 21.554 174.966 21.75V21.764ZM180.006 27.014H178.774V18.222L177.206 19.146L176.618 18.152L178.774 16.878H180.006V27.014Z" fill="#222222"/>
    <rect x="0.5" y="0.5" width="279" height="43" rx="7.5" stroke="#EFEFEF"/>
</svg>
