<svg xmlns:xlink="http://www.w3.org/1999/xlink" viewBox="0 0 138.96 138.96" xmlns="http://www.w3.org/2000/svg">
    <defs>
        <clipPath id="A">
            <path d="M138.96,69.48C138.96,17.37,121.59,0,69.48,0S0,17.37,0,69.48s17.37,69.48,69.48,69.48,69.48-17.37,69.48-69.48"
                fill="none" />
        </clipPath>
        <path d="M51.4,72.4c-.51,.98-.65,2.23-.06,3.16,.45,.7,1.28,1.14,2.12,1.1s1.63-.55,2.01-1.29c.48-.94,.29-2.08-.07-3.07-1.04-2.87-2.72-2.36-4,.09Z"
            id="B" />
    </defs>
    <path d="M0,69.48C0,17.37,17.37,0,69.48,0s69.48,17.37,69.48,69.48-17.37,69.48-69.48,69.48S0,121.59,0,69.48"
        fill="#fff4e8" />
    <g clip-path="url(#A)">
        <path d="M115.64 137.49c1.06-.99 1.98-2.14 2.85-3.31 11.53-15.46 17.47-34.99 16.49-54.25-.27-5.36-1.15-10.92-4.27-15.28-1.96-2.75-5.39-5.01-8.58-3.93-1.44.49-2.6 1.58-3.64 2.69-4.77 5.1-8.29 11.36-10.17 18.08-.13.47-.35.93-.51 1.39"
            fill="#ffe69f" />
        <path
            d="M115.64 138.26c.19 0 .38-.07.52-.21 1.15-1.07 2.13-2.32 2.94-3.41 11.56-15.49 17.62-35.45 16.64-54.75-.24-4.77-.96-10.86-4.41-15.69-2.12-2.97-5.87-5.42-9.46-4.21-1.6.54-2.85 1.71-3.95 2.9-4.85 5.19-8.43 11.55-10.35 18.39-.07.24-.17.49-.27.75l-.23.6c-.14.4.08.84.48.98s.84-.08.98-.48c.06-.18.13-.35.2-.53.12-.29.23-.58.32-.9a43.36 43.36 0 0 1 9.99-17.76c.97-1.04 2.04-2.06 3.32-2.49 2.84-.96 5.92 1.14 7.71 3.65 3.22 4.5 3.89 10.31 4.13 14.87.96 18.95-4.99 38.54-16.34 53.75-.77 1.03-1.7 2.22-2.75 3.2-.31.29-.33.78-.04 1.09.15.16.36.25.56.25z" />
        <g fill="#ffe69f">
            <path
                d="M111.92 86.17l-14.24-3.7L.6 91.81l-15.37 5.51-11.39 16.31-15.56 52.72 1.22 3.57h33.77l125.86-54.9-7.21-28.85z" />
            <path
                d="M-7.19 97.32C-5.39 82.09-5.33 81-1.06 66.27s11.14-28.99 21.87-39.95c4.14-4.23 7.26-6.12 10.19-7.4 6.16-2.7 11.94-2.61 16.83-2.53 1.81.03 7.27.2 12.9 1.63C77.3 22.25 88.01 35.6 89.96 38.1c7.1 9.13 9.9 18.87 15.51 38.34 1.32 4.59 2.28 8.44 2.91 11.11" />
        </g>
        <path
            d="M-7.19 98.09c.38 0 .72-.29.76-.68l.14-1.22c1.65-13.98 1.82-15.44 5.96-29.7 4.77-16.47 12.07-29.8 21.68-39.62 4.35-4.44 7.47-6.15 9.95-7.23 6.01-2.63 11.58-2.54 16.51-2.47 2.55.04 7.6.3 12.72 1.61 15.52 3.96 25.98 16.16 28.81 19.8 7.01 9.02 9.81 18.73 15.38 38.08 1.05 3.65 2.03 7.38 2.9 11.07a.77.77 0 0 0 1.5-.36 240.36 240.36 0 0 0-2.92-11.15c-5.62-19.54-8.44-29.35-15.64-38.6-2.91-3.74-13.65-16.27-29.64-20.35-5.28-1.35-10.46-1.62-13.08-1.66-4.83-.08-10.84-.17-17.15 2.6-2.62 1.15-5.9 2.94-10.43 7.57C10.47 35.79 3.04 49.34-1.8 66.06-5.97 80.45-6.14 81.92-7.81 96.01l-.14 1.22c-.05.42.25.81.67.86h.09z" />
        <use xlink:href="#B" />
        <path
            d="M51.09 75.72c-.71-1.13-.44-2.52.04-3.46.77-1.48 1.68-2.27 2.56-2.21.56.04 1.36.44 1.98 2.15.48 1.33.5 2.44.06 3.31-.43.84-1.32 1.41-2.26 1.45h-.12a2.73 2.73 0 0 1-2.27-1.25zm.57-3.18h0c-.41.79-.65 1.95-.07 2.87a2.17 2.17 0 0 0 1.85.97 2.15 2.15 0 0 0 1.76-1.13c.37-.71.34-1.67-.09-2.83-.4-1.1-.92-1.72-1.46-1.76h-.05c-.61 0-1.31.68-1.94 1.89zm20.2-.14c-.51.98-.65 2.23-.06 3.16a2.43 2.43 0 0 0 2.12 1.1 2.43 2.43 0 0 0 2.01-1.29c.48-.94.29-2.08-.07-3.07-1.04-2.87-2.72-2.36-4 .09z" />
        <path
            d="M71.55 75.72c-.71-1.13-.44-2.52.04-3.46.77-1.48 1.68-2.28 2.56-2.21.56.04 1.36.44 1.98 2.15.48 1.33.5 2.44.06 3.31-.43.84-1.32 1.41-2.26 1.45h-.12a2.73 2.73 0 0 1-2.27-1.25zm.57-3.18h0c-.41.79-.65 1.95-.07 2.87.39.61 1.14 1.01 1.85.97a2.15 2.15 0 0 0 1.76-1.13c.37-.71.34-1.67-.09-2.83-.4-1.1-.92-1.72-1.46-1.76h-.05c-.61 0-1.31.68-1.95 1.89z" />
        <path d="M55.98 85.48c2.21-.5 4.5-.6 6.78-.68 8.84-.31 17.7-.24 26.53.2 5.03.25 10.16.64 14.79 2.42s8.74 5.18 9.84 9.55c.38 1.51.37 3.15-.36 4.55-1.09 2.09-3.56 3.31-5.97 4.14-7.53 2.6-15.8 2.74-23.87 2.85-8.1.11-16.28.21-24.21-1.29-5.32-1.01-14.72-3.99-15.96-9.61-1.2-5.46 7.44-11 12.42-12.12z"
            fill="#ff6b00" />
        <path d="M38.36 37.74c-4.3-.24-8.4-2-11.24-4.82-.3-.3-.3-.79 0-1.09s.79-.3 1.09 0c2.58 2.56 6.31 4.16 10.24 4.38 3.65.2 7.48-.72 11.05-2.67 2.34-1.27 3.95-2.74 4.81-4.37a16.43 16.43 0 0 1-2.77-1.72c-.79-.61-1.9-1.56-2.47-2.91-.34-.81-.39-1.59-.13-2.25.54-1.36 2.22-1.79 3.52-1.49 1.31.3 2.44 1.17 3.18 2.46.87 1.51 1.11 3.44.65 5.09 3.2 1.25 6.81 1.47 10.11.54 2.71-.76 4.82-2.22 5.94-4.1 1.28-2.14 1.1-4.92-.42-6.46-.3-.3-.29-.79 0-1.09.3-.3.79-.29 1.09 0 1.99 2.03 2.27 5.61.65 8.33-1.32 2.22-3.75 3.92-6.85 4.79-3.62 1.02-7.58.77-11.09-.6-1 1.94-2.83 3.66-5.49 5.1-3.48 1.9-7.18 2.88-10.79 2.88-.36 0-.72 0-1.08-.03zm12.02-14.89c-.14.36 0 .83.11 1.08.32.77.95 1.49 1.99 2.28.75.57 1.55 1.07 2.38 1.5.28-1.21.07-2.6-.55-3.69-.37-.65-1.05-1.47-2.19-1.73a1.99 1.99 0 0 0-.49-.05c-.55 0-1.09.2-1.25.61z"
            fill="#f80" />
        <path d="M111.7 107.33c1.94 9.72 3.08 19.61 3.4 29.52.39 12.03-.48 24.3-4.77 35.54s-12.36 21.42-23.37 26.28c-6.79 3-14.3 3.86-21.7 4.51-18.89 1.68-38.13 2.23-56.63-1.96-18.5-4.18-36.36-13.52-47.82-28.63-1.07-1.41-1.81-3.08-2.28-4.79"
            fill="#ffe69f" />
        <path
            d="M40.41 205.21c8.71 0 17.13-.57 24.92-1.26 7.63-.68 15.05-1.54 21.94-4.57 10.38-4.58 19.04-14.31 23.78-26.71 3.76-9.85 5.29-21.23 4.82-35.84-.32-9.93-1.47-19.9-3.42-29.64a.76.76 0 0 0-1.51.31 180.27 180.27 0 0 1 3.39 29.39c.46 14.4-1.04 25.59-4.72 35.24-4.59 12.01-12.96 21.43-22.96 25.85-6.67 2.94-13.95 3.78-21.45 4.45-16.98 1.51-36.96 2.45-56.39-1.94-20.14-4.56-36.97-14.62-47.38-28.35-.94-1.24-1.67-2.76-2.15-4.53-.11-.41-.54-.65-.95-.54s-.65.54-.54.95c.54 1.95 1.35 3.65 2.41 5.05 10.63 14.01 27.77 24.28 48.26 28.92 10.69 2.42 21.53 3.24 31.94 3.24z" />
    </g>
</svg>
