<?xml version="1.0" encoding="UTF-8" standalone="no"?><!DOCTYPE svg PUBLIC "-//W3C//DTD SVG 1.1//EN"
  "http://www.w3.org/Graphics/SVG/1.1/DTD/svg11.dtd"><!-- Generated by graphviz version 5.0.0 (20220707.1540)
 -->
<!-- Pages: 1 -->
<svg width="1908pt" height="1077pt" viewBox="0.00 0.00 1907.69 1077.00" xmlns="http://www.w3.org/2000/svg">
  <g id="graph0" class="graph" transform="scale(1 1) rotate(0) translate(4 1073)">
    <polygon fill="white" stroke="transparent" points="-4,4 -4,-1073 1903.69,-1073 1903.69,4 -4,4" />
    <text text-anchor="middle" x="949.84" y="-1041" font-family="Times,serif" font-size="30.00">quack&#45;quack</text>
    <text text-anchor="middle" x="949.84" y="-1008" font-family="Times,serif" font-size="30.00"></text>
    <!-- :animation -->
    <g id="node1" class="node">
      <title>:animation</title>
      <ellipse fill="#36bcf5" stroke="black" cx="1389.14" cy="-703" rx="48.99" ry="18" />
      <text text-anchor="middle" x="1389.14" y="-699.3" font-family="Times,serif" font-size="14.00">:animation</text>
    </g>
    <!-- :material -->
    <g id="node7" class="node">
      <title>:material</title>
      <ellipse fill="#36bcf5" stroke="black" cx="1462.14" cy="-566" rx="42.49" ry="18" />
      <text text-anchor="middle" x="1462.14" y="-562.3" font-family="Times,serif" font-size="14.00">:material</text>
    </g>
    <!-- :animation&#45;&gt;:material -->
    <g id="edge25" class="edge">
      <title>:animation&#45;&gt;:material</title>
      <path fill="none" stroke="black" d="M1398.24,-685.18C1410.82,-661.91 1433.64,-619.71 1448.33,-592.54" />
      <polygon fill="black" stroke="black" points="1451.48,-594.07 1453.16,-583.61 1445.33,-590.74 1451.48,-594.07" />
    </g>
    <!-- :util -->
    <g id="node26" class="node">
      <title>:util</title>
      <ellipse fill="#eeeeee" stroke="black" cx="1282.14" cy="-429" rx="27" ry="18" />
      <text text-anchor="middle" x="1282.14" y="-425.3" font-family="Times,serif" font-size="14.00">:util</text>
    </g>
    <!-- :animation&#45;&gt;:util -->
    <g id="edge26" class="edge">
      <title>:animation&#45;&gt;:util</title>
      <path fill="none" stroke="black" stroke-dasharray="1,5"
        d="M1383.07,-684.81C1372.93,-656.25 1351.7,-597.29 1332.14,-548 1319.51,-516.15 1303.98,-479.92 1293.61,-456.1" />
      <polygon fill="black" stroke="black" points="1296.72,-454.47 1289.51,-446.7 1290.3,-457.27 1296.72,-454.47" />
    </g>
    <!-- :casa&#45;annotation -->
    <g id="node2" class="node">
      <title>:casa&#45;annotation</title>
      <ellipse fill="#d4c5f9" stroke="black" cx="1046.14" cy="-18" rx="68.49" ry="18" />
      <text text-anchor="middle" x="1046.14" y="-14.3" font-family="Times,serif" font-size="14.00">
        :casa&#45;annotation
      </text>
    </g>
    <!-- :casa&#45;material -->
    <g id="node3" class="node">
      <title>:casa&#45;material</title>
      <ellipse fill="#d4c5f9" stroke="black" cx="733.14" cy="-703" rx="60.39" ry="18" />
      <text text-anchor="middle" x="733.14" y="-699.3" font-family="Times,serif" font-size="14.00">:casa&#45;material
      </text>
    </g>
    <!-- :casa&#45;processor -->
    <g id="node4" class="node">
      <title>:casa&#45;processor</title>
      <ellipse fill="#d4c5f9" stroke="black" cx="138.14" cy="-977" rx="64.99" ry="18" />
      <text text-anchor="middle" x="138.14" y="-973.3" font-family="Times,serif" font-size="14.00">:casa&#45;processor
      </text>
    </g>
    <!-- :util&#45;backend&#45;kotlinpoet -->
    <g id="node28" class="node">
      <title>:util&#45;backend&#45;kotlinpoet</title>
      <ellipse fill="#eeeeee" stroke="black" cx="334.14" cy="-429" rx="95.58" ry="18" />
      <text text-anchor="middle" x="334.14" y="-425.3" font-family="Times,serif" font-size="14.00">:util&#45;backend&#45;kotlinpoet</text>
    </g>
    <!-- :casa&#45;processor&#45;&gt;:util&#45;backend&#45;kotlinpoet -->
    <g id="edge35" class="edge">
      <title>:casa&#45;processor&#45;&gt;:util&#45;backend&#45;kotlinpoet</title>
      <path fill="none" stroke="black" stroke-dasharray="1,5"
        d="M143.35,-958.68C161.06,-900.23 221.22,-705.16 282.14,-548 294.53,-516.04 310.71,-480.09 321.7,-456.37" />
      <polygon fill="black" stroke="black" points="325.02,-457.54 326.07,-446.99 318.68,-454.58 325.02,-457.54" />
    </g>
    <!-- :util&#45;backend&#45;ksp -->
    <g id="node29" class="node">
      <title>:util&#45;backend&#45;ksp</title>
      <ellipse fill="#eeeeee" stroke="black" cx="72.14" cy="-840" rx="72.29" ry="18" />
      <text text-anchor="middle" x="72.14" y="-836.3" font-family="Times,serif" font-size="14.00">:util&#45;backend&#45;ksp</text>
    </g>
    <!-- :casa&#45;processor&#45;&gt;:util&#45;backend&#45;ksp -->
    <g id="edge34" class="edge">
      <title>:casa&#45;processor&#45;&gt;:util&#45;backend&#45;ksp</title>
      <path fill="none" stroke="black" stroke-dasharray="1,5"
        d="M129.78,-958.9C118.48,-935.77 98.2,-894.31 84.96,-867.22" />
      <polygon fill="black" stroke="black" points="87.97,-865.41 80.43,-857.96 81.68,-868.48 87.97,-865.41" />
    </g>
    <!-- :casa&#45;ui -->
    <g id="node5" class="node">
      <title>:casa&#45;ui</title>
      <ellipse fill="#d4c5f9" stroke="black" cx="839.14" cy="-840" rx="38.19" ry="18" />
      <text text-anchor="middle" x="839.14" y="-836.3" font-family="Times,serif" font-size="14.00">:casa&#45;ui</text>
    </g>
    <!-- :casa&#45;ui&#45;&gt;:casa&#45;material -->
    <g id="edge1" class="edge">
      <title>:casa&#45;ui&#45;&gt;:casa&#45;material</title>
      <path fill="none" stroke="black" d="M826.57,-822.98C808.28,-799.69 774.18,-756.26 752.62,-728.81" />
      <polygon fill="black" stroke="black" points="755.3,-726.55 746.37,-720.84 749.79,-730.87 755.3,-726.55" />
    </g>
    <!-- :catalog -->
    <g id="node6" class="node">
      <title>:catalog</title>
      <polygon fill="#8ed610" stroke="black"
        points="1224.64,-995 1165.64,-995 1165.64,-959 1224.64,-959 1224.64,-995" />
      <text text-anchor="middle" x="1195.14" y="-973.3" font-family="Times,serif" font-size="14.00">:catalog</text>
    </g>
    <!-- :catalog&#45;&gt;:casa&#45;ui -->
    <g id="edge4" class="edge">
      <title>:catalog&#45;&gt;:casa&#45;ui</title>
      <path fill="none" stroke="black" stroke-dasharray="1,5"
        d="M1165.4,-964.72C1101.08,-940.33 949.09,-882.69 877.59,-855.58" />
      <polygon fill="black" stroke="black" points="878.64,-852.24 868.05,-851.96 876.16,-858.78 878.64,-852.24" />
    </g>
    <!-- :ui -->
    <g id="node19" class="node">
      <title>:ui</title>
      <ellipse fill="#36bcf5" stroke="black" cx="1293.14" cy="-840" rx="27" ry="18" />
      <text text-anchor="middle" x="1293.14" y="-836.3" font-family="Times,serif" font-size="14.00">:ui</text>
    </g>
    <!-- :catalog&#45;&gt;:ui -->
    <g id="edge2" class="edge">
      <title>:catalog&#45;&gt;:ui</title>
      <path fill="none" stroke="black" stroke-dasharray="1,5"
        d="M1207.56,-958.9C1224.84,-935.09 1256.25,-891.82 1275.83,-864.85" />
      <polygon fill="black" stroke="black" points="1278.7,-866.85 1281.74,-856.7 1273.04,-862.74 1278.7,-866.85" />
    </g>
    <!-- :ui&#45;plugin:image:gif -->
    <g id="node22" class="node">
      <title>:ui&#45;plugin:image:gif</title>
      <ellipse fill="#eeeeee" stroke="black" cx="1725.14" cy="-840" rx="81.79" ry="18" />
      <text text-anchor="middle" x="1725.14" y="-836.3" font-family="Times,serif" font-size="14.00">:ui&#45;plugin:image:gif</text>
    </g>
    <!-- :catalog&#45;&gt;:ui&#45;plugin:image:gif -->
    <g id="edge5" class="edge">
      <title>:catalog&#45;&gt;:ui&#45;plugin:image:gif</title>
      <path fill="none" stroke="black" stroke-dasharray="1,5"
        d="M1224.77,-968.45C1308.78,-947.05 1549.8,-885.66 1663.88,-856.61" />
      <polygon fill="black" stroke="black" points="1665.03,-859.92 1673.85,-854.06 1663.3,-853.14 1665.03,-859.92" />
    </g>
    <!-- :catalog&#45;&gt;:util -->
    <g id="edge3" class="edge">
      <title>:catalog&#45;&gt;:util</title>
      <path fill="none" stroke="black" stroke-dasharray="1,5"
        d="M1182.22,-958.94C1149.87,-914.08 1070.26,-789.08 1103.14,-685 1134.37,-586.15 1219.16,-492.39 1259.82,-451.5" />
      <polygon fill="black" stroke="black" points="1262.47,-453.8 1267.1,-444.27 1257.54,-448.83 1262.47,-453.8" />
    </g>
    <!-- :material&#45;icon -->
    <g id="node8" class="node">
      <title>:material&#45;icon</title>
      <ellipse fill="#36bcf5" stroke="black" cx="1425.14" cy="-429" rx="60.39" ry="18" />
      <text text-anchor="middle" x="1425.14" y="-425.3" font-family="Times,serif" font-size="14.00">:material&#45;icon
      </text>
    </g>
    <!-- :material&#45;&gt;:material&#45;icon -->
    <g id="edge32" class="edge">
      <title>:material&#45;&gt;:material&#45;icon</title>
      <path fill="none" stroke="black" d="M1457.46,-547.9C1451.17,-524.98 1439.95,-484.03 1432.53,-456.94" />
      <polygon fill="black" stroke="black" points="1435.81,-455.68 1429.79,-446.96 1429.06,-457.53 1435.81,-455.68" />
    </g>
    <!-- :ui&#45;plugin -->
    <g id="node20" class="node">
      <title>:ui&#45;plugin</title>
      <ellipse fill="#36bcf5" stroke="black" cx="1709.14" cy="-429" rx="45.49" ry="18" />
      <text text-anchor="middle" x="1709.14" y="-425.3" font-family="Times,serif" font-size="14.00">:ui&#45;plugin
      </text>
    </g>
    <!-- :material&#45;&gt;:ui&#45;plugin -->
    <g id="edge31" class="edge">
      <title>:material&#45;&gt;:ui&#45;plugin</title>
      <path fill="none" stroke="black" d="M1487.19,-551.31C1531.64,-527.02 1624.38,-476.33 1674.77,-448.79" />
      <polygon fill="black" stroke="black" points="1676.57,-451.79 1683.66,-443.93 1673.21,-445.65 1676.57,-451.79" />
    </g>
    <!-- :material&#45;&gt;:util -->
    <g id="edge33" class="edge">
      <title>:material&#45;&gt;:util</title>
      <path fill="none" stroke="black" stroke-dasharray="1,5"
        d="M1442.19,-550.04C1409.31,-525.38 1343.79,-476.24 1307.61,-449.1" />
      <polygon fill="black" stroke="black" points="1309.61,-446.22 1299.51,-443.02 1305.41,-451.82 1309.61,-446.22" />
    </g>
    <!-- :runtime -->
    <g id="node9" class="node">
      <title>:runtime</title>
      <ellipse fill="#36bcf5" stroke="black" cx="1282.14" cy="-566" rx="40.89" ry="18" />
      <text text-anchor="middle" x="1282.14" y="-562.3" font-family="Times,serif" font-size="14.00">:runtime</text>
    </g>
    <!-- :runtime&#45;&gt;:util -->
    <g id="edge24" class="edge">
      <title>:runtime&#45;&gt;:util</title>
      <path fill="none" stroke="black" stroke-dasharray="1,5"
        d="M1282.14,-547.9C1282.14,-525.1 1282.14,-484.48 1282.14,-457.39" />
      <polygon fill="black" stroke="black" points="1285.64,-457.39 1282.14,-447.39 1278.64,-457.39 1285.64,-457.39" />
    </g>
    <!-- :sugar&#45;compiler -->
    <g id="node10" class="node">
      <title>:sugar&#45;compiler</title>
      <ellipse fill="#bfd4f2" stroke="black" cx="916.14" cy="-703" rx="66.89" ry="18" />
      <text text-anchor="middle" x="916.14" y="-699.3" font-family="Times,serif" font-size="14.00">:sugar&#45;compiler
      </text>
    </g>
    <!-- :sugar&#45;hosted:node -->
    <g id="node15" class="node">
      <title>:sugar&#45;hosted:node</title>
      <ellipse fill="#eeeeee" stroke="black" cx="829.14" cy="-429" rx="77.19" ry="18" />
      <text text-anchor="middle" x="829.14" y="-425.3" font-family="Times,serif" font-size="14.00">:sugar&#45;hosted:node</text>
    </g>
    <!-- :sugar&#45;compiler&#45;&gt;:sugar&#45;hosted:node -->
    <g id="edge27" class="edge">
      <title>:sugar&#45;compiler&#45;&gt;:sugar&#45;hosted:node</title>
      <path fill="none" stroke="black" stroke-dasharray="1,5"
        d="M902.26,-685.3C885.04,-663.52 856.35,-623.53 843.14,-584 828.92,-541.4 827.31,-488.72 827.9,-457.32" />
      <polygon fill="black" stroke="black" points="831.4,-457.25 828.18,-447.15 824.4,-457.05 831.4,-457.25" />
    </g>
    <!-- :sugar&#45;hosted:transformer -->
    <g id="node16" class="node">
      <title>:sugar&#45;hosted:transformer</title>
      <ellipse fill="#eeeeee" stroke="black" cx="954.14" cy="-566" rx="102.08" ry="18" />
      <text text-anchor="middle" x="954.14" y="-562.3" font-family="Times,serif" font-size="14.00">:sugar&#45;hosted:transformer</text>
    </g>
    <!-- :sugar&#45;compiler&#45;&gt;:sugar&#45;hosted:transformer -->
    <g id="edge29" class="edge">
      <title>:sugar&#45;compiler&#45;&gt;:sugar&#45;hosted:transformer</title>
      <path fill="none" stroke="black" stroke-dasharray="1,5"
        d="M920.96,-684.9C927.4,-662 938.91,-621.12 946.54,-594.03" />
      <polygon fill="black" stroke="black" points="949.91,-594.96 949.25,-584.39 943.17,-593.06 949.91,-594.96" />
    </g>
    <!-- :sugar&#45;hosted:visitor -->
    <g id="node17" class="node">
      <title>:sugar&#45;hosted:visitor</title>
      <ellipse fill="#eeeeee" stroke="black" cx="572.14" cy="-566" rx="83.39" ry="18" />
      <text text-anchor="middle" x="572.14" y="-562.3" font-family="Times,serif" font-size="14.00">:sugar&#45;hosted:visitor</text>
    </g>
    <!-- :sugar&#45;compiler&#45;&gt;:sugar&#45;hosted:visitor -->
    <g id="edge28" class="edge">
      <title>:sugar&#45;compiler&#45;&gt;:sugar&#45;hosted:visitor</title>
      <path fill="none" stroke="black" stroke-dasharray="1,5"
        d="M879.98,-687.81C817.54,-663.3 689.52,-613.06 619.86,-585.73" />
      <polygon fill="black" stroke="black" points="621.02,-582.42 610.43,-582.03 618.46,-588.94 621.02,-582.42" />
    </g>
    <!-- :util&#45;backend&#45;kotlinc -->
    <g id="node27" class="node">
      <title>:util&#45;backend&#45;kotlinc</title>
      <ellipse fill="#eeeeee" stroke="black" cx="647.14" cy="-292" rx="84.49" ry="18" />
      <text text-anchor="middle" x="647.14" y="-288.3" font-family="Times,serif" font-size="14.00">:util&#45;backend&#45;kotlinc</text>
    </g>
    <!-- :sugar&#45;compiler&#45;&gt;:util&#45;backend&#45;kotlinc -->
    <g id="edge30" class="edge">
      <title>:sugar&#45;compiler&#45;&gt;:util&#45;backend&#45;kotlinc</title>
      <path fill="none" stroke="black" stroke-dasharray="1,5"
        d="M903.47,-685.01C886.6,-662.26 856,-620.53 831.14,-584 765.76,-487.94 693.58,-369.97 662.62,-318.75" />
      <polygon fill="black" stroke="black" points="665.49,-316.74 657.33,-309.99 659.5,-320.36 665.49,-316.74" />
    </g>
    <!-- :sugar&#45;hosted -->
    <g id="node11" class="node">
      <title>:sugar&#45;hosted</title>
      <ellipse fill="#bfd4f2" stroke="black" cx="477.14" cy="-977" rx="57.69" ry="18" />
      <text text-anchor="middle" x="477.14" y="-973.3" font-family="Times,serif" font-size="14.00">:sugar&#45;hosted
      </text>
    </g>
    <!-- :sugar&#45;hosted:codegen -->
    <g id="node12" class="node">
      <title>:sugar&#45;hosted:codegen</title>
      <ellipse fill="#eeeeee" stroke="black" cx="381.14" cy="-566" rx="89.88" ry="18" />
      <text text-anchor="middle" x="381.14" y="-562.3" font-family="Times,serif" font-size="14.00">:sugar&#45;hosted:codegen</text>
    </g>
    <!-- :sugar&#45;hosted&#45;&gt;:sugar&#45;hosted:codegen -->
    <g id="edge22" class="edge">
      <title>:sugar&#45;hosted&#45;&gt;:sugar&#45;hosted:codegen</title>
      <path fill="none" stroke="black" stroke-dasharray="1,5"
        d="M473.14,-958.95C458.23,-895.41 405.82,-672.13 387.51,-594.14" />
      <polygon fill="black" stroke="black" points="390.86,-593.06 385.16,-584.13 384.04,-594.66 390.86,-593.06" />
    </g>
    <!-- :sugar&#45;hosted&#45;&gt;:sugar&#45;hosted:node -->
    <g id="edge20" class="edge">
      <title>:sugar&#45;hosted&#45;&gt;:sugar&#45;hosted:node</title>
      <path fill="none" stroke="black" stroke-dasharray="1,5"
        d="M487.88,-959.26C516.48,-914.65 596.94,-789.22 664.14,-685 718.39,-600.87 782.92,-501.28 812.65,-455.43" />
      <polygon fill="black" stroke="black" points="815.61,-457.29 818.12,-447 809.74,-453.48 815.61,-457.29" />
    </g>
    <!-- :sugar&#45;hosted&#45;&gt;:sugar&#45;hosted:visitor -->
    <g id="edge21" class="edge">
      <title>:sugar&#45;hosted&#45;&gt;:sugar&#45;hosted:visitor</title>
      <path fill="none" stroke="black" stroke-dasharray="1,5"
        d="M481.1,-958.95C495.86,-895.41 547.72,-672.13 565.84,-594.14" />
      <polygon fill="black" stroke="black" points="569.31,-594.66 568.17,-584.13 562.49,-593.08 569.31,-594.66" />
    </g>
    <!-- :sugar&#45;hosted&#45;&gt;:util&#45;backend&#45;kotlinc -->
    <g id="edge23" class="edge">
      <title>:sugar&#45;hosted&#45;&gt;:util&#45;backend&#45;kotlinc</title>
      <path fill="none" stroke="black" stroke-dasharray="1,5"
        d="M440.05,-963.13C358.77,-932.31 172.14,-846.08 172.14,-704 172.14,-704 172.14,-704 172.14,-565 172.14,-492.02 175.53,-460.52 229.14,-411 318.13,-328.81 460.04,-303.3 553.41,-295.71" />
      <polygon fill="black" stroke="black" points="553.71,-299.2 563.41,-294.95 553.18,-292.22 553.71,-299.2" />
    </g>
    <!-- :sugar&#45;hosted:error -->
    <g id="node13" class="node">
      <title>:sugar&#45;hosted:error</title>
      <ellipse fill="#eeeeee" stroke="black" cx="827.14" cy="-292" rx="77.19" ry="18" />
      <text text-anchor="middle" x="827.14" y="-288.3" font-family="Times,serif" font-size="14.00">:sugar&#45;hosted:error</text>
    </g>
    <!-- :sugar&#45;hosted:codegen&#45;&gt;:sugar&#45;hosted:error -->
    <g id="edge38" class="edge">
      <title>:sugar&#45;hosted:codegen&#45;&gt;:sugar&#45;hosted:error</title>
      <path fill="none" stroke="black" stroke-dasharray="1,5"
        d="M407.71,-548.8C484.41,-502.02 706.25,-366.73 792.38,-314.2" />
      <polygon fill="black" stroke="black" points="794.28,-317.14 801,-308.94 790.64,-311.16 794.28,-317.14" />
    </g>
    <!-- :sugar&#45;hosted:names -->
    <g id="node14" class="node">
      <title>:sugar&#45;hosted:names</title>
      <ellipse fill="#eeeeee" stroke="black" cx="827.14" cy="-155" rx="83.39" ry="18" />
      <text text-anchor="middle" x="827.14" y="-151.3" font-family="Times,serif" font-size="14.00">:sugar&#45;hosted:names</text>
    </g>
    <!-- :sugar&#45;hosted:codegen&#45;&gt;:sugar&#45;hosted:names -->
    <g id="edge37" class="edge">
      <title>:sugar&#45;hosted:codegen&#45;&gt;:sugar&#45;hosted:names</title>
      <path fill="none" stroke="black" stroke-dasharray="1,5"
        d="M389.7,-547.94C420.24,-487.18 522.63,-284.4 534.14,-274 597.48,-216.77 692.14,-185.51 756.6,-169.79" />
      <polygon fill="black" stroke="black" points="757.75,-173.12 766.67,-167.4 756.13,-166.31 757.75,-173.12" />
    </g>
    <!-- :sugar&#45;hosted:codegen&#45;&gt;:sugar&#45;hosted:node -->
    <g id="edge36" class="edge">
      <title>:sugar&#45;hosted:codegen&#45;&gt;:sugar&#45;hosted:node</title>
      <path fill="none" stroke="black" stroke-dasharray="1,5"
        d="M428.66,-550.68C512.34,-525.47 685.49,-473.29 774.17,-446.56" />
      <polygon fill="black" stroke="black" points="775.22,-449.91 783.78,-443.67 773.2,-443.2 775.22,-449.91" />
    </g>
    <!-- :sugar&#45;hosted:codegen&#45;&gt;:util&#45;backend&#45;kotlinc -->
    <g id="edge39" class="edge">
      <title>:sugar&#45;hosted:codegen&#45;&gt;:util&#45;backend&#45;kotlinc</title>
      <path fill="none" stroke="black" stroke-dasharray="1,5"
        d="M397.78,-547.99C443.31,-501.43 570.08,-371.8 623.22,-317.46" />
      <polygon fill="black" stroke="black" points="626.02,-319.61 630.51,-310.01 621.02,-314.71 626.02,-319.61" />
    </g>
    <!-- :sugar&#45;hosted:codegen&#45;&gt;:util&#45;backend&#45;kotlinpoet -->
    <g id="edge40" class="edge">
      <title>:sugar&#45;hosted:codegen&#45;&gt;:util&#45;backend&#45;kotlinpoet</title>
      <path fill="none" stroke="black" stroke-dasharray="1,5"
        d="M375.19,-547.9C367.22,-525 352.99,-484.12 343.55,-457.03" />
      <polygon fill="black" stroke="black" points="346.79,-455.68 340.2,-447.39 340.18,-457.98 346.79,-455.68" />
    </g>
    <!-- :sugar&#45;hosted:error&#45;&gt;:sugar&#45;hosted:names -->
    <g id="edge52" class="edge">
      <title>:sugar&#45;hosted:error&#45;&gt;:sugar&#45;hosted:names</title>
      <path fill="none" stroke="black" stroke-dasharray="1,5"
        d="M827.14,-273.9C827.14,-251.1 827.14,-210.48 827.14,-183.39" />
      <polygon fill="black" stroke="black" points="830.64,-183.39 827.14,-173.39 823.64,-183.39 830.64,-183.39" />
    </g>
    <!-- :sugar&#45;hosted:names&#45;&gt;:casa&#45;annotation -->
    <g id="edge46" class="edge">
      <title>:sugar&#45;hosted:names&#45;&gt;:casa&#45;annotation</title>
      <path fill="none" stroke="black" stroke-dasharray="1,5"
        d="M853.56,-137.72C893.26,-113.24 968.3,-66.98 1012.07,-40" />
      <polygon fill="black" stroke="black" points="1013.97,-42.94 1020.65,-34.71 1010.3,-36.98 1013.97,-42.94" />
    </g>
    <!-- :sugar&#45;material -->
    <g id="node18" class="node">
      <title>:sugar&#45;material</title>
      <ellipse fill="#bfd4f2" stroke="black" cx="662.14" cy="-18" rx="64.19" ry="18" />
      <text text-anchor="middle" x="662.14" y="-14.3" font-family="Times,serif" font-size="14.00">:sugar&#45;material
      </text>
    </g>
    <!-- :sugar&#45;hosted:names&#45;&gt;:sugar&#45;material -->
    <g id="edge47" class="edge">
      <title>:sugar&#45;hosted:names&#45;&gt;:sugar&#45;material</title>
      <path fill="none" stroke="black" stroke-dasharray="1,5"
        d="M806.91,-137.45C777.56,-113.43 723.06,-68.84 689.95,-41.75" />
      <polygon fill="black" stroke="black" points="691.98,-38.89 682.03,-35.27 687.55,-44.31 691.98,-38.89" />
    </g>
    <!-- :sugar&#45;hosted:node&#45;&gt;:casa&#45;annotation -->
    <g id="edge44" class="edge">
      <title>:sugar&#45;hosted:node&#45;&gt;:casa&#45;annotation</title>
      <path fill="none" stroke="black" stroke-dasharray="1,5"
        d="M851.3,-411.63C878.04,-390.8 922.7,-352.39 949.14,-310 1003.86,-222.29 1031.37,-100.27 1041.47,-46.41" />
      <polygon fill="black" stroke="black" points="1044.97,-46.75 1043.32,-36.28 1038.08,-45.49 1044.97,-46.75" />
    </g>
    <!-- :sugar&#45;hosted:node&#45;&gt;:sugar&#45;hosted:error -->
    <g id="edge42" class="edge">
      <title>:sugar&#45;hosted:node&#45;&gt;:sugar&#45;hosted:error</title>
      <path fill="none" stroke="black" stroke-dasharray="1,5"
        d="M828.89,-410.9C828.55,-388.1 827.95,-347.48 827.55,-320.39" />
      <polygon fill="black" stroke="black" points="831.05,-320.33 827.4,-310.39 824.05,-320.44 831.05,-320.33" />
    </g>
    <!-- :sugar&#45;hosted:node&#45;&gt;:sugar&#45;hosted:names -->
    <g id="edge41" class="edge">
      <title>:sugar&#45;hosted:node&#45;&gt;:sugar&#45;hosted:names</title>
      <path fill="none" stroke="black" stroke-dasharray="1,5"
        d="M848.97,-411.4C878.96,-384.14 930.59,-327.57 913.14,-274 901.13,-237.13 872.77,-202.19 851.89,-180.04" />
      <polygon fill="black" stroke="black" points="854.32,-177.52 844.85,-172.76 849.28,-182.38 854.32,-177.52" />
    </g>
    <!-- :sugar&#45;hosted:node&#45;&gt;:sugar&#45;material -->
    <g id="edge43" class="edge">
      <title>:sugar&#45;hosted:node&#45;&gt;:sugar&#45;material</title>
      <path fill="none" stroke="black" stroke-dasharray="1,5"
        d="M850.1,-411.51C874.49,-390.83 913.43,-352.86 929.14,-310 944.13,-269.13 961.84,-198.53 919.14,-137 874.93,-73.29 787.44,-43.27 726.9,-29.63" />
      <polygon fill="black" stroke="black" points="727.57,-26.19 717.06,-27.5 726.09,-33.04 727.57,-26.19" />
    </g>
    <!-- :sugar&#45;hosted:node&#45;&gt;:util&#45;backend&#45;kotlinc -->
    <g id="edge45" class="edge">
      <title>:sugar&#45;hosted:node&#45;&gt;:util&#45;backend&#45;kotlinc</title>
      <path fill="none" stroke="black" stroke-dasharray="1,5"
        d="M807.19,-411.72C774.89,-387.76 714.45,-342.92 677.79,-315.73" />
      <polygon fill="black" stroke="black" points="679.58,-312.7 669.46,-309.55 675.41,-318.32 679.58,-312.7" />
    </g>
    <!-- :sugar&#45;hosted:transformer&#45;&gt;:sugar&#45;hosted:error -->
    <g id="edge50" class="edge">
      <title>:sugar&#45;hosted:transformer&#45;&gt;:sugar&#45;hosted:error</title>
      <path fill="none" stroke="black" stroke-dasharray="1,5"
        d="M957.42,-547.9C962.24,-518.47 968.58,-456.96 948.14,-411 929.86,-369.88 890.06,-335.68 861.08,-314.87" />
      <polygon fill="black" stroke="black" points="863.05,-311.97 852.85,-309.1 859.03,-317.7 863.05,-311.97" />
    </g>
    <!-- :sugar&#45;hosted:transformer&#45;&gt;:sugar&#45;hosted:names -->
    <g id="edge48" class="edge">
      <title>:sugar&#45;hosted:transformer&#45;&gt;:sugar&#45;hosted:names</title>
      <path fill="none" stroke="black" stroke-dasharray="1,5"
        d="M956.82,-547.86C960.25,-524.95 966.01,-483.04 968.14,-447 972.79,-368.32 966.59,-343.36 929.14,-274 909.38,-237.39 876.6,-202.23 853.55,-179.95" />
      <polygon fill="black" stroke="black" points="855.8,-177.26 846.14,-172.91 850.97,-182.34 855.8,-177.26" />
    </g>
    <!-- :sugar&#45;hosted:transformer&#45;&gt;:sugar&#45;hosted:node -->
    <g id="edge49" class="edge">
      <title>:sugar&#45;hosted:transformer&#45;&gt;:sugar&#45;hosted:node</title>
      <path fill="none" stroke="black" stroke-dasharray="1,5"
        d="M938.57,-548.18C916.76,-524.63 877.01,-481.7 851.9,-454.57" />
      <polygon fill="black" stroke="black" points="854.28,-452 844.92,-447.04 849.14,-456.75 854.28,-452" />
    </g>
    <!-- :sugar&#45;hosted:transformer&#45;&gt;:util&#45;backend&#45;kotlinc -->
    <g id="edge51" class="edge">
      <title>:sugar&#45;hosted:transformer&#45;&gt;:util&#45;backend&#45;kotlinc</title>
      <path fill="none" stroke="black" stroke-dasharray="1,5"
        d="M954.45,-547.55C954.08,-516.46 948.98,-451.01 915.14,-411 865.39,-352.17 780.61,-321.64 719.72,-306.52" />
      <polygon fill="black" stroke="black" points="720.32,-303.06 709.78,-304.13 718.69,-309.87 720.32,-303.06" />
    </g>
    <!-- :sugar&#45;hosted:visitor&#45;&gt;:sugar&#45;hosted:error -->
    <g id="edge54" class="edge">
      <title>:sugar&#45;hosted:visitor&#45;&gt;:sugar&#45;hosted:error</title>
      <path fill="none" stroke="black" stroke-dasharray="1,5"
        d="M592,-548.19C617.85,-525.98 664,-485.2 700.14,-447 741.08,-403.74 784.28,-349.17 808.26,-317.96" />
      <polygon fill="black" stroke="black" points="811.21,-319.88 814.5,-309.81 805.65,-315.62 811.21,-319.88" />
    </g>
    <!-- :sugar&#45;hosted:visitor&#45;&gt;:sugar&#45;hosted:names -->
    <g id="edge55" class="edge">
      <title>:sugar&#45;hosted:visitor&#45;&gt;:sugar&#45;hosted:names</title>
      <path fill="none" stroke="black" stroke-dasharray="1,5"
        d="M564.53,-547.77C544.57,-499.76 496.18,-362.2 554.14,-274 596.54,-209.49 682.52,-180.08 746.73,-166.78" />
      <polygon fill="black" stroke="black" points="747.7,-170.16 756.83,-164.78 746.34,-163.29 747.7,-170.16" />
    </g>
    <!-- :sugar&#45;hosted:visitor&#45;&gt;:sugar&#45;hosted:node -->
    <g id="edge56" class="edge">
      <title>:sugar&#45;hosted:visitor&#45;&gt;:sugar&#45;hosted:node</title>
      <path fill="none" stroke="black" stroke-dasharray="1,5"
        d="M602.38,-549.12C648.97,-524.64 738.32,-477.71 789.86,-450.64" />
      <polygon fill="black" stroke="black" points="791.8,-453.57 799.02,-445.82 788.54,-447.37 791.8,-453.57" />
    </g>
    <!-- :sugar&#45;hosted:visitor&#45;&gt;:sugar&#45;material -->
    <g id="edge53" class="edge">
      <title>:sugar&#45;hosted:visitor&#45;&gt;:sugar&#45;material</title>
      <path fill="none" stroke="black" stroke-dasharray="1,5"
        d="M562.99,-548.03C551.49,-525.65 532.37,-484.68 525.14,-447 517.32,-406.24 517.37,-335.7 534.14,-274 558.58,-184.11 616.18,-88.69 645.04,-44.36" />
      <polygon fill="black" stroke="black" points="648,-46.23 650.57,-35.95 642.15,-42.38 648,-46.23" />
    </g>
    <!-- :sugar&#45;hosted:visitor&#45;&gt;:util&#45;backend&#45;kotlinc -->
    <g id="edge57" class="edge">
      <title>:sugar&#45;hosted:visitor&#45;&gt;:util&#45;backend&#45;kotlinc</title>
      <path fill="none" stroke="black" stroke-dasharray="1,5"
        d="M576.84,-547.99C589.49,-502.1 624.4,-375.5 639.74,-319.84" />
      <polygon fill="black" stroke="black" points="643.17,-320.58 642.45,-310.01 636.42,-318.72 643.17,-320.58" />
    </g>
    <!-- :ui&#45;&gt;:animation -->
    <g id="edge6" class="edge">
      <title>:ui&#45;&gt;:animation</title>
      <path fill="none" stroke="black" d="M1304.16,-823.51C1320.6,-800.39 1351.74,-756.61 1371.41,-728.94" />
      <polygon fill="black" stroke="black" points="1374.42,-730.74 1377.36,-720.57 1368.72,-726.69 1374.42,-730.74" />
    </g>
    <!-- :ui&#45;&gt;:casa&#45;annotation -->
    <g id="edge16" class="edge">
      <title>:ui&#45;&gt;:casa&#45;annotation</title>
      <path fill="none" stroke="black" stroke-dasharray="1,5"
        d="M1269.04,-831.69C1227.4,-817.68 1142.68,-782.83 1103.14,-721 1065.99,-662.9 1084.14,-635.96 1084.14,-567 1084.14,-567 1084.14,-567 1084.14,-291 1084.14,-200.57 1063.29,-94.84 1052.48,-46.12" />
      <polygon fill="black" stroke="black" points="1055.83,-45.05 1050.21,-36.07 1049,-46.59 1055.83,-45.05" />
    </g>
    <!-- :ui&#45;&gt;:material -->
    <g id="edge10" class="edge">
      <title>:ui&#45;&gt;:material</title>
      <path fill="none" stroke="black" stroke-dasharray="1,5"
        d="M1315.13,-829.38C1349.94,-812.84 1416.89,-775.47 1447.14,-721 1469.29,-681.12 1468.66,-626.39 1465.72,-594.06" />
      <polygon fill="black" stroke="black" points="1469.19,-593.58 1464.67,-584 1462.23,-594.31 1469.19,-593.58" />
    </g>
    <!-- :ui&#45;&gt;:material&#45;icon -->
    <g id="edge11" class="edge">
      <title>:ui&#45;&gt;:material&#45;icon</title>
      <path fill="none" stroke="black" stroke-dasharray="1,5"
        d="M1296.75,-821.74C1302.87,-793.08 1316.13,-733.97 1331.14,-685 1357.12,-600.29 1395.57,-502.63 1414.21,-456.62" />
      <polygon fill="black" stroke="black" points="1417.56,-457.67 1418.09,-447.09 1411.08,-455.03 1417.56,-457.67" />
    </g>
    <!-- :ui&#45;&gt;:runtime -->
    <g id="edge9" class="edge">
      <title>:ui&#45;&gt;:runtime</title>
      <path fill="none" stroke="black" stroke-dasharray="1,5"
        d="M1292.46,-821.99C1290.6,-776.19 1285.5,-650.03 1283.24,-594.19" />
      <polygon fill="black" stroke="black" points="1286.73,-593.86 1282.83,-584.01 1279.74,-594.14 1286.73,-593.86" />
    </g>
    <!-- :ui&#45;&gt;:sugar&#45;compiler -->
    <g id="edge17" class="edge">
      <title>:ui&#45;&gt;:sugar&#45;compiler</title>
      <path fill="none" stroke="black" d="M1269.85,-830.66C1209.3,-808.97 1046.01,-750.51 964.21,-721.21" />
      <polygon fill="black" stroke="black" points="965.25,-717.87 954.66,-717.79 962.89,-724.46 965.25,-717.87" />
    </g>
    <!-- :ui&#45;&gt;:sugar&#45;material -->
    <g id="edge8" class="edge">
      <title>:ui&#45;&gt;:sugar&#45;material</title>
      <path fill="none" stroke="black"
        d="M1266.4,-836.71C1193.63,-829.53 987.6,-802.82 840.14,-721 819.8,-709.71 822.83,-695.64 802.14,-685 592.79,-577.31 462.7,-735.08 282.14,-584 220.47,-532.39 196.53,-484.51 229.14,-411 312.24,-223.67 533.99,-87.81 623.69,-38.9" />
      <polygon fill="black" stroke="black" points="625.57,-41.87 632.71,-34.04 622.24,-35.71 625.57,-41.87" />
    </g>
    <!-- :ui&#45;&gt;:ui&#45;plugin -->
    <g id="edge7" class="edge">
      <title>:ui&#45;&gt;:ui&#45;plugin</title>
      <path fill="none" stroke="black"
        d="M1319.4,-835.73C1403.59,-824.65 1664.2,-785.59 1713.14,-721 1773.33,-641.58 1738.4,-511.81 1719.2,-456.41" />
      <polygon fill="black" stroke="black" points="1722.48,-455.2 1715.82,-446.96 1715.89,-457.56 1722.48,-455.2" />
    </g>
    <!-- :ui&#45;plugin:image -->
    <g id="node21" class="node">
      <title>:ui&#45;plugin:image</title>
      <ellipse fill="#eeeeee" stroke="black" cx="1830.14" cy="-703" rx="69.59" ry="18" />
      <text text-anchor="middle" x="1830.14" y="-699.3" font-family="Times,serif" font-size="14.00">
        :ui&#45;plugin:image
      </text>
    </g>
    <!-- :ui&#45;&gt;:ui&#45;plugin:image -->
    <g id="edge12" class="edge">
      <title>:ui&#45;&gt;:ui&#45;plugin:image</title>
      <path fill="none" stroke="black" stroke-dasharray="1,5"
        d="M1317.97,-832.76C1398.84,-812.43 1656.19,-747.73 1772.32,-718.54" />
      <polygon fill="black" stroke="black" points="1773.26,-721.91 1782.1,-716.08 1771.55,-715.12 1773.26,-721.91" />
    </g>
    <!-- :ui&#45;plugin:interceptor -->
    <g id="node23" class="node">
      <title>:ui&#45;plugin:interceptor</title>
      <ellipse fill="#eeeeee" stroke="black" cx="1618.14" cy="-703" rx="85.59" ry="18" />
      <text text-anchor="middle" x="1618.14" y="-699.3" font-family="Times,serif" font-size="14.00">:ui&#45;plugin:interceptor</text>
    </g>
    <!-- :ui&#45;&gt;:ui&#45;plugin:interceptor -->
    <g id="edge13" class="edge">
      <title>:ui&#45;&gt;:ui&#45;plugin:interceptor</title>
      <path fill="none" stroke="black" stroke-dasharray="1,5"
        d="M1315.48,-829.72C1368.08,-807.87 1500.62,-752.82 1571.59,-723.34" />
      <polygon fill="black" stroke="black" points="1573.29,-726.42 1581.18,-719.35 1570.6,-719.96 1573.29,-726.42" />
    </g>
    <!-- :ui&#45;sample -->
    <g id="node25" class="node">
      <title>:ui&#45;sample</title>
      <ellipse fill="#36bcf5" stroke="black" cx="1160.14" cy="-703" rx="48.19" ry="18" />
      <text text-anchor="middle" x="1160.14" y="-699.3" font-family="Times,serif" font-size="14.00">:ui&#45;sample
      </text>
    </g>
    <!-- :ui&#45;&gt;:ui&#45;sample -->
    <g id="edge18" class="edge">
      <title>:ui&#45;&gt;:ui&#45;sample</title>
      <path fill="none" stroke="black" d="M1275.94,-825.81C1250.76,-803.25 1204.75,-756.93 1178.81,-728.36" />
      <polygon fill="black" stroke="black" points="1181.33,-725.93 1172.06,-720.81 1176.11,-730.59 1181.33,-725.93" />
    </g>
    <!-- :ui&#45;&gt;:util -->
    <g id="edge14" class="edge">
      <title>:ui&#45;&gt;:util</title>
      <path fill="none" stroke="black" stroke-dasharray="1,5"
        d="M1284.96,-822.61C1263.88,-778.35 1210.87,-652.71 1232.14,-548 1238.99,-514.27 1255.82,-478.22 1268.07,-454.97" />
      <polygon fill="black" stroke="black" points="1271.17,-456.59 1272.83,-446.13 1265.01,-453.27 1271.17,-456.59" />
    </g>
    <!-- :util&#45;modifier -->
    <g id="node30" class="node">
      <title>:util&#45;modifier</title>
      <ellipse fill="#eeeeee" stroke="black" cx="1594.14" cy="-566" rx="58.49" ry="18" />
      <text text-anchor="middle" x="1594.14" y="-562.3" font-family="Times,serif" font-size="14.00">:util&#45;modifier
      </text>
    </g>
    <!-- :ui&#45;&gt;:util&#45;modifier -->
    <g id="edge15" class="edge">
      <title>:ui&#45;&gt;:util&#45;modifier</title>
      <path fill="none" stroke="black" stroke-dasharray="1,5"
        d="M1313.25,-827.92C1347.09,-808.73 1416.67,-766.95 1467.14,-721 1511.41,-680.7 1553.77,-624.66 1576.63,-592.47" />
      <polygon fill="black" stroke="black" points="1579.66,-594.26 1582.55,-584.06 1573.94,-590.23 1579.66,-594.26" />
    </g>
    <!-- :ui&#45;plugin:image&#45;&gt;:ui&#45;plugin -->
    <g id="edge58" class="edge">
      <title>:ui&#45;plugin:image&#45;&gt;:ui&#45;plugin</title>
      <path fill="none" stroke="black" d="M1822.57,-684.99C1802.08,-638.9 1745.38,-511.45 1720.78,-456.15" />
      <polygon fill="black" stroke="black" points="1723.97,-454.72 1716.71,-447.01 1717.58,-457.57 1723.97,-454.72" />
    </g>
    <!-- :ui&#45;plugin:image:gif&#45;&gt;:ui&#45;plugin:image -->
    <g id="edge62" class="edge">
      <title>:ui&#45;plugin:image:gif&#45;&gt;:ui&#45;plugin:image</title>
      <path fill="none" stroke="black" d="M1738.23,-822.18C1756.39,-798.83 1789.36,-756.43 1810.48,-729.28" />
      <polygon fill="black" stroke="black" points="1813.52,-731.08 1816.89,-721.04 1807.99,-726.78 1813.52,-731.08" />
    </g>
    <!-- :ui&#45;plugin:interceptor&#45;&gt;:material -->
    <g id="edge60" class="edge">
      <title>:ui&#45;plugin:interceptor&#45;&gt;:material</title>
      <path fill="none" stroke="black" stroke-dasharray="1,5"
        d="M1599.01,-685.45C1571.08,-661.27 1519.07,-616.26 1487.83,-589.23" />
      <polygon fill="black" stroke="black" points="1489.83,-586.33 1479.98,-582.44 1485.25,-591.63 1489.83,-586.33" />
    </g>
    <!-- :ui&#45;plugin:interceptor&#45;&gt;:ui&#45;plugin -->
    <g id="edge59" class="edge">
      <title>:ui&#45;plugin:interceptor&#45;&gt;:ui&#45;plugin</title>
      <path fill="none" stroke="black"
        d="M1624.67,-684.89C1633.32,-662.02 1648.93,-620.15 1661.14,-584 1676.12,-539.66 1692,-487.59 1701.22,-456.77" />
      <polygon fill="black" stroke="black" points="1704.58,-457.76 1704.08,-447.18 1697.87,-455.76 1704.58,-457.76" />
    </g>
    <!-- :ui&#45;plugin:interceptor&#45;&gt;:util&#45;modifier -->
    <g id="edge61" class="edge">
      <title>:ui&#45;plugin:interceptor&#45;&gt;:util&#45;modifier</title>
      <path fill="none" stroke="black" stroke-dasharray="1,5"
        d="M1615.1,-684.9C1611.05,-662.1 1603.83,-621.48 1599.01,-594.39" />
      <polygon fill="black" stroke="black" points="1602.43,-593.62 1597.23,-584.39 1595.54,-594.84 1602.43,-593.62" />
    </g>
    <!-- :ui&#45;plugin:interceptor:textfield -->
    <g id="node24" class="node">
      <title>:ui&#45;plugin:interceptor:textfield</title>
      <ellipse fill="#eeeeee" stroke="black" cx="1391.14" cy="-977" rx="117.78" ry="18" />
      <text text-anchor="middle" x="1391.14" y="-973.3" font-family="Times,serif" font-size="14.00">:ui&#45;plugin:interceptor:textfield</text>
    </g>
    <!-- :ui&#45;plugin:interceptor:textfield&#45;&gt;:ui -->
    <g id="edge64" class="edge">
      <title>:ui&#45;plugin:interceptor:textfield&#45;&gt;:ui</title>
      <path fill="none" stroke="black" stroke-dasharray="1,5"
        d="M1378.73,-958.9C1361.44,-935.09 1330.04,-891.82 1310.45,-864.85" />
      <polygon fill="black" stroke="black" points="1313.25,-862.74 1304.54,-856.7 1307.59,-866.85 1313.25,-862.74" />
    </g>
    <!-- :ui&#45;plugin:interceptor:textfield&#45;&gt;:ui&#45;plugin:interceptor -->
    <g id="edge63" class="edge">
      <title>:ui&#45;plugin:interceptor:textfield&#45;&gt;:ui&#45;plugin:interceptor</title>
      <path fill="none" stroke="black" d="M1405.34,-958.99C1444.12,-912.52 1551.94,-783.33 1597.45,-728.8" />
      <polygon fill="black" stroke="black" points="1600.23,-730.93 1603.95,-721.01 1594.85,-726.44 1600.23,-730.93" />
    </g>
    <!-- :ui&#45;sample&#45;&gt;:ui -->
    <g id="edge19" class="edge">
      <title>:ui&#45;sample&#45;&gt;:ui</title>
      <path fill="none" stroke="black" d="M1180.07,-719.65C1206.05,-743.27 1250.53,-788.16 1275.4,-815.65" />
      <polygon fill="black" stroke="black" points="1272.89,-818.1 1282.15,-823.25 1278.12,-813.45 1272.89,-818.1" />
    </g>
  </g>
</svg>
