<svg xmlns="http://www.w3.org/2000/svg" width="1136pt" height="529pt" viewBox="0 0 1136.39 529"><g id="graph0" class="graph" transform="scale(1 1) rotate(0) translate(4 525)"><polygon fill="#fff" stroke="transparent" points="-4 4 -4 -525 1132.39 -525 1132.39 4 -4 4"/><text x="564.2" y="-493" font-family="Times,serif" font-size="30" text-anchor="middle">quack-quack</text><g id="node1" class="node"><title>:aide</title><ellipse cx="1100.44" cy="-155" fill="#98e1cf" stroke="#000" rx="27.9" ry="18"/><text x="1100.44" y="-151.3" font-family="Times,serif" font-size="14" text-anchor="middle">:aide</text></g><g id="node2" class="node"><title>:aide-annotation</title><ellipse cx="206.44" cy="-155" fill="#98e1cf" stroke="#000" rx="67.69" ry="18"/><text x="206.44" y="-151.3" font-family="Times,serif" font-size="14" text-anchor="middle">:aide-annotation</text></g><g id="node3" class="node"><title>:aide-processor</title><ellipse cx="356.44" cy="-155" fill="#98e1cf" stroke="#000" rx="64.19" ry="18"/><text x="356.44" y="-151.3" font-family="Times,serif" font-size="14" text-anchor="middle">:aide-processor</text></g><g id="node4" class="node"><title>:animation</title><ellipse cx="487.44" cy="-155" fill="#36bcf5" stroke="#000" rx="48.99" ry="18"/><text x="487.44" y="-151.3" font-family="Times,serif" font-size="14" text-anchor="middle">:animation</text></g><g id="node10" class="node"><title>:material</title><ellipse cx="487.44" cy="-18" fill="#36bcf5" stroke="#000" rx="42.49" ry="18"/><text x="487.44" y="-14.3" font-family="Times,serif" font-size="14" text-anchor="middle">:material</text></g><g id="edge5" class="edge"><title>:animation-&gt;:material</title><path fill="none" stroke="#000" d="M487.44,-136.9C487.44,-114.1 487.44,-73.48 487.44,-46.39"/><polygon fill="#000" stroke="#000" points="490.94 -46.39 487.44 -36.39 483.94 -46.39 490.94 -46.39"/></g><g id="node15" class="node"><title>:util</title><ellipse cx="595.44" cy="-18" fill="#eee" stroke="#000" rx="27" ry="18"/><text x="595.44" y="-14.3" font-family="Times,serif" font-size="14" text-anchor="middle">:util</text></g><g id="edge6" class="edge"><title>:animation-&gt;:util</title><path fill="none" stroke="#000" stroke-dasharray="1 5" d="M500.69,-137.45C519.78,-113.58 555.12,-69.41 576.83,-42.27"/><polygon fill="#000" stroke="#000" points="579.58 -44.43 583.1 -34.44 574.12 -40.06 579.58 -44.43"/></g><g id="node5" class="node"><title>:casa-annotation</title><ellipse cx="861.44" cy="-18" fill="#d4c5f9" stroke="#000" rx="68.49" ry="18"/><text x="861.44" y="-14.3" font-family="Times,serif" font-size="14" text-anchor="middle">:casa-annotation</text></g><g id="node6" class="node"><title>:casa-material</title><ellipse cx="60.44" cy="-155" fill="#d4c5f9" stroke="#000" rx="60.39" ry="18"/><text x="60.44" y="-151.3" font-family="Times,serif" font-size="14" text-anchor="middle">:casa-material</text></g><g id="node7" class="node"><title>:casa-processor</title><ellipse cx="719.44" cy="-155" fill="#d4c5f9" stroke="#000" rx="64.99" ry="18"/><text x="719.44" y="-151.3" font-family="Times,serif" font-size="14" text-anchor="middle">:casa-processor</text></g><g id="node8" class="node"><title>:casa-ui</title><ellipse cx="348.44" cy="-292" fill="#d4c5f9" stroke="#000" rx="38.19" ry="18"/><text x="348.44" y="-288.3" font-family="Times,serif" font-size="14" text-anchor="middle">:casa-ui</text></g><g id="edge1" class="edge"><title>:casa-ui-&gt;:casa-material</title><path fill="none" stroke="#000" d="M322.38,-278.78C271.91,-255.12 160.55,-202.92 100.57,-174.81"/><polygon fill="#000" stroke="#000" points="101.94 -171.59 91.4 -170.51 98.97 -177.92 101.94 -171.59"/></g><g id="node9" class="node"><title>:catalog</title><polygon fill="#8ed610" stroke="#000" points="418.94 -447 359.94 -447 359.94 -411 418.94 -411 418.94 -447"/><text x="389.44" y="-425.3" font-family="Times,serif" font-size="14" text-anchor="middle">:catalog</text></g><g id="edge3" class="edge"><title>:catalog-&gt;:casa-ui</title><path fill="none" stroke="#000" stroke-dasharray="1 5" d="M384.25,-410.9C377.26,-387.88 364.74,-346.67 356.52,-319.58"/><polygon fill="#000" stroke="#000" points="359.85 -318.51 353.6 -309.96 353.15 -320.54 359.85 -318.51"/></g><g id="node14" class="node"><title>:ui</title><ellipse cx="719.44" cy="-292" fill="#36bcf5" stroke="#000" rx="27" ry="18"/><text x="719.44" y="-288.3" font-family="Times,serif" font-size="14" text-anchor="middle">:ui</text></g><g id="edge2" class="edge"><title>:catalog-&gt;:ui</title><path fill="none" stroke="#000" stroke-dasharray="1 5" d="M419.02,-415.9C480.89,-390.59 623.52,-332.24 687.44,-306.09"/><polygon fill="#000" stroke="#000" points="689.07 -309.21 697 -302.18 686.42 -302.73 689.07 -309.21"/></g><g id="node11" class="node"><title>:runtime</title><ellipse cx="595.44" cy="-155" fill="#36bcf5" stroke="#000" rx="40.89" ry="18"/><text x="595.44" y="-151.3" font-family="Times,serif" font-size="14" text-anchor="middle">:runtime</text></g><g id="edge4" class="edge"><title>:runtime-&gt;:util</title><path fill="none" stroke="#000" stroke-dasharray="1 5" d="M595.44,-136.9C595.44,-114.1 595.44,-73.48 595.44,-46.39"/><polygon fill="#000" stroke="#000" points="598.94 -46.39 595.44 -36.39 591.94 -46.39 598.94 -46.39"/></g><g id="node12" class="node"><title>:sugar-material</title><ellipse cx="1033.44" cy="-18" fill="#bfd4f2" stroke="#000" rx="64.19" ry="18"/><text x="1033.44" y="-14.3" font-family="Times,serif" font-size="14" text-anchor="middle">:sugar-material</text></g><g id="node13" class="node"><title>:sugar-processor</title><ellipse cx="947.44" cy="-155" fill="#bfd4f2" stroke="#000" rx="68.79" ry="18"/><text x="947.44" y="-151.3" font-family="Times,serif" font-size="14" text-anchor="middle">:sugar-processor</text></g><g id="edge7" class="edge"><title>:sugar-processor-&gt;:casa-annotation</title><path fill="none" stroke="#000" stroke-dasharray="1 5" d="M936.73,-137.18C921.92,-113.93 895.08,-71.8 877.77,-44.63"/><polygon fill="#000" stroke="#000" points="880.62 -42.59 872.3 -36.04 874.72 -46.35 880.62 -42.59"/></g><g id="edge8" class="edge"><title>:sugar-processor-&gt;:sugar-material</title><path fill="none" stroke="#000" stroke-dasharray="1 5" d="M958.16,-137.18C972.97,-113.93 999.81,-71.8 1017.12,-44.63"/><polygon fill="#000" stroke="#000" points="1020.17 -46.35 1022.59 -36.04 1014.27 -42.59 1020.17 -46.35"/></g><g id="edge18" class="edge"><title>:ui-&gt;:aide</title><path fill="none" stroke="#000" d="M743.43,-283.11C799.09,-264.69 941.21,-217.1 1058.44,-173 1061.54,-171.84 1064.75,-170.6 1067.95,-169.34"/><polygon fill="#000" stroke="#000" points="1069.43 -172.52 1077.42 -165.56 1066.83 -166.02 1069.43 -172.52"/></g><g id="edge14" class="edge"><title>:ui-&gt;:aide-annotation</title><path fill="none" stroke="#000" stroke-dasharray="1 5" d="M694.7,-284.49C616.58,-263.93 373.82,-200.05 262.84,-170.84"/><polygon fill="#000" stroke="#000" points="263.4 -167.37 252.84 -168.21 261.62 -174.14 263.4 -167.37"/></g><g id="edge16" class="edge"><title>:ui-&gt;:aide-processor</title><path fill="none" stroke="#000" d="M696.46,-282.45C637.87,-260.66 482.02,-202.7 403.32,-173.43"/><polygon fill="#000" stroke="#000" points="404.25 -170.04 393.65 -169.84 401.81 -176.6 404.25 -170.04"/></g><g id="edge9" class="edge"><title>:ui-&gt;:animation</title><path fill="none" stroke="#000" d="M699.66,-279.49C659.95,-256.38 570.12,-204.11 521.02,-175.54"/><polygon fill="#000" stroke="#000" points="522.76 -172.5 512.35 -170.49 519.23 -178.55 522.76 -172.5"/></g><g id="edge12" class="edge"><title>:ui-&gt;:casa-annotation</title><path fill="none" stroke="#000" stroke-dasharray="1 5" d="M733.49,-276.54C753.35,-255.4 789.64,-214.07 811.44,-173 833.59,-131.29 848.2,-78 855.63,-46.29"/><polygon fill="#000" stroke="#000" points="859.07 -46.94 857.88 -36.41 852.25 -45.39 859.07 -46.94"/></g><g id="edge17" class="edge"><title>:ui-&gt;:casa-processor</title><path fill="none" stroke="#000" d="M719.44,-273.9C719.44,-251.1 719.44,-210.48 719.44,-183.39"/><polygon fill="#000" stroke="#000" points="722.94 -183.39 719.44 -173.39 715.94 -183.39 722.94 -183.39"/></g><g id="edge11" class="edge"><title>:ui-&gt;:runtime</title><path fill="none" stroke="#000" stroke-dasharray="1 5" d="M705.94,-276.3C684.57,-253.03 642.78,-207.53 617.16,-179.64"/><polygon fill="#000" stroke="#000" points="619.42 -176.93 610.08 -171.94 614.27 -181.67 619.42 -176.93"/></g><g id="edge13" class="edge"><title>:ui-&gt;:sugar-material</title><path fill="none" stroke="#000" stroke-dasharray="1 5" d="M746.45,-289.83C807.94,-285.56 958.27,-265.66 1025.44,-173 1052.39,-135.84 1046.83,-79.38 1040.22,-46.14"/><polygon fill="#000" stroke="#000" points="1043.61 -45.25 1038.08 -36.22 1036.77 -46.73 1043.61 -45.25"/></g><g id="edge15" class="edge"><title>:ui-&gt;:sugar-processor</title><path fill="none" stroke="#000" d="M738.88,-279.49C777.31,-256.74 863.46,-205.73 912.16,-176.89"/><polygon fill="#000" stroke="#000" points="913.98 -179.88 920.8 -171.78 910.41 -173.86 913.98 -179.88"/></g><g id="edge10" class="edge"><title>:ui-&gt;:util</title><path fill="none" stroke="#000" stroke-dasharray="1 5" d="M735.37,-277.08C764.72,-249.67 821.87,-187.03 793.44,-137 758.36,-75.25 676.76,-42.41 630,-28.07"/><polygon fill="#000" stroke="#000" points="630.88 -24.68 620.3 -25.2 628.9 -31.39 630.88 -24.68"/></g></g></svg>