<?xml version="1.0" encoding="UTF-8" standalone="no"?><!DOCTYPE svg PUBLIC "-//W3C//DTD SVG 1.1//EN"
    "http://www.w3.org/Graphics/SVG/1.1/DTD/svg11.dtd"><!-- Generated by graphviz version 2.50.0 (20211204.2007)
 -->
<!-- Pages: 1 -->
<svg width="1136pt" height="529pt" viewBox="0.00 0.00 1136.39 529.00" xmlns="http://www.w3.org/2000/svg">
    <g id="graph0" class="graph" transform="scale(1 1) rotate(0) translate(4 525)">
        <polygon fill="white" stroke="transparent" points="-4,4 -4,-525 1132.39,-525 1132.39,4 -4,4" />
        <text text-anchor="middle" x="564.2" y="-493" font-family="Times,serif" font-size="30.00">quack&#45;quack</text>
        <text text-anchor="middle" x="564.2" y="-460" font-family="Times,serif" font-size="30.00"></text>
        <!-- :aide -->
        <g id="node1" class="node">
            <title>:aide</title>
            <ellipse fill="#98e1cf" stroke="black" cx="1100.44" cy="-155" rx="27.9" ry="18" />
            <text text-anchor="middle" x="1100.44" y="-151.3" font-family="Times,serif" font-size="14.00">:aide</text>
        </g>
        <!-- :aide&#45;annotation -->
        <g id="node2" class="node">
            <title>:aide&#45;annotation</title>
            <ellipse fill="#98e1cf" stroke="black" cx="206.44" cy="-155" rx="67.69" ry="18" />
            <text text-anchor="middle" x="206.44" y="-151.3" font-family="Times,serif" font-size="14.00">:aide&#45;annotation</text>
        </g>
        <!-- :aide&#45;processor -->
        <g id="node3" class="node">
            <title>:aide&#45;processor</title>
            <ellipse fill="#98e1cf" stroke="black" cx="356.44" cy="-155" rx="64.19" ry="18" />
            <text text-anchor="middle" x="356.44" y="-151.3" font-family="Times,serif" font-size="14.00">:aide&#45;processor</text>
        </g>
        <!-- :animation -->
        <g id="node4" class="node">
            <title>:animation</title>
            <ellipse fill="#36bcf5" stroke="black" cx="487.44" cy="-155" rx="48.99" ry="18" />
            <text text-anchor="middle" x="487.44" y="-151.3" font-family="Times,serif" font-size="14.00">:animation
            </text>
        </g>
        <!-- :material -->
        <g id="node10" class="node">
            <title>:material</title>
            <ellipse fill="#36bcf5" stroke="black" cx="487.44" cy="-18" rx="42.49" ry="18" />
            <text text-anchor="middle" x="487.44" y="-14.3" font-family="Times,serif" font-size="14.00">:material</text>
        </g>
        <!-- :animation&#45;&gt;:material -->
        <g id="edge6" class="edge">
            <title>:animation&#45;&gt;:material</title>
            <path fill="none" stroke="black" d="M487.44,-136.9C487.44,-114.1 487.44,-73.48 487.44,-46.39" />
            <polygon fill="black" stroke="black" points="490.94,-46.39 487.44,-36.39 483.94,-46.39 490.94,-46.39" />
        </g>
        <!-- :util -->
        <g id="node15" class="node">
            <title>:util</title>
            <ellipse fill="#eeeeee" stroke="black" cx="595.44" cy="-18" rx="27" ry="18" />
            <text text-anchor="middle" x="595.44" y="-14.3" font-family="Times,serif" font-size="14.00">:util</text>
        </g>
        <!-- :animation&#45;&gt;:util -->
        <g id="edge7" class="edge">
            <title>:animation&#45;&gt;:util</title>
            <path fill="none" stroke="black" stroke-dasharray="1,5"
                d="M500.69,-137.45C519.78,-113.58 555.12,-69.41 576.83,-42.27" />
            <polygon fill="black" stroke="black" points="579.58,-44.43 583.1,-34.44 574.12,-40.06 579.58,-44.43" />
        </g>
        <!-- :casa&#45;annotation -->
        <g id="node5" class="node">
            <title>:casa&#45;annotation</title>
            <ellipse fill="#d4c5f9" stroke="black" cx="861.44" cy="-18" rx="68.49" ry="18" />
            <text text-anchor="middle" x="861.44" y="-14.3" font-family="Times,serif" font-size="14.00">:casa&#45;annotation</text>
        </g>
        <!-- :casa&#45;material -->
        <g id="node6" class="node">
            <title>:casa&#45;material</title>
            <ellipse fill="#d4c5f9" stroke="black" cx="60.44" cy="-155" rx="60.39" ry="18" />
            <text text-anchor="middle" x="60.44" y="-151.3" font-family="Times,serif" font-size="14.00">:casa&#45;material</text>
        </g>
        <!-- :casa&#45;processor -->
        <g id="node7" class="node">
            <title>:casa&#45;processor</title>
            <ellipse fill="#d4c5f9" stroke="black" cx="719.44" cy="-155" rx="64.99" ry="18" />
            <text text-anchor="middle" x="719.44" y="-151.3" font-family="Times,serif" font-size="14.00">:casa&#45;processor</text>
        </g>
        <!-- :casa&#45;ui -->
        <g id="node8" class="node">
            <title>:casa&#45;ui</title>
            <ellipse fill="#d4c5f9" stroke="black" cx="60.44" cy="-292" rx="38.19" ry="18" />
            <text text-anchor="middle" x="60.44" y="-288.3" font-family="Times,serif" font-size="14.00">:casa&#45;ui
            </text>
        </g>
        <!-- :casa&#45;ui&#45;&gt;:casa&#45;material -->
        <g id="edge1" class="edge">
            <title>:casa&#45;ui&#45;&gt;:casa&#45;material</title>
            <path fill="none" stroke="black" d="M60.44,-273.9C60.44,-251.1 60.44,-210.48 60.44,-183.39" />
            <polygon fill="black" stroke="black" points="63.94,-183.39 60.44,-173.39 56.94,-183.39 63.94,-183.39" />
        </g>
        <!-- :catalog -->
        <g id="node9" class="node">
            <title>:catalog</title>
            <polygon fill="#8ed610" stroke="black" points="155.94,-447 96.94,-447 96.94,-411 155.94,-411 155.94,-447" />
            <text text-anchor="middle" x="126.44" y="-425.3" font-family="Times,serif" font-size="14.00">:catalog</text>
        </g>
        <!-- :catalog&#45;&gt;:casa&#45;material -->
        <g id="edge4" class="edge">
            <title>:catalog&#45;&gt;:casa&#45;material</title>
            <path fill="none" stroke="black" stroke-dasharray="1,5"
                d="M125.75,-410.64C124.28,-381.84 119.88,-322.54 107.44,-274 99.11,-241.48 84.06,-205.9 73.24,-182.41" />
            <polygon fill="black" stroke="black" points="76.3,-180.7 68.89,-173.12 69.96,-183.66 76.3,-180.7" />
        </g>
        <!-- :catalog&#45;&gt;:casa&#45;ui -->
        <g id="edge3" class="edge">
            <title>:catalog&#45;&gt;:casa&#45;ui</title>
            <path fill="none" stroke="black" stroke-dasharray="1,5"
                d="M118.09,-410.9C106.78,-387.77 86.51,-346.31 73.27,-319.22" />
            <polygon fill="black" stroke="black" points="76.27,-317.41 68.74,-309.96 69.98,-320.48 76.27,-317.41" />
        </g>
        <!-- :ui -->
        <g id="node14" class="node">
            <title>:ui</title>
            <ellipse fill="#36bcf5" stroke="black" cx="719.44" cy="-292" rx="27" ry="18" />
            <text text-anchor="middle" x="719.44" y="-288.3" font-family="Times,serif" font-size="14.00">:ui</text>
        </g>
        <!-- :catalog&#45;&gt;:ui -->
        <g id="edge2" class="edge">
            <title>:catalog&#45;&gt;:ui</title>
            <path fill="none" stroke="black" stroke-dasharray="1,5"
                d="M156.26,-421.21C255.93,-398.52 577.28,-325.37 684.36,-300.99" />
            <polygon fill="black" stroke="black" points="685.35,-304.35 694.33,-298.72 683.8,-297.53 685.35,-304.35" />
        </g>
        <!-- :runtime -->
        <g id="node11" class="node">
            <title>:runtime</title>
            <ellipse fill="#36bcf5" stroke="black" cx="595.44" cy="-155" rx="40.89" ry="18" />
            <text text-anchor="middle" x="595.44" y="-151.3" font-family="Times,serif" font-size="14.00">:runtime</text>
        </g>
        <!-- :runtime&#45;&gt;:util -->
        <g id="edge5" class="edge">
            <title>:runtime&#45;&gt;:util</title>
            <path fill="none" stroke="black" stroke-dasharray="1,5"
                d="M595.44,-136.9C595.44,-114.1 595.44,-73.48 595.44,-46.39" />
            <polygon fill="black" stroke="black" points="598.94,-46.39 595.44,-36.39 591.94,-46.39 598.94,-46.39" />
        </g>
        <!-- :sugar&#45;material -->
        <g id="node12" class="node">
            <title>:sugar&#45;material</title>
            <ellipse fill="#bfd4f2" stroke="black" cx="1033.44" cy="-18" rx="64.19" ry="18" />
            <text text-anchor="middle" x="1033.44" y="-14.3" font-family="Times,serif" font-size="14.00">:sugar&#45;material</text>
        </g>
        <!-- :sugar&#45;processor -->
        <g id="node13" class="node">
            <title>:sugar&#45;processor</title>
            <ellipse fill="#bfd4f2" stroke="black" cx="947.44" cy="-155" rx="68.79" ry="18" />
            <text text-anchor="middle" x="947.44" y="-151.3" font-family="Times,serif" font-size="14.00">:sugar&#45;processor</text>
        </g>
        <!-- :sugar&#45;processor&#45;&gt;:casa&#45;annotation -->
        <g id="edge8" class="edge">
            <title>:sugar&#45;processor&#45;&gt;:casa&#45;annotation</title>
            <path fill="none" stroke="black" stroke-dasharray="1,5"
                d="M936.73,-137.18C921.92,-113.93 895.08,-71.8 877.77,-44.63" />
            <polygon fill="black" stroke="black" points="880.62,-42.59 872.3,-36.04 874.72,-46.35 880.62,-42.59" />
        </g>
        <!-- :sugar&#45;processor&#45;&gt;:sugar&#45;material -->
        <g id="edge9" class="edge">
            <title>:sugar&#45;processor&#45;&gt;:sugar&#45;material</title>
            <path fill="none" stroke="black" stroke-dasharray="1,5"
                d="M958.16,-137.18C972.97,-113.93 999.81,-71.8 1017.12,-44.63" />
            <polygon fill="black" stroke="black" points="1020.17,-46.35 1022.59,-36.04 1014.27,-42.59 1020.17,-46.35" />
        </g>
        <!-- :ui&#45;&gt;:aide -->
        <g id="edge19" class="edge">
            <title>:ui&#45;&gt;:aide</title>
            <path fill="none" stroke="black"
                d="M743.43,-283.11C799.09,-264.69 941.21,-217.1 1058.44,-173 1061.54,-171.84 1064.75,-170.6 1067.95,-169.34" />
            <polygon fill="black" stroke="black"
                points="1069.43,-172.52 1077.42,-165.56 1066.83,-166.02 1069.43,-172.52" />
        </g>
        <!-- :ui&#45;&gt;:aide&#45;annotation -->
        <g id="edge15" class="edge">
            <title>:ui&#45;&gt;:aide&#45;annotation</title>
            <path fill="none" stroke="black" stroke-dasharray="1,5"
                d="M694.7,-284.49C616.58,-263.93 373.82,-200.05 262.84,-170.84" />
            <polygon fill="black" stroke="black" points="263.4,-167.37 252.84,-168.21 261.62,-174.14 263.4,-167.37" />
        </g>
        <!-- :ui&#45;&gt;:aide&#45;processor -->
        <g id="edge17" class="edge">
            <title>:ui&#45;&gt;:aide&#45;processor</title>
            <path fill="none" stroke="black" d="M696.46,-282.45C637.87,-260.66 482.02,-202.7 403.32,-173.43" />
            <polygon fill="black" stroke="black" points="404.25,-170.04 393.65,-169.84 401.81,-176.6 404.25,-170.04" />
        </g>
        <!-- :ui&#45;&gt;:animation -->
        <g id="edge10" class="edge">
            <title>:ui&#45;&gt;:animation</title>
            <path fill="none" stroke="black" d="M699.66,-279.49C659.95,-256.38 570.12,-204.11 521.02,-175.54" />
            <polygon fill="black" stroke="black" points="522.76,-172.5 512.35,-170.49 519.23,-178.55 522.76,-172.5" />
        </g>
        <!-- :ui&#45;&gt;:casa&#45;annotation -->
        <g id="edge13" class="edge">
            <title>:ui&#45;&gt;:casa&#45;annotation</title>
            <path fill="none" stroke="black" stroke-dasharray="1,5"
                d="M733.49,-276.54C753.35,-255.4 789.64,-214.07 811.44,-173 833.59,-131.29 848.2,-78 855.63,-46.29" />
            <polygon fill="black" stroke="black" points="859.07,-46.94 857.88,-36.41 852.25,-45.39 859.07,-46.94" />
        </g>
        <!-- :ui&#45;&gt;:casa&#45;processor -->
        <g id="edge18" class="edge">
            <title>:ui&#45;&gt;:casa&#45;processor</title>
            <path fill="none" stroke="black" d="M719.44,-273.9C719.44,-251.1 719.44,-210.48 719.44,-183.39" />
            <polygon fill="black" stroke="black" points="722.94,-183.39 719.44,-173.39 715.94,-183.39 722.94,-183.39" />
        </g>
        <!-- :ui&#45;&gt;:runtime -->
        <g id="edge12" class="edge">
            <title>:ui&#45;&gt;:runtime</title>
            <path fill="none" stroke="black" stroke-dasharray="1,5"
                d="M705.94,-276.3C684.57,-253.03 642.78,-207.53 617.16,-179.64" />
            <polygon fill="black" stroke="black" points="619.42,-176.93 610.08,-171.94 614.27,-181.67 619.42,-176.93" />
        </g>
        <!-- :ui&#45;&gt;:sugar&#45;material -->
        <g id="edge14" class="edge">
            <title>:ui&#45;&gt;:sugar&#45;material</title>
            <path fill="none" stroke="black" stroke-dasharray="1,5"
                d="M746.45,-289.83C807.94,-285.56 958.27,-265.66 1025.44,-173 1052.39,-135.84 1046.83,-79.38 1040.22,-46.14" />
            <polygon fill="black" stroke="black" points="1043.61,-45.25 1038.08,-36.22 1036.77,-46.73 1043.61,-45.25" />
        </g>
        <!-- :ui&#45;&gt;:sugar&#45;processor -->
        <g id="edge16" class="edge">
            <title>:ui&#45;&gt;:sugar&#45;processor</title>
            <path fill="none" stroke="black" d="M738.88,-279.49C777.31,-256.74 863.46,-205.73 912.16,-176.89" />
            <polygon fill="black" stroke="black" points="913.98,-179.88 920.8,-171.78 910.41,-173.86 913.98,-179.88" />
        </g>
        <!-- :ui&#45;&gt;:util -->
        <g id="edge11" class="edge">
            <title>:ui&#45;&gt;:util</title>
            <path fill="none" stroke="black" stroke-dasharray="1,5"
                d="M735.37,-277.08C764.72,-249.67 821.87,-187.03 793.44,-137 758.36,-75.25 676.76,-42.41 630,-28.07" />
            <polygon fill="black" stroke="black" points="630.88,-24.68 620.3,-25.2 628.9,-31.39 630.88,-24.68" />
        </g>
    </g>
</svg>
