<svg xmlns:xlink="http://www.w3.org/1999/xlink" style="enable-background:new 0 0 1024 500"
    id="레이어_1" version="1.1" viewBox="0 0 1024 500" x="0" xmlns="http://www.w3.org/2000/svg" y="0"
    xml:space="preserve"><style type="text/css">.st0{fill:none}.st1{fill:url(#SVGID_1_)}.st2{fill:#fff8f1}.st3{fill:#222}.st4{enable-background:new}.st5{fill:#ff8300}.st6{fill:#fff}.st13{fill:#f9ecd0}</style>
    <rect class="st0" height="500" width="1024" y="0" />
    <radialGradient cx="299.208" cy="349.227"
        gradientTransform="matrix(1024 0 0 -500 -305877 174863.5938)" gradientUnits="userSpaceOnUse"
        id="SVGID_1_" r=".67"><stop style="stop-color:#ffb341" offset="0"/>
        <stop style="stop-color:#ffd891" offset="1" /></radialGradient>
    <rect class="st1" height="500" width="1024" y="0" />
    <g id="다각형_1"><path class="st2" d="M298.7,338.8L259.2,295l-0.4-0.4l-0.6,0.1l-95.8,18.2l0.3-46.7l0-1l-1,0L59,265.3l38.9-42.6l1.2-1.3l-1.8-0.3 L3.3,203.4l71.6-32.5l2-0.9l-2-0.9L3.3,136.6l94.1-17.6l1.8-0.3l-1.2-1.3L59,74.7l102.8,0.1l1,0l0-1l-0.3-46.7l95.8,18.2l0.6,0.1 l0.4-0.4l39.5-43.8l73.4,33.7l0.4,0.2l0.4-0.2l73.4-33.7L485.8,45l0.4,0.4l0.6-0.1l95.8-18.2l-0.3,46.7l0,1l1,0L686,74.7 l-38.9,42.6l-1.2,1.3l1.8,0.3l94.1,17.6l-71.6,32.5l-2,0.9l2,0.9l71.6,32.5l-94.1,17.6l-1.8,0.3l1.2,1.3l38.9,42.6l-102.8-0.1l-1,0 l0,1l0.3,46.7l-95.8-18.2l-0.6-0.1l-0.4,0.4l-39.5,43.8l-73.4-33.7l-0.4-0.2l-0.4,0.2L298.7,338.8z" transform="translate(140 80)"/>
        <path class="st3"
            d="M298.9,2.4l-39.7,44.1l-95.7-18.2l0.3,47.5L61.3,75.7l39.8,43.5L6.6,137l72.7,33L6.6,203l94.5,17.7l-39.8,43.5 l102.5-0.1l-0.3,47.5l95.7-18.2l0.8,0.8l39,43.3l73.6-33.8l0.8,0.4l72.8,33.4l39.7-44.1l95.7,18.2l-0.3-47.5l102.5,0.1l-39.8-43.5 l94.5-17.7l-72.7-33l72.7-33l-94.5-17.7l39.8-43.5l-102.5,0.1l0.3-47.5l-95.7,18.2l-0.8-0.8l-39-43.3l-73.6,33.8l-0.8-0.4 L298.9,2.4 M298.4,0l74.1,34l74.1-34l39.9,44.4l97-18.5l-0.3,48l105.1-0.1L647.8,118l97.2,18.2L670.5,170l74.5,33.8L647.8,222 l40.5,44.3l-105.1-0.1l0.3,48l-97-18.5L446.6,340l-74.1-34l-74.1,34l-39.9-44.4l-97,18.5l0.3-48l-105.1,0.1L97.2,222L0,203.8 L74.5,170L0,136.2L97.2,118L56.7,73.7l105.1,0.1l-0.3-48l97,18.5L298.4,0z"
            transform="translate(140 80)" /></g>
    <g class="st4"><path class="st3" d="M458.3,245.2c-2.9,3.5-7.1,5.4-11.9,5.4c-6.6,0-11.2-2.4-18-9.6c-12.1-1.5-20.6-10.6-20.6-22.6 c0-13.1,10.2-22.8,24.1-22.8c13.9,0,24.1,9.6,24.1,22.8c0,10.3-6.4,18.5-15.8,21.5c2.1,2.3,4,3.1,6.2,3.1c2.7,0,5.1-1.1,7.2-3.3 L458.3,245.2z M432,232.6c7.9,0,13.8-5.7,13.8-14.1c0-8.4-5.9-14.1-13.8-14.1s-13.8,5.7-13.8,14.1 C418.2,226.8,424.1,232.6,432,232.6z"/>
        <path class="st3"
            d="M497.2,206.6v33.9h-9.3v-4c-2.6,3-6.4,4.5-10.5,4.5c-8.5,0-14.5-4.8-14.5-15.2v-19.2h9.8v17.7 c0,5.7,2.5,8.2,6.9,8.2c4.5,0,7.8-2.9,7.8-9.1v-16.8H497.2z" />
        <path class="st3"
            d="M536.3,221.2v19.3h-9.2v-4.2c-1.8,3.1-5.4,4.7-10.3,4.7c-7.9,0-12.7-4.4-12.7-10.3c0-6,4.2-10.1,14.6-10.1h7.8 c0-4.2-2.5-6.7-7.8-6.7c-3.6,0-7.3,1.2-9.8,3.2l-3.5-6.9c3.7-2.6,9.2-4.1,14.6-4.1C530.4,206.1,536.3,210.9,536.3,221.2z M526.5,229.8v-3.5h-6.7c-4.6,0-6,1.7-6,4c0,2.5,2.1,4.1,5.5,4.1C522.5,234.4,525.4,232.9,526.5,229.8z" />
        <path class="st3"
            d="M543.1,223.6c0-10.2,7.9-17.5,18.9-17.5c7.1,0,12.7,3.1,15.2,8.6l-7.6,4.1c-1.8-3.2-4.5-4.7-7.6-4.7 c-5,0-8.9,3.5-8.9,9.4c0,5.9,3.9,9.4,8.9,9.4c3.1,0,5.8-1.4,7.6-4.7l7.6,4.2c-2.5,5.4-8.1,8.6-15.2,8.6 C551,241,543.1,233.8,543.1,223.6z" />
        <path class="st3"
            d="M597.1,227.2l-4.7,4.7v8.6h-9.8v-46.7h9.8v26.5l14.4-13.6h11.7L604.4,221l15.4,19.5h-11.9L597.1,227.2z" /></g>
    <g class="st4"><path class="st3" d="M364.6,268.4c0,9.8-7.4,15.9-19.2,15.9h-8.9v12.2h-10.2v-44.1h19.1C357.2,252.4,364.6,258.5,364.6,268.4z M354.2,268.4c0-4.9-3.1-7.7-9.4-7.7h-8.3V276h8.3C351.1,276,354.2,273.2,354.2,268.4z"/>
        <path class="st3" d="M371.8,249.8h9.8v46.7h-9.8V249.8z" />
        <path class="st3"
            d="M420.7,277.2v19.3h-9.2v-4.2c-1.8,3.1-5.4,4.7-10.3,4.7c-7.9,0-12.7-4.4-12.7-10.3c0-6,4.2-10.1,14.6-10.1h7.8 c0-4.2-2.5-6.7-7.8-6.7c-3.6,0-7.3,1.2-9.8,3.2l-3.5-6.9c3.7-2.6,9.2-4.1,14.6-4.1C414.7,262.1,420.7,266.9,420.7,277.2z M410.9,285.8v-3.5h-6.7c-4.6,0-6,1.7-6,4c0,2.5,2.1,4.1,5.5,4.1C406.9,290.4,409.7,288.9,410.9,285.8z" />
        <path class="st3"
            d="M462.6,262.6l-15.3,36c-3.3,8.2-7.9,10.6-14,10.6c-3.5,0-7.2-1.1-9.5-3.1l3.6-7c1.5,1.3,3.6,2.1,5.5,2.1 c2.7,0,4.2-1.2,5.5-4.2l0.1-0.3l-14.7-34.1h10.1l9.5,23l9.6-23H462.6z" />
        <path class="st3"
            d="M500.7,262.6v28.2c0,12.6-6.8,18.4-19,18.4c-6.4,0-12.7-1.6-16.6-4.7l3.9-7.1c2.9,2.3,7.6,3.8,12,3.8 c6.9,0,10-3.2,10-9.3v-1.4c-2.6,2.8-6.3,4.2-10.7,4.2c-9.4,0-16.9-6.5-16.9-16.4c0-9.9,7.6-16.4,16.9-16.4c4.7,0,8.6,1.6,11.2,4.9 v-4.3H500.7z M491,278.5c0-5-3.7-8.3-8.9-8.3c-5.2,0-8.9,3.3-8.9,8.3c0,5,3.8,8.3,8.9,8.3C487.2,286.8,491,283.5,491,278.5z" />
        <path class="st3"
            d="M530.8,262.1v9.1c-0.8-0.1-1.4-0.1-2.2-0.1c-5.4,0-9,3-9,9.5v16h-9.8v-33.9h9.4v4.5 C521.6,263.8,525.6,262.1,530.8,262.1z" />
        <path class="st3"
            d="M533.9,279.6c0-10.2,7.9-17.5,18.6-17.5c10.8,0,18.6,7.2,18.6,17.5c0,10.2-7.8,17.5-18.6,17.5 C541.7,297,533.9,289.8,533.9,279.6z M561.1,279.6c0-5.9-3.7-9.4-8.6-9.4c-4.9,0-8.7,3.5-8.7,9.4s3.8,9.4,8.7,9.4 C557.4,288.9,561.1,285.4,561.1,279.6z" />
        <path class="st3"
            d="M611.8,262.6v33.9h-9.3v-4c-2.6,3-6.4,4.5-10.5,4.5c-8.5,0-14.5-4.8-14.5-15.2v-19.2h9.8v17.7 c0,5.7,2.5,8.2,6.9,8.2c4.5,0,7.8-2.9,7.8-9.1v-16.8H611.8z" />
        <path class="st3"
            d="M655.6,277.1v19.4h-9.8v-17.9c0-5.5-2.5-8-6.9-8c-4.7,0-8.1,2.9-8.1,9.1v16.8h-9.8v-33.9h9.4v4 c2.6-2.9,6.6-4.5,11.2-4.5C649.5,262.1,655.6,266.8,655.6,277.1z" />
        <path class="st3"
            d="M699.4,249.8v46.7H690v-3.9c-2.5,3-6,4.4-10.6,4.4c-9.6,0-16.9-6.8-16.9-17.5s7.4-17.5,16.9-17.5 c4.2,0,7.7,1.3,10.1,4.1v-16.4H699.4z M689.7,279.6c0-5.9-3.8-9.4-8.6-9.4c-4.9,0-8.7,3.5-8.7,9.4s3.8,9.4,8.7,9.4 C685.9,288.9,689.7,285.4,689.7,279.6z" /></g>
    <g id="사각형_24188"><path class="st5" d="M92,47h189c4.4,0,8,3.6,8,8v28c0,4.4-3.6,8-8,8H92c-4.4,0-8-3.6-8-8V55C84,50.6,87.6,47,92,47z" transform="translate(0.975)"/>
        <path class="st3"
            d="M281,91H92c-4.4,0-8-3.6-8-8V55c0-4.4,3.6-8,8-8h189c4.4,0,8,3.6,8,8v28C289,87.4,285.4,91,281,91z M92,48 c-3.9,0-7,3.1-7,7v28c0,3.9,3.1,7,7,7h189c3.9,0,7-3.1,7-7V55c0-3.9-3.1-7-7-7H92z"
            transform="translate(0.975)" /></g>
    <g id="사각형_24188-2"><path class="st5" d="M84,41h189c4.4,0,8,3.6,8,8v28c0,4.4-3.6,8-8,8H84c-4.4,0-8-3.6-8-8V49C76,44.6,79.6,41,84,41z" transform="translate(0.975)"/>
        <path class="st3"
            d="M273,85H84c-4.4,0-8-3.6-8-8V49c0-4.4,3.6-8,8-8h189c4.4,0,8,3.6,8,8v28C281,81.4,277.4,85,273,85z M84,42 c-3.9,0-7,3.1-7,7v28c0,3.9,3.1,7,7,7h189c3.9,0,7-3.1,7-7V49c0-3.9-3.1-7-7-7H84z"
            transform="translate(0.975)" /></g>
    <g class="st4"><path class="st3" d="M151.3,57.9h4.6c0.5,0,1,0.1,1.4,0.4c0.4,0.2,0.8,0.6,1,1c0.2,0.4,0.4,0.9,0.4,1.4c0,0.4-0.1,0.8-0.3,1.2 c-0.2,0.3-0.4,0.7-0.8,0.9c0.4,0.3,0.7,0.6,0.9,1c0.2,0.4,0.4,0.9,0.4,1.4c0,0.5-0.1,1-0.4,1.4c-0.3,0.4-0.6,0.8-1,1 s-0.9,0.4-1.4,0.4h-4.8V57.9z M155.9,58.9h-3.6v3.4h3.7c0.3,0,0.6-0.1,0.9-0.2c0.3-0.1,0.5-0.3,0.6-0.6c0.1-0.3,0.2-0.5,0.2-0.8 c0-0.3-0.1-0.6-0.2-0.9c-0.2-0.3-0.4-0.5-0.7-0.6C156.5,58.9,156.2,58.9,155.9,58.9z M156.1,63.3h-3.8V67h3.8 c0.3,0,0.6-0.1,0.9-0.2c0.3-0.2,0.5-0.4,0.7-0.7s0.2-0.6,0.2-0.9c0-0.4-0.1-0.7-0.2-1c-0.2-0.3-0.4-0.5-0.7-0.7 C156.8,63.4,156.5,63.3,156.1,63.3z"/>
        <path class="st3"
            d="M168.4,66.1c-0.4,0.6-0.9,1.1-1.6,1.5c-0.6,0.4-1.3,0.5-1.9,0.5c-0.7,0-1.4-0.2-2.1-0.5 c-0.6-0.4-1.1-0.8-1.5-1.5c-0.4-0.6-0.6-1.3-0.6-2v-6.2h1v6.2c0,0.6,0.1,1.1,0.4,1.5c0.3,0.5,0.7,0.8,1.2,1.1 c0.5,0.3,1,0.4,1.5,0.4c0.5,0,1-0.1,1.5-0.4c0.5-0.3,0.9-0.6,1.2-1.1c0.3-0.5,0.5-1,0.5-1.5v-6.2h1v6.2 C169,64.8,168.8,65.5,168.4,66.1z" />
        <path class="st3" d="M178.5,58.9h-3.3V68h-1v-9.1h-3.3v-1h7.6V58.9z" />
        <path class="st3" d="M187.3,58.9H184V68h-1v-9.1h-3.3v-1h7.6V58.9z" />
        <path class="st3"
            d="M195.2,58.5c0.8,0.5,1.4,1.1,1.8,1.9c0.4,0.8,0.7,1.6,0.7,2.6s-0.2,1.8-0.7,2.6s-1,1.4-1.8,1.9 s-1.6,0.7-2.5,0.7s-1.7-0.2-2.5-0.7s-1.4-1.1-1.8-1.9c-0.4-0.8-0.7-1.7-0.7-2.6s0.2-1.8,0.7-2.6c0.4-0.8,1-1.4,1.8-1.9 s1.6-0.7,2.5-0.7S194.4,58,195.2,58.5z M194.7,66.5c0.6-0.4,1.1-0.9,1.4-1.5s0.5-1.3,0.5-2.1s-0.2-1.4-0.5-2.1s-0.8-1.1-1.4-1.5 c-0.6-0.4-1.3-0.6-2-0.6c-0.7,0-1.4,0.2-2,0.6s-1.1,0.9-1.4,1.5c-0.4,0.6-0.5,1.3-0.5,2.1s0.2,1.5,0.5,2.1c0.4,0.6,0.8,1.1,1.4,1.5 s1.3,0.6,2,0.6C193.4,67.1,194,66.9,194.7,66.5z" />
        <path class="st3" d="M207.7,68h-1l-6.4-8.5V68h-1V57.9h1l6.4,8.4v-8.4h1V68z" /></g>
    <g id="button_sale.request_line" transform="translate(768 388)"><g id="패스_261"><path class="st6" d="M128,33.5H8c-4.1,0-7.5-3.4-7.5-7.5V8c0-4.1,3.4-7.5,7.5-7.5h120c4.1,0,7.5,3.4,7.5,7.5v18 C135.5,30.1,132.1,33.5,128,33.5z"/><path
        class="st3"
        d="M8,1C4.1,1,1,4.1,1,8v18c0,3.9,3.1,7,7,7h120c3.9,0,7-3.1,7-7V8c0-3.9-3.1-7-7-7H8 M8,0h120c4.4,0,8,3.6,8,8 v18c0,4.4-3.6,8-8,8H8c-4.4,0-8-3.6-8-8V8C0,3.6,3.6,0,8,0z" /></g>
        <g class="st4"><path class="st3" d="M19.4,13.9c-0.1-0.1-0.3-0.3-0.5-0.4c-0.6-0.4-1.4-0.6-2.4-0.6c-0.4,0-0.7,0.1-1,0.3 c-0.3,0.1-0.6,0.4-0.7,0.7c-0.2,0.3-0.2,0.6-0.2,0.8c0,0.2,0.2,0.5,0.3,0.7c0.2,0.2,0.4,0.4,0.6,0.5c0.2,0.1,0.4,0.2,0.5,0.3 c0.1,0.1,0.3,0.1,0.5,0.2l0.7,0.2c0.8,0.2,1.5,0.5,1.9,0.7c0.4,0.2,0.8,0.5,1,0.7c0.2,0.2,0.3,0.4,0.4,0.7 c0.1,0.3,0.2,0.6,0.2,0.9s-0.1,0.7-0.3,1c-0.2,0.3-0.4,0.5-0.6,0.7c-0.2,0.2-0.5,0.4-0.8,0.5c-0.2,0.1-0.5,0.2-0.7,0.3 c-0.3,0.1-0.5,0.1-0.7,0.1c-0.5,0-1.1,0-1.5-0.1c-0.5-0.1-1-0.4-1.4-0.7c-0.4-0.3-0.8-0.6-1-1s-0.4-0.7-0.5-0.9l1-0.3 c0.1,0.2,0.2,0.4,0.4,0.7c0.2,0.3,0.4,0.5,0.7,0.7c0.4,0.3,0.8,0.4,1.2,0.5c0.4,0.1,0.8,0.1,1.2,0.1c0.3,0,0.7-0.1,1.1-0.3 c0.2-0.1,0.4-0.2,0.6-0.3c0.1-0.1,0.3-0.3,0.4-0.4c0.1-0.3,0.2-0.5,0.1-0.8c-0.1-0.2-0.2-0.4-0.3-0.6c-0.2-0.2-0.4-0.3-0.8-0.5 c-0.3-0.2-0.9-0.4-1.6-0.6l-0.7-0.2c-0.2-0.1-0.5-0.2-0.7-0.3c-0.2-0.1-0.4-0.2-0.6-0.3c-0.4-0.3-0.7-0.5-0.9-0.7 c-0.3-0.3-0.5-0.7-0.6-1.2c-0.1-0.5,0-1,0.2-1.5c0.3-0.5,0.7-0.9,1.2-1.1c0.5-0.2,1-0.3,1.5-0.4c0.5,0,1,0,1.5,0.1 c0.5,0.1,1,0.3,1.5,0.6c0.5,0.3,0.9,0.7,1.2,1.2l-0.9,0.5C19.7,14.2,19.6,14,19.4,13.9z"/>
            <path class="st3"
                d="M32.3,22h-1v-8.1L28,19.8h-0.8l-3.3-5.9V22h-1V11.9h1l3.8,6.7l3.7-6.7h1V22z" />
            <path class="st3"
                d="M43.4,22h-1.1l-1.2-2.9h-4.9L35,22h-1.1l4.2-10.1h1.1L43.4,22z M40.7,18.1l-2-4.9l-2.1,4.9H40.7z" />
            <path class="st3" d="M46.2,21H52v1h-6.8V11.9h1V21z" />
            <path class="st3" d="M55,21h5.8v1H54V11.9h1V21z" />
            <path class="st3"
                d="M66.1,11.9h4.6c0.5,0,1,0.1,1.4,0.4c0.4,0.2,0.8,0.6,1,1c0.2,0.4,0.4,0.9,0.4,1.4c0,0.4-0.1,0.8-0.3,1.2 c-0.2,0.3-0.4,0.7-0.8,0.9c0.4,0.3,0.7,0.6,0.9,1c0.2,0.4,0.4,0.9,0.4,1.4c0,0.5-0.1,1-0.4,1.4c-0.3,0.4-0.6,0.8-1,1 c-0.4,0.3-0.9,0.4-1.4,0.4h-4.8V11.9z M70.7,12.9h-3.6v3.4h3.7c0.3,0,0.6-0.1,0.9-0.2c0.3-0.1,0.5-0.3,0.6-0.6 c0.1-0.3,0.2-0.5,0.2-0.8c0-0.3-0.1-0.6-0.2-0.9c-0.2-0.3-0.4-0.5-0.7-0.6C71.3,12.9,71,12.9,70.7,12.9z M70.9,17.3h-3.8V21h3.8 c0.3,0,0.6-0.1,0.9-0.2c0.3-0.2,0.5-0.4,0.7-0.7s0.2-0.6,0.2-0.9c0-0.4-0.1-0.7-0.2-1c-0.2-0.3-0.4-0.5-0.7-0.7 S71.2,17.3,70.9,17.3z" />
            <path class="st3"
                d="M83.2,20.1c-0.4,0.6-0.9,1.1-1.6,1.5c-0.6,0.4-1.3,0.5-1.9,0.5c-0.7,0-1.4-0.2-2.1-0.5 c-0.6-0.4-1.1-0.8-1.5-1.5c-0.4-0.6-0.6-1.3-0.6-2v-6.2h1v6.2c0,0.6,0.1,1.1,0.4,1.5s0.7,0.8,1.2,1.1c0.5,0.3,1,0.4,1.5,0.4 c0.5,0,1-0.1,1.5-0.4c0.5-0.3,0.9-0.6,1.2-1.1c0.3-0.5,0.5-1,0.5-1.5v-6.2h1v6.2C83.8,18.8,83.6,19.5,83.2,20.1z" />
            <path class="st3" d="M93.3,12.9H90V22h-1v-9.1h-3.3v-1h7.6V12.9z" />
            <path class="st3" d="M102.1,12.9h-3.3V22h-1v-9.1h-3.3v-1h7.6V12.9z" />
            <path class="st3"
                d="M110,12.5c0.8,0.5,1.4,1.1,1.8,1.9c0.4,0.8,0.7,1.6,0.7,2.6s-0.2,1.8-0.7,2.6s-1,1.4-1.8,1.9 c-0.8,0.5-1.6,0.7-2.5,0.7c-0.9,0-1.7-0.2-2.5-0.7c-0.8-0.5-1.4-1.1-1.8-1.9s-0.7-1.7-0.7-2.6s0.2-1.8,0.7-2.6 c0.4-0.8,1-1.4,1.8-1.9c0.8-0.5,1.6-0.7,2.5-0.7C108.4,11.8,109.2,12,110,12.5z M109.4,20.5c0.6-0.4,1.1-0.9,1.4-1.5 c0.4-0.6,0.5-1.3,0.5-2.1s-0.2-1.4-0.5-2.1c-0.4-0.6-0.8-1.1-1.4-1.5c-0.6-0.4-1.3-0.6-2-0.6c-0.7,0-1.4,0.2-2,0.6 s-1.1,0.9-1.4,1.5c-0.4,0.6-0.5,1.3-0.5,2.1s0.2,1.5,0.5,2.1c0.4,0.6,0.8,1.1,1.4,1.5s1.3,0.6,2,0.6 C108.2,21.1,108.8,20.9,109.4,20.5z" />
            <path class="st3" d="M122.5,22h-1l-6.4-8.5V22h-1V11.9h1l6.4,8.4v-8.4h1V22z" /></g></g>
    <g id="comment_24" transform="translate(760 52.974)"><rect class="st0" height="72" id="사각형_24122" width="72" y="0"/>
        <g id="그룹_19967"><g transform="translate(8.848 9.982)"><defs><rect height="53.1" id="SVGID_00000032644458441495945260000002476610784443141273_" width="54" x="0" y="0"/></defs><clipPath
            id="SVGID_00000116914350469108875520000015969660668321164687_"><use style="overflow:visible" xlink:href="#SVGID_00000032644458441495945260000002476610784443141273_"/></clipPath><g
            style="clip-path:url(#SVGID_00000116914350469108875520000015969660668321164687_)"
            id="그룹_19966" transform="translate(0 0)"><g><path class="st6" d="M10.4,42.6 c-8.9-9.4-8.4-24.3,1-33.1s24.3-8.4,33.1,1s8.4,24.3-1,33.1C39.2,47.7,33.5,50,27.5,50H3.1L10.4,42.6z" id="패스_188_00000039851257313635057940000008361246127475710632_"/><path
            class="st3"
            d="M27.5,50.7C27.5,50.7,27.5,50.7,27.5,50.7H3.1c-0.3,0-0.6-0.2-0.7-0.5c-0.1-0.3-0.1-0.6,0.2-0.8l6.9-6.9 C5.3,38,3.1,32.1,3.3,25.8C3.5,19.4,6.2,13.4,10.9,9c4.7-4.4,10.9-6.8,17.3-6.6c6.5,0.2,12.5,2.9,16.9,7.6s6.8,10.8,6.6,17.3 c-0.2,6.5-2.9,12.5-7.6,16.9C39.6,48.4,33.7,50.7,27.5,50.7z M4.9,49.2h22.6c0,0,0,0,0,0c5.8,0,11.3-2.2,15.6-6.2 c4.4-4.2,6.9-9.8,7.1-15.8c0.2-6.1-2-11.8-6.2-16.2c-4.2-4.4-9.8-6.9-15.8-7.1c-6.1-0.2-11.8,2-16.2,6.2S5,19.8,4.8,25.9 c-0.2,6.1,2,11.8,6.2,16.2c0.3,0.3,0.3,0.8,0,1L4.9,49.2z" /></g></g></g></g></g>
    <g id="comment_24-2" transform="translate(826.788 41.188)"><rect class="st0" height="42" id="사각형_24122-2" width="42" x=".2" y="-.2"/>
        <g id="그룹_19967-2"><g transform="translate(5.208 5.39)"><defs><rect height="31.2" id="SVGID_00000115474238972275279270000000900698430131082151_" width="31.8" x="0" y="0"/></defs><clipPath
            id="SVGID_00000150070215623464567310000004806739196645192096_"><use style="overflow:visible" xlink:href="#SVGID_00000115474238972275279270000000900698430131082151_"/></clipPath><g
            style="clip-path:url(#SVGID_00000150070215623464567310000004806739196645192096_)"
            id="그룹_19966-2" transform="translate(0 0)"><g><path class="st5" d="M6.1,25.1 c-5.2-5.5-5-14.3,0.6-19.5s14.3-5,19.5,0.6s5,14.3-0.6,19.5c-2.6,2.4-6,3.8-9.5,3.8H1.8L6.1,25.1z" id="패스_188-2_00000134964518698527432470000009413526786274340232_"/><path
            class="st3"
            d="M16.2,30.2C16.2,30.2,16.2,30.2,16.2,30.2H1.8c-0.3,0-0.6-0.2-0.7-0.5c-0.1-0.3-0.1-0.6,0.2-0.8l3.8-3.8 c-2.3-2.7-3.6-6.2-3.5-9.9C1.8,11.3,3.4,7.7,6.2,5C9,2.4,12.7,1,16.6,1.1c3.9,0.1,7.5,1.7,10.2,4.6c5.5,5.8,5.2,15.1-0.6,20.6 C23.4,28.8,19.9,30.2,16.2,30.2z M3.6,28.7h12.5c0,0,0,0,0,0c3.3,0,6.5-1.3,8.9-3.6c5.2-4.9,5.5-13.2,0.5-18.4 c-2.4-2.5-5.6-4-9.1-4.1c-3.5-0.1-6.8,1.2-9.3,3.5c-2.5,2.4-4,5.6-4.1,9.1C3,18.7,4.3,22,6.7,24.6c0.3,0.3,0.3,0.8,0,1 L3.6,28.7z" /></g></g></g></g></g>
    <g id="drawer_heart_24" transform="translate(114.339 346.839)"><rect class="st0" height="72.2" id="사각형_24122-3" width="72.2" x="0" y="0"/>
        <g id="그룹_19983"><g transform="translate(8.205 10.549)"><defs><rect height="51.2" id="SVGID_00000044148675085618794630000006310376934450260898_" width="55.8" x="0" y="0"/></defs><clipPath
            id="SVGID_00000098899869650181165990000012159043823998611081_"><use style="overflow:visible" xlink:href="#SVGID_00000044148675085618794630000006310376934450260898_"/></clipPath><g
            style="clip-path:url(#SVGID_00000098899869650181165990000012159043823998611081_)"
            id="그룹_19982" transform="translate(0 0)"><g><path class="st5" d="M52.7,17.1v-0.1 c0-1.8-0.3-3.7-1-5.4c-1.9-5-6.3-8.5-11.4-8.5c-6.2,0-11.4,5.1-12.3,11.8c0,0.1-0.1,0.1-0.1,0.1c-0.1,0-0.1-0.1-0.1-0.1 c-0.9-6.7-6-11.8-12.3-11.8c-5.1,0-9.5,3.5-11.4,8.5c-0.6,1.7-1,3.6-1,5.4v0.1c0,0.7,0.1,1.5,0.2,2.2 C4.1,24.5,7.8,35.1,24.8,47l0,0c0.8,0.8,1.9,1.2,3,1.1c1.1,0.1,2.2-0.3,3-1.1l0,0c17-11.9,20.7-22.5,21.5-27.7 C52.6,18.5,52.7,17.8,52.7,17.1z" id="패스_195_00000173119396495038930470000004766958032927282319_"/><path
            class="st3"
            d="M27.6,48.9c-1.2,0-2.4-0.5-3.2-1.3c-17-11.9-21-22.8-21.8-28.2c-0.2-0.7-0.2-1.5-0.2-2.3v-0.1 c0-1.9,0.3-3.8,1-5.7c2.1-5.4,6.8-9,12.1-9c5.6,0,10.6,4,12.4,9.7c1.8-5.7,6.8-9.7,12.4-9.7c5.3,0,10.1,3.5,12.1,9 c0.7,1.8,1,3.7,1,5.7v0.1c0,0.8-0.1,1.6-0.2,2.3c-0.8,5.4-4.8,16.3-21.8,28.2c-0.9,0.9-2.2,1.4-3.5,1.3 C27.8,48.9,27.7,48.9,27.6,48.9z M15.5,3.8c-4.7,0-8.9,3.1-10.7,8c-0.6,1.6-0.9,3.4-0.9,5.1v0.1c0,0.7,0.1,1.4,0.2,2 c0.8,5.2,4.6,15.7,21.2,27.3c0,0,0.1,0.1,0.1,0.1c0.6,0.6,1.5,1,2.4,0.9c0,0,0.1,0,0.1,0c0.9,0.1,1.8-0.3,2.4-0.9 c0,0,0.1-0.1,0.1-0.1c16.6-11.6,20.4-22,21.2-27.2c0.2-0.7,0.2-1.4,0.2-2.1c0,0,0,0,0,0v-0.1c0-1.8-0.3-3.5-0.9-5.1 c-1.8-4.8-6-8-10.7-8c-5.7,0-10.6,4.8-11.5,11.1c0,0.5-0.4,0.8-0.9,0.8S27,15.4,27,14.9C26.1,8.6,21.2,3.8,15.5,3.8z M27.3,14.9L27.3,14.9L27.3,14.9z" /></g></g></g></g></g>
    <g id="drawer_buy_24" transform="translate(95.356 414.932)"><rect class="st0" height="51.1" id="사각형_24133" width="51.1" x="0" y="0"/>
        <g id="그룹_19987"><g transform="translate(10.692 6.364)"><defs><rect height="36.5" id="SVGID_00000029043044105931107920000014744968141931986314_" width="30.3" x="0" y="0"/></defs><clipPath
            id="SVGID_00000017509030620162394490000007183243719428427918_"><use style="overflow:visible" xlink:href="#SVGID_00000029043044105931107920000014744968141931986314_"/></clipPath><g
            style="clip-path:url(#SVGID_00000017509030620162394490000007183243719428427918_)"
            id="그룹_19986"><g><path class="st6" d="M25.8,34.6H4.4 c-1.4,0-2.5-1.1-2.5-2.5c0-0.1,0-0.1,0-0.2l1.6-19.8C3.6,10.8,4.7,9.7,6,9.7h18.2c1.3,0,2.4,1,2.5,2.3l1.6,19.8 c0.1,1.4-0.9,2.6-2.3,2.7C26,34.6,25.9,34.6,25.8,34.6z" id="패스_197_00000076598128001654315750000009578396682775734180_"/><path
            class="st3"
            d="M25.8,35.4H4.4c-0.9,0-1.7-0.3-2.3-1c-0.6-0.6-1-1.4-1-2.3c0-0.1,0-0.2,0-0.3L2.7,12C2.9,10.3,4.3,9,6,9 h18.2c0,0,0,0,0,0c1.7,0,3.1,1.3,3.3,3l1.6,19.8c0.1,1.8-1.2,3.4-3,3.5C26,35.4,25.9,35.4,25.8,35.4z M6,10.5 c-0.9,0-1.7,0.7-1.8,1.6L2.7,32c0,0,0,0.1,0,0.1c0,0.5,0.2,0.9,0.5,1.3c0.3,0.3,0.8,0.5,1.3,0.5h21.4c0.1,0,0.1,0,0.2,0 c1-0.1,1.7-0.9,1.6-1.9L26,12.1c-0.1-0.9-0.9-1.6-1.8-1.6c0,0,0,0,0,0H6z" /></g>
            <path class="st3"
                d="M19.1,15.2c-0.4,0-0.8-0.3-0.8-0.8V5.9c0-0.9-0.3-1.7-0.9-2.3C16.8,3,16,2.7,15.1,2.7c0,0,0,0,0,0 c-1.8,0-3.2,1.4-3.2,3.2v8.6c0,0.4-0.3,0.8-0.8,0.8s-0.8-0.3-0.8-0.8V5.9c0-2.6,2.1-4.7,4.7-4.7c0,0,0,0,0,0 c1.3,0,2.4,0.5,3.3,1.4c0.9,0.9,1.4,2.1,1.4,3.3v8.6C19.8,14.9,19.5,15.2,19.1,15.2z" /></g></g></g></g>
    <g id="drawer_tag_24" transform="translate(939 393) rotate(180)"><rect class="st0" height="42" id="사각형_24151" width="42" y="0"/>
        <g id="그룹_19991"><g transform="translate(5.188 5.117)"><defs><rect height="31.3" id="SVGID_00000021837095879204700010000016974524820670583227_" width="31.3" x="0" y="0"/></defs><clipPath
            id="SVGID_00000080201422843263321210000017281852434623923613_"><use style="overflow:visible" xlink:href="#SVGID_00000021837095879204700010000016974524820670583227_"/></clipPath><g
            style="clip-path:url(#SVGID_00000080201422843263321210000017281852434623923613_)"
            id="그룹_19990" transform="translate(0 0)"><g><path class="st5" d="M16.1,2.4L2.4,16.2 c-0.9,0.9-0.9,2.4,0,3.3c0,0,0,0,0,0l9.4,9.4c0.9,0.9,2.4,0.9,3.3,0c0,0,0,0,0,0l13.7-13.7c0.5-0.5,0.7-1.1,0.7-1.8l0-5.2l0-4 c0-1.3-1-2.3-2.3-2.3l-4,0c0,0-3.4,0-5.2,0C17.3,1.7,16.6,2,16.1,2.4z" id="패스_200_00000067230060126244476690000011791069346106492824_"/><path
            class="st3"
            d="M17.9,1C17.9,1,17.9,1,17.9,1l9.3,0.1c1.7,0,3,1.4,3,3l0.1,9.2c0,0.8-0.3,1.7-0.9,2.3L15.6,29.4 c-0.6,0.6-1.4,0.9-2.2,0.9c0,0,0,0,0,0c-0.8,0-1.6-0.3-2.2-0.9L1.9,20c0,0,0,0,0,0l0,0C1.3,19.4,1,18.6,1,17.8 c0-0.8,0.3-1.6,0.9-2.2L15.6,1.9c0,0,0,0,0,0C16.2,1.3,17,1,17.9,1z M16.1,2.4L16.1,2.4L16.1,2.4z M13.4,28.8 c0.4,0,0.8-0.2,1.1-0.5l13.7-13.7c0.3-0.3,0.5-0.8,0.5-1.2l-0.1-9.2c0-0.9-0.7-1.5-1.6-1.6l-9.2-0.1c-0.5,0-0.9,0.2-1.3,0.5 L3,16.7c-0.3,0.3-0.5,0.7-0.5,1.1c0,0.4,0.2,0.8,0.5,1.1l0,0l0,0l9.4,9.4C12.6,28.6,13,28.8,13.4,28.8L13.4,28.8z" /></g>
            <path class="st3"
                d="M21.6,6.4c1.8,0,3.3,1.5,3.3,3.3S23.4,13,21.6,13c-1.8,0-3.3-1.5-3.3-3.3S19.7,6.4,21.6,6.4z M21.6,11.5 c1,0,1.8-0.8,1.8-1.8s-0.8-1.8-1.8-1.8c-1,0-1.8,0.8-1.8,1.8S20.6,11.5,21.6,11.5z" /></g></g></g></g>
    <g id="drawer_sell_24" transform="translate(66.981 387.378)"><g id="그룹_117"><g id="사각형_24133-2"><rect class="st0" height="30.3" width="30.3" x="0" y="0"/><path
        class="st3" d="M30.3,30.3H0V0h30.3V30.3z M1,29.3h28.3V1H1V29.3z" /></g></g>
        <g id="그룹_19985"><g transform="translate(6.241 3.73)"><defs><rect height="22.6" id="SVGID_00000006669646817436470780000007224680751685608838_" width="17.8" x="0" y="0"/></defs><clipPath
            id="SVGID_00000132805533865220280270000004008434221720985502_"><use style="overflow:visible" xlink:href="#SVGID_00000006669646817436470780000007224680751685608838_"/></clipPath><g
            style="clip-path:url(#SVGID_00000132805533865220280270000004008434221720985502_)"
            id="그룹_19984" transform="translate(0 0)"><g><path class="st6" d="M16.5,21.3V3c0-1-0.8-1.7-1.7-1.7 c0,0,0,0,0,0H3c-1,0-1.7,0.8-1.7,1.7c0,0,0,0,0,0c0,4.9,0,18.3,0,18.3l1.9-0.9l1.9,0.9L7,20.4l1.9,0.9l1.9-0.9l1.9,0.9l1.9-0.9 L16.5,21.3z" id="패스_196_00000176001518934866188350000004795621724814769306_"/><path
            class="st3"
            d="M16.5,22.1c-0.1,0-0.2,0-0.3-0.1l-1.6-0.8L13,22c-0.2,0.1-0.4,0.1-0.7,0l-1.6-0.8L9.2,22 c-0.2,0.1-0.4,0.1-0.7,0L7,21.2L5.4,22c-0.2,0.1-0.4,0.1-0.7,0l-1.6-0.8L1.6,22c-0.2,0.1-0.5,0.1-0.7,0s-0.4-0.4-0.4-0.6V3 c0-1.4,1.1-2.5,2.5-2.5c0,0,0,0,0,0h11.8c1.4,0,2.5,1.1,2.5,2.5v18.3c0,0.3-0.1,0.5-0.4,0.6C16.8,22,16.7,22.1,16.5,22.1z M10.8,19.7c0.1,0,0.2,0,0.3,0.1l1.6,0.8l1.6-0.8c0.2-0.1,0.4-0.1,0.7,0l0.8,0.4V3c0-0.5-0.4-1-1-1H3c0,0,0,0,0,0 c-0.5,0-1,0.4-1,1v17.1l0.8-0.4c0.2-0.1,0.4-0.1,0.7,0l1.6,0.8l1.6-0.8c0.2-0.1,0.4-0.1,0.7,0l1.6,0.8l1.6-0.8 C10.6,19.7,10.7,19.7,10.8,19.7z" /></g>
            <path class="st3"
                d="M13.2,7.2H4.7c-0.4,0-0.8-0.3-0.8-0.8s0.3-0.8,0.8-0.8h8.5c0.4,0,0.8,0.3,0.8,0.8S13.6,7.2,13.2,7.2z" />
            <path class="st3"
                d="M13.2,10.8H4.7c-0.4,0-0.8-0.3-0.8-0.8s0.3-0.8,0.8-0.8h8.5c0.4,0,0.8,0.3,0.8,0.8S13.6,10.8,13.2,10.8z" />
            <path class="st3"
                d="M8.9,14.3H4.7c-0.4,0-0.8-0.3-0.8-0.8s0.3-0.8,0.8-0.8h4.2c0.4,0,0.8,0.3,0.8,0.8S9.3,14.3,8.9,14.3z" /></g></g></g></g>
    <g id="사각형_24755" transform="translate(706 248)"><rect class="st5" height="53" width="3" y="0"/>
        <path class="st5" d="M3,53H0V0h3V53z M1,52h1V1H1V52z" /></g>
    <g id="그룹_21341"><rect class="st3" height="2" width="18.1" x="787.1" y="83"/>
        <rect class="st3" height="2" width="18.1" x="787.1" y="89" />
        <rect class="st3" height="2" width="18.1" x="787.1" y="95" /></g>
    <g class="st4"><path class="st3" d="M850.9,113h1.3v0.8h-1.3v2.2H850v-2.2h-4.3V113l4.3-5.7h0.9V113z M850,113v-4.3l-3.2,4.3H850z"/></g>
    <g class="st4"><path class="st3" d="M890.9,131c0.4,0.2,0.8,0.6,1,1s0.4,0.9,0.4,1.4c0,0.5-0.1,1-0.4,1.4c-0.2,0.4-0.6,0.7-1,1 c-0.4,0.2-0.9,0.4-1.4,0.4s-1-0.1-1.4-0.4c-0.4-0.2-0.8-0.6-1-1c-0.2-0.4-0.4-0.9-0.4-1.4c0-0.4,0.1-0.8,0.3-1.2l3.1-4.9l0.8,0.5 l-1.9,3c0,0,0.1,0,0.1,0c0.1,0,0.2,0,0.3,0C890,130.7,890.5,130.8,890.9,131z M890.6,135c0.3-0.2,0.5-0.4,0.7-0.7s0.2-0.6,0.2-0.9 c0-0.3-0.1-0.6-0.2-0.9c-0.2-0.3-0.4-0.5-0.7-0.7c-0.3-0.2-0.6-0.3-1-0.3c-0.4,0-0.7,0.1-1,0.3c-0.3,0.2-0.5,0.4-0.7,0.7 c-0.2,0.3-0.2,0.6-0.2,0.9c0,0.3,0.1,0.6,0.2,0.9s0.4,0.5,0.7,0.7s0.6,0.3,1,0.3C889.9,135.2,890.3,135.1,890.6,135z"/></g>
    <g id="tag_popular" transform="translate(50 78)"><g id="사각형_24219"><path class="st6" d="M17,0h21c9.4,0,17,7.6,17,17l0,0c0,9.4-7.6,17-17,17H17C7.6,34,0,26.4,0,17l0,0C0,7.6,7.6,0,17,0z"/><path
        class="st3"
        d="M38,34H17C7.6,34,0,26.4,0,17S7.6,0,17,0h21c9.4,0,17,7.6,17,17S47.4,34,38,34z M17,1C8.2,1,1,8.2,1,17 s7.2,16,16,16h21c8.8,0,16-7.2,16-16S46.8,1,38,1H17z" /></g>
        <g class="st4"><path class="st3" d="M20.5,12.9h-3.3V22h-1v-9.1h-3.3v-1h7.6V12.9z"/>
            <path class="st3"
                d="M30.4,22h-1.1l-1.2-2.9h-4.9L22,22h-1.1l4.2-10.1h1.1L30.4,22z M27.7,18.1l-2-4.9l-2.1,4.9H27.7z" />
            <path class="st3"
                d="M40.6,17.7c-0.1,0.8-0.4,1.5-0.8,2.2c-0.5,0.7-1,1.2-1.7,1.6c-0.7,0.4-1.4,0.6-2.2,0.6 c-0.9,0-1.7-0.2-2.5-0.7c-0.8-0.5-1.4-1.1-1.8-1.9c-0.4-0.8-0.7-1.7-0.7-2.6c0-0.9,0.2-1.8,0.7-2.6c0.4-0.8,1-1.4,1.8-1.9 c0.8-0.5,1.6-0.7,2.5-0.7c0.9,0,1.8,0.2,2.5,0.7c0.7,0.5,1.3,1,1.7,1.7l-0.9,0.5c-0.3-0.5-0.8-1-1.4-1.3c-0.6-0.4-1.2-0.5-2-0.5 s-1.4,0.2-2,0.5c-0.6,0.4-1.1,0.9-1.4,1.5c-0.3,0.6-0.5,1.3-0.5,2.1c0,0.8,0.2,1.5,0.5,2.1c0.4,0.6,0.8,1.1,1.4,1.5s1.3,0.6,2,0.6 c0.6,0,1.2-0.2,1.8-0.5c0.6-0.3,1-0.7,1.4-1.2s0.6-1.1,0.7-1.7h-3.6v-1h4.6C40.7,16.9,40.7,17.3,40.6,17.7z" /></g></g>
    <g id="tag_interest.add" transform="translate(893 426)"><g id="사각형_24115"><path class="st6" d="M17,0h47c9.4,0,17,7.6,17,17l0,0c0,9.4-7.6,17-17,17H17C7.6,34,0,26.4,0,17l0,0C0,7.6,7.6,0,17,0z"/><path
        class="st3"
        d="M64,34H17C7.6,34,0,26.4,0,17S7.6,0,17,0h47c9.4,0,17,7.6,17,17S73.4,34,64,34z M17,1C8.2,1,1,8.2,1,17 s7.2,16,16,16h47c8.8,0,16-7.2,16-16S72.8,1,64,1H17z" /></g>
        <g id="delete_16" transform="translate(55 9)"><rect class="st0" height="16" id="사각형_24114" width="16" y="0"/>
            <g id="그룹_19950" transform="translate(4.264 4.264)"><g id="그룹_19951"><path class="st3" d="M0.6,7.6c-0.2,0-0.4-0.1-0.5-0.2c-0.3-0.3-0.3-0.8,0-1.1l6.3-6.3c0.3-0.3,0.8-0.3,1.1,0s0.3,0.8,0,1.1 L1.1,7.4C1,7.5,0.8,7.6,0.6,7.6z" transform="translate(0 0)"/><path
                class="st3"
                d="M6.9,7.6c-0.2,0-0.4-0.1-0.5-0.2L0.1,1.1c-0.3-0.3-0.3-0.8,0-1.1s0.8-0.3,1.1,0l6.3,6.3 c0.3,0.3,0.3,0.8,0,1.1C7.3,7.5,7.1,7.6,6.9,7.6z"
                transform="translate(0 0)" /></g></g></g>
        <g class="st4"><path class="st3" d="M24.5,12.9h-3.3V22h-1v-9.1h-3.3v-1h7.6V12.9z"/>
            <path class="st3"
                d="M34.4,22h-1.1l-1.2-2.9h-4.9L26,22h-1.1l4.2-10.1h1.1L34.4,22z M31.7,18.1l-2-4.9l-2.1,4.9H31.7z" />
            <path class="st3"
                d="M44.6,17.7c-0.1,0.8-0.4,1.5-0.8,2.2c-0.5,0.7-1,1.2-1.7,1.6c-0.7,0.4-1.4,0.6-2.2,0.6 c-0.9,0-1.7-0.2-2.5-0.7c-0.8-0.5-1.4-1.1-1.8-1.9c-0.4-0.8-0.7-1.7-0.7-2.6c0-0.9,0.2-1.8,0.7-2.6c0.4-0.8,1-1.4,1.8-1.9 c0.8-0.5,1.6-0.7,2.5-0.7c0.9,0,1.8,0.2,2.5,0.7c0.7,0.5,1.3,1,1.7,1.7l-0.9,0.5c-0.3-0.5-0.8-1-1.4-1.3c-0.6-0.4-1.2-0.5-2-0.5 c-0.7,0-1.4,0.2-2,0.5c-0.6,0.4-1.1,0.9-1.4,1.5s-0.5,1.3-0.5,2.1c0,0.8,0.2,1.5,0.5,2.1s0.8,1.1,1.4,1.5c0.6,0.4,1.3,0.6,2,0.6 c0.6,0,1.2-0.2,1.8-0.5s1-0.7,1.4-1.2s0.6-1.1,0.7-1.7h-3.6v-1h4.6C44.7,16.9,44.7,17.3,44.6,17.7z" /></g></g>
    <path class="st6"
        d="M56.3,367.2c0,0-3.1,4.7-0.6,9.2	c2.5,4.5,10.6,8.9,10.6,8.9s4.7-7.8,4.4-12.9c-0.3-5.1-5.6-7.5-5.6-7.5L56.3,367.2z"
        id="패스_265_00000095311016811676437740000008430501514974287265_" />
    <g><rect class="st5" height="3.3" id="사각형_24758_00000022529149770618844260000008440247609822773380_" transform="matrix(0.9659 -0.259 0.259 0.9659 -92.3416 28.0098)" width="8.9" x="55.7" y="362.8"/>
        <path class="st3"
            d="M55.9,367.9l-1.1-4.2l9.5-2.6l1.1,4.2L55.9,367.9z M56,364.4l0.6,2.3l7.6-2l-0.6-2.3L56,364.4z" /></g>
    <ellipse class="st5" cx="63.6" cy="375.1" rx="1.7" ry="1.7" />
    <path class="st3"
        d="M71.2,372.3c-0.3-5.3-5.7-7.8-5.9-7.9l-0.2-0.1l-9.1,2.4l-0.1,0.2c-0.1,0.2-3.3,5-0.7,9.7	c2.5,4.6,10.5,8.9,10.8,9.1l0.4,0.2l0.2-0.4C66.9,385.2,71.5,377.5,71.2,372.3z M66.5,384l-2-7.5c0.6-0.4,0.9-1.1,0.7-1.8	c-0.1-0.4-0.4-0.8-0.8-1c-0.4-0.2-0.8-0.3-1.3-0.2c-0.4,0.1-0.8,0.4-1,0.8c-0.2,0.4-0.3,0.8-0.2,1.3c0.2,0.7,0.8,1.2,1.5,1.2l2,7.5	c-2.2-1.3-7.5-4.7-9.4-8.1c-2.1-3.7,0-7.7,0.5-8.5l8.4-2.2c0.8,0.4,4.9,2.7,5.2,7C70.4,376.2,67.7,381.7,66.5,384z M62.9,375.2	c0-0.2,0-0.4,0.1-0.5c0.1-0.2,0.2-0.3,0.4-0.3l0,0c0.1,0,0.1,0,0.2,0c0.1,0,0.2,0,0.3,0.1c0.2,0.1,0.3,0.2,0.3,0.4	c0.1,0.4-0.1,0.7-0.5,0.8C63.4,375.8,63,375.6,62.9,375.2z" />
    <g id="타원_190" transform="translate(66 387)"><circle class="st5" cx="1" cy="1" r="1"/>
        <path class="st5"
            d="M1,2C0.4,2,0,1.6,0,1s0.4-1,1-1s1,0.4,1,1S1.6,2,1,2z M1,0.5L1,1c0,0,0,0,0,0V0.5z" /></g>
    <g id="타원_193" transform="translate(96.197 386.619)"><ellipse class="st5" cx="1.1" cy="1.1" rx="1.1" ry="1.1"/>
        <path class="st5"
            d="M1.1,2.2C0.5,2.2,0,1.7,0,1.1S0.5,0,1.1,0c0.6,0,1.1,0.5,1.1,1.1S1.7,2.2,1.1,2.2z M1.1,1C1,1,1,1,1,1.1 c0,0.1,0.2,0.1,0.2,0C1.2,1,1.2,1,1.1,1z" /></g>
    <g id="타원_191" transform="translate(66 417)"><circle class="st5" cx="1" cy="1" r="1"/>
        <path class="st5"
            d="M1,2C0.4,2,0,1.6,0,1s0.4-1,1-1s1,0.4,1,1S1.6,2,1,2z M1,0.5L1,1c0,0,0,0,0,0V0.5z" /></g>
    <g id="타원_192" transform="translate(96.197 416.593)"><ellipse class="st5" cx="1.1" cy="1.1" rx="1.1" ry="1.1"/>
        <path class="st5"
            d="M1.1,2.2C0.5,2.2,0,1.7,0,1.1C0,0.5,0.5,0,1.1,0c0.6,0,1.1,0.5,1.1,1.1C2.2,1.7,1.7,2.2,1.1,2.2z M1.1,1 C1,1,1,1,1,1.1c0,0.1,0.2,0.1,0.2,0C1.2,1,1.2,1,1.1,1z" /></g>
    <g><g><polygon class="st3" points="855 107.5 855 112.5 856 112.5 856 108.5 857 108.5 857 107.5 856 107.5"/><rect
        class="st3" height="1" width="1" x="864" y="107.5" /><rect class="st3" height="1" width="1"
        x="866" y="107.5" /><rect class="st3" height="1" width="1" x="862" y="107.5" /><rect
        class="st3" height="1" width="1" x="868" y="107.5" /><rect class="st3" height="1" width="1"
        x="860" y="107.5" /><rect class="st3" height="1" width="1" x="858" y="107.5" /><rect
        class="st3" height="1" width="1" x="880" y="107.5" /><rect class="st3" height="1" width="1"
        x="882" y="107.5" /><rect class="st3" height="1" width="1" x="870" y="107.5" /><rect
        class="st3" height="1" width="1" x="884" y="107.5" /><rect class="st3" height="1" width="1"
        x="878" y="107.5" /><rect class="st3" height="1" width="1" x="876" y="107.5" /><rect
        class="st3" height="1" width="1" x="872" y="107.5" /><rect class="st3" height="1" width="1"
        x="874" y="107.5" /></g>
        <g><polygon class="st3" points="878.5 135 878.5 135 878 135 878 136 885 136 885 136 885.5 136 885.5 135 884.5 135"/>
            <rect class="st3" height="1" width="1" x="884.5" y="129" />
            <rect class="st3" height="1" width="1" x="884.5" y="127" />
            <rect class="st3" height="1" width="1" x="884.5" y="123" />
            <rect class="st3" height="1" width="1" x="884.5" y="125" />
            <rect class="st3" height="1" width="1" x="884.5" y="131" />
            <rect class="st3" height="1" width="1" x="884.5" y="133" />
            <rect class="st3" height="1" width="1" x="884.5" y="109" />
            <rect class="st3" height="1" width="1" x="884.5" y="113" />
            <rect class="st3" height="1" width="1" x="884.5" y="115" />
            <rect class="st3" height="1" width="1" x="884.5" y="111" />
            <rect class="st3" height="1" width="1" x="884.5" y="119" />
            <rect class="st3" height="1" width="1" x="884.5" y="117" />
            <rect class="st3" height="1" width="1" x="884.5" y="121" /></g></g>
    <g id="그룹_20175" transform="translate(242 1652)"><g id="사각형_24089" transform="translate(303 602)"><rect class="st13" height="24" width="24" x="310" y="-2142"/><path
        class="st3" d="M334-2118h-24v-24h24V-2118z M311-2119h22v-22h-22V-2119z" /></g>
        <g id="그룹_19920"><g transform="translate(304.849 603.847)"><defs><rect height="20.3" id="SVGID_00000119105558478132333130000009711724157780232098_" width="20.3" x="310" y="-2142"/></defs><clipPath
            id="SVGID_00000043458157547517363750000015667110603154680759_"><use style="overflow:visible" xlink:href="#SVGID_00000119105558478132333130000009711724157780232098_"/></clipPath><g
            style="clip-path:url(#SVGID_00000043458157547517363750000015667110603154680759_)"
            id="그룹_19919" transform="translate(0 0)"><g><path class="st13" d="M327.3-2140.8l-15.3,6 c-0.7,0.3-1.1,1.1-0.8,1.9c0.1,0.3,0.4,0.6,0.7,0.8l5.3,2.7c0.3,0.1,0.5,0.4,0.6,0.6l2.7,5.3c0.4,0.7,1.2,1,1.9,0.6 c0.3-0.2,0.6-0.4,0.7-0.8l6-15.3c0.3-0.7-0.1-1.6-0.8-1.9C328-2141,327.6-2141,327.3-2140.8z" id="패스_174_00000111883643307673374160000003458694745720387759_"/><path
            class="st3"
            d="M321.8-2122c-0.2,0-0.5,0-0.7-0.1c-0.6-0.2-1-0.6-1.3-1.1l-2.7-5.3c-0.1-0.1-0.2-0.2-0.3-0.3l-5.3-2.7 c-0.5-0.2-0.9-0.7-1.1-1.2c-0.2-0.5-0.2-1.1,0-1.7c0.2-0.5,0.7-0.9,1.2-1.2l15.3-6c0.5-0.2,1.1-0.2,1.6,0 c0.5,0.2,1,0.6,1.2,1.2s0.2,1.1,0,1.7l-6,15.3c-0.2,0.5-0.6,0.9-1.1,1.2C322.5-2122.1,322.1-2122,321.8-2122z M327.8-2140.2 c-0.1,0-0.2,0-0.2,0c0,0,0,0,0,0l-15.3,6c-0.2,0.1-0.3,0.2-0.4,0.4c-0.1,0.2-0.1,0.4,0,0.5c0.1,0.2,0.2,0.3,0.3,0.4l5.3,2.7 c0.4,0.2,0.8,0.6,1,1l2.7,5.4c0.2,0.3,0.6,0.5,0.9,0.3c0.2-0.1,0.3-0.2,0.3-0.4l6-15.3c0.1-0.2,0.1-0.4,0-0.5 c-0.1-0.2-0.2-0.3-0.4-0.4C328-2140.2,327.9-2140.2,327.8-2140.2z M327.3-2140.8L327.3-2140.8L327.3-2140.8z" /></g>
            <path class="st3"
                d="M317.6-2128.6c-0.2,0-0.4-0.1-0.5-0.2c-0.3-0.3-0.3-0.8,0-1.1l4.2-4.2c0.3-0.3,0.8-0.3,1.1,0s0.3,0.8,0,1.1 l-4.2,4.2C318-2128.7,317.8-2128.6,317.6-2128.6z" /></g></g></g></g>
    <circle class="st5" cx="877" cy="116" id="타원_40" r="8" />
    <g class="st4"><path class="st6" d="M877.6,120h-0.7v-6.5l-0.9,0.4l-0.3-0.6l1.2-0.5h0.7V120z"/></g></svg>
