<!--
  - Designed and developed by Duckie Team 2023.
  -
  - Licensed under the MIT.
  - Please see full license: https://github.com/duckie-team/quack-quack-android/blob/main/LICENSE
  -->

<svg xmlns:xlink="http://www.w3.org/1999/xlink" viewBox="0 0 1024 500" xmlns="http://www.w3.org/2000/svg">
  <style>.I{fill:#222}.J{fill:#ff8300}.K{enable-background:new}.L{fill:#fff}</style>
  <radialGradient cx="299.208" cy="349.227" gradientTransform="matrix(1024 0 0 -500 -305877 174863.5938)"
    gradientUnits="userSpaceOnUse" id="A" r=".67">
    <stop offset="0" stop-color="#ffb341" />
    <stop offset="1" stop-color="#ffd891" />
  </radialGradient>
  <path d="M0 0h1024v500H0z" fill="url(#A)" />
  <path
    d="M438.7 418.8L399.2 375l-.4-.4-.6.1-95.8 18.2.3-46.7v-1h-1l-102.7.1 38.9-42.6 1.2-1.3-1.8-.3-94-17.7 71.6-32.5 2-.9-2-.9-71.6-32.5 94.1-17.6 1.8-.3-1.2-1.3-39-42.7 102.8.1h1v-1l-.3-46.7 95.8 18.2.6.1.4-.4 39.5-43.8 73.4 33.7.4.2.4-.2 73.4-33.7 39.4 43.8.4.4.6-.1 95.8-18.2-.3 46.7v1h1l102.7-.1-38.9 42.6-1.2 1.3 1.8.3 94.1 17.6-71.6 32.5-2 .9 2 .9 71.6 32.5-94.1 17.6-1.8.3 1.2 1.3 38.9 42.6-102.8-.1h-1v1l.3 46.7-95.8-18.2-.6-.1-.4.4-39.5 43.8-73.4-33.7-.4-.2-.4.2-73.3 33.9z"
    fill="#fff8f1" />
  <path class="I"
    d="M438.9 82.4l-39.7 44.1-95.7-18.2.3 47.5-102.5-.1 39.8 43.5-94.5 17.8 72.7 33-72.7 33 94.5 17.7-39.8 43.5 102.5-.1-.3 47.5 95.7-18.2.8.8 39 43.3 73.6-33.8.8.4 72.8 33.4 39.7-44.1 95.7 18.2-.3-47.5 102.5.1-39.8-43.5 94.5-17.7-72.7-33 72.7-33-94.5-17.7 39.8-43.5-102.5.1.3-47.5-95.7 18.2-.8-.8-39-43.3-73.6 33.8-.8-.4-72.8-33.5m-.5-2.4l74.1 34 74.1-34 39.9 44.4 97-18.5-.3 48 105.1-.1-40.5 44.2 97.2 18.2-74.5 33.8 74.5 33.8-97.2 18.2 40.5 44.3-105.1-.1.3 48-97-18.5-39.9 44.3-74.1-34-74.1 34-39.9-44.4-97 18.5.3-48-105.1.1 40.5-44.2-97.2-18.2 74.5-33.8-74.5-33.8 97.2-18.2-40.5-44.3 105.1.1-.3-48 97 18.5L438.4 80z" />
  <g class="I K">
    <path
      d="M458.3 245.2c-2.9 3.5-7.1 5.4-11.9 5.4-6.6 0-11.2-2.4-18-9.6-12.1-1.5-20.6-10.6-20.6-22.6 0-13.1 10.2-22.8 24.1-22.8s24.1 9.6 24.1 22.8c0 10.3-6.4 18.5-15.8 21.5 2.1 2.3 4 3.1 6.2 3.1 2.7 0 5.1-1.1 7.2-3.3l4.7 5.5zM432 232.6c7.9 0 13.8-5.7 13.8-14.1s-5.9-14.1-13.8-14.1-13.8 5.7-13.8 14.1c0 8.3 5.9 14.1 13.8 14.1z" />
    <use xlink:href="#C" />
    <path
      d="M536.3 221.2v19.3h-9.2v-4.2c-1.8 3.1-5.4 4.7-10.3 4.7-7.9 0-12.7-4.4-12.7-10.3 0-6 4.2-10.1 14.6-10.1h7.8c0-4.2-2.5-6.7-7.8-6.7-3.6 0-7.3 1.2-9.8 3.2l-3.5-6.9c3.7-2.6 9.2-4.1 14.6-4.1 10.4 0 16.3 4.8 16.3 15.1zm-9.8 8.6v-3.5h-6.7c-4.6 0-6 1.7-6 4 0 2.5 2.1 4.1 5.5 4.1 3.2 0 6.1-1.5 7.2-4.6zm16.6-6.2c0-10.2 7.9-17.5 18.9-17.5 7.1 0 12.7 3.1 15.2 8.6l-7.6 4.1c-1.8-3.2-4.5-4.7-7.6-4.7-5 0-8.9 3.5-8.9 9.4s3.9 9.4 8.9 9.4c3.1 0 5.8-1.4 7.6-4.7l7.6 4.2c-2.5 5.4-8.1 8.6-15.2 8.6-11 0-18.9-7.2-18.9-17.4zm54 3.6l-4.7 4.7v8.6h-9.8v-46.7h9.8v26.5l14.4-13.6h11.7L604.4 221l15.4 19.5h-11.9l-10.8-13.3z" />
  </g>
  <g class="I K">
    <path
      d="M364.6 268.4c0 9.8-7.4 15.9-19.2 15.9h-8.9v12.2h-10.2v-44.1h19.1c11.8 0 19.2 6.1 19.2 16zm-10.4 0c0-4.9-3.1-7.7-9.4-7.7h-8.3V276h8.3c6.3 0 9.4-2.8 9.4-7.6zm17.6-18.6h9.8v46.7h-9.8v-46.7zm48.9 27.4v19.3h-9.2v-4.2c-1.8 3.1-5.4 4.7-10.3 4.7-7.9 0-12.7-4.4-12.7-10.3 0-6 4.2-10.1 14.6-10.1h7.8c0-4.2-2.5-6.7-7.8-6.7-3.6 0-7.3 1.2-9.8 3.2l-3.5-6.9c3.7-2.6 9.2-4.1 14.6-4.1 10.3 0 16.3 4.8 16.3 15.1zm-9.8 8.6v-3.5h-6.7c-4.6 0-6 1.7-6 4 0 2.5 2.1 4.1 5.5 4.1 3.2 0 6-1.5 7.2-4.6zm51.7-23.2l-15.3 36c-3.3 8.2-7.9 10.6-14 10.6-3.5 0-7.2-1.1-9.5-3.1l3.6-7c1.5 1.3 3.6 2.1 5.5 2.1 2.7 0 4.2-1.2 5.5-4.2l.1-.3-14.7-34.1h10.1l9.5 23 9.6-23h9.6zm38.1 0v28.2c0 12.6-6.8 18.4-19 18.4-6.4 0-12.7-1.6-16.6-4.7l3.9-7.1c2.9 2.3 7.6 3.8 12 3.8 6.9 0 10-3.2 10-9.3v-1.4c-2.6 2.8-6.3 4.2-10.7 4.2-9.4 0-16.9-6.5-16.9-16.4s7.6-16.4 16.9-16.4c4.7 0 8.6 1.6 11.2 4.9v-4.3h9.2zm-9.7 15.9c0-5-3.7-8.3-8.9-8.3s-8.9 3.3-8.9 8.3 3.8 8.3 8.9 8.3 8.9-3.3 8.9-8.3zm39.8-16.4v9.1c-.8-.1-1.4-.1-2.2-.1-5.4 0-9 3-9 9.5v16h-9.8v-33.9h9.4v4.5c2.4-3.4 6.4-5.1 11.6-5.1zm3.1 17.5c0-10.2 7.9-17.5 18.6-17.5 10.8 0 18.6 7.2 18.6 17.5 0 10.2-7.8 17.5-18.6 17.5-10.8-.1-18.6-7.3-18.6-17.5zm27.2 0c0-5.9-3.7-9.4-8.6-9.4s-8.7 3.5-8.7 9.4 3.8 9.4 8.7 9.4c4.9-.1 8.6-3.6 8.6-9.4z" />
    <use x="114.6" y="56" xlink:href="#C" />
    <path
      d="M655.6 277.1v19.4h-9.8v-17.9c0-5.5-2.5-8-6.9-8-4.7 0-8.1 2.9-8.1 9.1v16.8H621v-33.9h9.4v4c2.6-2.9 6.6-4.5 11.2-4.5 7.9 0 14 4.7 14 15zm43.8-27.3v46.7H690v-3.9c-2.5 3-6 4.4-10.6 4.4-9.6 0-16.9-6.8-16.9-17.5s7.4-17.5 16.9-17.5c4.2 0 7.7 1.3 10.1 4.1v-16.4h9.9zm-9.7 29.8c0-5.9-3.8-9.4-8.6-9.4-4.9 0-8.7 3.5-8.7 9.4s3.8 9.4 8.7 9.4c4.8-.1 8.6-3.6 8.6-9.4z" />
  </g>
  <path class="J" d="M92.975 47h189c4.4 0 8 3.6 8 8v28c0 4.4-3.6 8-8 8h-189c-4.4 0-8-3.6-8-8V55c0-4.4 3.6-8 8-8z" />
  <path class="I"
    d="M281.975 91h-189c-4.4 0-8-3.6-8-8V55c0-4.4 3.6-8 8-8h189c4.4 0 8 3.6 8 8v28c0 4.4-3.6 8-8 8zm-189-43c-3.9 0-7 3.1-7 7v28c0 3.9 3.1 7 7 7h189c3.9 0 7-3.1 7-7V55c0-3.9-3.1-7-7-7h-189z" />
  <path class="J" d="M84.975 41h189c4.4 0 8 3.6 8 8v28c0 4.4-3.6 8-8 8h-189c-4.4 0-8-3.6-8-8V49c0-4.4 3.6-8 8-8z" />
  <path class="I"
    d="M273.975 85h-189c-4.4 0-8-3.6-8-8V49c0-4.4 3.6-8 8-8h189c4.4 0 8 3.6 8 8v28c0 4.4-3.6 8-8 8zm-189-43c-3.9 0-7 3.1-7 7v28c0 3.9 3.1 7 7 7h189c3.9 0 7-3.1 7-7V49c0-3.9-3.1-7-7-7h-189z" />
  <path class="I K"
    d="M151.3 57.9h4.6c.5 0 1 .1 1.4.4a2.41 2.41 0 0 1 1 1c.2.4.4.9.4 1.4 0 .4-.1.8-.3 1.2-.2.3-.4.7-.8.9.4.3.7.6.9 1s.4.9.4 1.4-.1 1-.4 1.4-.6.8-1 1-.9.4-1.4.4h-4.8V57.9zm4.6 1h-3.6v3.4h3.7c.3 0 .6-.1.9-.2a.9.9 0 0 0 .6-.6c.1-.3.2-.5.2-.8s-.1-.6-.2-.9c-.2-.3-.4-.5-.7-.6-.3-.3-.6-.3-.9-.3zm.2 4.4h-3.8V67h3.8c.3 0 .6-.1.9-.2.3-.2.5-.4.7-.7s.2-.6.2-.9c0-.4-.1-.7-.2-1-.2-.3-.4-.5-.7-.7-.2-.1-.5-.2-.9-.2zm12.3 2.8a4.63 4.63 0 0 1-1.6 1.5c-.6.4-1.3.5-1.9.5-.7 0-1.4-.2-2.1-.5-.6-.4-1.1-.8-1.5-1.5-.4-.6-.6-1.3-.6-2v-6.2h1v6.2c0 .6.1 1.1.4 1.5.3.5.7.8 1.2 1.1s1 .4 1.5.4 1-.1 1.5-.4.9-.6 1.2-1.1.5-1 .5-1.5v-6.2h1v6.2c0 .7-.2 1.4-.6 2zm10.1-7.2h-3.3V68h-1v-9.1h-3.3v-1h7.6v1zm8.8 0H184V68h-1v-9.1h-3.3v-1h7.6v1zm7.9-.4c.8.5 1.4 1.1 1.8 1.9s.7 1.6.7 2.6-.2 1.8-.7 2.6-1 1.4-1.8 1.9-1.6.7-2.5.7-1.7-.2-2.5-.7-1.4-1.1-1.8-1.9-.7-1.7-.7-2.6.2-1.8.7-2.6c.4-.8 1-1.4 1.8-1.9s1.6-.7 2.5-.7 1.7.2 2.5.7zm-.5 8c.6-.4 1.1-.9 1.4-1.5a4.65 4.65 0 0 0 .5-2.1c0-.8-.2-1.4-.5-2.1s-.8-1.1-1.4-1.5-1.3-.6-2-.6-1.4.2-2 .6-1.1.9-1.4 1.5c-.4.6-.5 1.3-.5 2.1a4.65 4.65 0 0 0 .5 2.1c.4.6.8 1.1 1.4 1.5s1.3.6 2 .6 1.3-.2 2-.6zm13 1.5h-1l-6.4-8.5V68h-1V57.9h1l6.4 8.4v-8.4h1V68z" />
  <path class="L"
    d="M896 421.5H776c-4.1 0-7.5-3.4-7.5-7.5v-18c0-4.1 3.4-7.5 7.5-7.5h120c4.1 0 7.5 3.4 7.5 7.5v18c0 4.1-3.4 7.5-7.5 7.5z" />
  <path class="I"
    d="M776 389c-3.9 0-7 3.1-7 7v18c0 3.9 3.1 7 7 7h120c3.9 0 7-3.1 7-7v-18c0-3.9-3.1-7-7-7H776m0-1h120c4.4 0 8 3.6 8 8v18c0 4.4-3.6 8-8 8H776c-4.4 0-8-3.6-8-8v-18c0-4.4 3.6-8 8-8z" />
  <g class="I K">
    <path
      d="M787.4 401.9c-.1-.1-.3-.3-.5-.4-.6-.4-1.4-.6-2.4-.6a1.69 1.69 0 0 0-1 .3 1.21 1.21 0 0 0-.7.7c-.2.3-.2.6-.2.8s.2.5.3.7c.2.2.4.4.6.5s.4.2.5.3.3.1.5.2l.7.2a9.72 9.72 0 0 1 1.9.7 4.31 4.31 0 0 1 1 .7c.2.2.3.4.4.7s.2.6.2.9a1.93 1.93 0 0 1-.3 1c-.2.3-.4.5-.6.7s-.5.4-.8.5c-.2.1-.5.2-.7.3-.3.1-.5.1-.7.1-.5 0-1.1 0-1.5-.1-.5-.1-1-.4-1.4-.7s-.8-.6-1-1l-.5-.9 1-.3c.1.2.2.4.4.7s.4.5.7.7c.4.3.8.4 1.2.5s.8.1 1.2.1c.3 0 .7-.1 1.1-.3l.6-.3.4-.4c.1-.3.2-.5.1-.8l-.3-.6c-.2-.2-.4-.3-.8-.5-.3-.2-.9-.4-1.6-.6l-.7-.2c-.2-.1-.5-.2-.7-.3l-.6-.3-.9-.7c-.3-.3-.5-.7-.6-1.2s0-1 .2-1.5c.3-.5.7-.9 1.2-1.1s1-.3 1.5-.4c.5 0 1 0 1.5.1s1 .3 1.5.6.9.7 1.2 1.2l-.9.5c-.2-.2-.3-.4-.5-.5zm12.9 8.1h-1v-8.1l-3.3 5.9h-.8l-3.3-5.9v8.1h-1v-10.1h1l3.8 6.7 3.7-6.7h1V410zm11.1 0h-1.1l-1.2-2.9h-4.9L803 410h-1.1l4.2-10.1h1.1l4.2 10.1zm-2.7-3.9l-2-4.9-2.1 4.9h4.1zm5.5 2.9h5.8v1h-6.8v-10.1h1v9.1zm8.8 0h5.8v1H822v-10.1h1v9.1zm11.1-9.1h4.6c.5 0 1 .1 1.4.4a2.41 2.41 0 0 1 1 1c.2.4.4.9.4 1.4 0 .4-.1.8-.3 1.2-.2.3-.4.7-.8.9.4.3.7.6.9 1s.4.9.4 1.4-.1 1-.4 1.4-.6.8-1 1c-.4.3-.9.4-1.4.4h-4.8v-10.1zm4.6 1h-3.6v3.4h3.7c.3 0 .6-.1.9-.2a.9.9 0 0 0 .6-.6c.1-.3.2-.5.2-.8s-.1-.6-.2-.9c-.2-.3-.4-.5-.7-.6-.3-.3-.6-.3-.9-.3zm.2 4.4h-3.8v3.7h3.8c.3 0 .6-.1.9-.2.3-.2.5-.4.7-.7s.2-.6.2-.9c0-.4-.1-.7-.2-1-.2-.3-.4-.5-.7-.7s-.6-.2-.9-.2zm12.3 2.8a4.63 4.63 0 0 1-1.6 1.5c-.6.4-1.3.5-1.9.5-.7 0-1.4-.2-2.1-.5-.6-.4-1.1-.8-1.5-1.5-.4-.6-.6-1.3-.6-2v-6.2h1v6.2c0 .6.1 1.1.4 1.5s.7.8 1.2 1.1 1 .4 1.5.4 1-.1 1.5-.4.9-.6 1.2-1.1.5-1 .5-1.5v-6.2h1v6.2c0 .7-.2 1.4-.6 2zm10.1-7.2H858v9.1h-1v-9.1h-3.3v-1h7.6v1z" />
    <use xlink:href="#D" />
    <path
      d="M878 400.5c.8.5 1.4 1.1 1.8 1.9s.7 1.6.7 2.6-.2 1.8-.7 2.6-1 1.4-1.8 1.9-1.6.7-2.5.7-1.7-.2-2.5-.7-1.4-1.1-1.8-1.9-.7-1.7-.7-2.6.2-1.8.7-2.6c.4-.8 1-1.4 1.8-1.9s1.6-.7 2.5-.7 1.7.2 2.5.7zm-.6 8c.6-.4 1.1-.9 1.4-1.5.4-.6.5-1.3.5-2.1s-.2-1.4-.5-2.1c-.4-.6-.8-1.1-1.4-1.5s-1.3-.6-2-.6-1.4.2-2 .6-1.1.9-1.4 1.5c-.4.6-.5 1.3-.5 2.1a4.65 4.65 0 0 0 .5 2.1c.4.6.8 1.1 1.4 1.5s1.3.6 2 .6c.8 0 1.4-.2 2-.6zm13.1 1.5h-1l-6.4-8.5v8.5h-1v-10.1h1l6.4 8.4v-8.4h1V410z" />
  </g>
  <g transform="translate(768.848 62.956)">
    <defs>
      <path d="M0 0h54v53.1H0z" id="B" />
      <path
        d="M497.2 206.6v33.9h-9.3v-4c-2.6 3-6.4 4.5-10.5 4.5-8.5 0-14.5-4.8-14.5-15.2v-19.2h9.8v17.7c0 5.7 2.5 8.2 6.9 8.2 4.5 0 7.8-2.9 7.8-9.1v-16.8h9.8z"
        id="C" />
      <path d="M870.1 400.9h-3.3v9.1h-1v-9.1h-3.3v-1h7.6v1z" id="D" />
      <path d="M13.2 7.2H4.7c-.4 0-.8-.3-.8-.8s.3-.8.8-.8h8.5c.4 0 .8.3.8.8s-.4.8-.8.8z" id="E" />
      <path d="M67 389a.94.94 0 1 1 0-2 .94.94 0 1 1 0 2zm0-1.5v.5-.5z" id="F" />
      <path
        d="M97.297 388.819a1.11 1.11 0 0 1-1.1-1.1 1.11 1.11 0 0 1 1.1-1.1 1.11 1.11 0 0 1 1.1 1.1 1.11 1.11 0 0 1-1.1 1.1zm0-1.2c-.1 0-.1 0-.1.1s.2.1.2 0 0-.1-.1-.1z"
        id="G" />
    </defs>
    <clipPath id="H">
      <use xlink:href="#B" />
    </clipPath>
    <g clip-path="url(#H)">
      <path class="L"
        d="M10.4 42.6c-8.9-9.4-8.4-24.3 1-33.1s24.3-8.4 33.1 1 8.4 24.3-1 33.1c-4.3 4.1-10 6.4-16 6.4H3.1l7.3-7.4z" />
      <path class="I"
        d="M27.5 50.7H3.1c-.3 0-.6-.2-.7-.5s-.1-.6.2-.8l6.9-6.9C5.3 38 3.1 32.1 3.3 25.8c.2-6.4 2.9-12.4 7.6-16.8s10.9-6.8 17.3-6.6c6.5.2 12.5 2.9 16.9 7.6s6.8 10.8 6.6 17.3-2.9 12.5-7.6 16.9c-4.5 4.2-10.4 6.5-16.6 6.5zM4.9 49.2h22.6c5.8 0 11.3-2.2 15.6-6.2 4.4-4.2 6.9-9.8 7.1-15.8.2-6.1-2-11.8-6.2-16.2s-9.8-6.9-15.8-7.1c-6.1-.2-11.8 2-16.2 6.2s-7 9.7-7.2 15.8 2 11.8 6.2 16.2c.3.3.3.8 0 1l-6.1 6.1z" />
    </g>
  </g>
  <g transform="translate(831.996 46.578)">
    <defs>
      <path d="M0 0h31.8v31.2H0z" id="I" />
    </defs>
    <clipPath id="J">
      <use xlink:href="#I" />
    </clipPath>
    <g clip-path="url(#J)">
      <path class="J"
        d="M6.1 25.1c-5.2-5.5-5-14.3.6-19.5s14.3-5 19.5.6 5 14.3-.6 19.5c-2.6 2.4-6 3.8-9.5 3.8H1.8l4.3-4.4z" />
      <path class="I"
        d="M16.2 30.2H1.8c-.3 0-.6-.2-.7-.5s-.1-.6.2-.8l3.8-3.8c-2.3-2.7-3.6-6.2-3.5-9.9.2-3.9 1.8-7.5 4.6-10.2C9 2.4 12.7 1 16.6 1.1a14.27 14.27 0 0 1 10.2 4.6c5.5 5.8 5.2 15.1-.6 20.6-2.8 2.5-6.3 3.9-10 3.9zM3.6 28.7h12.5c3.3 0 6.5-1.3 8.9-3.6 5.2-4.9 5.5-13.2.5-18.4-2.4-2.5-5.6-4-9.1-4.1S9.6 3.8 7.1 6.1c-2.5 2.4-4 5.6-4.1 9.1 0 3.5 1.3 6.8 3.7 9.4.3.3.3.8 0 1l-3.1 3.1z" />
    </g>
  </g>
  <g transform="translate(122.544 357.388)">
    <defs>
      <path d="M0 0h55.8v51.2H0z" id="K" />
    </defs>
    <clipPath id="L">
      <use xlink:href="#K" />
    </clipPath>
    <g clip-path="url(#L)">
      <path class="J"
        d="M52.7 17.1V17c0-1.8-.3-3.7-1-5.4-1.9-5-6.3-8.5-11.4-8.5-6.2 0-11.4 5.1-12.3 11.8 0 .1-.1.1-.1.1-.1 0-.1-.1-.1-.1-.9-6.7-6-11.8-12.3-11.8-5.1 0-9.5 3.5-11.4 8.5-.6 1.7-1 3.6-1 5.4v.1c0 .7.1 1.5.2 2.2.8 5.2 4.5 15.8 21.5 27.7h0c.8.8 1.9 1.2 3 1.1 1.1.1 2.2-.3 3-1.1h0c17-11.9 20.7-22.5 21.5-27.7.3-.8.4-1.5.4-2.2z" />
      <path class="I"
        d="M27.6 48.9c-1.2 0-2.4-.5-3.2-1.3-17-11.9-21-22.8-21.8-28.2-.2-.7-.2-1.5-.2-2.3V17c0-1.9.3-3.8 1-5.7 2.1-5.4 6.8-9 12.1-9 5.6 0 10.6 4 12.4 9.7 1.8-5.7 6.8-9.7 12.4-9.7 5.3 0 10.1 3.5 12.1 9 .7 1.8 1 3.7 1 5.7v.1c0 .8-.1 1.6-.2 2.3-.8 5.4-4.8 16.3-21.8 28.2a4.52 4.52 0 0 1-3.5 1.3h-.3zM15.5 3.8c-4.7 0-8.9 3.1-10.7 8-.6 1.6-.9 3.4-.9 5.1v.1c0 .7.1 1.4.2 2 .8 5.2 4.6 15.7 21.2 27.3l.1.1c.6.6 1.5 1 2.4.9h.1c.9.1 1.8-.3 2.4-.9l.1-.1c16.6-11.6 20.4-22 21.2-27.2.2-.7.2-1.4.2-2.1v-.1c0-1.8-.3-3.5-.9-5.1-1.8-4.8-6-8-10.7-8-5.7 0-10.6 4.8-11.5 11.1 0 .5-.4.8-.9.8s-.8-.3-.8-.8c-.9-6.3-5.8-11.1-11.5-11.1zm11.8 11.1h0 0z" />
    </g>
  </g>
  <g transform="translate(106.048 421.296)">
    <defs>
      <path d="M0 0h30.3v36.5H0z" id="M" />
    </defs>
    <clipPath id="N">
      <use xlink:href="#M" />
    </clipPath>
    <g clip-path="url(#N)">
      <path class="L"
        d="M25.8 34.6H4.4c-1.4 0-2.5-1.1-2.5-2.5v-.2l1.6-19.8c.1-1.3 1.2-2.4 2.5-2.4h18.2c1.3 0 2.4 1 2.5 2.3l1.6 19.8c.1 1.4-.9 2.6-2.3 2.7 0 .1-.1.1-.2.1z" />
      <g class="I">
        <path
          d="M25.8 35.4H4.4c-.9 0-1.7-.3-2.3-1-.6-.6-1-1.4-1-2.3v-.3L2.7 12c.2-1.7 1.6-3 3.3-3h18.2c1.7 0 3.1 1.3 3.3 3l1.6 19.8c.1 1.8-1.2 3.4-3 3.5-.1.1-.2.1-.3.1zM6 10.5c-.9 0-1.7.7-1.8 1.6L2.7 32v.1c0 .5.2.9.5 1.3.3.3.8.5 1.3.5h21.4.2c1-.1 1.7-.9 1.6-1.9L26 12.1c-.1-.9-.9-1.6-1.8-1.6H6z" />
        <path
          d="M19.1 15.2c-.4 0-.8-.3-.8-.8V5.9c0-.9-.3-1.7-.9-2.3s-1.4-.9-2.3-.9c-1.8 0-3.2 1.4-3.2 3.2v8.6c0 .4-.3.8-.8.8s-.8-.3-.8-.8V5.9c0-2.6 2.1-4.7 4.7-4.7 1.3 0 2.4.5 3.3 1.4s1.4 2.1 1.4 3.3v8.6c.1.4-.2.7-.6.7z" />
      </g>
    </g>
  </g>
  <g transform="matrix(-1 0 0 -1 933.812 387.883)">
    <defs>
      <path d="M0 0h31.3v31.3H0z" id="O" />
    </defs>
    <clipPath id="P">
      <use xlink:href="#O" />
    </clipPath>
    <g clip-path="url(#P)">
      <path class="J"
        d="M16.1 2.4L2.4 16.2c-.9.9-.9 2.4 0 3.3l9.4 9.4c.9.9 2.4.9 3.3 0l13.7-13.7c.5-.5.7-1.1.7-1.8V8.2v-4a2.26 2.26 0 0 0-2.3-2.3h-4H18c-.7-.2-1.4.1-1.9.5z" />
      <g class="I">
        <path
          d="M17.9 1l9.3.1a3.01 3.01 0 0 1 3 3l.1 9.2c0 .8-.3 1.7-.9 2.3L15.6 29.4c-.6.6-1.4.9-2.2.9s-1.6-.3-2.2-.9L1.9 20h0c-.6-.6-.9-1.4-.9-2.2s.3-1.6.9-2.2L15.6 1.9c.6-.6 1.4-.9 2.3-.9zm-1.8 1.4h0 0zm-2.7 26.4c.4 0 .8-.2 1.1-.5l13.7-13.7c.3-.3.5-.8.5-1.2l-.1-9.2c0-.9-.7-1.5-1.6-1.6l-9.2-.1c-.5 0-.9.2-1.3.5L3 16.7c-.3.3-.5.7-.5 1.1s.2.8.5 1.1h0 0l9.4 9.4c.2.3.6.5 1 .5h0zm8.2-22.4a3.33 3.33 0 0 1 3.3 3.3 3.33 3.33 0 0 1-3.3 3.3 3.33 3.33 0 0 1-3.3-3.3c0-1.8 1.4-3.3 3.3-3.3zm0 5.1a1.79 1.79 0 0 0 1.8-1.8 1.79 1.79 0 1 0-3.6 0 1.79 1.79 0 0 0 1.8 1.8z" />
      </g>
    </g>
  </g>
  <g>
    <path class="I" d="M30.3 30.3H0V0h30.3v30.3zM1 29.3h28.3V1H1v28.3z" transform="translate(66.981 387.378)" />
    <g transform="translate(66.981 387.378) translate(6.241 3.73)">
      <defs>
        <path d="M0 0h17.8v22.6H0z" id="Q" />
      </defs>
      <clipPath id="R">
        <use xlink:href="#Q" />
      </clipPath>
      <g clip-path="url(#R)">
        <path class="L"
          d="M16.5 21.3V3c0-1-.8-1.7-1.7-1.7H3c-1 0-1.7.8-1.7 1.7v18.3l1.9-.9 1.9.9 1.9-.9 1.9.9 1.9-.9 1.9.9 1.9-.9 1.9.9z" />
        <g class="I">
          <path
            d="M16.5 22.1c-.1 0-.2 0-.3-.1l-1.6-.8-1.6.8c-.2.1-.4.1-.7 0l-1.6-.8-1.5.8c-.2.1-.4.1-.7 0L7 21.2l-1.6.8c-.2.1-.4.1-.7 0l-1.6-.8-1.5.8c-.2.1-.5.1-.7 0s-.4-.4-.4-.6V3C.5 1.6 1.6.5 3 .5h11.8c1.4 0 2.5 1.1 2.5 2.5v18.3c0 .3-.1.5-.4.6-.1.1-.2.2-.4.2zm-5.7-2.4c.1 0 .2 0 .3.1l1.6.8 1.6-.8c.2-.1.4-.1.7 0l.8.4V3c0-.5-.4-1-1-1H3c-.5 0-1 .4-1 1v17.1l.8-.4c.2-.1.4-.1.7 0l1.6.8 1.6-.8c.2-.1.4-.1.7 0l1.6.8 1.6-.8c0 0 .1 0 .2 0z" />
          <use xlink:href="#E" />
          <path
            d="M13.2 10.8H4.7c-.4 0-.8-.3-.8-.8s.3-.8.8-.8h8.5c.4 0 .8.3.8.8s-.4.8-.8.8zm-4.3 3.5H4.7c-.4 0-.8-.3-.8-.8s.3-.8.8-.8h4.2c.4 0 .8.3.8.8s-.4.8-.8.8z" />
        </g>
      </g>
    </g>
  </g>
  <g class="J">
    <path d="M706 248h3v53h-3z" />
    <path d="M709 301h-3v-53h3v53zm-2-1h1v-51h-1v51z" />
  </g>
  <g class="I">
    <path d="M787.1 83h18.1v2h-18.1zm0 6h18.1v2h-18.1zm0 6h18.1v2h-18.1z" />
    <path class="K"
      d="M850.9 113h1.3v.8h-1.3v2.2h-.9v-2.2h-4.3v-.8l4.3-5.7h.9v5.7zm-.9 0v-4.3l-3.2 4.3h3.2zm40.9 18a2.41 2.41 0 0 1 1 1c.2.4.4.9.4 1.4s-.1 1-.4 1.4c-.2.4-.6.7-1 1-.4.2-.9.4-1.4.4s-1-.1-1.4-.4a2.41 2.41 0 0 1-1-1c-.2-.4-.4-.9-.4-1.4 0-.4.1-.8.3-1.2l3.1-4.9.8.5-1.9 3h.1.3c.6-.1 1.1 0 1.5.2zm-.3 4c.3-.2.5-.4.7-.7s.2-.6.2-.9-.1-.6-.2-.9c-.2-.3-.4-.5-.7-.7a1.69 1.69 0 0 0-1-.3 1.69 1.69 0 0 0-1 .3c-.3.2-.5.4-.7.7s-.2.6-.2.9.1.6.2.9.4.5.7.7a1.69 1.69 0 0 0 1 .3l1-.3z" />
  </g>
  <path class="L"
    d="M67 78h21a16.99 16.99 0 0 1 17 17h0a16.99 16.99 0 0 1-17 17H67a16.99 16.99 0 0 1-17-17h0a16.99 16.99 0 0 1 17-17z" />
  <path class="I"
    d="M88 112H67a16.99 16.99 0 1 1 0-34h21a16.99 16.99 0 1 1 0 34zM67 79c-8.8 0-16 7.2-16 16s7.2 16 16 16h21c8.8 0 16-7.2 16-16s-7.2-16-16-16H67z" />
  <g class="I K">
    <use x="-799.6" y="-310" xlink:href="#D" />
    <path
      d="M80.4 100h-1.1l-1.2-2.9h-4.9L72 100h-1.1l4.2-10.1h1.1l4.2 10.1zm-2.7-3.9l-2-4.9-2.1 4.9h4.1zm12.9-.4c-.1.8-.4 1.5-.8 2.2-.5.7-1 1.2-1.7 1.6s-1.4.6-2.2.6c-.9 0-1.7-.2-2.5-.7s-1.4-1.1-1.8-1.9-.7-1.7-.7-2.6.2-1.8.7-2.6c.4-.8 1-1.4 1.8-1.9s1.6-.7 2.5-.7 1.8.2 2.5.7 1.3 1 1.7 1.7l-.9.5c-.3-.5-.8-1-1.4-1.3-.6-.4-1.2-.5-2-.5s-1.4.2-2 .5c-.6.4-1.1.9-1.4 1.5a4.65 4.65 0 0 0 0 4.2c.4.6.8 1.1 1.4 1.5s1.3.6 2 .6c.6 0 1.2-.2 1.8-.5s1-.7 1.4-1.2.6-1.1.7-1.7h-3.6v-1h4.6c0 .2 0 .6-.1 1z" />
  </g>
  <path class="L"
    d="M910 426h47a16.99 16.99 0 0 1 17 17h0a16.99 16.99 0 0 1-17 17h-47a16.99 16.99 0 0 1-17-17h0a16.99 16.99 0 0 1 17-17z" />
  <g class="I">
    <path
      d="M957 460h-47a17 17 0 1 1 0-34h47a17 17 0 1 1 0 34zm-47-33c-8.8 0-16 7.2-16 16s7.2 16 16 16h47c8.8 0 16-7.2 16-16s-7.2-16-16-16h-47zm42.864 19.864c-.2 0-.4-.1-.5-.2-.3-.3-.3-.8 0-1.1l6.3-6.3c.3-.3.8-.3 1.1 0s.3.8 0 1.1l-6.4 6.3c-.1.1-.3.2-.5.2z" />
    <path
      d="M959.164 446.864c-.2 0-.4-.1-.5-.2l-6.3-6.3c-.3-.3-.3-.8 0-1.1s.8-.3 1.1 0l6.3 6.3c.3.3.3.8 0 1.1-.2.1-.4.2-.6.2z" />
    <g class="K">
      <use x="47.4" y="38" xlink:href="#D" />
      <path
        d="M927.4 448h-1.1l-1.2-2.9h-4.9L919 448h-1.1l4.2-10.1h1.1l4.2 10.1zm-2.7-3.9l-2-4.9-2.1 4.9h4.1zm12.9-.4c-.1.8-.4 1.5-.8 2.2-.5.7-1 1.2-1.7 1.6s-1.4.6-2.2.6c-.9 0-1.7-.2-2.5-.7s-1.4-1.1-1.8-1.9-.7-1.7-.7-2.6.2-1.8.7-2.6c.4-.8 1-1.4 1.8-1.9s1.6-.7 2.5-.7 1.8.2 2.5.7 1.3 1 1.7 1.7l-.9.5c-.3-.5-.8-1-1.4-1.3-.6-.4-1.2-.5-2-.5-.7 0-1.4.2-2 .5-.6.4-1.1.9-1.4 1.5a4.65 4.65 0 0 0 0 4.2c.3.6.8 1.1 1.4 1.5s1.3.6 2 .6c.6 0 1.2-.2 1.8-.5s1-.7 1.4-1.2.6-1.1.7-1.7h-3.6v-1h4.6c0 .2 0 .6-.1 1z" />
    </g>
  </g>
  <path class="L" d="M56.3 367.2s-3.1 4.7-.6 9.2 10.6 8.9 10.6 8.9 4.7-7.8 4.4-12.9-5.6-7.5-5.6-7.5l-8.8 2.3z" />
  <path class="J" d="M55.424 364.012l8.597-2.305.855 3.187-8.597 2.305z" />
  <path class="I" d="M55.9 367.9l-1.1-4.2 9.5-2.6 1.1 4.2-9.5 2.6zm.1-3.5l.6 2.3 7.6-2-.6-2.3-7.6 2z" />
  <circle class="J" cx="63.6" cy="375.1" r="1.7" />
  <path class="I"
    d="M71.2 372.3c-.3-5.3-5.7-7.8-5.9-7.9l-.2-.1-9.1 2.4-.1.2c-.1.2-3.3 5-.7 9.7 2.5 4.6 10.5 8.9 10.8 9.1l.4.2.2-.4c.3-.3 4.9-8 4.6-13.2zM66.5 384l-2-7.5c.6-.4.9-1.1.7-1.8a1.59 1.59 0 0 0-.8-1c-.4-.2-.8-.3-1.3-.2a1.59 1.59 0 0 0-1 .8c-.2.4-.3.8-.2 1.3.2.7.8 1.2 1.5 1.2l2 7.5c-2.2-1.3-7.5-4.7-9.4-8.1-2.1-3.7 0-7.7.5-8.5l8.4-2.2c.8.4 4.9 2.7 5.2 7 .3 3.7-2.4 9.2-3.6 11.5zm-3.6-8.8c0-.2 0-.4.1-.5.1-.2.2-.3.4-.3h0 .2c.1 0 .2 0 .3.1.2.1.3.2.3.4.1.4-.1.7-.5.8-.3.1-.7-.1-.8-.5z" />
  <g class="J">
    <circle cx="67" cy="388" r="1" />
    <use xlink:href="#F" />
    <circle cx="97.297" cy="387.719" r="1.1" />
    <use xlink:href="#G" />
    <circle cx="67" cy="418" r="1" />
    <use y="30" xlink:href="#F" />
    <circle cx="97.297" cy="417.693" r="1.1" />
    <use y="29.974" xlink:href="#G" />
  </g>
  <path class="I"
    d="M855 107.5v5h1v-4h1v-1h-1zm9 0h1v1h-1zm2 0h1v1h-1zm-4 0h1v1h-1zm6 0h1v1h-1zm-8 0h1v1h-1zm-2 0h1v1h-1zm22 0h1v1h-1zm2 0h1v1h-1zm-12 0h1v1h-1zm14 0h1v1h-1zm-6 0h1v1h-1zm-2 0h1v1h-1zm-4 0h1v1h-1zm2 0h1v1h-1zm4.5 27.5h0-.5v1h7 0 .5v-1h-1zm6-6h1v1h-1zm0-2h1v1h-1zm0-4h1v1h-1zm0 2h1v1h-1zm0 6h1v1h-1zm0 2h1v1h-1zm0-24h1v1h-1zm0 4h1v1h-1zm0 2h1v1h-1zm0-4h1v1h-1zm0 8h1v1h-1zm0-2h1v1h-1zm0 4h1v1h-1z" />
  <g>
    <path d="M613-1540h24v24h-24z" fill="#f9ecd0" transform="translate(242 1652)" />
    <path class="I" d="M637-1516h-24v-24h24v24zm-23-1h22v-22h-22v22z" transform="translate(242 1652)" />
    <g transform="translate(242 1652) translate(304.849 603.847)">
      <defs>
        <path d="M310-2142h20.3v20.3H310z" id="S" />
      </defs>
      <clipPath id="T">
        <use xlink:href="#S" />
      </clipPath>
      <g clip-path="url(#T)">
        <path
          d="M327.3-2140.8l-15.3 6c-.7.3-1.1 1.1-.8 1.9.1.3.4.6.7.8l5.3 2.7c.3.1.5.4.6.6l2.7 5.3c.4.7 1.2 1 1.9.6.3-.2.6-.4.7-.8l6-15.3c.3-.7-.1-1.6-.8-1.9-.3-.1-.7-.1-1 .1z"
          fill="#f9ecd0" />
        <g class="I">
          <path
            d="M321.8-2122c-.2 0-.5 0-.7-.1-.6-.2-1-.6-1.3-1.1l-2.7-5.3-.3-.3-5.3-2.7c-.5-.2-.9-.7-1.1-1.2s-.2-1.1 0-1.7c.2-.5.7-.9 1.2-1.2l15.3-6a2.21 2.21 0 0 1 1.6 0c.5.2 1 .6 1.2 1.2a2.48 2.48 0 0 1 0 1.7l-6 15.3c-.2.5-.6.9-1.1 1.2-.1.1-.5.2-.8.2zm6-18.2h-.2l-15.3 6a.78.78 0 0 0-.4.4c-.1.2-.1.4 0 .5a1.38 1.38 0 0 0 .3.4l5.3 2.7a2.41 2.41 0 0 1 1 1l2.7 5.4c.2.3.6.5.9.3.2-.1.3-.2.3-.4l6-15.3c.1-.2.1-.4 0-.5a.78.78 0 0 0-.4-.4c0-.1-.1-.1-.2-.1zm-.5-.6h0 0z" />
          <path
            d="M317.6-2128.6c-.2 0-.4-.1-.5-.2-.3-.3-.3-.8 0-1.1l4.2-4.2c.3-.3.8-.3 1.1 0s.3.8 0 1.1l-4.2 4.2c-.2.1-.4.2-.6.2z" />
        </g>
      </g>
    </g>
  </g>
  <circle class="J" cx="877" cy="116" r="8" />
  <path class="K L" d="M877.6 120h-.7v-6.5l-.9.4-.3-.6 1.2-.5h.7v7.2z" />
</svg>
