<svg xmlns="http://www.w3.org/2000/svg" width="284" height="90" fill="none" viewBox="0 0 284 90"><g clip-path="url(#clip0_408_519)"><rect width="284" height="90" fill="#fff"/><path stroke="#666" stroke-linecap="round" stroke-linejoin="round" d="M282.135 7.22445V7.19645C282.137 6.81341 282.07 6.43319 281.935 6.07445C281.766 5.57377 281.448 5.13683 281.023 4.82225C280.598 4.50766 280.088 4.33047 279.559 4.31445C278.91 4.34558 278.294 4.61095 277.825 5.06141C277.357 5.51186 277.067 6.1169 277.01 6.76445C277.01 6.77214 277.007 6.77952 277.002 6.78496C276.996 6.7904 276.989 6.79345 276.981 6.79345C276.974 6.79345 276.966 6.7904 276.961 6.78496C276.955 6.77952 276.952 6.77214 276.952 6.76445C276.896 6.11674 276.606 5.51147 276.138 5.06093C275.669 4.61039 275.053 4.34516 274.403 4.31445C273.875 4.33067 273.365 4.50795 272.94 4.82253C272.516 5.1371 272.197 5.57393 272.028 6.07445C271.894 6.4333 271.827 6.81344 271.828 7.19645V7.22445C271.827 7.37714 271.843 7.52951 271.876 7.67845C272.046 8.77845 272.818 10.9785 276.349 13.4475H276.356C276.438 13.5285 276.537 13.591 276.645 13.6308C276.754 13.6707 276.869 13.6869 276.984 13.6785C277.099 13.6868 277.215 13.6705 277.323 13.6306C277.431 13.5908 277.53 13.5284 277.612 13.4475H277.619C281.149 10.9745 281.919 8.77345 282.091 7.67845C282.123 7.52932 282.138 7.37698 282.135 7.22445Z"/><path fill="#666" d="M119.432 75.46C118.016 75.316 116.204 74.716 115.76 73.636H118.988V72.892H111.38V73.636H114.644C114.248 74.74 112.544 75.304 110.996 75.448L111.404 76.204C113.144 75.952 114.764 75.268 115.184 74.356C115.7 75.256 117.332 75.964 119.012 76.216L119.432 75.46ZM118.328 81.64C118.328 80.896 117.512 80.428 115.196 80.428C112.856 80.428 112.064 80.896 112.064 81.64C112.064 82.372 112.856 82.84 115.196 82.84C117.512 82.84 118.328 82.372 118.328 81.64ZM119.924 77.68V76.936H115.628V75.688H114.716V76.936H110.456V77.68H119.924ZM119.156 80.116V79.384H111.248V80.116H119.156ZM117.344 81.64C117.344 82 116.564 82.168 115.196 82.168C113.792 82.168 113.06 82 113.06 81.64C113.06 81.28 113.792 81.112 115.196 81.112C116.564 81.112 117.344 81.28 117.344 81.64ZM116.888 78.916V78.16H113.504V78.916H116.888ZM130.619 77.344V76.576H128.903V72.352H127.991V82.84H128.903V77.344H130.619ZM120.983 76.84C120.983 79.072 121.967 80.56 123.671 80.56C125.375 80.56 126.347 79.072 126.347 76.852C126.347 74.632 125.375 73.144 123.671 73.144C121.967 73.144 120.983 74.632 120.983 76.84ZM125.459 76.852C125.459 78.568 124.763 79.768 123.671 79.768C122.579 79.768 121.871 78.568 121.871 76.852C121.871 75.124 122.579 73.936 123.671 73.936C124.763 73.936 125.459 75.124 125.459 76.852ZM139.73 75.772C139.73 74.152 138.23 73.048 135.938 73.048C133.682 73.048 132.17 74.152 132.17 75.772C132.17 77.392 133.682 78.472 135.938 78.472C138.218 78.472 139.73 77.392 139.73 75.772ZM138.854 75.772C138.854 76.948 137.69 77.74 135.938 77.74C134.198 77.74 133.046 76.948 133.046 75.772C133.046 74.596 134.198 73.804 135.938 73.804C137.702 73.804 138.854 74.596 138.854 75.772ZM140.69 81.508V80.74H138.314V78.784L137.402 78.76V80.74H134.474V78.76L133.562 78.784V80.74H131.222V81.508H140.69Z"/><path fill="#666" d="M54.104 75.592V74.824H52.508V72.352H51.596V77.98H52.508V75.592H54.104ZM52.508 82.696V78.52H51.608V79.876H46.832V78.556H45.92V82.696H52.508ZM51.608 81.94H46.832V80.608H51.608V81.94ZM45.776 76.744V73.816H49.544V73.048H44.852V77.5H45.716C47.516 77.5 49.34 77.344 50.492 77.14L50.42 76.384C49.4 76.588 47.744 76.744 46.292 76.744H45.776ZM63.5268 82.696V81.964H56.8788V80.764H63.1188V78.232H55.8828V78.964H62.2068V80.092H55.9668V82.696H63.5268ZM63.1308 72.916H55.9908V73.672H62.1948C62.1948 74.692 62.0988 75.544 61.8948 76.312H54.8388V77.056H64.3068V76.312H62.8068C63.0228 75.352 63.1308 74.32 63.1308 72.916ZM74.6896 81.4V80.632H65.2216V81.4H74.6896ZM69.8656 77.32C68.8216 76.792 68.2936 75.808 68.2936 74.392V73.336H67.4176V74.404C67.4176 75.82 66.7816 77.188 65.3296 77.956L65.8456 78.628C66.7696 78.124 67.6096 77.128 67.8496 76.252C68.1136 76.948 68.7376 77.632 69.3616 78.004L69.8656 77.32ZM74.5576 77.704C73.2976 77.104 72.5656 76.012 72.5656 74.488V73.312H71.6896V74.476C71.6896 76.012 70.8616 77.38 69.6376 78.088L70.1896 78.7C70.9696 78.256 71.8456 77.2 72.1216 76.264C72.4216 77.128 73.2376 77.98 74.0416 78.388L74.5576 77.704ZM84.1724 82.84V72.352H83.2604V82.84H84.1724ZM81.0884 73.468H76.0964V74.236H80.1164C79.9244 76.6 78.3644 78.88 75.7124 80.044L76.2404 80.764C78.9524 79.48 81.0404 76.876 81.0884 73.468Z"/><path fill="#222" d="M97.85 29.668V21.744H96.786V24.838H95.246V21.968H94.224V28.73H95.246V25.72H96.786V29.668H97.85ZM89.184 27.344V23.746H92.712V22.85H88.12V28.24H89.044C90.542 28.24 92.348 28.072 93.468 27.848L93.356 26.952C92.292 27.176 90.766 27.344 89.184 27.344ZM98.48 33.252C96.674 32.986 94.336 31.516 94.336 29.752V29.318H93.216V29.752C93.216 31.474 90.878 33 88.988 33.238C89.198 33.532 89.394 33.798 89.59 34.092C91.298 33.742 93.244 32.496 93.734 31.208C94.336 32.538 96.422 33.826 97.878 34.134L98.48 33.252ZM109.781 33.812V32.958H102.025V31.558H109.305V28.604H100.863V29.458H108.241V30.774H100.961V33.812H109.781ZM109.319 22.402H100.989V23.284H108.227C108.227 24.474 108.115 25.468 107.877 26.364H99.6453V27.232H110.691V26.364H108.941C109.193 25.244 109.319 24.04 109.319 22.402ZM122.077 33.98V21.744H121.027V26.616H119.417V22.038H118.381V33.35H119.417V27.512H121.027V33.98H122.077ZM117.555 29.444C116.659 29.682 114.629 29.85 113.355 29.822V23.088H112.291V30.746H113.229C114.783 30.746 116.659 30.578 117.681 30.34L117.555 29.444ZM133.672 24.32C133.672 22.92 132.076 22.01 129.388 22.01C126.714 22.01 125.132 22.92 125.132 24.32C125.132 25.132 125.678 25.79 126.686 26.182V27.932H123.872V28.814H134.918V27.932H132.062V26.196C133.098 25.804 133.672 25.146 133.672 24.32ZM133.756 31.754C133.756 30.354 132.104 29.584 129.402 29.584C126.728 29.584 125.09 30.354 125.09 31.754C125.09 33.154 126.728 33.91 129.416 33.91C132.104 33.91 133.756 33.154 133.756 31.754ZM132.636 24.32C132.636 25.202 131.348 25.748 129.388 25.748C127.428 25.748 126.168 25.202 126.168 24.32C126.168 23.41 127.428 22.864 129.388 22.864C131.348 22.864 132.636 23.41 132.636 24.32ZM129.402 30.508C131.376 30.508 132.678 30.942 132.678 31.754C132.678 32.552 131.39 32.986 129.402 32.986C127.456 32.986 126.154 32.552 126.154 31.754C126.154 30.942 127.456 30.508 129.402 30.508ZM129.388 26.602C129.99 26.602 130.508 26.56 130.998 26.49V27.932H127.75V26.476C128.24 26.56 128.786 26.602 129.388 26.602Z"/><path fill="#FF8300" d="M52.5381 27.8955C52.5381 27.613 52.4424 27.36 52.251 27.1367C52.0641 26.9089 51.8044 26.7949 51.4717 26.7949C50.9521 26.7949 50.501 27.1025 50.1182 27.7178C49.7399 28.3285 49.5508 28.9368 49.5508 29.543C49.5508 29.9896 49.6488 30.3314 49.8447 30.5684C50.0407 30.8008 50.2868 30.917 50.583 30.917C51.1982 30.917 51.6768 30.5592 52.0186 29.8438C52.3649 29.1237 52.5381 28.4743 52.5381 27.8955ZM51.1777 34.2939C49.2728 34.2939 47.8053 33.6992 46.7754 32.5098C45.9505 31.5573 45.5381 30.4567 45.5381 29.208C45.5381 27.7223 46.0394 26.46 47.042 25.4209C48.154 24.2633 49.6465 23.6846 51.5195 23.6846C53.1419 23.6846 54.418 24.0947 55.3477 24.915C56.2181 25.6898 56.6533 26.6947 56.6533 27.9297C56.6533 28.9688 56.3411 29.8574 55.7168 30.5957C55.097 31.3294 54.402 31.6963 53.6318 31.6963C53.1807 31.6963 52.848 31.5892 52.6338 31.375C52.4196 31.1562 52.3125 30.8942 52.3125 30.5889C52.3125 30.5387 52.3171 30.4863 52.3262 30.4316C52.3353 30.377 52.3467 30.32 52.3604 30.2607C52.1188 30.7848 51.8135 31.1562 51.4443 31.375C51.0752 31.5892 50.6947 31.6963 50.3027 31.6963C49.7422 31.6963 49.2865 31.4935 48.9355 31.0879C48.5892 30.6823 48.416 30.1605 48.416 29.5225C48.416 28.6156 48.7122 27.8158 49.3047 27.123C49.9017 26.4303 50.542 26.084 51.2256 26.084C51.6904 26.084 52.0732 26.2184 52.374 26.4873C52.6794 26.7562 52.8411 27.0798 52.8594 27.458L53.2012 26.3096H54.2061L53.2969 29.3037C53.2285 29.5361 53.1784 29.723 53.1465 29.8643C53.1146 30.0055 53.0986 30.1309 53.0986 30.2402C53.0986 30.4453 53.1602 30.5957 53.2832 30.6914C53.4108 30.7826 53.5544 30.8281 53.7139 30.8281C54.2334 30.8281 54.6982 30.557 55.1084 30.0146C55.5231 29.4723 55.7305 28.7637 55.7305 27.8887C55.7305 26.8314 55.3613 26.002 54.623 25.4004C53.8848 24.7943 52.8913 24.4912 51.6426 24.4912C49.9108 24.4912 48.5869 24.9971 47.6709 26.0088C46.887 26.8701 46.4951 27.9525 46.4951 29.2559C46.4951 30.3952 46.8688 31.3522 47.6162 32.127C48.4912 33.043 49.7376 33.501 51.3555 33.501C52.112 33.501 52.8161 33.3825 53.4678 33.1455C54.1195 32.904 54.7165 32.5804 55.2588 32.1748L55.71 32.79C55.2998 33.1546 54.6868 33.4964 53.8711 33.8154C53.0553 34.1344 52.1576 34.2939 51.1777 34.2939ZM68.4668 22.436V31.9H69.5728V22.436H68.4668ZM64.0288 26.006V26.958H66.4228V26.006H64.0288ZM66.0588 22.688V31.536H67.1648V22.688H66.0588ZM61.3268 33.86V34.812H69.9648V33.86H61.3268ZM61.3268 30.738V34.35H62.4888V30.738H61.3268ZM59.4788 23.654V29.45H64.3648V23.654H59.4788ZM63.2728 24.564V28.526H60.5568V24.564H63.2728ZM78.5037 24.298V25.264H81.3457V24.298H78.5037ZM78.5037 26.902V27.854H81.3457V26.902H78.5037ZM74.9617 23.15V24.76C74.9617 26.748 73.7017 28.554 71.8117 29.282L72.4277 30.206C74.5417 29.352 75.8997 27.238 75.8997 24.76V23.15H74.9617ZM75.1717 23.15V24.76C75.1717 27.112 76.5297 29.156 78.5317 29.996L79.1757 29.086C77.3417 28.358 76.1237 26.608 76.1237 24.76V23.15H75.1717ZM81.0377 22.45V31.886H82.1997V22.45H81.0377ZM74.0657 33.86V34.812H82.5077V33.86H74.0657ZM74.0657 30.934V34.378H75.2277V30.934H74.0657Z"/><path fill="#222" d="M54.85 49.668V41.744H53.786V44.838H52.246V41.968H51.224V48.73H52.246V45.72H53.786V49.668H54.85ZM46.184 47.344V43.746H49.712V42.85H45.12V48.24H46.044C47.542 48.24 49.348 48.072 50.468 47.848L50.356 46.952C49.292 47.176 47.766 47.344 46.184 47.344ZM55.48 53.252C53.674 52.986 51.336 51.516 51.336 49.752V49.318H50.216V49.752C50.216 51.474 47.878 53 45.988 53.238C46.198 53.532 46.394 53.798 46.59 54.092C48.298 53.742 50.244 52.496 50.734 51.208C51.336 52.538 53.422 53.826 54.878 54.134L55.48 53.252ZM66.7813 53.812V52.958H59.0253V51.558H66.3053V48.604H57.8633V49.458H65.2413V50.774H57.9613V53.812H66.7813ZM66.3193 42.402H57.9893V43.284H65.2273C65.2273 44.474 65.1153 45.468 64.8773 46.364H56.6453V47.232H67.6913V46.364H65.9413C66.1933 45.244 66.3193 44.04 66.3193 42.402ZM79.0766 53.98V41.744H78.0266V46.616H76.4166V42.038H75.3806V53.35H76.4166V47.512H78.0266V53.98H79.0766ZM74.5546 49.444C73.6586 49.682 71.6286 49.85 70.3546 49.822V43.088H69.2906V50.746H70.2286C71.7826 50.746 73.6586 50.578 74.6806 50.34L74.5546 49.444ZM90.6718 44.32C90.6718 42.92 89.0758 42.01 86.3878 42.01C83.7138 42.01 82.1318 42.92 82.1318 44.32C82.1318 45.132 82.6778 45.79 83.6858 46.182V47.932H80.8718V48.814H91.9178V47.932H89.0618V46.196C90.0978 45.804 90.6718 45.146 90.6718 44.32ZM90.7558 51.754C90.7558 50.354 89.1038 49.584 86.4018 49.584C83.7278 49.584 82.0898 50.354 82.0898 51.754C82.0898 53.154 83.7278 53.91 86.4158 53.91C89.1038 53.91 90.7558 53.154 90.7558 51.754ZM89.6358 44.32C89.6358 45.202 88.3478 45.748 86.3878 45.748C84.4278 45.748 83.1678 45.202 83.1678 44.32C83.1678 43.41 84.4278 42.864 86.3878 42.864C88.3478 42.864 89.6358 43.41 89.6358 44.32ZM86.4018 50.508C88.3758 50.508 89.6778 50.942 89.6778 51.754C89.6778 52.552 88.3898 52.986 86.4018 52.986C84.4558 52.986 83.1538 52.552 83.1538 51.754C83.1538 50.942 84.4558 50.508 86.4018 50.508ZM86.3878 46.602C86.9898 46.602 87.5078 46.56 87.9978 46.49V47.932H84.7498V46.476C85.2398 46.56 85.7858 46.602 86.3878 46.602Z"/><path fill="#A8A8A8" d="M80.2354 10.2178C80.2939 10.7191 80.5267 11.0658 80.9336 11.2578C81.1419 11.3555 81.3828 11.4043 81.6562 11.4043C82.1771 11.4043 82.5628 11.2383 82.8135 10.9062C83.0641 10.5742 83.1895 10.2064 83.1895 9.80273C83.1895 9.31445 83.0397 8.93685 82.7402 8.66992C82.444 8.40299 82.0876 8.26953 81.6709 8.26953C81.3682 8.26953 81.1077 8.32812 80.8896 8.44531C80.6748 8.5625 80.4909 8.72526 80.3379 8.93359L79.5762 8.88965L80.1084 5.125H83.7412V5.97461H80.7676L80.4697 7.91797C80.6325 7.79427 80.7871 7.7015 80.9336 7.63965C81.194 7.53223 81.4951 7.47852 81.8369 7.47852C82.4782 7.47852 83.0218 7.68522 83.4678 8.09863C83.9137 8.51204 84.1367 9.03613 84.1367 9.6709C84.1367 10.3317 83.9316 10.9144 83.5215 11.4189C83.1146 11.9235 82.4635 12.1758 81.5684 12.1758C80.9987 12.1758 80.4941 12.0163 80.0547 11.6973C79.6185 11.375 79.3743 10.8818 79.3223 10.2178H80.2354ZM85.0564 8.51V9.19H93.2464V8.51H85.0564ZM88.7964 8.85V10.93H89.6264V8.85H88.7964ZM86.0964 11.9V12.58H92.3364V11.9H86.0964ZM86.0964 10.13V12.16H86.9164V10.13H86.0964ZM86.1464 4.02V7.64H92.1664V4.02H91.3364V5.17H86.9664V4.02H86.1464ZM86.9664 5.82H91.3364V6.97H86.9664V5.82ZM99.0556 6.23V6.91H101.336V6.23H99.0556ZM100.866 3.75V10.37H101.696V3.75H100.866ZM95.9256 11.9V12.58H101.946V11.9H95.9256ZM95.9256 9.79V12.25H96.7556V9.79H95.9256ZM96.5656 4.87V5.6C96.5656 6.88 95.6356 8.08 94.2856 8.56L94.7156 9.22C96.2256 8.66 97.2456 7.24 97.2456 5.6V4.87H96.5656ZM96.7256 4.87V5.59C96.7256 7.12 97.6956 8.48 99.1656 9.01L99.5856 8.36C98.2756 7.9 97.3956 6.76 97.3956 5.59V4.87H96.7256ZM94.5456 4.48V5.15H99.3756V4.48H94.5456Z"/><path fill="#222" d="M53.192 9.316V3.28H51.788V9.316H53.192ZM45.968 9.856V10.972H51.8V13.96H53.204V9.856H45.968ZM50.78 7.072C49.484 7.384 47.828 7.492 46.34 7.492V3.832H44.948V8.68H46.004C47.312 8.68 49.592 8.548 50.96 8.212L50.78 7.072ZM63.8268 13.948V3.256H62.4948V13.948H63.8268ZM60.3108 7.744V13.456H61.6308V3.448H60.3108V6.616H58.1988V7.744H60.3108ZM59.5668 9.904C58.9068 10.096 57.6348 10.192 56.5908 10.192V4.192H55.2108V11.356H56.1708C57.4428 11.356 59.1828 11.2 59.7348 11.02L59.5668 9.904ZM72.5656 3.256V9.28H73.9576V3.256H72.5656ZM73.9576 13.816V9.844H66.9256V13.816H73.9576ZM72.5656 12.724H68.3296V10.924H72.5656V12.724ZM65.5096 6.412C65.5096 7.924 66.7576 8.896 68.3296 8.896C69.9376 8.896 71.1616 7.924 71.1616 6.412C71.1616 4.912 69.9136 3.832 68.3296 3.832C66.7456 3.832 65.5096 4.936 65.5096 6.412ZM66.8536 6.4C66.8536 5.632 67.4296 4.996 68.3296 4.996C69.2536 4.996 69.8176 5.608 69.8176 6.4C69.8176 7.216 69.1816 7.816 68.3296 7.816C67.4416 7.816 66.8536 7.228 66.8536 6.4Z"/><mask style="mask-type:luminance" id="mask0_408_519" width="36" height="36" x="0" y="0"><path fill="#fff" d="M36 0H0V36H36V0Z"/></mask><g mask="url(#mask0_408_519)"><path fill="#EFEFEF" d="M0 17.9847C0 4.4707 4.5 -0.0292969 18.014 -0.0292969C31.528 -0.0292969 36.029 4.4707 36.029 17.9847C36.029 31.4987 31.529 35.9987 18.015 35.9987C4.501 35.9987 0 31.4957 0 17.9847Z"/></g></g><defs><clipPath id="clip0_408_519"><rect width="284" height="90" fill="#fff"/></clipPath></defs></svg>