<svg xmlns="http://www.w3.org/2000/svg" width="962" height="833" fill="none" viewBox="0 0 962 833"><rect width="962" height="833" fill="#FFF9EF"/><rect width="280" height="44" x="194" y="313" fill="#FF8300" rx="8"/><path fill="#fff" d="M308.183 337.648C308.538 338.077 308.948 338.423 309.415 338.684C309.882 338.945 310.353 339.076 310.829 339.076C311.529 339.076 312.103 338.903 312.551 338.558C312.999 338.203 313.223 337.751 313.223 337.2C313.223 336.873 313.12 336.603 312.915 336.388C312.71 336.173 312.458 336.001 312.159 335.87C311.86 335.739 311.436 335.585 310.885 335.408C310.194 335.184 309.639 334.974 309.219 334.778C308.799 334.573 308.435 334.283 308.127 333.91C307.828 333.537 307.679 333.051 307.679 332.454C307.679 331.931 307.814 331.46 308.085 331.04C308.365 330.62 308.752 330.293 309.247 330.06C309.751 329.827 310.32 329.71 310.955 329.71C311.562 329.71 312.14 329.855 312.691 330.144C313.251 330.424 313.722 330.802 314.105 331.278L313.181 331.992C312.901 331.619 312.565 331.325 312.173 331.11C311.79 330.895 311.384 330.788 310.955 330.788C310.358 330.788 309.868 330.947 309.485 331.264C309.102 331.572 308.911 331.969 308.911 332.454C308.911 332.799 309.018 333.089 309.233 333.322C309.448 333.546 309.714 333.728 310.031 333.868C310.348 334.008 310.782 334.171 311.333 334.358C312.005 334.582 312.546 334.797 312.957 335.002C313.377 335.198 313.732 335.473 314.021 335.828C314.31 336.183 314.455 336.64 314.455 337.2C314.455 337.769 314.301 338.278 313.993 338.726C313.685 339.174 313.256 339.524 312.705 339.776C312.154 340.028 311.529 340.154 310.829 340.154C310.157 340.145 309.499 339.977 308.855 339.65C308.22 339.323 307.688 338.889 307.259 338.348L308.183 337.648ZM317.582 336.99C317.582 337.587 317.75 338.073 318.086 338.446C318.422 338.81 318.856 338.992 319.388 338.992C319.985 338.992 320.471 338.805 320.844 338.432C321.217 338.059 321.404 337.573 321.404 336.976V332.818H322.636V340.056H321.404V338.838C321.171 339.193 320.858 339.482 320.466 339.706C320.074 339.93 319.682 340.042 319.29 340.042C318.73 340.042 318.226 339.921 317.778 339.678C317.33 339.426 316.98 339.076 316.728 338.628C316.476 338.18 316.35 337.667 316.35 337.088V332.818H317.582V336.99ZM328.084 340.14C327.682 340.14 327.267 340.033 326.838 339.818C326.408 339.603 326.04 339.249 325.732 338.754V340.056H324.5V329.836H325.732V334.204C326.04 333.709 326.408 333.355 326.838 333.14C327.267 332.925 327.687 332.818 328.098 332.818C328.76 332.818 329.353 332.977 329.876 333.294C330.408 333.602 330.818 334.031 331.108 334.582C331.406 335.133 331.556 335.763 331.556 336.472C331.556 337.181 331.406 337.816 331.108 338.376C330.818 338.927 330.408 339.361 329.876 339.678C329.353 339.986 328.756 340.14 328.084 340.14ZM325.732 336.486C325.732 336.962 325.834 337.401 326.04 337.802C326.254 338.203 326.534 338.521 326.88 338.754C327.234 338.987 327.617 339.104 328.028 339.104C328.476 339.104 328.872 338.992 329.218 338.768C329.563 338.544 329.834 338.236 330.03 337.844C330.226 337.443 330.324 336.99 330.324 336.486C330.324 335.982 330.226 335.534 330.03 335.142C329.843 334.741 329.572 334.433 329.218 334.218C328.872 333.994 328.476 333.882 328.028 333.882C327.617 333.882 327.234 333.999 326.88 334.232C326.534 334.465 326.254 334.783 326.04 335.184C325.834 335.585 325.732 336.019 325.732 336.486ZM335.461 340.084C334.873 340.084 334.387 339.888 334.005 339.496C333.622 339.104 333.421 338.6 333.403 337.984V333.938H332.199V332.86H333.403V330.942H334.635V332.86H336.469V333.938H334.635V337.9C334.635 338.18 334.714 338.423 334.873 338.628C335.031 338.833 335.227 338.936 335.461 338.936C335.601 338.936 335.727 338.927 335.839 338.908C335.951 338.889 336.063 338.866 336.175 338.838L336.413 339.972C336.058 340.047 335.741 340.084 335.461 340.084ZM339.256 332.846V340.056H338.024V332.846H339.256ZM337.898 330.424C337.898 330.219 337.968 330.051 338.108 329.92C338.248 329.78 338.425 329.71 338.64 329.71C338.855 329.71 339.027 329.78 339.158 329.92C339.298 330.051 339.368 330.219 339.368 330.424C339.368 330.639 339.298 330.816 339.158 330.956C339.027 331.096 338.855 331.166 338.64 331.166C338.425 331.166 338.248 331.096 338.108 330.956C337.968 330.816 337.898 330.639 337.898 330.424ZM343.966 340.084C343.378 340.084 342.893 339.888 342.51 339.496C342.127 339.104 341.927 338.6 341.908 337.984V333.938H340.704V332.86H341.908V330.942H343.14V332.86H344.974V333.938H343.14V337.9C343.14 338.18 343.219 338.423 343.378 338.628C343.537 338.833 343.733 338.936 343.966 338.936C344.106 338.936 344.232 338.927 344.344 338.908C344.456 338.889 344.568 338.866 344.68 338.838L344.918 339.972C344.563 340.047 344.246 340.084 343.966 340.084ZM347.565 329.836V340.056H346.333V329.836H347.565ZM354.403 335.968C354.337 335.371 354.141 334.871 353.815 334.47C353.497 334.059 353.012 333.854 352.359 333.854C351.78 333.854 351.281 334.055 350.861 334.456C350.45 334.857 350.203 335.366 350.119 335.982L354.403 335.968ZM348.901 336.444C348.901 335.735 349.045 335.105 349.335 334.554C349.624 334.003 350.03 333.574 350.553 333.266C351.075 332.958 351.668 332.804 352.331 332.804C353.273 332.804 353.969 333.037 354.417 333.504C354.865 333.971 355.159 334.391 355.299 334.764C355.504 335.287 355.607 335.847 355.607 336.444C355.607 336.603 355.602 336.729 355.593 336.822C355.583 336.915 355.579 336.967 355.579 336.976H350.119C350.203 337.583 350.455 338.077 350.875 338.46C351.295 338.843 351.785 339.034 352.345 339.034C352.793 339.034 353.161 338.964 353.451 338.824C353.749 338.684 353.931 338.577 353.997 338.502C354.071 338.418 354.202 338.25 354.389 337.998L355.369 338.502C355.154 338.941 354.785 339.314 354.263 339.622C353.749 339.93 353.105 340.084 352.331 340.084C351.668 340.084 351.075 339.93 350.553 339.622C350.03 339.314 349.624 338.885 349.335 338.334C349.045 337.783 348.901 337.153 348.901 336.444ZM360.451 340.014H359.219V331.236L357.539 332.286L356.951 331.292L359.219 329.878H360.451V340.014Z"/><rect width="279" height="43" x="194.5" y="457.5" fill="#fff" rx="7.5"/><path fill="#222" d="M308.183 481.648C308.538 482.077 308.948 482.423 309.415 482.684C309.882 482.945 310.353 483.076 310.829 483.076C311.529 483.076 312.103 482.903 312.551 482.558C312.999 482.203 313.223 481.751 313.223 481.2C313.223 480.873 313.12 480.603 312.915 480.388C312.71 480.173 312.458 480.001 312.159 479.87C311.86 479.739 311.436 479.585 310.885 479.408C310.194 479.184 309.639 478.974 309.219 478.778C308.799 478.573 308.435 478.283 308.127 477.91C307.828 477.537 307.679 477.051 307.679 476.454C307.679 475.931 307.814 475.46 308.085 475.04C308.365 474.62 308.752 474.293 309.247 474.06C309.751 473.827 310.32 473.71 310.955 473.71C311.562 473.71 312.14 473.855 312.691 474.144C313.251 474.424 313.722 474.802 314.105 475.278L313.181 475.992C312.901 475.619 312.565 475.325 312.173 475.11C311.79 474.895 311.384 474.788 310.955 474.788C310.358 474.788 309.868 474.947 309.485 475.264C309.102 475.572 308.911 475.969 308.911 476.454C308.911 476.799 309.018 477.089 309.233 477.322C309.448 477.546 309.714 477.728 310.031 477.868C310.348 478.008 310.782 478.171 311.333 478.358C312.005 478.582 312.546 478.797 312.957 479.002C313.377 479.198 313.732 479.473 314.021 479.828C314.31 480.183 314.455 480.64 314.455 481.2C314.455 481.769 314.301 482.278 313.993 482.726C313.685 483.174 313.256 483.524 312.705 483.776C312.154 484.028 311.529 484.154 310.829 484.154C310.157 484.145 309.499 483.977 308.855 483.65C308.22 483.323 307.688 482.889 307.259 482.348L308.183 481.648ZM317.582 480.99C317.582 481.587 317.75 482.073 318.086 482.446C318.422 482.81 318.856 482.992 319.388 482.992C319.985 482.992 320.471 482.805 320.844 482.432C321.217 482.059 321.404 481.573 321.404 480.976V476.818H322.636V484.056H321.404V482.838C321.171 483.193 320.858 483.482 320.466 483.706C320.074 483.93 319.682 484.042 319.29 484.042C318.73 484.042 318.226 483.921 317.778 483.678C317.33 483.426 316.98 483.076 316.728 482.628C316.476 482.18 316.35 481.667 316.35 481.088V476.818H317.582V480.99ZM328.084 484.14C327.682 484.14 327.267 484.033 326.838 483.818C326.408 483.603 326.04 483.249 325.732 482.754V484.056H324.5V473.836H325.732V478.204C326.04 477.709 326.408 477.355 326.838 477.14C327.267 476.925 327.687 476.818 328.098 476.818C328.76 476.818 329.353 476.977 329.876 477.294C330.408 477.602 330.818 478.031 331.108 478.582C331.406 479.133 331.556 479.763 331.556 480.472C331.556 481.181 331.406 481.816 331.108 482.376C330.818 482.927 330.408 483.361 329.876 483.678C329.353 483.986 328.756 484.14 328.084 484.14ZM325.732 480.486C325.732 480.962 325.834 481.401 326.04 481.802C326.254 482.203 326.534 482.521 326.88 482.754C327.234 482.987 327.617 483.104 328.028 483.104C328.476 483.104 328.872 482.992 329.218 482.768C329.563 482.544 329.834 482.236 330.03 481.844C330.226 481.443 330.324 480.99 330.324 480.486C330.324 479.982 330.226 479.534 330.03 479.142C329.843 478.741 329.572 478.433 329.218 478.218C328.872 477.994 328.476 477.882 328.028 477.882C327.617 477.882 327.234 477.999 326.88 478.232C326.534 478.465 326.254 478.783 326.04 479.184C325.834 479.585 325.732 480.019 325.732 480.486ZM335.461 484.084C334.873 484.084 334.387 483.888 334.005 483.496C333.622 483.104 333.421 482.6 333.403 481.984V477.938H332.199V476.86H333.403V474.942H334.635V476.86H336.469V477.938H334.635V481.9C334.635 482.18 334.714 482.423 334.873 482.628C335.031 482.833 335.227 482.936 335.461 482.936C335.601 482.936 335.727 482.927 335.839 482.908C335.951 482.889 336.063 482.866 336.175 482.838L336.413 483.972C336.058 484.047 335.741 484.084 335.461 484.084ZM339.256 476.846V484.056H338.024V476.846H339.256ZM337.898 474.424C337.898 474.219 337.968 474.051 338.108 473.92C338.248 473.78 338.425 473.71 338.64 473.71C338.855 473.71 339.027 473.78 339.158 473.92C339.298 474.051 339.368 474.219 339.368 474.424C339.368 474.639 339.298 474.816 339.158 474.956C339.027 475.096 338.855 475.166 338.64 475.166C338.425 475.166 338.248 475.096 338.108 474.956C337.968 474.816 337.898 474.639 337.898 474.424ZM343.966 484.084C343.378 484.084 342.893 483.888 342.51 483.496C342.127 483.104 341.927 482.6 341.908 481.984V477.938H340.704V476.86H341.908V474.942H343.14V476.86H344.974V477.938H343.14V481.9C343.14 482.18 343.219 482.423 343.378 482.628C343.537 482.833 343.733 482.936 343.966 482.936C344.106 482.936 344.232 482.927 344.344 482.908C344.456 482.889 344.568 482.866 344.68 482.838L344.918 483.972C344.563 484.047 344.246 484.084 343.966 484.084ZM347.565 473.836V484.056H346.333V473.836H347.565ZM354.403 479.968C354.337 479.371 354.141 478.871 353.815 478.47C353.497 478.059 353.012 477.854 352.359 477.854C351.78 477.854 351.281 478.055 350.861 478.456C350.45 478.857 350.203 479.366 350.119 479.982L354.403 479.968ZM348.901 480.444C348.901 479.735 349.045 479.105 349.335 478.554C349.624 478.003 350.03 477.574 350.553 477.266C351.075 476.958 351.668 476.804 352.331 476.804C353.273 476.804 353.969 477.037 354.417 477.504C354.865 477.971 355.159 478.391 355.299 478.764C355.504 479.287 355.607 479.847 355.607 480.444C355.607 480.603 355.602 480.729 355.593 480.822C355.583 480.915 355.579 480.967 355.579 480.976H350.119C350.203 481.583 350.455 482.077 350.875 482.46C351.295 482.843 351.785 483.034 352.345 483.034C352.793 483.034 353.161 482.964 353.451 482.824C353.749 482.684 353.931 482.577 353.997 482.502C354.071 482.418 354.202 482.25 354.389 481.998L355.369 482.502C355.154 482.941 354.785 483.314 354.263 483.622C353.749 483.93 353.105 484.084 352.331 484.084C351.668 484.084 351.075 483.93 350.553 483.622C350.03 483.314 349.624 482.885 349.335 482.334C349.045 481.783 348.901 481.153 348.901 480.444ZM360.451 484.014H359.219V475.236L357.539 476.286L356.951 475.292L359.219 473.878H360.451V484.014Z"/><rect width="279" height="43" x="194.5" y="457.5" stroke="#EFEFEF" rx="7.5"/><rect width="279" height="43" x="194.5" y="541.5" fill="#fff" rx="7.5"/><path stroke="#222" stroke-linecap="round" stroke-linejoin="round" stroke-width="1.5" d="M303.488 555.858C307.94 555.419 310.917 560.426 308.731 564.329L304.219 570.102C304.208 570.123 304.19 570.141 304.17 570.153C304.149 570.165 304.125 570.171 304.101 570.171C304.077 570.171 304.053 570.165 304.032 570.153C304.012 570.141 303.994 570.123 303.982 570.102L299.303 564.202C298.553 562.943 298.328 561.44 298.675 560.016C299.022 558.593 299.914 557.362 301.159 556.59C301.684 556.288 302.254 556.073 302.847 555.954C303.059 555.911 303.273 555.879 303.488 555.858V555.858Z"/><path stroke="#222" stroke-linecap="round" stroke-linejoin="round" stroke-width="1.5" d="M305.783 561.352C305.783 561.705 305.679 562.05 305.483 562.344C305.287 562.637 305.008 562.866 304.682 563.001C304.356 563.136 303.998 563.172 303.651 563.103C303.305 563.034 302.987 562.865 302.738 562.615C302.488 562.366 302.318 562.048 302.249 561.702C302.18 561.356 302.216 560.997 302.351 560.671C302.486 560.345 302.714 560.066 303.008 559.87C303.301 559.674 303.646 559.569 303.999 559.569C304.472 559.569 304.925 559.757 305.26 560.092C305.595 560.426 305.783 560.879 305.783 561.352V561.352Z"/><path fill="#222" d="M321.96 565.648C322.315 566.077 322.725 566.423 323.192 566.684C323.659 566.945 324.13 567.076 324.606 567.076C325.306 567.076 325.88 566.903 326.328 566.558C326.776 566.203 327 565.751 327 565.2C327 564.873 326.897 564.603 326.692 564.388C326.487 564.173 326.235 564.001 325.936 563.87C325.637 563.739 325.213 563.585 324.662 563.408C323.971 563.184 323.416 562.974 322.996 562.778C322.576 562.573 322.212 562.283 321.904 561.91C321.605 561.537 321.456 561.051 321.456 560.454C321.456 559.931 321.591 559.46 321.862 559.04C322.142 558.62 322.529 558.293 323.024 558.06C323.528 557.827 324.097 557.71 324.732 557.71C325.339 557.71 325.917 557.855 326.468 558.144C327.028 558.424 327.499 558.802 327.882 559.278L326.958 559.992C326.678 559.619 326.342 559.325 325.95 559.11C325.567 558.895 325.161 558.788 324.732 558.788C324.135 558.788 323.645 558.947 323.262 559.264C322.879 559.572 322.688 559.969 322.688 560.454C322.688 560.799 322.795 561.089 323.01 561.322C323.225 561.546 323.491 561.728 323.808 561.868C324.125 562.008 324.559 562.171 325.11 562.358C325.782 562.582 326.323 562.797 326.734 563.002C327.154 563.198 327.509 563.473 327.798 563.828C328.087 564.183 328.232 564.64 328.232 565.2C328.232 565.769 328.078 566.278 327.77 566.726C327.462 567.174 327.033 567.524 326.482 567.776C325.931 568.028 325.306 568.154 324.606 568.154C323.934 568.145 323.276 567.977 322.632 567.65C321.997 567.323 321.465 566.889 321.036 566.348L321.96 565.648ZM331.359 564.99C331.359 565.587 331.527 566.073 331.863 566.446C332.199 566.81 332.633 566.992 333.165 566.992C333.762 566.992 334.248 566.805 334.621 566.432C334.994 566.059 335.181 565.573 335.181 564.976V560.818H336.413V568.056H335.181V566.838C334.948 567.193 334.635 567.482 334.243 567.706C333.851 567.93 333.459 568.042 333.067 568.042C332.507 568.042 332.003 567.921 331.555 567.678C331.107 567.426 330.757 567.076 330.505 566.628C330.253 566.18 330.127 565.667 330.127 565.088V560.818H331.359V564.99ZM341.861 568.14C341.459 568.14 341.044 568.033 340.615 567.818C340.185 567.603 339.817 567.249 339.509 566.754V568.056H338.277V557.836H339.509V562.204C339.817 561.709 340.185 561.355 340.615 561.14C341.044 560.925 341.464 560.818 341.875 560.818C342.537 560.818 343.13 560.977 343.653 561.294C344.185 561.602 344.595 562.031 344.885 562.582C345.183 563.133 345.333 563.763 345.333 564.472C345.333 565.181 345.183 565.816 344.885 566.376C344.595 566.927 344.185 567.361 343.653 567.678C343.13 567.986 342.533 568.14 341.861 568.14ZM339.509 564.486C339.509 564.962 339.611 565.401 339.817 565.802C340.031 566.203 340.311 566.521 340.657 566.754C341.011 566.987 341.394 567.104 341.805 567.104C342.253 567.104 342.649 566.992 342.995 566.768C343.34 566.544 343.611 566.236 343.807 565.844C344.003 565.443 344.101 564.99 344.101 564.486C344.101 563.982 344.003 563.534 343.807 563.142C343.62 562.741 343.349 562.433 342.995 562.218C342.649 561.994 342.253 561.882 341.805 561.882C341.394 561.882 341.011 561.999 340.657 562.232C340.311 562.465 340.031 562.783 339.817 563.184C339.611 563.585 339.509 564.019 339.509 564.486ZM349.238 568.084C348.65 568.084 348.164 567.888 347.782 567.496C347.399 567.104 347.198 566.6 347.18 565.984V561.938H345.976V560.86H347.18V558.942H348.412V560.86H350.246V561.938H348.412V565.9C348.412 566.18 348.491 566.423 348.65 566.628C348.808 566.833 349.004 566.936 349.238 566.936C349.378 566.936 349.504 566.927 349.616 566.908C349.728 566.889 349.84 566.866 349.952 566.838L350.19 567.972C349.835 568.047 349.518 568.084 349.238 568.084ZM353.033 560.846V568.056H351.801V560.846H353.033ZM351.675 558.424C351.675 558.219 351.745 558.051 351.885 557.92C352.025 557.78 352.202 557.71 352.417 557.71C352.632 557.71 352.804 557.78 352.935 557.92C353.075 558.051 353.145 558.219 353.145 558.424C353.145 558.639 353.075 558.816 352.935 558.956C352.804 559.096 352.632 559.166 352.417 559.166C352.202 559.166 352.025 559.096 351.885 558.956C351.745 558.816 351.675 558.639 351.675 558.424ZM357.743 568.084C357.155 568.084 356.67 567.888 356.287 567.496C355.904 567.104 355.704 566.6 355.685 565.984V561.938H354.481V560.86H355.685V558.942H356.917V560.86H358.751V561.938H356.917V565.9C356.917 566.18 356.996 566.423 357.155 566.628C357.314 566.833 357.51 566.936 357.743 566.936C357.883 566.936 358.009 566.927 358.121 566.908C358.233 566.889 358.345 566.866 358.457 566.838L358.695 567.972C358.34 568.047 358.023 568.084 357.743 568.084ZM361.342 557.836V568.056H360.11V557.836H361.342ZM368.18 563.968C368.114 563.371 367.918 562.871 367.592 562.47C367.274 562.059 366.789 561.854 366.136 561.854C365.557 561.854 365.058 562.055 364.638 562.456C364.227 562.857 363.98 563.366 363.896 563.982L368.18 563.968ZM362.678 564.444C362.678 563.735 362.822 563.105 363.112 562.554C363.401 562.003 363.807 561.574 364.33 561.266C364.852 560.958 365.445 560.804 366.108 560.804C367.05 560.804 367.746 561.037 368.194 561.504C368.642 561.971 368.936 562.391 369.076 562.764C369.281 563.287 369.384 563.847 369.384 564.444C369.384 564.603 369.379 564.729 369.37 564.822C369.36 564.915 369.356 564.967 369.356 564.976H363.896C363.98 565.583 364.232 566.077 364.652 566.46C365.072 566.843 365.562 567.034 366.122 567.034C366.57 567.034 366.938 566.964 367.228 566.824C367.526 566.684 367.708 566.577 367.774 566.502C367.848 566.418 367.979 566.25 368.166 565.998L369.146 566.502C368.931 566.941 368.562 567.314 368.04 567.622C367.526 567.93 366.882 568.084 366.108 568.084C365.445 568.084 364.852 567.93 364.33 567.622C363.807 567.314 363.401 566.885 363.112 566.334C362.822 565.783 362.678 565.153 362.678 564.444ZM374.228 568.014H372.996V559.236L371.316 560.286L370.728 559.292L372.996 557.878H374.228V568.014Z"/><rect width="279" height="43" x="194.5" y="541.5" stroke="#EFEFEF" rx="7.5"/><rect width="279" height="43" x="194.5" y="625.5" fill="#fff" rx="7.5"/><path fill="#222" d="M293.96 649.648C294.315 650.077 294.725 650.423 295.192 650.684C295.659 650.945 296.13 651.076 296.606 651.076C297.306 651.076 297.88 650.903 298.328 650.558C298.776 650.203 299 649.751 299 649.2C299 648.873 298.897 648.603 298.692 648.388C298.487 648.173 298.235 648.001 297.936 647.87C297.637 647.739 297.213 647.585 296.662 647.408C295.971 647.184 295.416 646.974 294.996 646.778C294.576 646.573 294.212 646.283 293.904 645.91C293.605 645.537 293.456 645.051 293.456 644.454C293.456 643.931 293.591 643.46 293.862 643.04C294.142 642.62 294.529 642.293 295.024 642.06C295.528 641.827 296.097 641.71 296.732 641.71C297.339 641.71 297.917 641.855 298.468 642.144C299.028 642.424 299.499 642.802 299.882 643.278L298.958 643.992C298.678 643.619 298.342 643.325 297.95 643.11C297.567 642.895 297.161 642.788 296.732 642.788C296.135 642.788 295.645 642.947 295.262 643.264C294.879 643.572 294.688 643.969 294.688 644.454C294.688 644.799 294.795 645.089 295.01 645.322C295.225 645.546 295.491 645.728 295.808 645.868C296.125 646.008 296.559 646.171 297.11 646.358C297.782 646.582 298.323 646.797 298.734 647.002C299.154 647.198 299.509 647.473 299.798 647.828C300.087 648.183 300.232 648.64 300.232 649.2C300.232 649.769 300.078 650.278 299.77 650.726C299.462 651.174 299.033 651.524 298.482 651.776C297.931 652.028 297.306 652.154 296.606 652.154C295.934 652.145 295.276 651.977 294.632 651.65C293.997 651.323 293.465 650.889 293.036 650.348L293.96 649.648ZM303.359 648.99C303.359 649.587 303.527 650.073 303.863 650.446C304.199 650.81 304.633 650.992 305.165 650.992C305.762 650.992 306.248 650.805 306.621 650.432C306.994 650.059 307.181 649.573 307.181 648.976V644.818H308.413V652.056H307.181V650.838C306.948 651.193 306.635 651.482 306.243 651.706C305.851 651.93 305.459 652.042 305.067 652.042C304.507 652.042 304.003 651.921 303.555 651.678C303.107 651.426 302.757 651.076 302.505 650.628C302.253 650.18 302.127 649.667 302.127 649.088V644.818H303.359V648.99ZM313.861 652.14C313.459 652.14 313.044 652.033 312.615 651.818C312.185 651.603 311.817 651.249 311.509 650.754V652.056H310.277V641.836H311.509V646.204C311.817 645.709 312.185 645.355 312.615 645.14C313.044 644.925 313.464 644.818 313.875 644.818C314.537 644.818 315.13 644.977 315.653 645.294C316.185 645.602 316.595 646.031 316.885 646.582C317.183 647.133 317.333 647.763 317.333 648.472C317.333 649.181 317.183 649.816 316.885 650.376C316.595 650.927 316.185 651.361 315.653 651.678C315.13 651.986 314.533 652.14 313.861 652.14ZM311.509 648.486C311.509 648.962 311.611 649.401 311.817 649.802C312.031 650.203 312.311 650.521 312.657 650.754C313.011 650.987 313.394 651.104 313.805 651.104C314.253 651.104 314.649 650.992 314.995 650.768C315.34 650.544 315.611 650.236 315.807 649.844C316.003 649.443 316.101 648.99 316.101 648.486C316.101 647.982 316.003 647.534 315.807 647.142C315.62 646.741 315.349 646.433 314.995 646.218C314.649 645.994 314.253 645.882 313.805 645.882C313.394 645.882 313.011 645.999 312.657 646.232C312.311 646.465 312.031 646.783 311.817 647.184C311.611 647.585 311.509 648.019 311.509 648.486ZM321.238 652.084C320.65 652.084 320.164 651.888 319.782 651.496C319.399 651.104 319.198 650.6 319.18 649.984V645.938H317.976V644.86H319.18V642.942H320.412V644.86H322.246V645.938H320.412V649.9C320.412 650.18 320.491 650.423 320.65 650.628C320.808 650.833 321.004 650.936 321.238 650.936C321.378 650.936 321.504 650.927 321.616 650.908C321.728 650.889 321.84 650.866 321.952 650.838L322.19 651.972C321.835 652.047 321.518 652.084 321.238 652.084ZM325.033 644.846V652.056H323.801V644.846H325.033ZM323.675 642.424C323.675 642.219 323.745 642.051 323.885 641.92C324.025 641.78 324.202 641.71 324.417 641.71C324.632 641.71 324.804 641.78 324.935 641.92C325.075 642.051 325.145 642.219 325.145 642.424C325.145 642.639 325.075 642.816 324.935 642.956C324.804 643.096 324.632 643.166 324.417 643.166C324.202 643.166 324.025 643.096 323.885 642.956C323.745 642.816 323.675 642.639 323.675 642.424ZM329.743 652.084C329.155 652.084 328.67 651.888 328.287 651.496C327.904 651.104 327.704 650.6 327.685 649.984V645.938H326.481V644.86H327.685V642.942H328.917V644.86H330.751V645.938H328.917V649.9C328.917 650.18 328.996 650.423 329.155 650.628C329.314 650.833 329.51 650.936 329.743 650.936C329.883 650.936 330.009 650.927 330.121 650.908C330.233 650.889 330.345 650.866 330.457 650.838L330.695 651.972C330.34 652.047 330.023 652.084 329.743 652.084ZM333.342 641.836V652.056H332.11V641.836H333.342ZM340.18 647.968C340.114 647.371 339.918 646.871 339.592 646.47C339.274 646.059 338.789 645.854 338.136 645.854C337.557 645.854 337.058 646.055 336.638 646.456C336.227 646.857 335.98 647.366 335.896 647.982L340.18 647.968ZM334.678 648.444C334.678 647.735 334.822 647.105 335.112 646.554C335.401 646.003 335.807 645.574 336.33 645.266C336.852 644.958 337.445 644.804 338.108 644.804C339.05 644.804 339.746 645.037 340.194 645.504C340.642 645.971 340.936 646.391 341.076 646.764C341.281 647.287 341.384 647.847 341.384 648.444C341.384 648.603 341.379 648.729 341.37 648.822C341.36 648.915 341.356 648.967 341.356 648.976H335.896C335.98 649.583 336.232 650.077 336.652 650.46C337.072 650.843 337.562 651.034 338.122 651.034C338.57 651.034 338.938 650.964 339.228 650.824C339.526 650.684 339.708 650.577 339.774 650.502C339.848 650.418 339.979 650.25 340.166 649.998L341.146 650.502C340.931 650.941 340.562 651.314 340.04 651.622C339.526 651.93 338.882 652.084 338.108 652.084C337.445 652.084 336.852 651.93 336.33 651.622C335.807 651.314 335.401 650.885 335.112 650.334C334.822 649.783 334.678 649.153 334.678 648.444ZM346.228 652.014H344.996V643.236L343.316 644.286L342.728 643.292L344.996 641.878H346.228V652.014Z"/><path stroke="#222" stroke-linecap="round" stroke-linejoin="round" stroke-width="1.5" d="M363.488 639.858C367.94 639.419 370.917 644.426 368.731 648.329L364.219 654.102C364.208 654.123 364.19 654.141 364.17 654.153C364.149 654.165 364.125 654.171 364.101 654.171C364.077 654.171 364.053 654.165 364.032 654.153C364.012 654.141 363.994 654.123 363.982 654.102L359.303 648.202C358.553 646.943 358.328 645.44 358.675 644.016C359.022 642.593 359.914 641.362 361.159 640.59C361.684 640.288 362.254 640.073 362.847 639.954C363.059 639.911 363.273 639.879 363.488 639.858V639.858Z"/><path stroke="#222" stroke-linecap="round" stroke-linejoin="round" stroke-width="1.5" d="M365.783 645.352C365.783 645.705 365.679 646.05 365.483 646.344C365.287 646.637 365.008 646.866 364.682 647.001C364.356 647.136 363.998 647.172 363.651 647.103C363.305 647.034 362.987 646.865 362.738 646.615C362.488 646.366 362.318 646.048 362.249 645.702C362.18 645.356 362.216 644.997 362.351 644.671C362.486 644.345 362.714 644.066 363.008 643.87C363.301 643.674 363.646 643.569 363.999 643.569C364.472 643.569 364.925 643.757 365.26 644.092C365.595 644.426 365.783 644.879 365.783 645.352V645.352Z"/><rect width="279" height="43" x="194.5" y="625.5" stroke="#EFEFEF" rx="7.5"/><rect width="279" height="39" x="194.5" y="709.5" fill="#fff" rx="7.5"/><path fill="#222" d="M308.183 731.648C308.538 732.077 308.948 732.423 309.415 732.684C309.882 732.945 310.353 733.076 310.829 733.076C311.529 733.076 312.103 732.903 312.551 732.558C312.999 732.203 313.223 731.751 313.223 731.2C313.223 730.873 313.12 730.603 312.915 730.388C312.71 730.173 312.458 730.001 312.159 729.87C311.86 729.739 311.436 729.585 310.885 729.408C310.194 729.184 309.639 728.974 309.219 728.778C308.799 728.573 308.435 728.283 308.127 727.91C307.828 727.537 307.679 727.051 307.679 726.454C307.679 725.931 307.814 725.46 308.085 725.04C308.365 724.62 308.752 724.293 309.247 724.06C309.751 723.827 310.32 723.71 310.955 723.71C311.562 723.71 312.14 723.855 312.691 724.144C313.251 724.424 313.722 724.802 314.105 725.278L313.181 725.992C312.901 725.619 312.565 725.325 312.173 725.11C311.79 724.895 311.384 724.788 310.955 724.788C310.358 724.788 309.868 724.947 309.485 725.264C309.102 725.572 308.911 725.969 308.911 726.454C308.911 726.799 309.018 727.089 309.233 727.322C309.448 727.546 309.714 727.728 310.031 727.868C310.348 728.008 310.782 728.171 311.333 728.358C312.005 728.582 312.546 728.797 312.957 729.002C313.377 729.198 313.732 729.473 314.021 729.828C314.31 730.183 314.455 730.64 314.455 731.2C314.455 731.769 314.301 732.278 313.993 732.726C313.685 733.174 313.256 733.524 312.705 733.776C312.154 734.028 311.529 734.154 310.829 734.154C310.157 734.145 309.499 733.977 308.855 733.65C308.22 733.323 307.688 732.889 307.259 732.348L308.183 731.648ZM317.582 730.99C317.582 731.587 317.75 732.073 318.086 732.446C318.422 732.81 318.856 732.992 319.388 732.992C319.985 732.992 320.471 732.805 320.844 732.432C321.217 732.059 321.404 731.573 321.404 730.976V726.818H322.636V734.056H321.404V732.838C321.171 733.193 320.858 733.482 320.466 733.706C320.074 733.93 319.682 734.042 319.29 734.042C318.73 734.042 318.226 733.921 317.778 733.678C317.33 733.426 316.98 733.076 316.728 732.628C316.476 732.18 316.35 731.667 316.35 731.088V726.818H317.582V730.99ZM328.084 734.14C327.682 734.14 327.267 734.033 326.838 733.818C326.408 733.603 326.04 733.249 325.732 732.754V734.056H324.5V723.836H325.732V728.204C326.04 727.709 326.408 727.355 326.838 727.14C327.267 726.925 327.687 726.818 328.098 726.818C328.76 726.818 329.353 726.977 329.876 727.294C330.408 727.602 330.818 728.031 331.108 728.582C331.406 729.133 331.556 729.763 331.556 730.472C331.556 731.181 331.406 731.816 331.108 732.376C330.818 732.927 330.408 733.361 329.876 733.678C329.353 733.986 328.756 734.14 328.084 734.14ZM325.732 730.486C325.732 730.962 325.834 731.401 326.04 731.802C326.254 732.203 326.534 732.521 326.88 732.754C327.234 732.987 327.617 733.104 328.028 733.104C328.476 733.104 328.872 732.992 329.218 732.768C329.563 732.544 329.834 732.236 330.03 731.844C330.226 731.443 330.324 730.99 330.324 730.486C330.324 729.982 330.226 729.534 330.03 729.142C329.843 728.741 329.572 728.433 329.218 728.218C328.872 727.994 328.476 727.882 328.028 727.882C327.617 727.882 327.234 727.999 326.88 728.232C326.534 728.465 326.254 728.783 326.04 729.184C325.834 729.585 325.732 730.019 325.732 730.486ZM335.461 734.084C334.873 734.084 334.387 733.888 334.005 733.496C333.622 733.104 333.421 732.6 333.403 731.984V727.938H332.199V726.86H333.403V724.942H334.635V726.86H336.469V727.938H334.635V731.9C334.635 732.18 334.714 732.423 334.873 732.628C335.031 732.833 335.227 732.936 335.461 732.936C335.601 732.936 335.727 732.927 335.839 732.908C335.951 732.889 336.063 732.866 336.175 732.838L336.413 733.972C336.058 734.047 335.741 734.084 335.461 734.084ZM339.256 726.846V734.056H338.024V726.846H339.256ZM337.898 724.424C337.898 724.219 337.968 724.051 338.108 723.92C338.248 723.78 338.425 723.71 338.64 723.71C338.855 723.71 339.027 723.78 339.158 723.92C339.298 724.051 339.368 724.219 339.368 724.424C339.368 724.639 339.298 724.816 339.158 724.956C339.027 725.096 338.855 725.166 338.64 725.166C338.425 725.166 338.248 725.096 338.108 724.956C337.968 724.816 337.898 724.639 337.898 724.424ZM343.966 734.084C343.378 734.084 342.893 733.888 342.51 733.496C342.127 733.104 341.927 732.6 341.908 731.984V727.938H340.704V726.86H341.908V724.942H343.14V726.86H344.974V727.938H343.14V731.9C343.14 732.18 343.219 732.423 343.378 732.628C343.537 732.833 343.733 732.936 343.966 732.936C344.106 732.936 344.232 732.927 344.344 732.908C344.456 732.889 344.568 732.866 344.68 732.838L344.918 733.972C344.563 734.047 344.246 734.084 343.966 734.084ZM347.565 723.836V734.056H346.333V723.836H347.565ZM354.403 729.968C354.337 729.371 354.141 728.871 353.815 728.47C353.497 728.059 353.012 727.854 352.359 727.854C351.78 727.854 351.281 728.055 350.861 728.456C350.45 728.857 350.203 729.366 350.119 729.982L354.403 729.968ZM348.901 730.444C348.901 729.735 349.045 729.105 349.335 728.554C349.624 728.003 350.03 727.574 350.553 727.266C351.075 726.958 351.668 726.804 352.331 726.804C353.273 726.804 353.969 727.037 354.417 727.504C354.865 727.971 355.159 728.391 355.299 728.764C355.504 729.287 355.607 729.847 355.607 730.444C355.607 730.603 355.602 730.729 355.593 730.822C355.583 730.915 355.579 730.967 355.579 730.976H350.119C350.203 731.583 350.455 732.077 350.875 732.46C351.295 732.843 351.785 733.034 352.345 733.034C352.793 733.034 353.161 732.964 353.451 732.824C353.749 732.684 353.931 732.577 353.997 732.502C354.071 732.418 354.202 732.25 354.389 731.998L355.369 732.502C355.154 732.941 354.785 733.314 354.263 733.622C353.749 733.93 353.105 734.084 352.331 734.084C351.668 734.084 351.075 733.93 350.553 733.622C350.03 733.314 349.624 732.885 349.335 732.334C349.045 731.783 348.901 731.153 348.901 730.444ZM360.451 734.014H359.219V725.236L357.539 726.286L356.951 725.292L359.219 723.878H360.451V734.014Z"/><rect width="279" height="39" x="194.5" y="709.5" stroke="#EFEFEF" rx="7.5"/><rect width="280" height="44" x="574" y="313" fill="#A8A8A8" rx="8"/><path fill="#fff" d="M688.183 337.648C688.538 338.077 688.948 338.423 689.415 338.684C689.882 338.945 690.353 339.076 690.829 339.076C691.529 339.076 692.103 338.903 692.551 338.558C692.999 338.203 693.223 337.751 693.223 337.2C693.223 336.873 693.12 336.603 692.915 336.388C692.71 336.173 692.458 336.001 692.159 335.87C691.86 335.739 691.436 335.585 690.885 335.408C690.194 335.184 689.639 334.974 689.219 334.778C688.799 334.573 688.435 334.283 688.127 333.91C687.828 333.537 687.679 333.051 687.679 332.454C687.679 331.931 687.814 331.46 688.085 331.04C688.365 330.62 688.752 330.293 689.247 330.06C689.751 329.827 690.32 329.71 690.955 329.71C691.562 329.71 692.14 329.855 692.691 330.144C693.251 330.424 693.722 330.802 694.105 331.278L693.181 331.992C692.901 331.619 692.565 331.325 692.173 331.11C691.79 330.895 691.384 330.788 690.955 330.788C690.358 330.788 689.868 330.947 689.485 331.264C689.102 331.572 688.911 331.969 688.911 332.454C688.911 332.799 689.018 333.089 689.233 333.322C689.448 333.546 689.714 333.728 690.031 333.868C690.348 334.008 690.782 334.171 691.333 334.358C692.005 334.582 692.546 334.797 692.957 335.002C693.377 335.198 693.732 335.473 694.021 335.828C694.31 336.183 694.455 336.64 694.455 337.2C694.455 337.769 694.301 338.278 693.993 338.726C693.685 339.174 693.256 339.524 692.705 339.776C692.154 340.028 691.529 340.154 690.829 340.154C690.157 340.145 689.499 339.977 688.855 339.65C688.22 339.323 687.688 338.889 687.259 338.348L688.183 337.648ZM697.582 336.99C697.582 337.587 697.75 338.073 698.086 338.446C698.422 338.81 698.856 338.992 699.388 338.992C699.985 338.992 700.471 338.805 700.844 338.432C701.217 338.059 701.404 337.573 701.404 336.976V332.818H702.636V340.056H701.404V338.838C701.171 339.193 700.858 339.482 700.466 339.706C700.074 339.93 699.682 340.042 699.29 340.042C698.73 340.042 698.226 339.921 697.778 339.678C697.33 339.426 696.98 339.076 696.728 338.628C696.476 338.18 696.35 337.667 696.35 337.088V332.818H697.582V336.99ZM708.084 340.14C707.682 340.14 707.267 340.033 706.838 339.818C706.408 339.603 706.04 339.249 705.732 338.754V340.056H704.5V329.836H705.732V334.204C706.04 333.709 706.408 333.355 706.838 333.14C707.267 332.925 707.687 332.818 708.098 332.818C708.76 332.818 709.353 332.977 709.876 333.294C710.408 333.602 710.818 334.031 711.108 334.582C711.406 335.133 711.556 335.763 711.556 336.472C711.556 337.181 711.406 337.816 711.108 338.376C710.818 338.927 710.408 339.361 709.876 339.678C709.353 339.986 708.756 340.14 708.084 340.14ZM705.732 336.486C705.732 336.962 705.834 337.401 706.04 337.802C706.254 338.203 706.534 338.521 706.88 338.754C707.234 338.987 707.617 339.104 708.028 339.104C708.476 339.104 708.872 338.992 709.218 338.768C709.563 338.544 709.834 338.236 710.03 337.844C710.226 337.443 710.324 336.99 710.324 336.486C710.324 335.982 710.226 335.534 710.03 335.142C709.843 334.741 709.572 334.433 709.218 334.218C708.872 333.994 708.476 333.882 708.028 333.882C707.617 333.882 707.234 333.999 706.88 334.232C706.534 334.465 706.254 334.783 706.04 335.184C705.834 335.585 705.732 336.019 705.732 336.486ZM715.461 340.084C714.873 340.084 714.387 339.888 714.005 339.496C713.622 339.104 713.421 338.6 713.403 337.984V333.938H712.199V332.86H713.403V330.942H714.635V332.86H716.469V333.938H714.635V337.9C714.635 338.18 714.714 338.423 714.873 338.628C715.031 338.833 715.227 338.936 715.461 338.936C715.601 338.936 715.727 338.927 715.839 338.908C715.951 338.889 716.063 338.866 716.175 338.838L716.413 339.972C716.058 340.047 715.741 340.084 715.461 340.084ZM719.256 332.846V340.056H718.024V332.846H719.256ZM717.898 330.424C717.898 330.219 717.968 330.051 718.108 329.92C718.248 329.78 718.425 329.71 718.64 329.71C718.855 329.71 719.027 329.78 719.158 329.92C719.298 330.051 719.368 330.219 719.368 330.424C719.368 330.639 719.298 330.816 719.158 330.956C719.027 331.096 718.855 331.166 718.64 331.166C718.425 331.166 718.248 331.096 718.108 330.956C717.968 330.816 717.898 330.639 717.898 330.424ZM723.966 340.084C723.378 340.084 722.893 339.888 722.51 339.496C722.127 339.104 721.927 338.6 721.908 337.984V333.938H720.704V332.86H721.908V330.942H723.14V332.86H724.974V333.938H723.14V337.9C723.14 338.18 723.219 338.423 723.378 338.628C723.537 338.833 723.733 338.936 723.966 338.936C724.106 338.936 724.232 338.927 724.344 338.908C724.456 338.889 724.568 338.866 724.68 338.838L724.918 339.972C724.563 340.047 724.246 340.084 723.966 340.084ZM727.565 329.836V340.056H726.333V329.836H727.565ZM734.403 335.968C734.337 335.371 734.141 334.871 733.815 334.47C733.497 334.059 733.012 333.854 732.359 333.854C731.78 333.854 731.281 334.055 730.861 334.456C730.45 334.857 730.203 335.366 730.119 335.982L734.403 335.968ZM728.901 336.444C728.901 335.735 729.045 335.105 729.335 334.554C729.624 334.003 730.03 333.574 730.553 333.266C731.075 332.958 731.668 332.804 732.331 332.804C733.273 332.804 733.969 333.037 734.417 333.504C734.865 333.971 735.159 334.391 735.299 334.764C735.504 335.287 735.607 335.847 735.607 336.444C735.607 336.603 735.602 336.729 735.593 336.822C735.583 336.915 735.579 336.967 735.579 336.976H730.119C730.203 337.583 730.455 338.077 730.875 338.46C731.295 338.843 731.785 339.034 732.345 339.034C732.793 339.034 733.161 338.964 733.451 338.824C733.749 338.684 733.931 338.577 733.997 338.502C734.071 338.418 734.202 338.25 734.389 337.998L735.369 338.502C735.154 338.941 734.785 339.314 734.263 339.622C733.749 339.93 733.105 340.084 732.331 340.084C731.668 340.084 731.075 339.93 730.553 339.622C730.03 339.314 729.624 338.885 729.335 338.334C729.045 337.783 728.901 337.153 728.901 336.444ZM740.451 340.014H739.219V331.236L737.539 332.286L736.951 331.292L739.219 329.878H740.451V340.014Z"/><path fill="#666" d="M85.032 331.528C85.6613 331.528 86.1627 331.32 86.536 330.904C86.92 330.488 87.112 329.933 87.112 329.24C87.112 328.547 86.92 327.992 86.536 327.576C86.152 327.149 85.6453 326.936 85.016 326.936H82.024V331.528H85.032ZM80.104 325.272H85.096C85.8533 325.272 86.5307 325.443 87.128 325.784C87.7253 326.115 88.1893 326.584 88.52 327.192C88.8613 327.789 89.032 328.472 89.032 329.24C89.032 330.008 88.8613 330.691 88.52 331.288C88.1893 331.885 87.7253 332.355 87.128 332.696C86.5307 333.027 85.8533 333.192 85.096 333.192H82.024V337.176H80.104V325.272ZM92.2527 330.216C92.4874 329.757 92.8394 329.384 93.3088 329.096C93.7888 328.808 94.2901 328.664 94.8128 328.664V330.376C94.3221 330.376 93.8794 330.509 93.4848 330.776C93.1008 331.032 92.7968 331.368 92.5728 331.784C92.3594 332.189 92.2527 332.6 92.2527 333.016V337.176H90.3487V328.68H92.2527V330.216ZM98.335 328.76V337.176H96.415V328.76H98.335ZM96.335 326.072C96.335 325.763 96.431 325.512 96.623 325.32C96.8257 325.128 97.0763 325.032 97.375 325.032C97.6843 325.032 97.935 325.133 98.127 325.336C98.3297 325.528 98.431 325.773 98.431 326.072C98.431 326.381 98.3297 326.637 98.127 326.84C97.935 327.032 97.6843 327.128 97.375 327.128C97.0657 327.128 96.815 327.032 96.623 326.84C96.431 326.637 96.335 326.381 96.335 326.072ZM111.435 332.488C111.435 331.848 111.275 331.325 110.955 330.92C110.635 330.504 110.224 330.296 109.723 330.296C109.19 330.296 108.747 330.504 108.395 330.92C108.054 331.336 107.883 331.837 107.883 332.424V337.176H105.963V332.488C105.963 331.848 105.803 331.325 105.483 330.92C105.174 330.504 104.774 330.296 104.283 330.296C103.739 330.296 103.291 330.515 102.939 330.952C102.587 331.389 102.411 331.928 102.411 332.568V337.176H100.491V328.68H102.411V330.12C102.646 329.704 102.955 329.368 103.339 329.112C103.723 328.856 104.128 328.728 104.555 328.728C105.078 328.728 105.574 328.888 106.043 329.208C106.512 329.517 106.859 329.917 107.083 330.408C107.36 329.917 107.766 329.517 108.299 329.208C108.843 328.888 109.376 328.728 109.899 328.728C110.582 328.728 111.184 328.888 111.707 329.208C112.23 329.517 112.635 329.955 112.923 330.52C113.211 331.075 113.355 331.715 113.355 332.44V337.176H111.435V332.488ZM119.046 335.672C119.462 335.672 119.846 335.555 120.198 335.32C120.561 335.085 120.849 334.76 121.062 334.344C121.286 333.928 121.398 333.469 121.398 332.968C121.398 332.467 121.286 332.013 121.062 331.608C120.849 331.192 120.561 330.867 120.198 330.632C119.846 330.397 119.462 330.28 119.046 330.28C118.374 330.28 117.83 330.525 117.414 331.016C116.998 331.507 116.79 332.157 116.79 332.968C116.79 333.779 116.998 334.435 117.414 334.936C117.83 335.427 118.374 335.672 119.046 335.672ZM114.87 332.968C114.87 332.147 115.041 331.416 115.382 330.776C115.724 330.125 116.198 329.619 116.806 329.256C117.414 328.893 118.108 328.712 118.886 328.712C119.356 328.712 119.809 328.824 120.246 329.048C120.684 329.272 121.068 329.603 121.398 330.04V328.68H123.318V337.176H121.398V335.912C121.078 336.349 120.694 336.68 120.246 336.904C119.809 337.128 119.356 337.24 118.886 337.24C118.108 337.24 117.414 337.059 116.806 336.696C116.198 336.333 115.724 335.832 115.382 335.192C115.041 334.541 114.87 333.8 114.87 332.968ZM126.95 330.216C127.185 329.757 127.537 329.384 128.006 329.096C128.486 328.808 128.987 328.664 129.51 328.664V330.376C129.019 330.376 128.577 330.509 128.182 330.776C127.798 331.032 127.494 331.368 127.27 331.784C127.057 332.189 126.95 332.6 126.95 333.016V337.176H125.046V328.68H126.95V330.216ZM132.28 340.536L134.008 336.44L130.552 328.68H132.664L135 334.344L137.272 328.68H139.368L134.36 340.536H132.28Z"/><path fill="#666" d="M81.464 483.04C81.8587 483.509 82.312 483.888 82.824 484.176C83.3467 484.464 83.8533 484.608 84.344 484.608C85.0587 484.608 85.6453 484.437 86.104 484.096C86.5627 483.744 86.792 483.296 86.792 482.752C86.792 482.443 86.6853 482.181 86.472 481.968C86.2587 481.755 85.9813 481.584 85.64 481.456C85.3093 481.317 84.8613 481.163 84.296 480.992C83.496 480.747 82.84 480.507 82.328 480.272C81.8267 480.037 81.3947 479.696 81.032 479.248C80.6693 478.789 80.488 478.203 80.488 477.488C80.488 476.848 80.6587 476.277 81 475.776C81.3413 475.275 81.8107 474.885 82.408 474.608C83.016 474.331 83.7093 474.192 84.488 474.192C85.1813 474.192 85.8747 474.363 86.568 474.704C87.272 475.045 87.8427 475.493 88.28 476.048L86.872 477.152C86.5627 476.757 86.1893 476.443 85.752 476.208C85.3253 475.963 84.904 475.84 84.488 475.84C83.8693 475.84 83.368 475.995 82.984 476.304C82.6 476.613 82.408 477.008 82.408 477.488C82.408 477.808 82.52 478.08 82.744 478.304C82.968 478.528 83.2453 478.709 83.576 478.848C83.9067 478.987 84.376 479.157 84.984 479.36C85.784 479.627 86.4293 479.877 86.92 480.112C87.4107 480.336 87.832 480.661 88.184 481.088C88.536 481.515 88.712 482.064 88.712 482.736C88.712 483.419 88.5253 484.027 88.152 484.56C87.7787 485.093 87.2613 485.509 86.6 485.808C85.9493 486.107 85.2027 486.256 84.36 486.256C83.5707 486.256 82.776 486.064 81.976 485.68C81.1867 485.285 80.536 484.779 80.024 484.16L81.464 483.04ZM96.2081 481.232C96.1228 480.688 95.9041 480.224 95.5521 479.84C95.2001 479.445 94.7095 479.248 94.0801 479.248C93.4935 479.248 92.9868 479.44 92.5601 479.824C92.1335 480.208 91.8721 480.677 91.7761 481.232H96.2081ZM89.9841 481.952C89.9841 481.12 90.1548 480.384 90.4961 479.744C90.8481 479.093 91.3335 478.587 91.9521 478.224C92.5708 477.861 93.2748 477.68 94.0641 477.68C95.1735 477.68 95.9895 477.952 96.5121 478.496C97.0455 479.029 97.4081 479.52 97.6001 479.968C97.8455 480.512 97.9681 481.184 97.9681 481.984C97.9681 482.187 97.9628 482.341 97.9521 482.448C97.9521 482.544 97.9521 482.608 97.9521 482.64H91.7761C91.8721 483.216 92.1441 483.691 92.5921 484.064C93.0401 484.437 93.5361 484.624 94.0801 484.624C94.5281 484.624 94.8961 484.56 95.1841 484.432C95.4828 484.293 95.6748 484.176 95.7601 484.08C95.8561 483.973 95.9681 483.84 96.0961 483.68L97.6481 484.336C97.3921 484.859 96.9601 485.301 96.3521 485.664C95.7441 486.027 94.9815 486.208 94.0641 486.208C93.2748 486.208 92.5708 486.032 91.9521 485.68C91.3335 485.317 90.8481 484.816 90.4961 484.176C90.1548 483.525 89.9841 482.784 89.9841 481.952ZM103.137 484.432C103.435 484.432 103.75 484.357 104.081 484.208C104.422 484.048 104.715 483.845 104.961 483.6L106.241 484.928C105.867 485.312 105.398 485.627 104.833 485.872C104.267 486.107 103.723 486.224 103.201 486.224C102.369 486.224 101.627 486.043 100.977 485.68C100.326 485.317 99.814 484.811 99.4406 484.16C99.078 483.509 98.8966 482.773 98.8966 481.952C98.8966 481.12 99.078 480.384 99.4406 479.744C99.8033 479.093 100.31 478.587 100.961 478.224C101.622 477.861 102.369 477.68 103.201 477.68C103.755 477.68 104.305 477.797 104.849 478.032C105.393 478.267 105.857 478.581 106.241 478.976L104.961 480.288C104.715 480.043 104.427 479.845 104.097 479.696C103.766 479.547 103.446 479.472 103.137 479.472C102.443 479.472 101.883 479.701 101.457 480.16C101.03 480.608 100.817 481.205 100.817 481.952C100.817 482.699 101.03 483.301 101.457 483.76C101.883 484.208 102.443 484.432 103.137 484.432ZM111.015 484.64C111.676 484.64 112.204 484.395 112.599 483.904C113.004 483.413 113.207 482.763 113.207 481.952C113.207 481.141 113.004 480.491 112.599 480C112.204 479.499 111.676 479.248 111.015 479.248C110.354 479.248 109.82 479.499 109.415 480C109.02 480.491 108.823 481.141 108.823 481.952C108.823 482.763 109.02 483.413 109.415 483.904C109.82 484.395 110.354 484.64 111.015 484.64ZM106.903 481.952C106.903 481.12 107.074 480.384 107.415 479.744C107.767 479.093 108.252 478.587 108.871 478.224C109.5 477.861 110.215 477.68 111.015 477.68C111.815 477.68 112.524 477.861 113.143 478.224C113.772 478.587 114.258 479.093 114.599 479.744C114.951 480.384 115.127 481.12 115.127 481.952C115.127 482.784 114.951 483.525 114.599 484.176C114.258 484.816 113.772 485.317 113.143 485.68C112.524 486.043 111.815 486.224 111.015 486.224C110.215 486.224 109.5 486.043 108.871 485.68C108.252 485.317 107.767 484.816 107.415 484.176C107.074 483.525 106.903 482.784 106.903 481.952ZM122.423 481.6C122.423 480.875 122.252 480.309 121.911 479.904C121.569 479.499 121.084 479.296 120.455 479.296C120.071 479.296 119.719 479.392 119.399 479.584C119.089 479.776 118.844 480.048 118.663 480.4C118.481 480.752 118.396 481.152 118.407 481.6V486.176H116.487V477.68H118.407V479.104C118.652 478.699 118.993 478.368 119.431 478.112C119.879 477.856 120.332 477.728 120.791 477.728C121.345 477.728 121.889 477.851 122.423 478.096C122.967 478.341 123.42 478.752 123.783 479.328C124.156 479.904 124.343 480.645 124.343 481.552V486.176H122.423V481.6ZM129.745 486.24C128.966 486.24 128.267 486.059 127.649 485.696C127.041 485.333 126.566 484.827 126.225 484.176C125.883 483.525 125.713 482.784 125.713 481.952C125.713 481.12 125.883 480.379 126.225 479.728C126.566 479.077 127.041 478.571 127.649 478.208C128.267 477.845 128.966 477.664 129.745 477.664C130.139 477.664 130.577 477.771 131.057 477.984C131.547 478.187 131.958 478.533 132.289 479.024V474.272H134.209V486.176H132.289V484.896C131.958 485.365 131.542 485.707 131.041 485.92C130.55 486.133 130.118 486.24 129.745 486.24ZM127.633 482C127.633 482.821 127.841 483.477 128.257 483.968C128.673 484.459 129.222 484.704 129.905 484.704C130.331 484.704 130.726 484.587 131.089 484.352C131.451 484.107 131.739 483.776 131.953 483.36C132.177 482.944 132.289 482.491 132.289 482C132.289 481.509 132.177 481.056 131.953 480.64C131.739 480.213 131.451 479.877 131.089 479.632C130.726 479.387 130.331 479.264 129.905 479.264C129.222 479.264 128.673 479.515 128.257 480.016C127.841 480.517 127.633 481.179 127.633 482ZM139.762 484.672C140.178 484.672 140.562 484.555 140.914 484.32C141.277 484.085 141.565 483.76 141.778 483.344C142.002 482.928 142.114 482.469 142.114 481.968C142.114 481.467 142.002 481.013 141.778 480.608C141.565 480.192 141.277 479.867 140.914 479.632C140.562 479.397 140.178 479.28 139.762 479.28C139.09 479.28 138.546 479.525 138.13 480.016C137.714 480.507 137.506 481.157 137.506 481.968C137.506 482.779 137.714 483.435 138.13 483.936C138.546 484.427 139.09 484.672 139.762 484.672ZM135.586 481.968C135.586 481.147 135.757 480.416 136.098 479.776C136.439 479.125 136.914 478.619 137.522 478.256C138.13 477.893 138.823 477.712 139.602 477.712C140.071 477.712 140.525 477.824 140.962 478.048C141.399 478.272 141.783 478.603 142.114 479.04V477.68H144.034V486.176H142.114V484.912C141.794 485.349 141.41 485.68 140.962 485.904C140.525 486.128 140.071 486.24 139.602 486.24C138.823 486.24 138.13 486.059 137.522 485.696C136.914 485.333 136.439 484.832 136.098 484.192C135.757 483.541 135.586 482.8 135.586 481.968ZM147.666 479.216C147.9 478.757 148.252 478.384 148.722 478.096C149.202 477.808 149.703 477.664 150.226 477.664V479.376C149.735 479.376 149.292 479.509 148.898 479.776C148.514 480.032 148.21 480.368 147.986 480.784C147.772 481.189 147.666 481.6 147.666 482.016V486.176H145.762V477.68H147.666V479.216ZM152.996 489.536L154.724 485.44L151.268 477.68H153.38L155.716 483.344L157.988 477.68H160.084L155.076 489.536H152.996Z"/><path fill="#666" d="M198.752 284.24C197.973 284.24 197.275 284.059 196.656 283.696C196.048 283.333 195.573 282.827 195.232 282.176C194.891 281.525 194.72 280.784 194.72 279.952C194.72 279.12 194.891 278.379 195.232 277.728C195.573 277.077 196.048 276.571 196.656 276.208C197.275 275.845 197.973 275.664 198.752 275.664C199.147 275.664 199.584 275.771 200.064 275.984C200.555 276.187 200.965 276.533 201.296 277.024V272.272H203.216V284.176H201.296V282.896C200.965 283.365 200.549 283.707 200.048 283.92C199.557 284.133 199.125 284.24 198.752 284.24ZM196.64 280C196.64 280.821 196.848 281.477 197.264 281.968C197.68 282.459 198.229 282.704 198.912 282.704C199.339 282.704 199.733 282.587 200.096 282.352C200.459 282.107 200.747 281.776 200.96 281.36C201.184 280.944 201.296 280.491 201.296 280C201.296 279.509 201.184 279.056 200.96 278.64C200.747 278.213 200.459 277.877 200.096 277.632C199.733 277.387 199.339 277.264 198.912 277.264C198.229 277.264 197.68 277.515 197.264 278.016C196.848 278.517 196.64 279.179 196.64 280ZM210.818 279.232C210.732 278.688 210.514 278.224 210.161 277.84C209.81 277.445 209.319 277.248 208.69 277.248C208.103 277.248 207.596 277.44 207.17 277.824C206.743 278.208 206.481 278.677 206.385 279.232H210.818ZM204.593 279.952C204.593 279.12 204.764 278.384 205.105 277.744C205.457 277.093 205.943 276.587 206.562 276.224C207.18 275.861 207.884 275.68 208.674 275.68C209.783 275.68 210.599 275.952 211.122 276.496C211.655 277.029 212.018 277.52 212.21 277.968C212.455 278.512 212.578 279.184 212.578 279.984C212.578 280.187 212.572 280.341 212.562 280.448C212.562 280.544 212.562 280.608 212.562 280.64H206.385C206.481 281.216 206.753 281.691 207.201 282.064C207.649 282.437 208.146 282.624 208.69 282.624C209.138 282.624 209.506 282.56 209.793 282.432C210.092 282.293 210.284 282.176 210.37 282.08C210.466 281.973 210.578 281.84 210.706 281.68L212.258 282.336C212.002 282.859 211.569 283.301 210.962 283.664C210.354 284.027 209.591 284.208 208.674 284.208C207.884 284.208 207.18 284.032 206.562 283.68C205.943 283.317 205.457 282.816 205.105 282.176C204.764 281.525 204.593 280.784 204.593 279.952ZM214.84 284.176V277.472H213.304V275.808H214.84V274.976C214.84 274.421 214.963 273.92 215.208 273.472C215.464 273.024 215.811 272.672 216.248 272.416C216.696 272.149 217.198 272.016 217.752 272.016C218.083 272.016 218.424 272.069 218.776 272.176C219.128 272.283 219.406 272.421 219.608 272.592L218.68 273.984C218.424 273.781 218.163 273.68 217.896 273.68C217.8 273.68 217.731 273.685 217.688 273.696C217.411 273.728 217.187 273.861 217.016 274.096C216.846 274.331 216.76 274.624 216.76 274.976V275.808H219.208V277.472H216.76V284.176H214.84ZM224.017 282.672C224.433 282.672 224.817 282.555 225.169 282.32C225.531 282.085 225.819 281.76 226.033 281.344C226.257 280.928 226.369 280.469 226.369 279.968C226.369 279.467 226.257 279.013 226.033 278.608C225.819 278.192 225.531 277.867 225.169 277.632C224.817 277.397 224.433 277.28 224.017 277.28C223.345 277.28 222.801 277.525 222.385 278.016C221.969 278.507 221.761 279.157 221.761 279.968C221.761 280.779 221.969 281.435 222.385 281.936C222.801 282.427 223.345 282.672 224.017 282.672ZM219.841 279.968C219.841 279.147 220.011 278.416 220.353 277.776C220.694 277.125 221.169 276.619 221.777 276.256C222.385 275.893 223.078 275.712 223.857 275.712C224.326 275.712 224.779 275.824 225.217 276.048C225.654 276.272 226.038 276.603 226.369 277.04V275.68H228.289V284.176H226.369V282.912C226.049 283.349 225.665 283.68 225.217 283.904C224.779 284.128 224.326 284.24 223.857 284.24C223.078 284.24 222.385 284.059 221.777 283.696C221.169 283.333 220.694 282.832 220.353 282.192C220.011 281.541 219.841 280.8 219.841 279.968ZM231.907 280.384C231.907 281.056 232.088 281.595 232.451 282C232.814 282.395 233.288 282.592 233.875 282.592C234.494 282.581 234.99 282.363 235.363 281.936C235.747 281.509 235.934 280.96 235.923 280.288V275.68H237.843V284.176H235.923V282.784C235.688 283.189 235.352 283.52 234.915 283.776C234.478 284.032 234.019 284.16 233.539 284.16C232.856 284.16 232.243 284.005 231.699 283.696C231.166 283.387 230.744 282.949 230.435 282.384C230.136 281.819 229.987 281.168 229.987 280.432V275.68H231.907V280.384ZM241.449 272.272V284.176H239.529V272.272H241.449ZM246.428 284.208C245.916 284.208 245.457 284.096 245.052 283.872C244.657 283.637 244.342 283.312 244.108 282.896C243.873 282.48 243.756 282.011 243.756 281.488V277.44H242.268V275.792H243.756V273.408H245.676V275.792H247.804V277.44H245.676V281.408C245.676 281.675 245.745 281.904 245.884 282.096C246.033 282.288 246.214 282.384 246.428 282.384C246.652 282.395 246.945 282.347 247.308 282.24L247.74 284.048C247.292 284.155 246.854 284.208 246.428 284.208Z"/><path fill="#666" d="M578.752 284.24C577.973 284.24 577.275 284.059 576.656 283.696C576.048 283.333 575.573 282.827 575.232 282.176C574.891 281.525 574.72 280.784 574.72 279.952C574.72 279.12 574.891 278.379 575.232 277.728C575.573 277.077 576.048 276.571 576.656 276.208C577.275 275.845 577.973 275.664 578.752 275.664C579.147 275.664 579.584 275.771 580.064 275.984C580.555 276.187 580.965 276.533 581.296 277.024V272.272H583.216V284.176H581.296V282.896C580.965 283.365 580.549 283.707 580.048 283.92C579.557 284.133 579.125 284.24 578.752 284.24ZM576.64 280C576.64 280.821 576.848 281.477 577.264 281.968C577.68 282.459 578.229 282.704 578.912 282.704C579.339 282.704 579.733 282.587 580.096 282.352C580.459 282.107 580.747 281.776 580.96 281.36C581.184 280.944 581.296 280.491 581.296 280C581.296 279.509 581.184 279.056 580.96 278.64C580.747 278.213 580.459 277.877 580.096 277.632C579.733 277.387 579.339 277.264 578.912 277.264C578.229 277.264 577.68 277.515 577.264 278.016C576.848 278.517 576.64 279.179 576.64 280ZM587.274 275.76V284.176H585.354V275.76H587.274ZM585.274 273.072C585.274 272.763 585.37 272.512 585.562 272.32C585.765 272.128 586.015 272.032 586.314 272.032C586.623 272.032 586.874 272.133 587.066 272.336C587.269 272.528 587.37 272.773 587.37 273.072C587.37 273.381 587.269 273.637 587.066 273.84C586.874 274.032 586.623 274.128 586.314 274.128C586.005 274.128 585.754 274.032 585.562 273.84C585.37 273.637 585.274 273.381 585.274 273.072ZM590.358 281.696C590.593 282.016 590.881 282.267 591.222 282.448C591.574 282.619 591.91 282.709 592.23 282.72C592.646 282.72 592.987 282.624 593.254 282.432C593.531 282.24 593.675 281.984 593.686 281.664C593.686 281.451 593.563 281.28 593.318 281.152C593.073 281.013 592.689 280.859 592.166 280.688C591.59 280.496 591.11 280.309 590.726 280.128C590.353 279.947 590.027 279.691 589.75 279.36C589.473 279.029 589.334 278.619 589.334 278.128C589.334 277.637 589.462 277.2 589.718 276.816C589.985 276.432 590.353 276.139 590.822 275.936C591.291 275.723 591.825 275.616 592.422 275.616C592.934 275.616 593.457 275.739 593.99 275.984C594.523 276.229 594.95 276.56 595.27 276.976L593.99 278.048C593.787 277.781 593.537 277.573 593.238 277.424C592.95 277.275 592.673 277.2 592.406 277.2C592.065 277.2 591.787 277.28 591.574 277.44C591.361 277.6 591.254 277.808 591.254 278.064C591.254 278.288 591.377 278.469 591.622 278.608C591.867 278.747 592.262 278.907 592.806 279.088C593.382 279.28 593.857 279.467 594.23 279.648C594.603 279.819 594.923 280.069 595.19 280.4C595.467 280.72 595.606 281.131 595.606 281.632C595.606 282.144 595.467 282.603 595.19 283.008C594.913 283.413 594.523 283.728 594.022 283.952C593.521 284.176 592.95 284.288 592.31 284.288C591.734 284.288 591.142 284.149 590.534 283.872C589.937 283.595 589.446 283.221 589.062 282.752L590.358 281.696ZM601.048 282.672C601.464 282.672 601.848 282.555 602.2 282.32C602.562 282.085 602.85 281.76 603.064 281.344C603.288 280.928 603.4 280.469 603.4 279.968C603.4 279.467 603.288 279.013 603.064 278.608C602.85 278.192 602.562 277.867 602.2 277.632C601.848 277.397 601.464 277.28 601.048 277.28C600.376 277.28 599.832 277.525 599.416 278.016C599 278.507 598.792 279.157 598.792 279.968C598.792 280.779 599 281.435 599.416 281.936C599.832 282.427 600.376 282.672 601.048 282.672ZM596.872 279.968C596.872 279.147 597.042 278.416 597.384 277.776C597.725 277.125 598.2 276.619 598.808 276.256C599.416 275.893 600.109 275.712 600.888 275.712C601.357 275.712 601.81 275.824 602.248 276.048C602.685 276.272 603.069 276.603 603.4 277.04V275.68H605.32V284.176H603.4V282.912C603.08 283.349 602.696 283.68 602.248 283.904C601.81 284.128 601.357 284.24 600.888 284.24C600.109 284.24 599.416 284.059 598.808 283.696C598.2 283.333 597.725 282.832 597.384 282.192C597.042 281.541 596.872 280.8 596.872 279.968ZM611.623 284.24C611.249 284.24 610.817 284.139 610.327 283.936C609.847 283.733 609.436 283.392 609.095 282.912V284.176H607.175V272.272H609.095V277.008C609.436 276.507 609.841 276.16 610.311 275.968C610.791 275.776 611.228 275.68 611.623 275.68C612.401 275.68 613.095 275.861 613.703 276.224C614.321 276.587 614.801 277.093 615.143 277.744C615.495 278.384 615.671 279.12 615.671 279.952C615.671 280.784 615.495 281.525 615.143 282.176C614.801 282.827 614.321 283.333 613.703 283.696C613.095 284.059 612.401 284.24 611.623 284.24ZM609.095 280C609.095 280.491 609.201 280.944 609.415 281.36C609.628 281.776 609.916 282.107 610.279 282.352C610.652 282.587 611.052 282.704 611.479 282.704C612.161 282.704 612.711 282.459 613.127 281.968C613.543 281.467 613.751 280.811 613.751 280C613.751 279.179 613.543 278.523 613.127 278.032C612.711 277.531 612.161 277.28 611.479 277.28C611.052 277.28 610.652 277.403 610.279 277.648C609.916 277.893 609.628 278.224 609.415 278.64C609.201 279.056 609.095 279.509 609.095 280ZM618.808 272.272V284.176H616.888V272.272H618.808ZM626.279 279.232C626.193 278.688 625.975 278.224 625.623 277.84C625.271 277.445 624.78 277.248 624.151 277.248C623.564 277.248 623.057 277.44 622.631 277.824C622.204 278.208 621.943 278.677 621.847 279.232H626.279ZM620.055 279.952C620.055 279.12 620.225 278.384 620.567 277.744C620.919 277.093 621.404 276.587 622.023 276.224C622.641 275.861 623.345 275.68 624.135 275.68C625.244 275.68 626.06 275.952 626.583 276.496C627.116 277.029 627.479 277.52 627.671 277.968C627.916 278.512 628.039 279.184 628.039 279.984C628.039 280.187 628.033 280.341 628.023 280.448C628.023 280.544 628.023 280.608 628.023 280.64H621.847C621.943 281.216 622.215 281.691 622.663 282.064C623.111 282.437 623.607 282.624 624.151 282.624C624.599 282.624 624.967 282.56 625.255 282.432C625.553 282.293 625.745 282.176 625.831 282.08C625.927 281.973 626.039 281.84 626.167 281.68L627.719 282.336C627.463 282.859 627.031 283.301 626.423 283.664C625.815 284.027 625.052 284.208 624.135 284.208C623.345 284.208 622.641 284.032 622.023 283.68C621.404 283.317 620.919 282.816 620.567 282.176C620.225 281.525 620.055 280.784 620.055 279.952ZM633.335 284.24C632.557 284.24 631.858 284.059 631.239 283.696C630.631 283.333 630.157 282.827 629.815 282.176C629.474 281.525 629.303 280.784 629.303 279.952C629.303 279.12 629.474 278.379 629.815 277.728C630.157 277.077 630.631 276.571 631.239 276.208C631.858 275.845 632.557 275.664 633.335 275.664C633.73 275.664 634.167 275.771 634.647 275.984C635.138 276.187 635.549 276.533 635.879 277.024V272.272H637.799V284.176H635.879V282.896C635.549 283.365 635.133 283.707 634.631 283.92C634.141 284.133 633.709 284.24 633.335 284.24ZM631.223 280C631.223 280.821 631.431 281.477 631.847 281.968C632.263 282.459 632.813 282.704 633.495 282.704C633.922 282.704 634.317 282.587 634.679 282.352C635.042 282.107 635.33 281.776 635.543 281.36C635.767 280.944 635.879 280.491 635.879 280C635.879 279.509 635.767 279.056 635.543 278.64C635.33 278.213 635.042 277.877 634.679 277.632C634.317 277.387 633.922 277.264 633.495 277.264C632.813 277.264 632.263 277.515 631.847 278.016C631.431 278.517 631.223 279.179 631.223 280Z"/><path fill="#222" d="M82.484 89.612H93.536C94.952 89.612 96.212 89.924 97.316 90.548C98.444 91.172 99.32 92.036 99.944 93.14C100.568 94.244 100.88 95.492 100.88 96.884C100.88 97.748 100.652 98.648 100.196 99.584C99.764 100.52 99.2 101.324 98.504 101.996C98.576 102.044 98.66 102.104 98.756 102.176C98.876 102.224 98.996 102.296 99.116 102.392C100.124 103.064 100.94 103.988 101.564 105.164C102.212 106.316 102.536 107.492 102.536 108.692C102.536 110.18 102.224 111.512 101.6 112.688C100.976 113.84 100.1 114.752 98.972 115.424C97.868 116.072 96.608 116.396 95.192 116.396H82.484V89.612ZM94.58 112.652C95.684 112.652 96.572 112.304 97.244 111.608C97.916 110.888 98.252 109.928 98.252 108.728C98.252 107.456 97.916 106.436 97.244 105.668C96.572 104.876 95.684 104.48 94.58 104.48H86.804V112.652H94.58ZM93.392 100.772C94.376 100.724 95.156 100.376 95.732 99.728C96.332 99.08 96.632 98.228 96.632 97.172C96.632 96.02 96.296 95.096 95.624 94.4C94.976 93.704 94.124 93.356 93.068 93.356H86.804V100.772H93.392ZM110.285 107.864C110.285 109.376 110.693 110.588 111.509 111.5C112.325 112.388 113.393 112.832 114.713 112.832C116.105 112.808 117.221 112.316 118.061 111.356C118.925 110.396 119.345 109.16 119.321 107.648V97.28H123.641V116.396H119.321V113.264C118.793 114.176 118.037 114.92 117.053 115.496C116.069 116.072 115.037 116.36 113.957 116.36C112.421 116.36 111.041 116.012 109.817 115.316C108.617 114.62 107.669 113.636 106.973 112.364C106.301 111.092 105.965 109.628 105.965 107.972V97.28H110.285V107.864ZM136.002 116.468C134.85 116.468 133.818 116.216 132.906 115.712C132.018 115.184 131.31 114.452 130.782 113.516C130.254 112.58 129.99 111.524 129.99 110.348V101.24H126.642V97.532H129.99V92.168H134.31V97.532H139.098V101.24H134.31V110.168C134.31 110.768 134.466 111.284 134.778 111.716C135.114 112.148 135.522 112.364 136.002 112.364C136.506 112.388 137.166 112.28 137.982 112.04L138.954 116.108C137.946 116.348 136.962 116.468 136.002 116.468ZM149.009 116.468C147.857 116.468 146.825 116.216 145.913 115.712C145.025 115.184 144.317 114.452 143.789 113.516C143.261 112.58 142.997 111.524 142.997 110.348V101.24H139.649V97.532H142.997V92.168H147.317V97.532H152.105V101.24H147.317V110.168C147.317 110.768 147.473 111.284 147.785 111.716C148.121 112.148 148.529 112.364 149.009 112.364C149.513 112.388 150.173 112.28 150.989 112.04L151.961 116.108C150.953 116.348 149.969 116.468 149.009 116.468ZM163.856 112.94C165.344 112.94 166.532 112.388 167.42 111.284C168.332 110.18 168.788 108.716 168.788 106.892C168.788 105.068 168.332 103.604 167.42 102.5C166.532 101.372 165.344 100.808 163.856 100.808C162.368 100.808 161.168 101.372 160.256 102.5C159.368 103.604 158.924 105.068 158.924 106.892C158.924 108.716 159.368 110.18 160.256 111.284C161.168 112.388 162.368 112.94 163.856 112.94ZM154.604 106.892C154.604 105.02 154.988 103.364 155.756 101.924C156.548 100.46 157.64 99.32 159.032 98.504C160.448 97.688 162.056 97.28 163.856 97.28C165.656 97.28 167.252 97.688 168.644 98.504C170.06 99.32 171.152 100.46 171.92 101.924C172.712 103.364 173.108 105.02 173.108 106.892C173.108 108.764 172.712 110.432 171.92 111.896C171.152 113.336 170.06 114.464 168.644 115.28C167.252 116.096 165.656 116.504 163.856 116.504C162.056 116.504 160.448 116.096 159.032 115.28C157.64 114.464 156.548 113.336 155.756 111.896C154.988 110.432 154.604 108.764 154.604 106.892ZM189.668 106.1C189.668 104.468 189.284 103.196 188.516 102.284C187.748 101.372 186.656 100.916 185.24 100.916C184.376 100.916 183.584 101.132 182.864 101.564C182.168 101.996 181.616 102.608 181.208 103.4C180.8 104.192 180.608 105.092 180.632 106.1V116.396H176.312V97.28H180.632V100.484C181.184 99.572 181.952 98.828 182.936 98.252C183.944 97.676 184.964 97.388 185.996 97.388C187.244 97.388 188.468 97.664 189.668 98.216C190.892 98.768 191.912 99.692 192.728 100.988C193.568 102.284 193.988 103.952 193.988 105.992V116.396H189.668V106.1ZM200.238 110.816C200.766 111.536 201.414 112.1 202.182 112.508C202.974 112.892 203.73 113.096 204.45 113.12C205.386 113.12 206.154 112.904 206.754 112.472C207.378 112.04 207.702 111.464 207.726 110.744C207.726 110.264 207.45 109.88 206.898 109.592C206.346 109.28 205.482 108.932 204.306 108.548C203.01 108.116 201.93 107.696 201.066 107.288C200.226 106.88 199.494 106.304 198.87 105.56C198.246 104.816 197.934 103.892 197.934 102.788C197.934 101.684 198.222 100.7 198.798 99.836C199.398 98.972 200.226 98.312 201.282 97.856C202.338 97.376 203.538 97.136 204.882 97.136C206.034 97.136 207.21 97.412 208.41 97.964C209.61 98.516 210.57 99.26 211.29 100.196L208.41 102.608C207.954 102.008 207.39 101.54 206.718 101.204C206.07 100.868 205.446 100.7 204.846 100.7C204.078 100.7 203.454 100.88 202.974 101.24C202.494 101.6 202.254 102.068 202.254 102.644C202.254 103.148 202.53 103.556 203.082 103.868C203.634 104.18 204.522 104.54 205.746 104.948C207.042 105.38 208.11 105.8 208.95 106.208C209.79 106.592 210.51 107.156 211.11 107.9C211.734 108.62 212.046 109.544 212.046 110.672C212.046 111.824 211.734 112.856 211.11 113.768C210.486 114.68 209.61 115.388 208.482 115.892C207.354 116.396 206.07 116.648 204.63 116.648C203.334 116.648 202.002 116.336 200.634 115.712C199.29 115.088 198.186 114.248 197.322 113.192L200.238 110.816Z"/><path stroke="#A8A8A8" d="M80 157H878"/><path fill="#222" d="M84.512 218.768H93.152V221.264H81.632V203.408H84.512V218.768ZM100.235 219.008C100.859 219.008 101.435 218.832 101.963 218.48C102.507 218.128 102.939 217.64 103.259 217.016C103.595 216.392 103.763 215.704 103.763 214.952C103.763 214.2 103.595 213.52 103.259 212.912C102.939 212.288 102.507 211.8 101.963 211.448C101.435 211.096 100.859 210.92 100.235 210.92C99.2266 210.92 98.4106 211.288 97.7866 212.024C97.1626 212.76 96.8506 213.736 96.8506 214.952C96.8506 216.168 97.1626 217.152 97.7866 217.904C98.4106 218.64 99.2266 219.008 100.235 219.008ZM93.9706 214.952C93.9706 213.72 94.2266 212.624 94.7386 211.664C95.2506 210.688 95.9626 209.928 96.8746 209.384C97.7866 208.84 98.8266 208.568 99.9946 208.568C100.699 208.568 101.379 208.736 102.035 209.072C102.691 209.408 103.267 209.904 103.763 210.56V208.52H106.643V221.264H103.763V219.368C103.283 220.024 102.707 220.52 102.035 220.856C101.379 221.192 100.699 221.36 99.9946 221.36C98.8266 221.36 97.7866 221.088 96.8746 220.544C95.9626 220 95.2506 219.248 94.7386 218.288C94.2266 217.312 93.9706 216.2 93.9706 214.952ZM112.186 210.824C112.538 210.136 113.066 209.576 113.77 209.144C114.49 208.712 115.242 208.496 116.026 208.496V211.064C115.29 211.064 114.626 211.264 114.034 211.664C113.458 212.048 113.002 212.552 112.666 213.176C112.346 213.784 112.186 214.4 112.186 215.024V221.264H109.33V208.52H112.186V210.824ZM123.133 218.96C123.821 218.96 124.429 218.776 124.957 218.408C125.501 218.04 125.925 217.552 126.229 216.944C126.533 216.32 126.685 215.64 126.685 214.904C126.685 214.2 126.533 213.544 126.229 212.936C125.925 212.312 125.501 211.816 124.957 211.448C124.413 211.08 123.805 210.896 123.133 210.896C122.125 210.896 121.309 211.264 120.685 212C120.077 212.736 119.773 213.704 119.773 214.904C119.773 216.12 120.077 217.104 120.685 217.856C121.309 218.592 122.125 218.96 123.133 218.96ZM116.893 214.928C116.893 213.696 117.149 212.6 117.661 211.64C118.173 210.664 118.885 209.912 119.797 209.384C120.709 208.84 121.749 208.568 122.917 208.568C123.605 208.568 124.293 208.728 124.981 209.048C125.685 209.368 126.253 209.856 126.685 210.512V208.52H129.565V220.424C129.549 221.624 129.285 222.696 128.773 223.64C128.261 224.6 127.517 225.344 126.541 225.872C125.581 226.416 124.453 226.688 123.157 226.688C122.021 226.688 120.973 226.456 120.013 225.992C119.069 225.528 118.301 224.824 117.709 223.88L119.941 222.344C120.421 223 120.901 223.472 121.381 223.76C121.877 224.064 122.469 224.216 123.157 224.216C124.261 224.216 125.125 223.888 125.749 223.232C126.373 222.592 126.685 221.776 126.685 220.784V219.296C126.173 219.984 125.573 220.496 124.885 220.832C124.213 221.168 123.557 221.336 122.917 221.336C121.749 221.336 120.709 221.064 119.797 220.52C118.885 219.976 118.173 219.216 117.661 218.24C117.149 217.264 116.893 216.16 116.893 214.928ZM140.807 213.848C140.679 213.032 140.351 212.336 139.823 211.76C139.295 211.168 138.559 210.872 137.615 210.872C136.735 210.872 135.975 211.16 135.335 211.736C134.695 212.312 134.303 213.016 134.159 213.848H140.807ZM131.471 214.928C131.471 213.68 131.727 212.576 132.239 211.616C132.767 210.64 133.495 209.88 134.423 209.336C135.351 208.792 136.407 208.52 137.591 208.52C139.255 208.52 140.479 208.928 141.263 209.744C142.063 210.544 142.607 211.28 142.895 211.952C143.263 212.768 143.447 213.776 143.447 214.976C143.447 215.28 143.439 215.512 143.423 215.672C143.423 215.816 143.423 215.912 143.423 215.96H134.159C134.303 216.824 134.711 217.536 135.383 218.096C136.055 218.656 136.799 218.936 137.615 218.936C138.287 218.936 138.839 218.84 139.271 218.648C139.719 218.44 140.007 218.264 140.135 218.12C140.279 217.96 140.447 217.76 140.639 217.52L142.967 218.504C142.583 219.288 141.935 219.952 141.023 220.496C140.111 221.04 138.967 221.312 137.591 221.312C136.407 221.312 135.351 221.048 134.423 220.52C133.495 219.976 132.767 219.224 132.239 218.264C131.727 217.288 131.471 216.176 131.471 214.928ZM151.875 203.408H159.243C160.187 203.408 161.027 203.616 161.763 204.032C162.515 204.448 163.099 205.024 163.515 205.76C163.931 206.496 164.139 207.328 164.139 208.256C164.139 208.832 163.987 209.432 163.683 210.056C163.395 210.68 163.019 211.216 162.555 211.664C162.603 211.696 162.659 211.736 162.723 211.784C162.803 211.816 162.883 211.864 162.963 211.928C163.635 212.376 164.179 212.992 164.595 213.776C165.027 214.544 165.243 215.328 165.243 216.128C165.243 217.12 165.035 218.008 164.619 218.792C164.203 219.56 163.619 220.168 162.867 220.616C162.131 221.048 161.291 221.264 160.347 221.264H151.875V203.408ZM159.939 218.768C160.675 218.768 161.267 218.536 161.715 218.072C162.163 217.592 162.387 216.952 162.387 216.152C162.387 215.304 162.163 214.624 161.715 214.112C161.267 213.584 160.675 213.32 159.939 213.32H154.755V218.768H159.939ZM159.147 210.848C159.803 210.816 160.323 210.584 160.707 210.152C161.107 209.72 161.307 209.152 161.307 208.448C161.307 207.68 161.083 207.064 160.635 206.6C160.203 206.136 159.635 205.904 158.931 205.904H154.755V210.848H159.147ZM170.409 215.576C170.409 216.584 170.681 217.392 171.225 218C171.769 218.592 172.481 218.888 173.361 218.888C174.289 218.872 175.033 218.544 175.593 217.904C176.169 217.264 176.449 216.44 176.433 215.432V208.52H179.313V221.264H176.433V219.176C176.081 219.784 175.577 220.28 174.921 220.664C174.265 221.048 173.577 221.24 172.857 221.24C171.833 221.24 170.913 221.008 170.097 220.544C169.297 220.08 168.665 219.424 168.201 218.576C167.753 217.728 167.529 216.752 167.529 215.648V208.52H170.409V215.576ZM187.553 221.312C186.785 221.312 186.097 221.144 185.489 220.808C184.897 220.456 184.425 219.968 184.073 219.344C183.721 218.72 183.545 218.016 183.545 217.232V211.16H181.313V208.688H183.545V205.112H186.425V208.688H189.617V211.16H186.425V217.112C186.425 217.512 186.529 217.856 186.737 218.144C186.961 218.432 187.233 218.576 187.553 218.576C187.889 218.592 188.329 218.52 188.873 218.36L189.521 221.072C188.849 221.232 188.193 221.312 187.553 221.312ZM196.225 221.312C195.457 221.312 194.769 221.144 194.161 220.808C193.569 220.456 193.097 219.968 192.745 219.344C192.393 218.72 192.217 218.016 192.217 217.232V211.16H189.985V208.688H192.217V205.112H195.097V208.688H198.289V211.16H195.097V217.112C195.097 217.512 195.201 217.856 195.409 218.144C195.633 218.432 195.905 218.576 196.225 218.576C196.561 218.592 197.001 218.52 197.545 218.36L198.193 221.072C197.521 221.232 196.865 221.312 196.225 221.312ZM206.123 218.96C207.115 218.96 207.907 218.592 208.499 217.856C209.107 217.12 209.411 216.144 209.411 214.928C209.411 213.712 209.107 212.736 208.499 212C207.907 211.248 207.115 210.872 206.123 210.872C205.131 210.872 204.331 211.248 203.723 212C203.131 212.736 202.835 213.712 202.835 214.928C202.835 216.144 203.131 217.12 203.723 217.856C204.331 218.592 205.131 218.96 206.123 218.96ZM199.955 214.928C199.955 213.68 200.211 212.576 200.723 211.616C201.251 210.64 201.979 209.88 202.907 209.336C203.851 208.792 204.923 208.52 206.123 208.52C207.323 208.52 208.387 208.792 209.315 209.336C210.259 209.88 210.987 210.64 211.499 211.616C212.027 212.576 212.291 213.68 212.291 214.928C212.291 216.176 212.027 217.288 211.499 218.264C210.987 219.224 210.259 219.976 209.315 220.52C208.387 221.064 207.323 221.336 206.123 221.336C204.923 221.336 203.851 221.064 202.907 220.52C201.979 219.976 201.251 219.224 200.723 218.264C200.211 217.288 199.955 216.176 199.955 214.928ZM223.331 214.4C223.331 213.312 223.075 212.464 222.563 211.856C222.051 211.248 221.323 210.944 220.379 210.944C219.803 210.944 219.275 211.088 218.795 211.376C218.331 211.664 217.963 212.072 217.691 212.6C217.419 213.128 217.291 213.728 217.307 214.4V221.264H214.427V208.52H217.307V210.656C217.675 210.048 218.187 209.552 218.843 209.168C219.515 208.784 220.195 208.592 220.883 208.592C221.715 208.592 222.531 208.776 223.331 209.144C224.147 209.512 224.827 210.128 225.371 210.992C225.931 211.856 226.211 212.968 226.211 214.328V221.264H223.331V214.4ZM230.377 217.544C230.729 218.024 231.161 218.4 231.673 218.672C232.201 218.928 232.705 219.064 233.185 219.08C233.809 219.08 234.321 218.936 234.721 218.648C235.137 218.36 235.353 217.976 235.369 217.496C235.369 217.176 235.185 216.92 234.817 216.728C234.449 216.52 233.873 216.288 233.089 216.032C232.225 215.744 231.505 215.464 230.929 215.192C230.369 214.92 229.881 214.536 229.465 214.04C229.049 213.544 228.841 212.928 228.841 212.192C228.841 211.456 229.033 210.8 229.417 210.224C229.817 209.648 230.369 209.208 231.073 208.904C231.777 208.584 232.577 208.424 233.473 208.424C234.241 208.424 235.025 208.608 235.825 208.976C236.625 209.344 237.265 209.84 237.745 210.464L235.825 212.072C235.521 211.672 235.145 211.36 234.697 211.136C234.265 210.912 233.849 210.8 233.449 210.8C232.937 210.8 232.521 210.92 232.201 211.16C231.881 211.4 231.721 211.712 231.721 212.096C231.721 212.432 231.905 212.704 232.273 212.912C232.641 213.12 233.233 213.36 234.049 213.632C234.913 213.92 235.625 214.2 236.185 214.472C236.745 214.728 237.225 215.104 237.625 215.6C238.041 216.08 238.249 216.696 238.249 217.448C238.249 218.216 238.041 218.904 237.625 219.512C237.209 220.12 236.625 220.592 235.873 220.928C235.121 221.264 234.265 221.432 233.305 221.432C232.441 221.432 231.553 221.224 230.641 220.808C229.745 220.392 229.009 219.832 228.433 219.128L230.377 217.544Z"/></svg>