<svg width="218" height="226" viewBox="0 0 218 226" fill="none" xmlns="http://www.w3.org/2000/svg">
    <g clip-path="url(#clip0_212_39)">
        <path
            d="M195.028 138.608C196.218 137.453 197.303 136.193 198.268 134.844C211.442 117.06 218.066 95.2691 217.017 73.1617C216.71 67.0674 215.71 60.7457 212.162 55.7883C209.933 52.6617 206.033 50.0921 202.407 51.3199C200.769 51.8769 199.45 53.1165 198.268 54.3783C192.827 60.2089 188.862 67.2578 186.705 74.9352C186.557 75.4696 186.307 75.9927 186.125 76.5154"
            fill="#FFE69F"/>
        <path
            d="M195.029 139.484C195.249 139.485 195.462 139.4 195.62 139.245C196.849 138.056 197.968 136.758 198.963 135.368C212.107 117.756 218.997 95.0612 217.882 73.1173C217.61 67.6939 216.791 60.7695 212.868 55.2779C210.458 51.901 206.194 49.1154 202.112 50.4911C200.292 51.1051 198.872 52.4352 197.621 53.7883C192.089 59.7209 188.054 66.8897 185.853 74.6975C185.774 74.9703 185.66 75.2545 185.546 75.5502C185.455 75.7776 185.364 76.005 185.285 76.2325C185.246 76.3418 185.229 76.4578 185.236 76.5736C185.242 76.6895 185.271 76.8029 185.322 76.9074C185.372 77.0119 185.443 77.1053 185.53 77.1823C185.616 77.2593 185.718 77.3183 185.827 77.3559C185.937 77.3935 186.053 77.4089 186.169 77.4013C186.285 77.3937 186.398 77.3632 186.502 77.3116C186.606 77.26 186.699 77.1883 186.775 77.1006C186.851 77.0129 186.908 76.9111 186.945 76.8009C187.013 76.5963 187.093 76.4028 187.172 76.1982C187.314 75.8647 187.435 75.523 187.536 75.1749C189.664 67.6372 193.558 60.7151 198.895 54.9819C199.997 53.7994 201.214 52.6397 202.669 52.1509C205.899 51.0595 209.4 53.447 211.436 56.3008C215.097 61.4172 215.859 68.0231 216.132 73.208C217.223 94.7541 210.458 117.027 197.555 134.321C196.62 135.623 195.574 136.84 194.428 137.96C194.258 138.118 194.158 138.338 194.15 138.57C194.141 138.802 194.225 139.028 194.383 139.199C194.464 139.287 194.563 139.357 194.672 139.406C194.781 139.455 194.9 139.481 195.019 139.483L195.029 139.484Z"
            fill="black"/>
        <path
            d="M190.8 80.2568L174.61 76.0508L64.2303 86.6702L46.7547 92.9345L33.8046 111.479L16.1016 171.422L17.4902 175.481H55.8963L198.998 113.06L190.8 80.2568Z"
            fill="#FFE69F"/>
        <path
            d="M81.0452 212.217C80.761 214.707 79.7035 218.948 78.612 221.199C78.089 222.291 77.4524 223.359 76.4973 224.076C74.8713 225.315 72.677 225.315 70.6533 225.27C69.6754 225.247 68.6635 225.213 67.7525 224.826C66.5361 224.292 65.6717 223.177 64.8873 222.086C62.1255 218.255 59.6478 214.227 57.4741 210.034C57.3589 209.784 57.2298 209.541 57.0875 209.306C56.4131 208.132 55.93 206.858 55.6562 205.531"
            fill="#FF6B00"/>
        <path
            d="M161.556 207.021C160.442 209.931 159.51 212.387 158.395 215.298C157.633 217.299 155.791 221.585 154.473 223.268C152.471 225.826 151.892 225.223 148.651 225.201C148.003 225.201 145.75 225.03 145.172 224.769C143.796 224.143 143.125 222.609 142.636 221.176C141.557 217.991 140.828 214.697 140.465 211.353"
            fill="#FF6B00"/>
        <path
            d="M55.373 92.9351C57.4196 75.6187 57.4878 74.3795 62.3428 57.6327C67.1978 40.886 75.0087 24.6713 87.2087 12.2088C91.9159 7.39942 95.4634 5.25043 98.7946 3.79513C105.8 0.725306 112.37 0.827448 117.93 0.918482C119.988 0.952735 126.196 1.14591 132.597 2.77185C151.436 7.58087 163.615 22.7596 165.832 25.6024C173.904 35.9832 177.088 47.0575 183.467 69.1946C184.968 74.4134 186.059 78.7916 186.775 81.8266"
            fill="#FFE69F"/>
        <path
            d="M55.3725 93.8106C55.5862 93.81 55.7923 93.731 55.9516 93.5885C56.1109 93.446 56.2123 93.25 56.2366 93.0376L56.3958 91.649C58.2717 75.7537 58.4652 74.0938 63.1724 57.8803C68.5958 39.154 76.8958 23.9975 87.8223 12.8328C92.7683 7.78461 96.3155 5.8402 99.1354 4.61233C105.969 1.62213 112.302 1.72427 117.907 1.80419C120.808 1.84956 126.547 2.14518 132.37 3.63473C150.016 8.13732 161.909 22.0086 165.126 26.1471C173.097 36.4027 176.28 47.443 182.613 69.4437C183.807 73.5935 184.922 77.8348 185.911 82.0303C185.966 82.255 186.109 82.4485 186.306 82.5687C186.504 82.6889 186.741 82.7261 186.966 82.6721C187.192 82.6181 187.386 82.4773 187.508 82.2804C187.63 82.0836 187.669 81.8466 187.616 81.6211C186.616 77.3916 185.501 73.1279 184.296 68.9438C177.906 46.7255 174.699 35.5732 166.513 25.0559C163.205 20.8042 150.993 6.55767 132.813 1.91868C126.81 0.383767 120.92 0.0767231 117.941 0.0313608C112.448 -0.0596723 105.616 -0.161815 98.4417 2.98762C95.4629 4.2948 91.7336 6.33147 86.583 11.5947C75.4517 22.9643 67.0038 38.3708 61.5007 57.3813C56.7596 73.7426 56.5664 75.4139 54.6674 91.4342L54.5082 92.8228C54.4806 93.0533 54.5452 93.2854 54.6879 93.4685C54.8306 93.6517 55.0398 93.7711 55.2701 93.8007H55.3725V93.8106Z"
            fill="black"/>
        <path
            d="M121.989 64.6011C121.41 65.7154 121.25 67.1365 121.921 68.194C122.177 68.596 122.535 68.9233 122.958 69.1428C123.382 69.3624 123.855 69.4665 124.332 69.4446C124.808 69.4227 125.27 69.2755 125.671 69.018C126.072 68.7606 126.399 68.4018 126.617 67.978C127.163 66.9093 126.947 65.613 126.537 64.4875C125.355 61.2242 123.445 61.8028 121.989 64.59V64.6011Z"
            fill="black"/>
        <path
            d="M121.638 68.3761C120.83 67.0911 121.137 65.5109 121.683 64.4422C122.558 62.7595 123.593 61.8612 124.594 61.9294C125.23 61.9748 126.14 62.4296 126.846 64.374C127.392 65.8861 127.415 67.1482 126.914 68.1388C126.666 68.6131 126.299 69.0146 125.848 69.3037C125.397 69.5928 124.879 69.7595 124.345 69.7876H124.208C123.694 69.783 123.189 69.6508 122.738 69.4027C122.288 69.1546 121.906 68.7984 121.627 68.3662L121.638 68.3761ZM122.286 64.7604C121.819 65.6587 121.547 66.9776 122.206 68.0237C122.428 68.377 122.74 68.6651 123.11 68.8588C123.48 69.0525 123.894 69.1448 124.311 69.1263C124.728 69.1078 125.133 68.9791 125.484 68.7535C125.835 68.5279 126.12 68.2132 126.31 67.8416C126.731 67.0344 126.697 65.9429 126.208 64.624C125.753 63.3733 125.162 62.6685 124.548 62.6228H124.491C123.797 62.6228 123.001 63.3961 122.285 64.7718L122.286 64.7604Z"
            fill="black"/>
        <path
            d="M145.251 64.6011C144.671 65.7154 144.512 67.1365 145.183 68.194C145.439 68.596 145.797 68.9233 146.22 69.1428C146.643 69.3624 147.117 69.4665 147.593 69.4446C148.07 69.4227 148.532 69.2755 148.933 69.018C149.334 68.7606 149.66 68.4018 149.879 67.978C150.425 66.9093 150.208 65.613 149.799 64.4875C148.617 61.2242 146.706 61.8028 145.251 64.59V64.6011Z"
            fill="black"/>
        <path
            d="M144.897 68.3763C144.09 67.0916 144.397 65.5111 144.943 64.4424C145.818 62.7597 146.853 61.8503 147.853 61.9296C148.49 61.975 149.4 62.4298 150.106 64.3742C150.652 65.8863 150.674 67.1484 150.174 68.139C149.926 68.6133 149.558 69.0147 149.108 69.3038C148.657 69.593 148.139 69.7597 147.605 69.7878H147.468C146.954 69.7832 146.449 69.651 145.998 69.4029C145.548 69.1548 145.166 68.7986 144.887 68.3664L144.897 68.3763ZM145.545 64.7606C145.079 65.6589 144.806 66.9778 145.466 68.0239C145.688 68.3772 146 68.6653 146.37 68.859C146.739 69.0527 147.154 69.1449 147.571 69.1264C147.988 69.108 148.392 68.9793 148.744 68.7537C149.095 68.528 149.38 68.2134 149.57 67.8418C149.991 67.0345 149.957 65.9431 149.467 64.6242C149.013 63.3735 148.421 62.6687 147.808 62.623H147.751C147.057 62.623 146.261 63.396 145.534 64.772L145.545 64.7606Z"
            fill="black"/>
        <path
            d="M127.197 79.4728C129.71 78.9044 132.314 78.7905 134.906 78.6998C144.957 78.3474 155.031 78.427 165.071 78.9272C170.79 79.2114 176.623 79.6549 181.887 81.6789C187.151 83.7029 191.823 87.5686 193.075 92.5371C193.507 94.2541 193.495 96.1186 192.666 97.7106C191.426 100.087 188.618 101.475 185.877 102.418C177.315 105.374 167.912 105.534 158.737 105.658C149.527 105.783 140.227 105.897 131.211 104.191C125.163 103.043 114.474 99.655 113.066 93.2648C111.702 87.0569 121.525 80.7577 127.188 79.4845L127.197 79.4728Z"
            fill="#FF6B00"/>
        <path
            d="M107.163 25.193C102.274 24.9199 97.6122 22.9196 94.3831 19.7125C94.2224 19.5474 94.1332 19.3257 94.1348 19.0953C94.1363 18.8649 94.2285 18.6444 94.3915 18.4815C94.5544 18.3186 94.7749 18.2264 95.0052 18.2248C95.2356 18.2233 95.4573 18.3125 95.6224 18.4732C98.5558 21.3838 102.797 23.2032 107.265 23.4532C111.415 23.6806 115.77 22.6345 119.829 20.4173C122.49 18.9734 124.32 17.3006 125.298 15.449C124.186 14.9032 123.131 14.2482 122.148 13.4935C121.25 12.7998 119.988 11.7198 119.34 10.1848C118.956 9.3847 118.903 8.46567 119.192 7.62666C119.806 6.08033 121.717 5.58999 123.194 5.93252C123.959 6.12093 124.675 6.46705 125.298 6.94867C125.921 7.43029 126.437 8.03678 126.811 8.72924C127.802 10.4884 128.067 12.5648 127.55 14.5165C131.216 15.9546 135.248 16.17 139.045 15.1306C142.126 14.2665 144.525 12.6063 145.799 10.4687C147.254 8.03554 147.05 4.87468 145.322 3.12438C145.161 2.95929 145.072 2.73756 145.073 2.50719C145.075 2.27681 145.167 2.05631 145.33 1.89341C145.493 1.7305 145.713 1.63829 145.944 1.63674C146.174 1.63518 146.396 1.7244 146.561 1.88509C148.823 4.19332 149.142 8.26358 147.3 11.3562C145.799 13.8805 143.036 15.8132 139.512 16.8025C135.345 17.9391 130.922 17.6998 126.902 16.1202C125.765 18.326 123.685 20.2815 120.66 21.9189C116.91 24.0204 112.691 25.1464 108.392 25.1933C107.983 25.1933 107.573 25.1933 107.164 25.159L107.163 25.193ZM120.83 8.26173C120.723 8.67275 120.767 9.10859 120.955 9.4896C121.318 10.3651 122.035 11.1837 123.217 12.0817C124.069 12.7267 124.974 13.2973 125.923 13.7873C126.233 12.3589 126.01 10.8667 125.298 9.59051C125.044 9.10656 124.691 8.68139 124.262 8.34255C123.833 8.00372 123.338 7.75877 122.808 7.62357C122.625 7.58165 122.438 7.56258 122.251 7.56679C121.626 7.56679 121.012 7.79422 120.83 8.2605V8.26173Z"
            fill="#FF8800"/>
        <path
            d="M190.538 104.316C192.745 115.38 194.038 126.606 194.403 137.881C194.847 151.56 193.857 165.51 188.98 178.29C184.102 191.07 174.927 202.645 162.408 208.17C154.688 211.582 146.149 212.559 137.736 213.298C116.258 215.208 94.382 215.834 73.3478 211.07C52.3135 206.317 32.0067 195.697 18.9769 178.517C17.7764 176.882 16.8968 175.034 16.3848 173.071"
            fill="#FFE69F"/>
        <path
            d="M109.493 215.604C119.396 215.604 128.969 214.956 137.827 214.171C146.502 213.398 154.938 212.42 162.772 208.975C174.574 203.768 184.42 192.705 189.81 178.606C194.085 167.407 195.825 154.468 195.29 137.857C194.923 126.535 193.623 115.264 191.402 104.156C191.379 104.043 191.334 103.936 191.269 103.84C191.205 103.745 191.122 103.663 191.026 103.599C190.93 103.536 190.822 103.492 190.709 103.47C190.596 103.448 190.48 103.449 190.367 103.472C190.254 103.495 190.147 103.54 190.051 103.605C189.956 103.67 189.874 103.753 189.811 103.849C189.748 103.945 189.704 104.053 189.682 104.166C189.661 104.279 189.661 104.396 189.685 104.508C191.883 115.523 193.172 126.699 193.539 137.925C194.062 154.297 192.357 167.02 188.172 177.992C182.954 191.648 173.437 202.358 162.066 207.384C154.482 210.726 146.205 211.681 137.677 212.444C118.371 214.161 95.6541 215.23 73.5624 210.239C50.6634 205.054 31.5279 193.616 19.6918 178.005C18.5537 176.461 17.7237 174.712 17.2471 172.854C17.1853 172.63 17.0367 172.439 16.8342 172.324C16.6316 172.208 16.3916 172.179 16.1669 172.24C15.9423 172.302 15.7514 172.451 15.6362 172.653C15.5211 172.856 15.4912 173.096 15.553 173.321C16.0954 175.39 17.0252 177.339 18.2932 179.062C30.3815 194.99 49.8688 206.668 73.1659 211.944C85.3202 214.695 97.6454 215.628 109.481 215.628L109.493 215.604Z"
            fill="black"/>
        <path
            d="M5.54991 136.277C3.07506 125.236 4.49716 113.678 9.57481 103.567C10.9257 100.779 12.6675 98.1979 14.7477 95.9022C19.5345 90.7744 26.5048 87.7842 33.6332 86.9427C40.7507 86.1012 48.0161 87.2837 54.7927 89.5237"
            fill="#FFE69F"/>
        <path
            d="M5.54928 137.152C5.61451 137.156 5.67987 137.148 5.74245 137.129C5.96764 137.076 6.16298 136.937 6.28634 136.741C6.40971 136.546 6.45121 136.309 6.4019 136.083C3.95605 125.242 5.35533 113.887 10.3601 103.963C11.6748 101.249 13.3662 98.7343 15.3843 96.4932C19.797 91.7631 26.3107 88.6819 33.7239 87.8064C40.1024 87.0559 47.0949 87.9089 54.5081 90.3418C54.7282 90.4142 54.9681 90.3962 55.1749 90.2917C55.3818 90.1872 55.5386 90.0049 55.611 89.7848C55.6834 89.5647 55.6654 89.3248 55.5609 89.118C55.4565 88.9111 55.2741 88.7543 55.054 88.6819C47.4011 86.1691 40.1493 85.2822 33.5193 86.0669C25.6855 86.9878 18.7954 90.2637 14.0996 95.2992C12.1327 97.4026 10.4043 99.9722 8.78975 103.168C3.59656 113.456 2.1454 125.23 4.68523 136.47C4.72865 136.664 4.83676 136.837 4.99175 136.961C5.14674 137.085 5.33936 137.152 5.53786 137.152H5.54928Z"
            fill="black"/>
        <path
            d="M54.3159 96.7549C42.6047 102.724 28.8701 110.069 19.0577 119.177C9.23413 128.284 1.55957 143.815 0.922645 157.676C0.832846 159.642 0.8887 161.666 1.49137 163.519C2.664 167.112 5.80048 169.67 9.2116 170.716C12.6227 171.774 16.2838 171.512 19.7856 170.841C34.396 168.056 52.5539 154.15 60.0124 140.336"
            fill="#FFE69F"/>
        <path
            d="M14.2262 172.297C16.1471 172.274 18.0618 172.072 19.9452 171.694C34.7716 168.874 53.0875 154.981 60.7747 140.745C60.8847 140.542 60.9095 140.303 60.8434 140.081C60.7773 139.859 60.6258 139.673 60.4223 139.563C60.2187 139.453 59.9798 139.428 59.758 139.494C59.5363 139.56 59.3498 139.712 59.2398 139.915C51.8954 153.514 33.7483 167.283 19.6157 169.978C15.4658 170.773 12.2367 170.74 9.46314 169.875C6.04091 168.818 3.30066 166.271 2.31133 163.235C1.69508 161.371 1.7065 159.301 1.7747 157.699C2.37737 144.578 9.72236 128.99 19.6369 119.804C29.4037 110.754 42.8544 103.557 54.7017 97.5195C54.8061 97.4681 54.8992 97.3965 54.9758 97.3088C55.0523 97.221 55.1106 97.119 55.1474 97.0086C55.1843 96.8982 55.1988 96.7816 55.1902 96.6655C55.1816 96.5494 55.1501 96.4362 55.0975 96.3324C55.0448 96.2286 54.9721 96.1363 54.8835 96.0608C54.7949 95.9853 54.6922 95.9281 54.5814 95.8926C54.4706 95.8571 54.3538 95.8439 54.2378 95.8538C54.1219 95.8637 54.009 95.8965 53.9058 95.9504C41.9561 102.033 28.369 109.299 18.443 118.508C8.0745 128.161 0.67181 143.874 0.0351951 157.632C-0.0444203 159.371 -0.0444203 161.645 0.649283 163.783C1.83179 167.41 4.93586 170.309 8.95027 171.549C10.6609 172.065 12.4403 172.318 14.2271 172.299L14.2262 172.297Z"
            fill="black"/>
    </g>
    <defs>
        <clipPath id="clip0_212_39">
            <rect width="218" height="225.283" fill="white"/>
        </clipPath>
    </defs>
</svg>
