<svg width="243" height="35" viewBox="0 0 243 35" fill="none" xmlns="http://www.w3.org/2000/svg">
    <g clip-path="url(#clip0_211_3)">
        <mask id="mask0_211_3" style="mask-type:luminance" maskUnits="userSpaceOnUse" x="0" y="0" width="35"
              height="35">
            <path d="M35 0H0V35H35V0Z" fill="white"/>
        </mask>
        <g mask="url(#mask0_211_3)">
            <mask id="mask1_211_3" style="mask-type:luminance" maskUnits="userSpaceOnUse" x="0" y="0" width="35"
                  height="35">
                <path
                    d="M35 17.5C35 4.375 30.625 0 17.5 0C4.375 0 0 4.375 0 17.5C0 30.625 4.375 35 17.5 35C30.625 35 35 30.625 35 17.5Z"
                    fill="white"/>
            </mask>
            <g mask="url(#mask1_211_3)">
                <path
                    d="M6.70658 34.6247C6.43711 34.3692 6.19097 34.0901 5.9711 33.7907C2.98892 29.8968 1.45255 24.9727 1.70691 20.1189C1.77732 18.7693 2.00414 17.3688 2.81009 16.2682C3.31636 15.5756 4.20292 15.0063 5.03177 15.2783C5.40454 15.4017 5.70429 15.6763 5.97124 15.9584C7.20314 17.2427 8.10609 18.8059 8.60307 20.5147C8.63835 20.6331 8.69372 20.749 8.73658 20.8648"
                    fill="white"/>
                <path
                    d="M6.70747 34.7925C6.66583 34.7921 6.62568 34.7769 6.59413 34.7497C6.31673 34.4871 6.06304 34.2006 5.83603 33.8934C2.84879 29.9944 1.28213 24.9695 1.53656 20.111C1.59952 18.912 1.78587 17.3806 2.67229 16.1691C3.21383 15.4309 4.17093 14.8191 5.08271 15.1189C5.49074 15.2524 5.80807 15.5445 6.09272 15.8418C7.34427 17.1455 8.26123 18.7331 8.76509 20.4687C8.78538 20.5336 8.80892 20.5975 8.83564 20.6601C8.8558 20.7105 8.87597 20.7608 8.89354 20.8112C8.90098 20.8322 8.90421 20.8545 8.90305 20.8767C8.90189 20.899 8.89636 20.9208 8.88677 20.9409C8.87718 20.961 8.86372 20.979 8.84717 20.994C8.83061 21.0089 8.81128 21.0204 8.79028 21.0278C8.76928 21.0353 8.74702 21.0385 8.72477 21.0373C8.70251 21.0362 8.68071 21.0306 8.6606 21.0211C8.64048 21.0115 8.62246 20.998 8.60754 20.9815C8.59263 20.9649 8.58113 20.9456 8.57368 20.9246C8.55858 20.8792 8.53841 20.8339 8.52077 20.7885C8.48854 20.7147 8.46078 20.639 8.43765 20.5619C7.94791 18.8796 7.05881 17.3406 5.84608 16.076C5.59171 15.8115 5.31212 15.5521 4.97463 15.4413C4.22405 15.1944 3.41303 15.7309 2.94436 16.3709C2.10825 17.5091 1.93448 18.9778 1.87406 20.1285C1.62468 24.909 3.16605 29.8507 6.10297 33.6867C6.31653 33.978 6.55594 34.2495 6.81828 34.4978C6.83495 34.5126 6.84851 34.5306 6.85817 34.5506C6.86784 34.5707 6.87342 34.5925 6.87459 34.6148C6.87576 34.6371 6.8725 34.6593 6.86499 34.6803C6.85748 34.7013 6.84588 34.7206 6.83086 34.7371C6.81503 34.7547 6.79561 34.7688 6.7739 34.7784C6.75218 34.7879 6.72867 34.7928 6.70494 34.7925H6.70747Z"
                    fill="black"/>
                <path
                    d="M7.66908 21.6898L11.3489 20.7578L36.4579 23.1103L40.435 24.498L43.3793 28.6085L47.4043 41.8921L47.0894 42.7938H38.3546L5.80273 28.9588L7.66908 21.6898Z"
                    fill="white"/>
                <path
                    d="M38.4729 24.4981C38.007 20.6596 37.9919 20.3851 36.8886 16.675C35.7855 12.9624 34.0072 9.37073 31.2316 6.60771C30.1612 5.54233 29.3552 5.06627 28.5945 4.74389C27.0002 4.06385 25.5066 4.08648 24.2422 4.10665C23.7763 4.11423 22.3633 4.15703 20.9074 4.51721C16.6232 5.58259 13.8503 8.94758 13.3488 9.5771C11.5124 11.8794 10.7873 14.3326 9.33905 19.2391C8.9965 20.3952 8.74966 21.3651 8.58594 22.0374"
                    fill="white"/>
                <path
                    d="M38.4735 24.6691C38.4321 24.6693 38.392 24.6543 38.3608 24.6269C38.3297 24.5995 38.3098 24.5616 38.3048 24.5205L38.267 24.2128C37.8388 20.6892 37.796 20.3214 36.7255 16.7247C35.4914 12.5717 33.6024 9.20672 31.1114 6.73081C29.983 5.60972 29.1719 5.1768 28.5297 4.9022C26.9681 4.23727 25.5224 4.25743 24.2454 4.27753C23.5855 4.28758 22.2782 4.35307 20.9484 4.68304C16.926 5.683 14.2159 8.76341 13.4807 9.68277C11.6647 11.9572 10.9418 14.4054 9.50113 19.2841C9.2266 20.211 8.97476 21.1503 8.75054 22.0774C8.74019 22.1211 8.71288 22.159 8.67462 22.1826C8.63636 22.2062 8.59028 22.2137 8.54652 22.2033C8.50277 22.193 8.46491 22.1656 8.44129 22.1274C8.41767 22.0891 8.41022 22.043 8.42057 21.9993C8.64725 21.0673 8.89909 20.1228 9.17622 19.1909C10.6295 14.2691 11.36 11.7986 13.2163 9.47127C13.9668 8.52928 16.7399 5.37839 20.8681 4.35327C22.2307 4.01325 23.5683 3.94776 24.2432 3.93772C25.4873 3.92008 27.0391 3.89492 28.666 4.59007C29.3411 4.87718 30.1873 5.32835 31.356 6.49169C33.8873 9.01039 35.804 12.4207 37.0558 16.6294C38.1339 20.2538 38.1792 20.624 38.6098 24.1729L38.6477 24.4805C38.6505 24.5027 38.6489 24.5253 38.643 24.5468C38.637 24.5684 38.6268 24.5886 38.613 24.6062C38.5991 24.6237 38.5819 24.6384 38.5624 24.6493C38.5428 24.6601 38.5213 24.667 38.499 24.6694H38.4789L38.4735 24.6691Z"
                    fill="black"/>
                <path
                    d="M22.1378 21.5163C21.566 21.3904 20.9742 21.3626 20.3848 21.3451C18.0978 21.267 15.8108 21.2838 13.5238 21.3954C12.2217 21.4584 10.8944 21.5566 9.6981 22.0047C8.50181 22.4527 7.43608 23.3096 7.15397 24.4128C7.05573 24.7932 7.05826 25.2062 7.24714 25.5589C7.52926 26.0852 8.16644 26.3929 8.7911 26.6016C10.738 27.2565 12.8765 27.2921 14.9644 27.3194C17.06 27.3471 19.1757 27.3723 21.2262 26.9945C22.6013 26.7401 25.0345 25.9896 25.3543 24.5715C25.6641 23.1963 23.43 21.8009 22.1429 21.5163H22.1378Z"
                    fill="#FF8800"/>
                <path
                    d="M26.414 9.49796C25.4393 9.48713 24.4821 9.23811 23.6257 8.77259C22.9406 8.40735 22.4646 7.97669 22.2052 7.48552C21.2884 7.83559 20.2848 7.88847 19.3364 7.63667C18.5354 7.41751 17.9058 6.98937 17.5659 6.42766C17.1427 5.73723 17.2158 4.83079 17.7321 4.31953C17.7699 4.28413 17.82 4.2648 17.8718 4.26565C17.9236 4.2665 17.973 4.28745 18.0096 4.32407C18.0462 4.36069 18.0671 4.41011 18.068 4.46188C18.0688 4.51366 18.0495 4.56373 18.0141 4.60151C17.6237 4.98685 17.5783 5.68453 17.9058 6.22101C18.1954 6.69454 18.742 7.05971 19.4422 7.25372C20.3065 7.48268 21.2208 7.43511 22.0566 7.11768C21.9989 6.90629 21.9834 6.68557 22.011 6.46817C22.0387 6.25078 22.1089 6.04097 22.2178 5.85078C22.3034 5.69183 22.4218 5.55285 22.5651 5.44301C22.7083 5.33316 22.8733 5.25495 23.049 5.21353C23.384 5.13799 23.8146 5.24628 23.9557 5.59135C23.9892 5.68433 24.0036 5.78313 23.998 5.88181C23.9924 5.98049 23.9668 6.07701 23.923 6.16557C23.7769 6.50559 23.4872 6.74738 23.2832 6.90105C23.0608 7.06699 22.8229 7.21121 22.5729 7.33172C22.7971 7.73975 23.2127 8.10493 23.8122 8.42485C24.7365 8.91601 25.7262 9.15021 26.6734 9.09737C27.6909 9.04193 28.6558 8.64148 29.3231 7.99419C29.3612 7.95745 29.4123 7.93733 29.4652 7.93828C29.5181 7.93922 29.5684 7.96114 29.6052 7.99921C29.6419 8.03728 29.662 8.08839 29.6611 8.14129C29.6601 8.19419 29.6382 8.24456 29.6001 8.2813C28.8647 8.99408 27.8068 9.43486 26.6961 9.49529C26.6029 9.50035 26.5097 9.50288 26.4165 9.50288L26.414 9.49796ZM23.258 5.58636C23.2158 5.58668 23.1736 5.59089 23.1321 5.59894C23.0109 5.62911 22.8974 5.68438 22.7989 5.76118C22.7004 5.83798 22.6192 5.9346 22.5604 6.04478C22.4049 6.32086 22.3565 6.64448 22.4243 6.95396C22.6423 6.84679 22.8497 6.71945 23.0439 6.57361C23.311 6.37462 23.4746 6.1908 23.5553 5.99939C23.5804 5.93896 23.6208 5.82309 23.5855 5.73491C23.5451 5.63415 23.4016 5.58377 23.258 5.58377V5.58636Z"
                    fill="#FF8800"/>
                <path
                    d="M7.72883 27.0215C7.22507 29.4712 6.931 31.9593 6.8498 34.459C6.74904 37.489 6.97319 40.5819 8.08396 43.4155C9.19473 46.2491 11.2802 48.8131 14.1288 50.0372C15.8844 50.7928 17.8289 51.0094 19.7405 51.1731C24.6269 51.5963 29.6013 51.7348 34.3868 50.6794C39.1698 49.6241 43.7917 47.2717 46.7537 43.4633C47.0258 43.1028 47.2259 42.6931 47.3431 42.2569"
                    fill="white"/>
                <path
                    d="M26.1652 51.6628C23.9134 51.6628 21.7373 51.5192 19.7223 51.3429C17.7501 51.1717 15.8334 50.9576 14.0577 50.1919C11.3803 49.0408 9.14369 46.5926 7.92218 43.4768C6.94997 40.9984 6.55451 38.1321 6.67544 34.4523C6.7594 31.9434 7.05512 29.4461 7.55946 26.987C7.5641 26.9653 7.57295 26.9447 7.58552 26.9265C7.59809 26.9083 7.61413 26.8927 7.63273 26.8806C7.65132 26.8686 7.67211 26.8603 7.6939 26.8563C7.71569 26.8523 7.73806 26.8526 7.75972 26.8572C7.78139 26.8619 7.80193 26.8707 7.82017 26.8833C7.83842 26.8959 7.85401 26.9119 7.86605 26.9305C7.8781 26.9491 7.88636 26.9699 7.89037 26.9917C7.89439 27.0135 7.89407 27.0358 7.88943 27.0575C7.39021 29.4986 7.09701 31.9774 7.01293 34.4677C6.892 38.0969 7.28206 40.923 8.23444 43.3561C9.42328 46.3886 11.5919 48.7688 14.1862 49.8844C15.9165 50.6274 17.803 50.8414 19.7449 51.0078C24.1401 51.3881 29.311 51.6274 34.3384 50.5191C39.5546 49.3707 43.912 46.8292 46.6096 43.366C46.8678 43.0222 47.0584 42.6325 47.1712 42.2176C47.1773 42.1962 47.1876 42.1763 47.2014 42.1589C47.2152 42.1416 47.2323 42.1271 47.2517 42.1163C47.2711 42.1056 47.2925 42.0987 47.3145 42.0962C47.3366 42.0937 47.3589 42.0956 47.3802 42.1017C47.4016 42.1078 47.4215 42.1181 47.4389 42.1319C47.4562 42.1457 47.4707 42.1628 47.4815 42.1822C47.4922 42.2016 47.4991 42.223 47.5016 42.245C47.5041 42.2671 47.5022 42.2894 47.4961 42.3107C47.3728 42.7682 47.1624 43.1976 46.8765 43.5754C44.1311 47.1016 39.7056 49.6858 34.4114 50.852C31.6484 51.4615 28.8475 51.668 26.1575 51.668L26.1652 51.6628Z"
                    fill="black"/>
                <path
                    d="M15.7329 21.1563C13.7406 21.1563 12.1211 19.6652 12.1211 17.834C12.1211 16.0028 13.7406 14.5117 15.7329 14.5117C17.7253 14.5117 19.3448 16.0028 19.3448 17.834C19.3448 19.6652 17.7253 21.1563 15.7329 21.1563ZM15.7329 14.8041C13.9019 14.8041 12.4133 16.1644 12.4133 17.8341C12.4133 19.5038 13.9018 20.8642 15.7329 20.8642C17.5641 20.8642 19.0526 19.5038 19.0526 17.8341C19.0526 16.1644 17.564 14.8041 15.7329 14.8041Z"
                    fill="black"/>
                <path
                    d="M24.1118 21.4395C22.1195 21.4395 20.5 19.9484 20.5 18.1172C20.5 16.286 22.1195 14.7949 24.1118 14.7949C26.1042 14.7949 27.7237 16.286 27.7237 18.1172C27.7237 19.9484 26.1042 21.4395 24.1118 21.4395ZM24.1118 15.0873C22.2808 15.0873 20.7922 16.4476 20.7922 18.1173C20.7922 19.787 22.2807 21.1474 24.1118 21.1474C25.943 21.1474 27.4315 19.787 27.4315 18.1173C27.4315 16.4476 25.9429 15.0873 24.1118 15.0873Z"
                    fill="black"/>
                <path
                    d="M20.6543 18.4705C20.6396 18.4719 20.6249 18.4693 20.6115 18.4629C19.6292 18.1506 19.2539 18.4327 19.2512 18.4378C19.2211 18.4611 19.1831 18.4721 19.1452 18.4683C19.1072 18.4646 19.0722 18.4464 19.0472 18.4176C19.0231 18.3886 19.0113 18.3514 19.0141 18.3138C19.0169 18.2762 19.0342 18.2412 19.0623 18.2161C19.1102 18.1757 19.5613 17.8257 20.6995 18.1884C20.7358 18.2003 20.7661 18.2259 20.7839 18.2597C20.8018 18.2936 20.8058 18.333 20.7952 18.3697C20.7861 18.3993 20.7677 18.425 20.7427 18.4432C20.7177 18.4614 20.6875 18.471 20.6567 18.4705H20.6543Z"
                    fill="black"/>
                <path
                    d="M13.256 20.0845C13.2488 20.0848 13.2416 20.0834 13.235 20.0803C13.2284 20.0772 13.2227 20.0726 13.2182 20.0669C13.2085 20.0562 13.2031 20.0423 13.2031 20.0278C13.2031 20.0134 13.2085 19.9995 13.2182 19.9888L17.9711 15.3569C17.9817 15.3472 17.9957 15.3418 18.0101 15.3418C18.0245 15.3418 18.0384 15.3472 18.0491 15.3569C18.0594 15.3673 18.0652 15.3813 18.0652 15.3959C18.0652 15.4106 18.0594 15.4246 18.0491 15.435L13.2963 20.0669C13.2847 20.0741 13.2719 20.0793 13.2585 20.082L13.256 20.0845Z"
                    fill="black"/>
                <path
                    d="M14.801 19.7268C14.7937 19.7272 14.7865 19.7257 14.7799 19.7226C14.7733 19.7196 14.7676 19.715 14.7632 19.7092C14.7534 19.6985 14.748 19.6846 14.748 19.6702C14.748 19.6557 14.7534 19.6418 14.7632 19.6311L18.5613 15.9311C18.572 15.9214 18.5859 15.916 18.6004 15.916C18.6148 15.916 18.6287 15.9214 18.6394 15.9311C18.6497 15.9415 18.6555 15.9555 18.6555 15.9702C18.6555 15.9848 18.6497 15.9988 18.6394 16.0092L14.8412 19.7092C14.8296 19.7165 14.8168 19.7216 14.8034 19.7243L14.801 19.7268Z"
                    fill="black"/>
                <path
                    d="M22.883 17.3438C22.8757 17.3441 22.8685 17.3427 22.8619 17.3396C22.8554 17.3366 22.8496 17.332 22.8452 17.3262C22.8355 17.3155 22.8301 17.3016 22.8301 17.2872C22.8301 17.2727 22.8355 17.2588 22.8452 17.2481L25.1498 15.0014C25.1605 14.9917 25.1744 14.9863 25.1888 14.9863C25.2033 14.9863 25.2172 14.9917 25.2279 15.0014C25.2382 15.0118 25.2439 15.0259 25.2439 15.0405C25.2439 15.0551 25.2382 15.0691 25.2279 15.0795L22.9231 17.3262C22.9115 17.3335 22.8987 17.3386 22.8852 17.3413L22.883 17.3438Z"
                    fill="black"/>
                <path
                    d="M21.3615 19.9417C21.3543 19.942 21.347 19.9406 21.3405 19.9375C21.3339 19.9344 21.3281 19.9298 21.3237 19.9241C21.314 19.9134 21.3086 19.8995 21.3086 19.885C21.3086 19.8706 21.314 19.8567 21.3237 19.846L25.1219 16.146C25.1326 16.1362 25.1465 16.1309 25.1609 16.1309C25.1754 16.1309 25.1893 16.1362 25.2 16.146C25.2102 16.1564 25.216 16.1704 25.216 16.185C25.216 16.1996 25.2102 16.2137 25.2 16.224L21.4018 19.9241C21.3902 19.9313 21.3774 19.9364 21.364 19.9392L21.3615 19.9417Z"
                    fill="black"/>
            </g>
        </g>
    </g>
    <path
        d="M54.56 24.984C55.808 24.984 56.912 24.704 57.872 24.144C58.832 23.584 59.576 22.808 60.104 21.816C60.648 20.808 60.92 19.648 60.92 18.336C60.92 17.024 60.648 15.872 60.104 14.88C59.576 13.872 58.832 13.088 57.872 12.528C56.912 11.968 55.808 11.688 54.56 11.688H51.296V24.984H54.56ZM48.8 9.504H54.584C56.28 9.504 57.792 9.88 59.12 10.632C60.464 11.384 61.512 12.432 62.264 13.776C63.016 15.104 63.392 16.624 63.392 18.336C63.392 20.048 63.016 21.576 62.264 22.92C61.512 24.248 60.464 25.288 59.12 26.04C57.792 26.792 56.28 27.168 54.584 27.168H48.8V9.504ZM68.6118 21.696C68.6118 22.704 68.8918 23.52 69.4518 24.144C70.0118 24.768 70.7478 25.08 71.6598 25.08C72.6198 25.08 73.4038 24.76 74.0118 24.12C74.6198 23.464 74.9158 22.632 74.8998 21.624V14.616H77.3958V27.168H74.8998V25.104C74.5158 25.712 73.9958 26.208 73.3398 26.592C72.6838 26.976 72.0038 27.168 71.2998 27.168C70.3078 27.168 69.4198 26.944 68.6358 26.496C67.8518 26.048 67.2358 25.416 66.7878 24.6C66.3398 23.784 66.1158 22.856 66.1158 21.816V14.616H68.6118V21.696ZM85.6698 24.912C86.1658 24.912 86.6858 24.8 87.2298 24.576C87.7738 24.336 88.2298 24.032 88.5978 23.664L90.2778 25.344C89.7338 25.904 89.0378 26.368 88.1898 26.736C87.3418 27.088 86.5338 27.264 85.7658 27.264C84.5338 27.264 83.4378 27 82.4778 26.472C81.5178 25.928 80.7658 25.176 80.2218 24.216C79.6778 23.256 79.4058 22.16 79.4058 20.928C79.4058 19.696 79.6778 18.6 80.2218 17.64C80.7658 16.68 81.5178 15.936 82.4778 15.408C83.4378 14.864 84.5338 14.592 85.7658 14.592C86.5818 14.592 87.3898 14.768 88.1898 15.12C89.0058 15.472 89.7018 15.936 90.2778 16.512L88.5978 18.192C88.2138 17.824 87.7498 17.528 87.2058 17.304C86.6778 17.064 86.1658 16.944 85.6698 16.944C84.5498 16.944 83.6378 17.312 82.9338 18.048C82.2458 18.784 81.9018 19.744 81.9018 20.928C81.9018 22.112 82.2458 23.072 82.9338 23.808C83.6378 24.544 84.5498 24.912 85.6698 24.912ZM94.8178 20.28L99.6898 14.616H103.05L98.1778 20.208L103.002 27.168H99.9778L96.4018 22.032L94.8178 23.928V27.168H92.3218V9.504H94.8178V20.28ZM108.109 14.688V27.168H105.613V14.688H108.109ZM105.421 10.608C105.421 10.192 105.557 9.856 105.829 9.6C106.101 9.328 106.445 9.192 106.861 9.192C107.261 9.192 107.589 9.328 107.845 9.6C108.117 9.856 108.253 10.192 108.253 10.608C108.253 11.024 108.117 11.368 107.845 11.64C107.589 11.896 107.261 12.024 106.861 12.024C106.445 12.024 106.101 11.896 105.829 11.64C105.557 11.368 105.421 11.024 105.421 10.608ZM120.255 19.968C120.127 19.04 119.791 18.264 119.247 17.64C118.719 17 117.943 16.68 116.919 16.68C115.975 16.68 115.159 17 114.471 17.64C113.799 18.264 113.399 19.048 113.271 19.992L120.255 19.968ZM110.871 20.928C110.871 19.696 111.127 18.6 111.639 17.64C112.151 16.68 112.855 15.936 113.751 15.408C114.663 14.864 115.703 14.592 116.871 14.592C118.519 14.592 119.727 14.992 120.495 15.792C121.279 16.592 121.807 17.328 122.079 18C122.431 18.864 122.607 19.824 122.607 20.88C122.607 21.136 122.599 21.36 122.583 21.552C122.567 21.744 122.559 21.856 122.559 21.888H113.271C113.415 22.848 113.831 23.632 114.519 24.24C115.207 24.848 115.999 25.152 116.895 25.152C117.615 25.152 118.207 25.04 118.671 24.816C119.151 24.592 119.479 24.384 119.655 24.192C119.831 24 119.999 23.784 120.159 23.544L122.151 24.456C121.767 25.24 121.127 25.904 120.231 26.448C119.335 26.976 118.215 27.24 116.871 27.24C115.703 27.24 114.663 26.976 113.751 26.448C112.855 25.904 112.151 25.152 111.639 24.192C111.127 23.232 110.871 22.144 110.871 20.928ZM136.943 24.984C138.191 24.984 139.295 24.704 140.255 24.144C141.215 23.584 141.959 22.808 142.487 21.816C143.031 20.808 143.303 19.648 143.303 18.336C143.303 17.024 143.031 15.872 142.487 14.88C141.959 13.872 141.215 13.088 140.255 12.528C139.295 11.968 138.191 11.688 136.943 11.688H133.679V24.984H136.943ZM131.183 9.504H136.967C138.663 9.504 140.175 9.88 141.503 10.632C142.847 11.384 143.895 12.432 144.647 13.776C145.399 15.104 145.775 16.624 145.775 18.336C145.775 20.048 145.399 21.576 144.647 22.92C143.895 24.248 142.847 25.288 141.503 26.04C140.175 26.792 138.663 27.168 136.967 27.168H131.183V9.504ZM156.934 19.968C156.806 19.04 156.47 18.264 155.926 17.64C155.398 17 154.622 16.68 153.598 16.68C152.654 16.68 151.838 17 151.15 17.64C150.478 18.264 150.078 19.048 149.95 19.992L156.934 19.968ZM147.55 20.928C147.55 19.696 147.806 18.6 148.318 17.64C148.83 16.68 149.534 15.936 150.43 15.408C151.342 14.864 152.382 14.592 153.55 14.592C155.198 14.592 156.406 14.992 157.174 15.792C157.958 16.592 158.486 17.328 158.758 18C159.11 18.864 159.286 19.824 159.286 20.88C159.286 21.136 159.278 21.36 159.262 21.552C159.246 21.744 159.238 21.856 159.238 21.888H149.95C150.094 22.848 150.51 23.632 151.198 24.24C151.886 24.848 152.678 25.152 153.574 25.152C154.294 25.152 154.886 25.04 155.35 24.816C155.83 24.592 156.158 24.384 156.334 24.192C156.51 24 156.678 23.784 156.838 23.544L158.83 24.456C158.446 25.24 157.806 25.904 156.91 26.448C156.014 26.976 154.894 27.24 153.55 27.24C152.382 27.24 151.342 26.976 150.43 26.448C149.534 25.904 148.83 25.152 148.318 24.192C147.806 23.232 147.55 22.144 147.55 20.928ZM167.502 27.168H165.27L160.014 14.616H162.726L166.398 24L170.094 14.616H172.83L167.502 27.168ZM182.856 19.968C182.728 19.04 182.392 18.264 181.848 17.64C181.32 17 180.544 16.68 179.52 16.68C178.576 16.68 177.76 17 177.072 17.64C176.4 18.264 176 19.048 175.872 19.992L182.856 19.968ZM173.472 20.928C173.472 19.696 173.728 18.6 174.24 17.64C174.752 16.68 175.456 15.936 176.352 15.408C177.264 14.864 178.304 14.592 179.472 14.592C181.12 14.592 182.328 14.992 183.096 15.792C183.88 16.592 184.408 17.328 184.68 18C185.032 18.864 185.208 19.824 185.208 20.88C185.208 21.136 185.2 21.36 185.184 21.552C185.168 21.744 185.16 21.856 185.16 21.888H175.872C176.016 22.848 176.432 23.632 177.12 24.24C177.808 24.848 178.6 25.152 179.496 25.152C180.216 25.152 180.808 25.04 181.272 24.816C181.752 24.592 182.08 24.384 182.256 24.192C182.432 24 182.6 23.784 182.76 23.544L184.752 24.456C184.368 25.24 183.728 25.904 182.832 26.448C181.936 26.976 180.816 27.24 179.472 27.24C178.304 27.24 177.264 26.976 176.352 26.448C175.456 25.904 174.752 25.152 174.24 24.192C173.728 23.232 173.472 22.144 173.472 20.928ZM189.896 9.504V27.168H187.4V9.504H189.896ZM198.013 25.176C199.069 25.176 199.925 24.784 200.581 24C201.253 23.216 201.589 22.192 201.589 20.928C201.589 19.664 201.253 18.64 200.581 17.856C199.925 17.072 199.069 16.68 198.013 16.68C196.957 16.68 196.101 17.072 195.445 17.856C194.789 18.64 194.461 19.664 194.461 20.928C194.461 22.192 194.789 23.216 195.445 24C196.101 24.784 196.957 25.176 198.013 25.176ZM191.965 20.928C191.965 19.696 192.221 18.6 192.733 17.64C193.245 16.68 193.957 15.928 194.869 15.384C195.797 14.84 196.845 14.568 198.013 14.568C199.197 14.568 200.245 14.84 201.157 15.384C202.085 15.928 202.805 16.68 203.317 17.64C203.829 18.6 204.085 19.696 204.085 20.928C204.085 22.144 203.829 23.232 203.317 24.192C202.805 25.152 202.085 25.904 201.157 26.448C200.245 26.992 199.197 27.264 198.013 27.264C196.845 27.264 195.797 26.992 194.869 26.448C193.957 25.904 193.245 25.152 192.733 24.192C192.221 23.232 191.965 22.144 191.965 20.928ZM212.774 25.224C213.846 25.224 214.718 24.832 215.39 24.048C216.062 23.248 216.398 22.208 216.398 20.928C216.398 19.664 216.062 18.64 215.39 17.856C214.718 17.072 213.846 16.68 212.774 16.68C212.102 16.68 211.478 16.872 210.902 17.256C210.326 17.64 209.87 18.16 209.534 18.816C209.198 19.456 209.03 20.16 209.03 20.928C209.03 21.712 209.198 22.432 209.534 23.088C209.87 23.744 210.326 24.264 210.902 24.648C211.478 25.032 212.102 25.224 212.774 25.224ZM206.51 14.616H209.006V16.776C209.438 16.056 210.038 15.52 210.806 15.168C211.574 14.8 212.278 14.616 212.918 14.616C214.07 14.616 215.102 14.888 216.014 15.432C216.926 15.96 217.63 16.704 218.126 17.664C218.638 18.608 218.894 19.696 218.894 20.928C218.894 22.16 218.638 23.264 218.126 24.24C217.63 25.2 216.926 25.952 216.014 26.496C215.102 27.024 214.07 27.288 212.918 27.288C212.278 27.288 211.574 27.104 210.806 26.736C210.038 26.352 209.438 25.8 209.006 25.08V32.544H206.51V14.616ZM230.2 19.968C230.072 19.04 229.736 18.264 229.192 17.64C228.664 17 227.888 16.68 226.864 16.68C225.92 16.68 225.104 17 224.416 17.64C223.744 18.264 223.344 19.048 223.216 19.992L230.2 19.968ZM220.816 20.928C220.816 19.696 221.072 18.6 221.584 17.64C222.096 16.68 222.8 15.936 223.696 15.408C224.608 14.864 225.648 14.592 226.816 14.592C228.464 14.592 229.672 14.992 230.44 15.792C231.224 16.592 231.752 17.328 232.024 18C232.376 18.864 232.552 19.824 232.552 20.88C232.552 21.136 232.544 21.36 232.528 21.552C232.512 21.744 232.504 21.856 232.504 21.888H223.216C223.36 22.848 223.776 23.632 224.464 24.24C225.152 24.848 225.944 25.152 226.84 25.152C227.56 25.152 228.152 25.04 228.616 24.816C229.096 24.592 229.424 24.384 229.6 24.192C229.776 24 229.944 23.784 230.104 23.544L232.096 24.456C231.712 25.24 231.072 25.904 230.176 26.448C229.28 26.976 228.16 27.24 226.816 27.24C225.648 27.24 224.608 26.976 223.696 26.448C222.8 25.904 222.096 25.152 221.584 24.192C221.072 23.232 220.816 22.144 220.816 20.928ZM237.288 16.992C237.64 16.272 238.184 15.688 238.92 15.24C239.672 14.776 240.464 14.544 241.296 14.544V16.824C240.56 16.824 239.88 17.024 239.256 17.424C238.648 17.824 238.168 18.344 237.816 18.984C237.464 19.608 237.288 20.248 237.288 20.904V27.168H234.816V14.616H237.288V16.992Z"
        fill="#FF8800"/>
    <defs>
        <clipPath id="clip0_211_3">
            <rect width="35" height="35" fill="white"/>
        </clipPath>
    </defs>
</svg>
