<!--
  - Designed and developed by Duckie Team, 2022~2023
  -
  - Licensed under the MIT.
  - Please see full license: https://github.com/duckie-team/duckie-quack-quack/blob/main/LICENSE
  -->

<svg width="89" height="36" viewBox="0 0 89 36" fill="none" xmlns="http://www.w3.org/2000/svg">
    <rect width="89" height="36" rx="18" fill="#FF8300" />
    <path
        d="M25.5918 14.39H22.4558V23.154H20.7618V14.39H17.5838V12.738H25.5918V14.39ZM28.9556 12.29V14.18H27.0656V12.29H28.9556ZM28.8296 15.3V23.182H27.1916V15.3H28.8296ZM33.4984 20.438C33.4984 20.6713 33.545 20.8627 33.6384 21.012C33.7317 21.1613 33.8577 21.2733 34.0164 21.348C34.1844 21.4227 34.371 21.46 34.5764 21.46H35.5564V23.126H34.5764C34.007 23.126 33.5124 23.014 33.0924 22.79C32.6724 22.5567 32.3504 22.244 32.1264 21.852C31.9024 21.4507 31.7904 21.0027 31.7904 20.508V16.798H30.4044V15.16H31.7904V12.71H33.4984V15.16H35.5844V16.798H33.4984V20.438ZM38.7648 12.444V23.182H37.0988V12.444H38.7648ZM46.0683 18.282C45.9376 17.9647 45.7603 17.694 45.5363 17.47C45.3123 17.246 45.065 17.0733 44.7943 16.952C44.5236 16.8307 44.2436 16.77 43.9543 16.77C43.665 16.77 43.3756 16.8307 43.0863 16.952C42.8063 17.0733 42.5496 17.2507 42.3163 17.484C42.0923 17.708 41.9196 17.974 41.7983 18.282H46.0683ZM47.3563 17.246C47.543 17.61 47.669 18.0253 47.7343 18.492C47.7996 18.9493 47.8183 19.388 47.7903 19.808H41.7843C41.859 20.1347 42.0083 20.4287 42.2323 20.69C42.4563 20.9513 42.7176 21.152 43.0163 21.292C43.3243 21.432 43.637 21.502 43.9543 21.502C44.337 21.502 44.6823 21.4133 44.9903 21.236C45.2983 21.0493 45.5456 20.8207 45.7323 20.55L47.3143 21.236C46.9876 21.7773 46.535 22.2393 45.9563 22.622C45.3776 22.9953 44.7103 23.182 43.9543 23.182C43.245 23.182 42.5916 23 41.9943 22.636C41.4063 22.2627 40.9396 21.768 40.5943 21.152C40.249 20.5267 40.0763 19.8547 40.0763 19.136C40.0763 18.4173 40.249 17.7453 40.5943 17.12C40.9396 16.4947 41.4063 16 41.9943 15.636C42.5916 15.2627 43.245 15.076 43.9543 15.076C44.6543 15.076 45.2516 15.2347 45.7463 15.552C46.2503 15.86 46.6283 16.1867 46.8803 16.532C47.1416 16.868 47.3003 17.106 47.3563 17.246ZM50.9324 15.412C51.0724 15.1227 51.2778 14.8847 51.5484 14.698C51.8284 14.5113 52.1318 14.3993 52.4584 14.362C52.7944 14.3247 53.1164 14.3713 53.4244 14.502C53.7324 14.642 53.9751 14.8473 54.1524 15.118C54.3391 15.3793 54.4418 15.6733 54.4604 16C54.4884 16.3173 54.4371 16.6207 54.3064 16.91C54.2691 16.9847 54.2131 17.0733 54.1384 17.176C54.0638 17.2787 53.9844 17.3627 53.9004 17.428L49.1684 21.446V23.014H56.3084V21.362H51.7164L55.0624 18.534C55.3798 18.282 55.6364 17.9367 55.8324 17.498C56.0938 16.9287 56.1871 16.336 56.1124 15.72C56.0471 15.104 55.8324 14.558 55.4684 14.082C55.1138 13.5967 54.6564 13.242 54.0964 13.018C53.5271 12.766 52.9391 12.6727 52.3324 12.738C51.7258 12.794 51.1751 12.9993 50.6804 13.354C50.1858 13.6993 49.8124 14.152 49.5604 14.712C49.4578 14.936 49.3878 15.1133 49.3504 15.244L50.8344 15.692C50.8718 15.5893 50.9044 15.496 50.9324 15.412Z"
        fill="white" />
    <path d="M72.133 14.8669L65.867 21.1329" stroke="white" stroke-width="1.5" stroke-linecap="round"
        stroke-linejoin="round" />
    <path d="M65.867 14.8669L72.133 21.1329" stroke="white" stroke-width="1.5" stroke-linecap="round"
        stroke-linejoin="round" />
</svg>
