<svg xmlns="http://www.w3.org/2000/svg" width="507" height="347" fill="none" viewBox="0 0 507 347"><rect width="507" height="347" fill="#FFF9EF"/><path fill="#222" d="M72.636 56.356H64.896V79.396H60.576V56.356H52.764V52.612H72.636V56.356ZM81.5277 76.012C82.4637 76.012 83.3277 75.748 84.1197 75.22C84.9357 74.692 85.5837 73.96 86.0637 73.024C86.5677 72.088 86.8197 71.056 86.8197 69.928C86.8197 68.8 86.5677 67.78 86.0637 66.868C85.5837 65.932 84.9357 65.2 84.1197 64.672C83.3277 64.144 82.4637 63.88 81.5277 63.88C80.0157 63.88 78.7917 64.432 77.8557 65.536C76.9197 66.64 76.4517 68.104 76.4517 69.928C76.4517 71.752 76.9197 73.228 77.8557 74.356C78.7917 75.46 80.0157 76.012 81.5277 76.012ZM72.1317 69.928C72.1317 68.08 72.5157 66.436 73.2837 64.996C74.0517 63.532 75.1197 62.392 76.4877 61.576C77.8557 60.76 79.4157 60.352 81.1677 60.352C82.2237 60.352 83.2437 60.604 84.2277 61.108C85.2117 61.612 86.0757 62.356 86.8197 63.34V60.28H91.1397V79.396H86.8197V76.552C86.0997 77.536 85.2357 78.28 84.2277 78.784C83.2437 79.288 82.2237 79.54 81.1677 79.54C79.4157 79.54 77.8557 79.132 76.4877 78.316C75.1197 77.5 74.0517 76.372 73.2837 74.932C72.5157 73.468 72.1317 71.8 72.1317 69.928ZM104.097 75.94C105.129 75.94 106.041 75.664 106.833 75.112C107.649 74.56 108.285 73.828 108.741 72.916C109.197 71.98 109.425 70.96 109.425 69.856C109.425 68.8 109.197 67.816 108.741 66.904C108.285 65.968 107.649 65.224 106.833 64.672C106.017 64.12 105.105 63.844 104.097 63.844C102.585 63.844 101.361 64.396 100.425 65.5C99.5132 66.604 99.0572 68.056 99.0572 69.856C99.0572 71.68 99.5132 73.156 100.425 74.284C101.361 75.388 102.585 75.94 104.097 75.94ZM94.7372 69.892C94.7372 68.044 95.1212 66.4 95.8892 64.96C96.6572 63.496 97.7252 62.368 99.0932 61.576C100.461 60.76 102.021 60.352 103.773 60.352C104.805 60.352 105.837 60.592 106.869 61.072C107.925 61.552 108.777 62.284 109.425 63.268V60.28H113.745V78.136C113.721 79.936 113.325 81.544 112.557 82.96C111.789 84.4 110.673 85.516 109.209 86.308C107.769 87.124 106.077 87.532 104.133 87.532C102.429 87.532 100.857 87.184 99.4172 86.488C98.0012 85.792 96.8492 84.736 95.9612 83.32L99.3092 81.016C100.029 82 100.749 82.708 101.469 83.14C102.213 83.596 103.101 83.824 104.133 83.824C105.789 83.824 107.085 83.332 108.021 82.348C108.957 81.388 109.425 80.164 109.425 78.676V76.444C108.657 77.476 107.757 78.244 106.725 78.748C105.717 79.252 104.733 79.504 103.773 79.504C102.021 79.504 100.461 79.096 99.0932 78.28C97.7252 77.464 96.6572 76.324 95.8892 74.86C95.1212 73.396 94.7372 71.74 94.7372 69.892Z"/><path stroke="#A8A8A8" d="M51 120H442"/><rect width="61" height="35" x="171.5" y="187.5" fill="#fff" rx="17.5"/><path fill="#222" d="M191.813 201.194H188.803V210.154H187.123V201.194H184.085V199.738H191.813V201.194ZM194.961 202.79V210.154H193.281V202.79H194.961ZM193.211 200.438C193.211 200.167 193.295 199.948 193.463 199.78C193.64 199.612 193.86 199.528 194.121 199.528C194.392 199.528 194.611 199.617 194.779 199.794C194.956 199.962 195.045 200.177 195.045 200.438C195.045 200.709 194.956 200.933 194.779 201.11C194.611 201.278 194.392 201.362 194.121 201.362C193.85 201.362 193.631 201.278 193.463 201.11C193.295 200.933 193.211 200.709 193.211 200.438ZM199.983 210.182C199.535 210.182 199.134 210.084 198.779 209.888C198.434 209.683 198.159 209.398 197.953 209.034C197.748 208.67 197.645 208.259 197.645 207.802V204.26H196.343V202.818H197.645V200.732H199.325V202.818H201.187V204.26H199.325V207.732C199.325 207.965 199.386 208.166 199.507 208.334C199.638 208.502 199.797 208.586 199.983 208.586C200.179 208.595 200.436 208.553 200.753 208.46L201.131 210.042C200.739 210.135 200.357 210.182 199.983 210.182ZM204.035 199.738V210.154H202.355V199.738H204.035ZM210.655 205.828C210.581 205.352 210.389 204.946 210.081 204.61C209.773 204.265 209.344 204.092 208.793 204.092C208.28 204.092 207.837 204.26 207.463 204.596C207.09 204.932 206.861 205.343 206.777 205.828H210.655ZM205.209 206.458C205.209 205.73 205.359 205.086 205.657 204.526C205.965 203.957 206.39 203.513 206.931 203.196C207.473 202.879 208.089 202.72 208.779 202.72C209.75 202.72 210.464 202.958 210.921 203.434C211.388 203.901 211.705 204.33 211.873 204.722C212.088 205.198 212.195 205.786 212.195 206.486C212.195 206.663 212.191 206.799 212.181 206.892C212.181 206.976 212.181 207.032 212.181 207.06H206.777C206.861 207.564 207.099 207.979 207.491 208.306C207.883 208.633 208.317 208.796 208.793 208.796C209.185 208.796 209.507 208.74 209.759 208.628C210.021 208.507 210.189 208.404 210.263 208.32C210.347 208.227 210.445 208.11 210.557 207.97L211.915 208.544C211.691 209.001 211.313 209.389 210.781 209.706C210.249 210.023 209.582 210.182 208.779 210.182C208.089 210.182 207.473 210.028 206.931 209.72C206.39 209.403 205.965 208.964 205.657 208.404C205.359 207.835 205.209 207.186 205.209 206.458ZM213.815 208.586C214.058 208.353 214.347 208.087 214.683 207.788C215.019 207.489 215.262 207.275 215.411 207.144C216.121 206.519 216.681 206.005 217.091 205.604C217.511 205.203 217.861 204.792 218.141 204.372C218.421 203.952 218.561 203.546 218.561 203.154C218.561 202.603 218.403 202.155 218.085 201.81C217.777 201.465 217.381 201.292 216.895 201.292C216.513 201.292 216.144 201.418 215.789 201.67C215.444 201.913 215.183 202.23 215.005 202.622L213.549 201.964C213.848 201.311 214.31 200.779 214.935 200.368C215.561 199.948 216.214 199.738 216.895 199.738C217.549 199.738 218.127 199.883 218.631 200.172C219.135 200.461 219.527 200.867 219.807 201.39C220.097 201.903 220.241 202.491 220.241 203.154C220.241 203.817 220.05 204.461 219.667 205.086C219.294 205.702 218.846 206.257 218.323 206.752C217.801 207.247 217.105 207.858 216.237 208.586H220.395V210.056H213.955L213.815 208.586Z"/><rect width="61" height="35" x="171.5" y="187.5" stroke="#EFEFEF" rx="17.5"/><rect width="61" height="35" x="312.5" y="187.5" fill="#fff" rx="17.5"/><path fill="#FF8300" d="M332.813 201.194H329.803V210.154H328.123V201.194H325.085V199.738H332.813V201.194ZM335.961 202.79V210.154H334.281V202.79H335.961ZM334.211 200.438C334.211 200.167 334.295 199.948 334.463 199.78C334.64 199.612 334.86 199.528 335.121 199.528C335.392 199.528 335.611 199.617 335.779 199.794C335.956 199.962 336.045 200.177 336.045 200.438C336.045 200.709 335.956 200.933 335.779 201.11C335.611 201.278 335.392 201.362 335.121 201.362C334.85 201.362 334.631 201.278 334.463 201.11C334.295 200.933 334.211 200.709 334.211 200.438ZM340.983 210.182C340.535 210.182 340.134 210.084 339.779 209.888C339.434 209.683 339.159 209.398 338.953 209.034C338.748 208.67 338.645 208.259 338.645 207.802V204.26H337.343V202.818H338.645V200.732H340.325V202.818H342.187V204.26H340.325V207.732C340.325 207.965 340.386 208.166 340.507 208.334C340.638 208.502 340.797 208.586 340.983 208.586C341.179 208.595 341.436 208.553 341.753 208.46L342.131 210.042C341.739 210.135 341.357 210.182 340.983 210.182ZM345.035 199.738V210.154H343.355V199.738H345.035ZM351.655 205.828C351.581 205.352 351.389 204.946 351.081 204.61C350.773 204.265 350.344 204.092 349.793 204.092C349.28 204.092 348.837 204.26 348.463 204.596C348.09 204.932 347.861 205.343 347.777 205.828H351.655ZM346.209 206.458C346.209 205.73 346.359 205.086 346.657 204.526C346.965 203.957 347.39 203.513 347.931 203.196C348.473 202.879 349.089 202.72 349.779 202.72C350.75 202.72 351.464 202.958 351.921 203.434C352.388 203.901 352.705 204.33 352.873 204.722C353.088 205.198 353.195 205.786 353.195 206.486C353.195 206.663 353.191 206.799 353.181 206.892C353.181 206.976 353.181 207.032 353.181 207.06H347.777C347.861 207.564 348.099 207.979 348.491 208.306C348.883 208.633 349.317 208.796 349.793 208.796C350.185 208.796 350.507 208.74 350.759 208.628C351.021 208.507 351.189 208.404 351.263 208.32C351.347 208.227 351.445 208.11 351.557 207.97L352.915 208.544C352.691 209.001 352.313 209.389 351.781 209.706C351.249 210.023 350.582 210.182 349.779 210.182C349.089 210.182 348.473 210.028 347.931 209.72C347.39 209.403 346.965 208.964 346.657 208.404C346.359 207.835 346.209 207.186 346.209 206.458ZM354.815 208.586C355.058 208.353 355.347 208.087 355.683 207.788C356.019 207.489 356.262 207.275 356.411 207.144C357.121 206.519 357.681 206.005 358.091 205.604C358.511 205.203 358.861 204.792 359.141 204.372C359.421 203.952 359.561 203.546 359.561 203.154C359.561 202.603 359.403 202.155 359.085 201.81C358.777 201.465 358.381 201.292 357.895 201.292C357.513 201.292 357.144 201.418 356.789 201.67C356.444 201.913 356.183 202.23 356.005 202.622L354.549 201.964C354.848 201.311 355.31 200.779 355.935 200.368C356.561 199.948 357.214 199.738 357.895 199.738C358.549 199.738 359.127 199.883 359.631 200.172C360.135 200.461 360.527 200.867 360.807 201.39C361.097 201.903 361.241 202.491 361.241 203.154C361.241 203.817 361.05 204.461 360.667 205.086C360.294 205.702 359.846 206.257 359.323 206.752C358.801 207.247 358.105 207.858 357.237 208.586H361.395V210.056H354.955L354.815 208.586Z"/><rect width="61" height="35" x="312.5" y="187.5" stroke="#FF8300" rx="17.5"/><rect width="85" height="35" x="171.5" y="253.5" fill="#fff" rx="17.5"/><path fill="#222" d="M195.813 267.194H192.803V276.154H191.123V267.194H188.085V265.738H195.813V267.194ZM198.961 268.79V276.154H197.281V268.79H198.961ZM197.211 266.438C197.211 266.167 197.295 265.948 197.463 265.78C197.64 265.612 197.86 265.528 198.121 265.528C198.392 265.528 198.611 265.617 198.779 265.794C198.956 265.962 199.045 266.177 199.045 266.438C199.045 266.709 198.956 266.933 198.779 267.11C198.611 267.278 198.392 267.362 198.121 267.362C197.85 267.362 197.631 267.278 197.463 267.11C197.295 266.933 197.211 266.709 197.211 266.438ZM203.983 276.182C203.535 276.182 203.134 276.084 202.779 275.888C202.434 275.683 202.159 275.398 201.953 275.034C201.748 274.67 201.645 274.259 201.645 273.802V270.26H200.343V268.818H201.645V266.732H203.325V268.818H205.187V270.26H203.325V273.732C203.325 273.965 203.386 274.166 203.507 274.334C203.638 274.502 203.797 274.586 203.983 274.586C204.179 274.595 204.436 274.553 204.753 274.46L205.131 276.042C204.739 276.135 204.357 276.182 203.983 276.182ZM208.035 265.738V276.154H206.355V265.738H208.035ZM214.655 271.828C214.581 271.352 214.389 270.946 214.081 270.61C213.773 270.265 213.344 270.092 212.793 270.092C212.28 270.092 211.837 270.26 211.463 270.596C211.09 270.932 210.861 271.343 210.777 271.828H214.655ZM209.209 272.458C209.209 271.73 209.359 271.086 209.657 270.526C209.965 269.957 210.39 269.513 210.931 269.196C211.473 268.879 212.089 268.72 212.779 268.72C213.75 268.72 214.464 268.958 214.921 269.434C215.388 269.901 215.705 270.33 215.873 270.722C216.088 271.198 216.195 271.786 216.195 272.486C216.195 272.663 216.191 272.799 216.181 272.892C216.181 272.976 216.181 273.032 216.181 273.06H210.777C210.861 273.564 211.099 273.979 211.491 274.306C211.883 274.633 212.317 274.796 212.793 274.796C213.185 274.796 213.507 274.74 213.759 274.628C214.021 274.507 214.189 274.404 214.263 274.32C214.347 274.227 214.445 274.11 214.557 273.97L215.915 274.544C215.691 275.001 215.313 275.389 214.781 275.706C214.249 276.023 213.582 276.182 212.779 276.182C212.089 276.182 211.473 276.028 210.931 275.72C210.39 275.403 209.965 274.964 209.657 274.404C209.359 273.835 209.209 273.186 209.209 272.458ZM217.815 274.586C218.058 274.353 218.347 274.087 218.683 273.788C219.019 273.489 219.262 273.275 219.411 273.144C220.121 272.519 220.681 272.005 221.091 271.604C221.511 271.203 221.861 270.792 222.141 270.372C222.421 269.952 222.561 269.546 222.561 269.154C222.561 268.603 222.403 268.155 222.085 267.81C221.777 267.465 221.381 267.292 220.895 267.292C220.513 267.292 220.144 267.418 219.789 267.67C219.444 267.913 219.183 268.23 219.005 268.622L217.549 267.964C217.848 267.311 218.31 266.779 218.935 266.368C219.561 265.948 220.214 265.738 220.895 265.738C221.549 265.738 222.127 265.883 222.631 266.172C223.135 266.461 223.527 266.867 223.807 267.39C224.097 267.903 224.241 268.491 224.241 269.154C224.241 269.817 224.05 270.461 223.667 271.086C223.294 271.702 222.846 272.257 222.323 272.752C221.801 273.247 221.105 273.858 220.237 274.586H224.395V276.056H217.955L217.815 274.586Z"/><path stroke="#A8A8A8" stroke-linecap="round" stroke-linejoin="round" stroke-width="1.5" d="M240.133 267.867L233.867 274.133"/><path stroke="#A8A8A8" stroke-linecap="round" stroke-linejoin="round" stroke-width="1.5" d="M233.867 267.867L240.133 274.133"/><rect width="85" height="35" x="171.5" y="253.5" stroke="#EFEFEF" rx="17.5"/><rect width="86" height="36" x="312" y="253" fill="#FF8300" rx="18"/><path fill="#fff" d="M336.813 267.194H333.803V276.154H332.123V267.194H329.085V265.738H336.813V267.194ZM339.961 268.79V276.154H338.281V268.79H339.961ZM338.211 266.438C338.211 266.167 338.295 265.948 338.463 265.78C338.64 265.612 338.86 265.528 339.121 265.528C339.392 265.528 339.611 265.617 339.779 265.794C339.956 265.962 340.045 266.177 340.045 266.438C340.045 266.709 339.956 266.933 339.779 267.11C339.611 267.278 339.392 267.362 339.121 267.362C338.85 267.362 338.631 267.278 338.463 267.11C338.295 266.933 338.211 266.709 338.211 266.438ZM344.983 276.182C344.535 276.182 344.134 276.084 343.779 275.888C343.434 275.683 343.159 275.398 342.953 275.034C342.748 274.67 342.645 274.259 342.645 273.802V270.26H341.343V268.818H342.645V266.732H344.325V268.818H346.187V270.26H344.325V273.732C344.325 273.965 344.386 274.166 344.507 274.334C344.638 274.502 344.797 274.586 344.983 274.586C345.179 274.595 345.436 274.553 345.753 274.46L346.131 276.042C345.739 276.135 345.357 276.182 344.983 276.182ZM349.035 265.738V276.154H347.355V265.738H349.035ZM355.655 271.828C355.581 271.352 355.389 270.946 355.081 270.61C354.773 270.265 354.344 270.092 353.793 270.092C353.28 270.092 352.837 270.26 352.463 270.596C352.09 270.932 351.861 271.343 351.777 271.828H355.655ZM350.209 272.458C350.209 271.73 350.359 271.086 350.657 270.526C350.965 269.957 351.39 269.513 351.931 269.196C352.473 268.879 353.089 268.72 353.779 268.72C354.75 268.72 355.464 268.958 355.921 269.434C356.388 269.901 356.705 270.33 356.873 270.722C357.088 271.198 357.195 271.786 357.195 272.486C357.195 272.663 357.191 272.799 357.181 272.892C357.181 272.976 357.181 273.032 357.181 273.06H351.777C351.861 273.564 352.099 273.979 352.491 274.306C352.883 274.633 353.317 274.796 353.793 274.796C354.185 274.796 354.507 274.74 354.759 274.628C355.021 274.507 355.189 274.404 355.263 274.32C355.347 274.227 355.445 274.11 355.557 273.97L356.915 274.544C356.691 275.001 356.313 275.389 355.781 275.706C355.249 276.023 354.582 276.182 353.779 276.182C353.089 276.182 352.473 276.028 351.931 275.72C351.39 275.403 350.965 274.964 350.657 274.404C350.359 273.835 350.209 273.186 350.209 272.458ZM358.815 274.586C359.058 274.353 359.347 274.087 359.683 273.788C360.019 273.489 360.262 273.275 360.411 273.144C361.121 272.519 361.681 272.005 362.091 271.604C362.511 271.203 362.861 270.792 363.141 270.372C363.421 269.952 363.561 269.546 363.561 269.154C363.561 268.603 363.403 268.155 363.085 267.81C362.777 267.465 362.381 267.292 361.895 267.292C361.513 267.292 361.144 267.418 360.789 267.67C360.444 267.913 360.183 268.23 360.005 268.622L358.549 267.964C358.848 267.311 359.31 266.779 359.935 266.368C360.561 265.948 361.214 265.738 361.895 265.738C362.549 265.738 363.127 265.883 363.631 266.172C364.135 266.461 364.527 266.867 364.807 267.39C365.097 267.903 365.241 268.491 365.241 269.154C365.241 269.817 365.05 270.461 364.667 271.086C364.294 271.702 363.846 272.257 363.323 272.752C362.801 273.247 362.105 273.858 361.237 274.586H365.395V276.056H358.955L358.815 274.586Z"/><path stroke="#fff" stroke-linecap="round" stroke-linejoin="round" stroke-width="1.5" d="M381.133 267.867L374.867 274.133"/><path stroke="#fff" stroke-linecap="round" stroke-linejoin="round" stroke-width="1.5" d="M374.867 267.867L381.133 274.133"/><path fill="#666" d="M175.752 161.24C174.973 161.24 174.275 161.059 173.656 160.696C173.048 160.333 172.573 159.827 172.232 159.176C171.891 158.525 171.72 157.784 171.72 156.952C171.72 156.12 171.891 155.379 172.232 154.728C172.573 154.077 173.048 153.571 173.656 153.208C174.275 152.845 174.973 152.664 175.752 152.664C176.147 152.664 176.584 152.771 177.064 152.984C177.555 153.187 177.965 153.533 178.296 154.024V149.272H180.216V161.176H178.296V159.896C177.965 160.365 177.549 160.707 177.048 160.92C176.557 161.133 176.125 161.24 175.752 161.24ZM173.64 157C173.64 157.821 173.848 158.477 174.264 158.968C174.68 159.459 175.229 159.704 175.912 159.704C176.339 159.704 176.733 159.587 177.096 159.352C177.459 159.107 177.747 158.776 177.96 158.36C178.184 157.944 178.296 157.491 178.296 157C178.296 156.509 178.184 156.056 177.96 155.64C177.747 155.213 177.459 154.877 177.096 154.632C176.733 154.387 176.339 154.264 175.912 154.264C175.229 154.264 174.68 154.515 174.264 155.016C173.848 155.517 173.64 156.179 173.64 157ZM187.818 156.232C187.732 155.688 187.514 155.224 187.161 154.84C186.81 154.445 186.319 154.248 185.69 154.248C185.103 154.248 184.596 154.44 184.17 154.824C183.743 155.208 183.481 155.677 183.385 156.232H187.818ZM181.593 156.952C181.593 156.12 181.764 155.384 182.105 154.744C182.457 154.093 182.943 153.587 183.562 153.224C184.18 152.861 184.884 152.68 185.674 152.68C186.783 152.68 187.599 152.952 188.122 153.496C188.655 154.029 189.018 154.52 189.21 154.968C189.455 155.512 189.578 156.184 189.578 156.984C189.578 157.187 189.572 157.341 189.562 157.448C189.562 157.544 189.562 157.608 189.562 157.64H183.385C183.481 158.216 183.753 158.691 184.201 159.064C184.649 159.437 185.146 159.624 185.69 159.624C186.138 159.624 186.506 159.56 186.793 159.432C187.092 159.293 187.284 159.176 187.37 159.08C187.466 158.973 187.578 158.84 187.706 158.68L189.258 159.336C189.002 159.859 188.569 160.301 187.962 160.664C187.354 161.027 186.591 161.208 185.674 161.208C184.884 161.208 184.18 161.032 183.562 160.68C182.943 160.317 182.457 159.816 182.105 159.176C181.764 158.525 181.593 157.784 181.593 156.952ZM191.84 161.176V154.472H190.304V152.808H191.84V151.976C191.84 151.421 191.963 150.92 192.208 150.472C192.464 150.024 192.811 149.672 193.248 149.416C193.696 149.149 194.198 149.016 194.752 149.016C195.083 149.016 195.424 149.069 195.776 149.176C196.128 149.283 196.406 149.421 196.608 149.592L195.68 150.984C195.424 150.781 195.163 150.68 194.896 150.68C194.8 150.68 194.731 150.685 194.688 150.696C194.411 150.728 194.187 150.861 194.016 151.096C193.846 151.331 193.76 151.624 193.76 151.976V152.808H196.208V154.472H193.76V161.176H191.84ZM201.017 159.672C201.433 159.672 201.817 159.555 202.169 159.32C202.531 159.085 202.819 158.76 203.033 158.344C203.257 157.928 203.369 157.469 203.369 156.968C203.369 156.467 203.257 156.013 203.033 155.608C202.819 155.192 202.531 154.867 202.169 154.632C201.817 154.397 201.433 154.28 201.017 154.28C200.345 154.28 199.801 154.525 199.385 155.016C198.969 155.507 198.761 156.157 198.761 156.968C198.761 157.779 198.969 158.435 199.385 158.936C199.801 159.427 200.345 159.672 201.017 159.672ZM196.841 156.968C196.841 156.147 197.011 155.416 197.353 154.776C197.694 154.125 198.169 153.619 198.777 153.256C199.385 152.893 200.078 152.712 200.857 152.712C201.326 152.712 201.779 152.824 202.217 153.048C202.654 153.272 203.038 153.603 203.369 154.04V152.68H205.289V161.176H203.369V159.912C203.049 160.349 202.665 160.68 202.217 160.904C201.779 161.128 201.326 161.24 200.857 161.24C200.078 161.24 199.385 161.059 198.777 160.696C198.169 160.333 197.694 159.832 197.353 159.192C197.011 158.541 196.841 157.8 196.841 156.968ZM208.907 157.384C208.907 158.056 209.088 158.595 209.451 159C209.814 159.395 210.288 159.592 210.875 159.592C211.494 159.581 211.99 159.363 212.363 158.936C212.747 158.509 212.934 157.96 212.923 157.288V152.68H214.843V161.176H212.923V159.784C212.688 160.189 212.352 160.52 211.915 160.776C211.478 161.032 211.019 161.16 210.539 161.16C209.856 161.16 209.243 161.005 208.699 160.696C208.166 160.387 207.744 159.949 207.435 159.384C207.136 158.819 206.987 158.168 206.987 157.432V152.68H208.907V157.384ZM218.449 149.272V161.176H216.529V149.272H218.449ZM223.428 161.208C222.916 161.208 222.457 161.096 222.052 160.872C221.657 160.637 221.342 160.312 221.108 159.896C220.873 159.48 220.756 159.011 220.756 158.488V154.44H219.268V152.792H220.756V150.408H222.676V152.792H224.804V154.44H222.676V158.408C222.676 158.675 222.745 158.904 222.884 159.096C223.033 159.288 223.214 159.384 223.428 159.384C223.652 159.395 223.945 159.347 224.308 159.24L224.74 161.048C224.292 161.155 223.854 161.208 223.428 161.208Z"/><path fill="#666" d="M319.064 158.696C319.299 159.016 319.587 159.267 319.928 159.448C320.28 159.619 320.616 159.709 320.936 159.72C321.352 159.72 321.693 159.624 321.96 159.432C322.237 159.24 322.381 158.984 322.392 158.664C322.392 158.451 322.269 158.28 322.024 158.152C321.779 158.013 321.395 157.859 320.872 157.688C320.296 157.496 319.816 157.309 319.432 157.128C319.059 156.947 318.733 156.691 318.456 156.36C318.179 156.029 318.04 155.619 318.04 155.128C318.04 154.637 318.168 154.2 318.424 153.816C318.691 153.432 319.059 153.139 319.528 152.936C319.997 152.723 320.531 152.616 321.128 152.616C321.64 152.616 322.163 152.739 322.696 152.984C323.229 153.229 323.656 153.56 323.976 153.976L322.696 155.048C322.493 154.781 322.243 154.573 321.944 154.424C321.656 154.275 321.379 154.2 321.112 154.2C320.771 154.2 320.493 154.28 320.28 154.44C320.067 154.6 319.96 154.808 319.96 155.064C319.96 155.288 320.083 155.469 320.328 155.608C320.573 155.747 320.968 155.907 321.512 156.088C322.088 156.28 322.563 156.467 322.936 156.648C323.309 156.819 323.629 157.069 323.896 157.4C324.173 157.72 324.312 158.131 324.312 158.632C324.312 159.144 324.173 159.603 323.896 160.008C323.619 160.413 323.229 160.728 322.728 160.952C322.227 161.176 321.656 161.288 321.016 161.288C320.44 161.288 319.848 161.149 319.24 160.872C318.643 160.595 318.152 160.221 317.768 159.752L319.064 158.696ZM331.802 156.232C331.717 155.688 331.498 155.224 331.146 154.84C330.794 154.445 330.303 154.248 329.674 154.248C329.087 154.248 328.581 154.44 328.154 154.824C327.727 155.208 327.466 155.677 327.37 156.232H331.802ZM325.578 156.952C325.578 156.12 325.749 155.384 326.09 154.744C326.442 154.093 326.927 153.587 327.546 153.224C328.165 152.861 328.869 152.68 329.658 152.68C330.767 152.68 331.583 152.952 332.106 153.496C332.639 154.029 333.002 154.52 333.194 154.968C333.439 155.512 333.562 156.184 333.562 156.984C333.562 157.187 333.557 157.341 333.546 157.448C333.546 157.544 333.546 157.608 333.546 157.64H327.37C327.466 158.216 327.738 158.691 328.186 159.064C328.634 159.437 329.13 159.624 329.674 159.624C330.122 159.624 330.49 159.56 330.778 159.432C331.077 159.293 331.269 159.176 331.354 159.08C331.45 158.973 331.562 158.84 331.69 158.68L333.242 159.336C332.986 159.859 332.554 160.301 331.946 160.664C331.338 161.027 330.575 161.208 329.658 161.208C328.869 161.208 328.165 161.032 327.546 160.68C326.927 160.317 326.442 159.816 326.09 159.176C325.749 158.525 325.578 157.784 325.578 156.952ZM336.813 149.272V161.176H334.893V149.272H336.813ZM344.283 156.232C344.198 155.688 343.979 155.224 343.627 154.84C343.275 154.445 342.785 154.248 342.155 154.248C341.569 154.248 341.062 154.44 340.635 154.824C340.209 155.208 339.947 155.677 339.851 156.232H344.283ZM338.059 156.952C338.059 156.12 338.23 155.384 338.571 154.744C338.923 154.093 339.409 153.587 340.027 153.224C340.646 152.861 341.35 152.68 342.139 152.68C343.249 152.68 344.065 152.952 344.587 153.496C345.121 154.029 345.483 154.52 345.675 154.968C345.921 155.512 346.043 156.184 346.043 156.984C346.043 157.187 346.038 157.341 346.027 157.448C346.027 157.544 346.027 157.608 346.027 157.64H339.851C339.947 158.216 340.219 158.691 340.667 159.064C341.115 159.437 341.611 159.624 342.155 159.624C342.603 159.624 342.971 159.56 343.259 159.432C343.558 159.293 343.75 159.176 343.835 159.08C343.931 158.973 344.043 158.84 344.171 158.68L345.723 159.336C345.467 159.859 345.035 160.301 344.427 160.664C343.819 161.027 343.057 161.208 342.139 161.208C341.35 161.208 340.646 161.032 340.027 160.68C339.409 160.317 338.923 159.816 338.571 159.176C338.23 158.525 338.059 157.784 338.059 156.952ZM351.212 159.432C351.51 159.432 351.825 159.357 352.156 159.208C352.497 159.048 352.79 158.845 353.036 158.6L354.316 159.928C353.942 160.312 353.473 160.627 352.908 160.872C352.342 161.107 351.798 161.224 351.276 161.224C350.444 161.224 349.702 161.043 349.052 160.68C348.401 160.317 347.889 159.811 347.516 159.16C347.153 158.509 346.972 157.773 346.972 156.952C346.972 156.12 347.153 155.384 347.516 154.744C347.878 154.093 348.385 153.587 349.036 153.224C349.697 152.861 350.444 152.68 351.276 152.68C351.83 152.68 352.38 152.797 352.924 153.032C353.468 153.267 353.932 153.581 354.316 153.976L353.036 155.288C352.79 155.043 352.502 154.845 352.172 154.696C351.841 154.547 351.521 154.472 351.212 154.472C350.518 154.472 349.958 154.701 349.532 155.16C349.105 155.608 348.892 156.205 348.892 156.952C348.892 157.699 349.105 158.301 349.532 158.76C349.958 159.208 350.518 159.432 351.212 159.432ZM359.038 161.208C358.526 161.208 358.068 161.096 357.662 160.872C357.268 160.637 356.953 160.312 356.718 159.896C356.484 159.48 356.366 159.011 356.366 158.488V154.44H354.878V152.792H356.366V150.408H358.286V152.792H360.414V154.44H358.286V158.408C358.286 158.675 358.356 158.904 358.494 159.096C358.644 159.288 358.825 159.384 359.038 159.384C359.262 159.395 359.556 159.347 359.918 159.24L360.35 161.048C359.902 161.155 359.465 161.208 359.038 161.208ZM367.685 156.232C367.6 155.688 367.381 155.224 367.029 154.84C366.677 154.445 366.186 154.248 365.557 154.248C364.97 154.248 364.464 154.44 364.037 154.824C363.61 155.208 363.349 155.677 363.253 156.232H367.685ZM361.461 156.952C361.461 156.12 361.632 155.384 361.973 154.744C362.325 154.093 362.81 153.587 363.429 153.224C364.048 152.861 364.752 152.68 365.541 152.68C366.65 152.68 367.466 152.952 367.989 153.496C368.522 154.029 368.885 154.52 369.077 154.968C369.322 155.512 369.445 156.184 369.445 156.984C369.445 157.187 369.44 157.341 369.429 157.448C369.429 157.544 369.429 157.608 369.429 157.64H363.253C363.349 158.216 363.621 158.691 364.069 159.064C364.517 159.437 365.013 159.624 365.557 159.624C366.005 159.624 366.373 159.56 366.661 159.432C366.96 159.293 367.152 159.176 367.237 159.08C367.333 158.973 367.445 158.84 367.573 158.68L369.125 159.336C368.869 159.859 368.437 160.301 367.829 160.664C367.221 161.027 366.458 161.208 365.541 161.208C364.752 161.208 364.048 161.032 363.429 160.68C362.81 160.317 362.325 159.816 361.973 159.176C361.632 158.525 361.461 157.784 361.461 156.952ZM374.741 161.24C373.963 161.24 373.264 161.059 372.645 160.696C372.037 160.333 371.563 159.827 371.221 159.176C370.88 158.525 370.709 157.784 370.709 156.952C370.709 156.12 370.88 155.379 371.221 154.728C371.563 154.077 372.037 153.571 372.645 153.208C373.264 152.845 373.963 152.664 374.741 152.664C375.136 152.664 375.573 152.771 376.053 152.984C376.544 153.187 376.955 153.533 377.285 154.024V149.272H379.205V161.176H377.285V159.896C376.955 160.365 376.539 160.707 376.037 160.92C375.547 161.133 375.115 161.24 374.741 161.24ZM372.629 157C372.629 157.821 372.837 158.477 373.253 158.968C373.669 159.459 374.219 159.704 374.901 159.704C375.328 159.704 375.723 159.587 376.085 159.352C376.448 159.107 376.736 158.776 376.949 158.36C377.173 157.944 377.285 157.491 377.285 157C377.285 156.509 377.173 156.056 376.949 155.64C376.736 155.213 376.448 154.877 376.085 154.632C375.723 154.387 375.328 154.264 374.901 154.264C374.219 154.264 373.669 154.515 373.253 155.016C372.837 155.517 372.629 156.179 372.629 157Z"/><path fill="#666" d="M57.96 210.624C58.7707 210.624 59.48 210.443 60.088 210.08C60.696 209.717 61.1653 209.205 61.496 208.544C61.8267 207.872 61.992 207.099 61.992 206.224C61.992 205.349 61.8267 204.581 61.496 203.92C61.1653 203.248 60.696 202.731 60.088 202.368C59.48 202.005 58.7707 201.824 57.96 201.824C57.16 201.824 56.456 202.005 55.848 202.368C55.24 202.731 54.7653 203.248 54.424 203.92C54.0933 204.581 53.928 205.349 53.928 206.224C53.928 207.099 54.0933 207.872 54.424 208.544C54.7653 209.205 55.24 209.717 55.848 210.08C56.456 210.443 57.16 210.624 57.96 210.624ZM52.008 206.224C52.008 205.051 52.2587 204.005 52.76 203.088C53.272 202.16 53.976 201.44 54.872 200.928C55.7787 200.405 56.808 200.144 57.96 200.144C59.112 200.144 60.1413 200.405 61.048 200.928C61.9547 201.44 62.6587 202.16 63.16 203.088C63.672 204.005 63.928 205.051 63.928 206.224C63.928 207.397 63.672 208.448 63.16 209.376C62.6587 210.293 61.9547 211.013 61.048 211.536C60.1413 212.048 59.112 212.304 57.96 212.304C56.808 212.304 55.7787 212.048 54.872 211.536C53.976 211.013 53.272 210.293 52.76 209.376C52.2587 208.448 52.008 207.397 52.008 206.224ZM67.521 208.384C67.521 209.056 67.7023 209.595 68.065 210C68.4277 210.395 68.9023 210.592 69.489 210.592C70.1077 210.581 70.6037 210.363 70.977 209.936C71.361 209.509 71.5477 208.96 71.537 208.288V203.68H73.457V212.176H71.537V210.784C71.3023 211.189 70.9663 211.52 70.529 211.776C70.0917 212.032 69.633 212.16 69.153 212.16C68.4703 212.16 67.857 212.005 67.313 211.696C66.7797 211.387 66.3583 210.949 66.049 210.384C65.7503 209.819 65.601 209.168 65.601 208.432V203.68H67.521V208.384ZM78.8866 212.208C78.3746 212.208 77.916 212.096 77.5106 211.872C77.116 211.637 76.8013 211.312 76.5666 210.896C76.332 210.48 76.2146 210.011 76.2146 209.488V205.44H74.7266V203.792H76.2146V201.408H78.1346V203.792H80.2626V205.44H78.1346V209.408C78.1346 209.675 78.204 209.904 78.3426 210.096C78.492 210.288 78.6733 210.384 78.8866 210.384C79.1106 210.395 79.404 210.347 79.7666 210.24L80.1986 212.048C79.7506 212.155 79.3133 212.208 78.8866 212.208ZM83.4205 200.272V212.176H81.5005V200.272H83.4205ZM87.3476 203.76V212.176H85.4276V203.76H87.3476ZM85.3476 201.072C85.3476 200.763 85.4436 200.512 85.6356 200.32C85.8383 200.128 86.089 200.032 86.3876 200.032C86.697 200.032 86.9476 200.133 87.1396 200.336C87.3423 200.528 87.4436 200.773 87.4436 201.072C87.4436 201.381 87.3423 201.637 87.1396 201.84C86.9476 202.032 86.697 202.128 86.3876 202.128C86.0783 202.128 85.8276 202.032 85.6356 201.84C85.4436 201.637 85.3476 201.381 85.3476 201.072ZM95.3275 207.6C95.3275 206.875 95.1568 206.309 94.8155 205.904C94.4742 205.499 93.9888 205.296 93.3595 205.296C92.9755 205.296 92.6235 205.392 92.3035 205.584C91.9942 205.776 91.7488 206.048 91.5675 206.4C91.3862 206.752 91.3008 207.152 91.3115 207.6V212.176H89.3915V203.68H91.3115V205.104C91.5568 204.699 91.8982 204.368 92.3355 204.112C92.7835 203.856 93.2368 203.728 93.6955 203.728C94.2502 203.728 94.7942 203.851 95.3275 204.096C95.8715 204.341 96.3248 204.752 96.6875 205.328C97.0608 205.904 97.2475 206.645 97.2475 207.552V212.176H95.3275V207.6ZM104.841 207.232C104.756 206.688 104.537 206.224 104.185 205.84C103.833 205.445 103.343 205.248 102.713 205.248C102.127 205.248 101.62 205.44 101.193 205.824C100.767 206.208 100.505 206.677 100.409 207.232H104.841ZM98.6173 207.952C98.6173 207.12 98.7879 206.384 99.1293 205.744C99.4813 205.093 99.9666 204.587 100.585 204.224C101.204 203.861 101.908 203.68 102.697 203.68C103.807 203.68 104.623 203.952 105.145 204.496C105.679 205.029 106.041 205.52 106.233 205.968C106.479 206.512 106.601 207.184 106.601 207.984C106.601 208.187 106.596 208.341 106.585 208.448C106.585 208.544 106.585 208.608 106.585 208.64H100.409C100.505 209.216 100.777 209.691 101.225 210.064C101.673 210.437 102.169 210.624 102.713 210.624C103.161 210.624 103.529 210.56 103.817 210.432C104.116 210.293 104.308 210.176 104.393 210.08C104.489 209.973 104.601 209.84 104.729 209.68L106.281 210.336C106.025 210.859 105.593 211.301 104.985 211.664C104.377 212.027 103.615 212.208 102.697 212.208C101.908 212.208 101.204 212.032 100.585 211.68C99.9666 211.317 99.4813 210.816 99.1293 210.176C98.7879 209.525 98.6173 208.784 98.6173 207.952ZM111.898 212.24C111.119 212.24 110.42 212.059 109.802 211.696C109.194 211.333 108.719 210.827 108.378 210.176C108.036 209.525 107.866 208.784 107.866 207.952C107.866 207.12 108.036 206.379 108.378 205.728C108.719 205.077 109.194 204.571 109.802 204.208C110.42 203.845 111.119 203.664 111.898 203.664C112.292 203.664 112.73 203.771 113.21 203.984C113.7 204.187 114.111 204.533 114.442 205.024V200.272H116.362V212.176H114.442V210.896C114.111 211.365 113.695 211.707 113.194 211.92C112.703 212.133 112.271 212.24 111.898 212.24ZM109.786 208C109.786 208.821 109.994 209.477 110.41 209.968C110.826 210.459 111.375 210.704 112.058 210.704C112.484 210.704 112.879 210.587 113.242 210.352C113.604 210.107 113.892 209.776 114.106 209.36C114.33 208.944 114.442 208.491 114.442 208C114.442 207.509 114.33 207.056 114.106 206.64C113.892 206.213 113.604 205.877 113.242 205.632C112.879 205.387 112.484 205.264 112.058 205.264C111.375 205.264 110.826 205.515 110.41 206.016C109.994 206.517 109.786 207.179 109.786 208Z"/><path fill="#666" d="M60.392 263.936H54.008V267.376H59.384V269.024H54.008V274.176H52.088V262.272H60.392V263.936ZM63.8834 265.76V274.176H61.9634V265.76H63.8834ZM61.8834 263.072C61.8834 262.763 61.9794 262.512 62.1714 262.32C62.374 262.128 62.6247 262.032 62.9234 262.032C63.2327 262.032 63.4834 262.133 63.6754 262.336C63.878 262.528 63.9794 262.773 63.9794 263.072C63.9794 263.381 63.878 263.637 63.6754 263.84C63.4834 264.032 63.2327 264.128 62.9234 264.128C62.614 264.128 62.3634 264.032 62.1714 263.84C61.9794 263.637 61.8834 263.381 61.8834 263.072ZM67.7032 262.272V274.176H65.7832V262.272H67.7032ZM71.3424 262.272V274.176H69.4224V262.272H71.3424ZM78.813 269.232C78.7277 268.688 78.509 268.224 78.157 267.84C77.805 267.445 77.3143 267.248 76.685 267.248C76.0983 267.248 75.5917 267.44 75.165 267.824C74.7383 268.208 74.477 268.677 74.381 269.232H78.813ZM72.589 269.952C72.589 269.12 72.7597 268.384 73.101 267.744C73.453 267.093 73.9383 266.587 74.557 266.224C75.1757 265.861 75.8797 265.68 76.669 265.68C77.7783 265.68 78.5943 265.952 79.117 266.496C79.6503 267.029 80.013 267.52 80.205 267.968C80.4503 268.512 80.573 269.184 80.573 269.984C80.573 270.187 80.5677 270.341 80.557 270.448C80.557 270.544 80.557 270.608 80.557 270.64H74.381C74.477 271.216 74.749 271.691 75.197 272.064C75.645 272.437 76.141 272.624 76.685 272.624C77.133 272.624 77.501 272.56 77.789 272.432C78.0877 272.293 78.2797 272.176 78.365 272.08C78.461 271.973 78.573 271.84 78.701 271.68L80.253 272.336C79.997 272.859 79.565 273.301 78.957 273.664C78.349 274.027 77.5863 274.208 76.669 274.208C75.8797 274.208 75.1757 274.032 74.557 273.68C73.9383 273.317 73.453 272.816 73.101 272.176C72.7597 271.525 72.589 270.784 72.589 269.952ZM85.8695 274.24C85.0908 274.24 84.3922 274.059 83.7735 273.696C83.1655 273.333 82.6908 272.827 82.3495 272.176C82.0082 271.525 81.8375 270.784 81.8375 269.952C81.8375 269.12 82.0082 268.379 82.3495 267.728C82.6908 267.077 83.1655 266.571 83.7735 266.208C84.3922 265.845 85.0908 265.664 85.8695 265.664C86.2642 265.664 86.7015 265.771 87.1815 265.984C87.6722 266.187 88.0828 266.533 88.4135 267.024V262.272H90.3335V274.176H88.4135V272.896C88.0828 273.365 87.6668 273.707 87.1655 273.92C86.6748 274.133 86.2428 274.24 85.8695 274.24ZM83.7575 270C83.7575 270.821 83.9655 271.477 84.3815 271.968C84.7975 272.459 85.3468 272.704 86.0295 272.704C86.4562 272.704 86.8508 272.587 87.2135 272.352C87.5762 272.107 87.8642 271.776 88.0775 271.36C88.3015 270.944 88.4135 270.491 88.4135 270C88.4135 269.509 88.3015 269.056 88.0775 268.64C87.8642 268.213 87.5762 267.877 87.2135 267.632C86.8508 267.387 86.4562 267.264 86.0295 267.264C85.3468 267.264 84.7975 267.515 84.3815 268.016C83.9655 268.517 83.7575 269.179 83.7575 270Z"/></svg>